<?xml version="1.0" encoding="UTF-8" standalone="no"?>
<!DOCTYPE svg PUBLIC "-//W3C//DTD SVG 1.1//EN" "http://www.w3.org/Graphics/SVG/1.1/DTD/svg11.dtd">
<!-- Created with Vectornator (http://vectornator.io/) -->
<svg height="100%" stroke-miterlimit="10" style="fill-rule:nonzero;clip-rule:evenodd;stroke-linecap:round;stroke-linejoin:round;" version="1.1" viewBox="0 0 112 12" width="100%" xml:space="preserve" xmlns="http://www.w3.org/2000/svg" xmlns:vectornator="http://vectornator.io" xmlns:xlink="http://www.w3.org/1999/xlink">
<defs/>
<g id="Layer-1" vectornator:layerName="Layer 1">
<g opacity="1">
<path d="M5.04566 6.75914L5.04566 7.58335L5.85425 7.58335C6.04696 7.58335 6.18433 7.62046 6.26636 7.69468C6.34839 7.7689 6.38941 7.86591 6.38941 7.9857C6.38941 8.10289 6.34839 8.19859 6.26636 8.27281C6.18433 8.34703 6.04696 8.38414 5.85425 8.38414L4.11988 8.38414C3.92717 8.38414 3.7898 8.34703 3.70777 8.27281C3.62574 8.19859 3.58472 8.10158 3.58472 7.98179C3.58472 7.8646 3.62639 7.7689 3.70972 7.69468C3.79305 7.62046 3.92977 7.58335 4.11988 7.58335L4.24488 7.58335L4.24488 4.45054L4.11988 4.45054C3.92717 4.45054 3.7898 4.41343 3.70777 4.33921C3.62574 4.265 3.58472 4.16799 3.58472 4.0482C3.58472 3.92841 3.62574 3.8314 3.70777 3.75718C3.7898 3.68296 3.92717 3.64585 4.11988 3.64585L5.96363 3.64976C6.50529 3.64976 6.93433 3.79755 7.25074 4.09312C7.56714 4.38869 7.72534 4.74872 7.72534 5.1732C7.72534 5.40757 7.67196 5.62893 7.56519 5.83726C7.48446 5.99351 7.34969 6.14781 7.16089 6.30015C6.97209 6.4525 6.77938 6.56708 6.58277 6.6439C6.38615 6.72072 6.12639 6.75914 5.80347 6.75914L5.04566 6.75914ZM5.04566 5.95835L5.78784 5.95835C6.1368 5.95835 6.4135 5.87958 6.61792 5.72203C6.82235 5.56447 6.92456 5.37502 6.92456 5.15367C6.92456 4.96617 6.84188 4.8021 6.67652 4.66148C6.51115 4.52085 6.27482 4.45054 5.96753 4.45054L5.04566 4.45054L5.04566 5.95835Z" fill="#000000" fill-rule="nonzero" opacity="1" stroke="none"/>
<path d="M9.48706 6.40757L9.48706 7.58335L11.53 7.58335L11.53 7.14976C11.53 6.95705 11.5671 6.81968 11.6414 6.73765C11.7156 6.65562 11.8126 6.6146 11.9324 6.6146C12.0496 6.6146 12.1453 6.65562 12.2195 6.73765C12.2937 6.81968 12.3308 6.95705 12.3308 7.14976L12.3308 8.38414L8.56128 8.38414C8.36857 8.38414 8.2312 8.34703 8.14917 8.27281C8.06714 8.19859 8.02613 8.10158 8.02613 7.98179C8.02613 7.8646 8.06779 7.7689 8.15113 7.69468C8.23446 7.62046 8.37118 7.58335 8.56128 7.58335L8.68628 7.58335L8.68628 4.45054L8.56128 4.45054C8.36857 4.45054 8.2312 4.41343 8.14917 4.33921C8.06714 4.265 8.02613 4.16799 8.02613 4.0482C8.02613 3.92841 8.06714 3.8314 8.14917 3.75718C8.2312 3.68296 8.36857 3.64585 8.56128 3.64585L12.155 3.64976L12.155 4.86851C12.155 5.05862 12.1186 5.19468 12.0457 5.27671C11.9727 5.35875 11.8764 5.39976 11.7566 5.39976C11.6368 5.39976 11.5398 5.3594 11.4656 5.27867C11.3914 5.19794 11.3543 5.06122 11.3543 4.86851L11.3543 4.45054L9.48706 4.45054L9.48706 5.60679L10.1902 5.60679C10.1902 5.39846 10.2097 5.26434 10.2488 5.20445C10.3295 5.07684 10.4441 5.01304 10.5925 5.01304C10.7097 5.01304 10.8054 5.05406 10.8796 5.13609C10.9539 5.21812 10.991 5.35549 10.991 5.5482L10.991 6.47007C10.991 6.64455 10.9701 6.76174 10.9285 6.82164C10.8451 6.94403 10.7332 7.00523 10.5925 7.00523C10.4441 7.00523 10.3295 6.94143 10.2488 6.81382C10.2097 6.75393 10.1902 6.61851 10.1902 6.40757L9.48706 6.40757Z" fill="#000000" fill-rule="nonzero" opacity="1" stroke="none"/>
<path d="M14.6472 6.75914L14.6472 7.58335L15.4558 7.58335C15.6485 7.58335 15.7859 7.62046 15.8679 7.69468C15.95 7.7689 15.991 7.86591 15.991 7.9857C15.991 8.10289 15.95 8.19859 15.8679 8.27281C15.7859 8.34703 15.6485 8.38414 15.4558 8.38414L13.7214 8.38414C13.5287 8.38414 13.3914 8.34703 13.3093 8.27281C13.2273 8.19859 13.1863 8.10158 13.1863 7.98179C13.1863 7.8646 13.2279 7.7689 13.3113 7.69468C13.3946 7.62046 13.5313 7.58335 13.7214 7.58335L13.8464 7.58335L13.8464 4.45054L13.7214 4.45054C13.5287 4.45054 13.3914 4.41343 13.3093 4.33921C13.2273 4.265 13.1863 4.16799 13.1863 4.0482C13.1863 3.92841 13.2273 3.8314 13.3093 3.75718C13.3914 3.68296 13.5287 3.64585 13.7214 3.64585L15.5652 3.64976C16.1069 3.64976 16.5359 3.79755 16.8523 4.09312C17.1687 4.38869 17.3269 4.74872 17.3269 5.1732C17.3269 5.40757 17.2735 5.62893 17.1668 5.83726C17.086 5.99351 16.9513 6.14781 16.7625 6.30015C16.5737 6.4525 16.3809 6.56708 16.1843 6.6439C15.9877 6.72072 15.7279 6.75914 15.405 6.75914L14.6472 6.75914ZM14.6472 5.95835L15.3894 5.95835C15.7384 5.95835 16.0151 5.87958 16.2195 5.72203C16.4239 5.56447 16.5261 5.37502 16.5261 5.15367C16.5261 4.96617 16.4434 4.8021 16.2781 4.66148C16.1127 4.52085 15.8764 4.45054 15.5691 4.45054L14.6472 4.45054L14.6472 5.95835Z" fill="#000000" fill-rule="nonzero" opacity="1" stroke="none"/>
<path d="M18.741 8.18101C18.6707 8.26434 18.614 8.31773 18.571 8.34117C18.5281 8.3646 18.4753 8.37632 18.4128 8.37632C18.2904 8.37632 18.1921 8.33531 18.1179 8.25328C18.0437 8.17125 18.0066 8.03518 18.0066 7.84507L18.0066 7.30601C18.0066 7.1133 18.0437 6.97593 18.1179 6.8939C18.1921 6.81187 18.2904 6.77085 18.4128 6.77085C18.5066 6.77085 18.5854 6.79559 18.6492 6.84507C18.713 6.89455 18.7618 6.97724 18.7957 7.09312C18.8295 7.20901 18.8647 7.28778 18.9011 7.32945C18.9766 7.41018 19.1108 7.49221 19.3035 7.57554C19.4962 7.65888 19.7071 7.70054 19.9363 7.70054C20.2931 7.70054 20.586 7.61721 20.8152 7.45054C20.961 7.34898 21.0339 7.22398 21.0339 7.07554C21.0339 6.97658 20.9988 6.88349 20.9285 6.79625C20.8582 6.70901 20.7436 6.63674 20.5847 6.57945C20.4806 6.54039 20.2475 6.487 19.8855 6.41929C19.448 6.33856 19.1173 6.24091 18.8933 6.12632C18.6694 6.01174 18.4923 5.85028 18.3621 5.64195C18.2319 5.43362 18.1668 5.20835 18.1668 4.96617C18.1668 4.58335 18.3269 4.24807 18.6472 3.96031C18.9675 3.67255 19.3842 3.52867 19.8972 3.52867C20.1029 3.52867 20.2937 3.55145 20.4695 3.59703C20.6453 3.6426 20.8048 3.71226 20.948 3.80601C21.0522 3.70445 21.1563 3.65367 21.2605 3.65367C21.3777 3.65367 21.4734 3.69468 21.5476 3.77671C21.6218 3.85875 21.6589 3.99481 21.6589 4.18492L21.6589 4.78648C21.6589 4.97919 21.6218 5.11656 21.5476 5.19859C21.4734 5.28062 21.3777 5.32164 21.2605 5.32164C21.1615 5.32164 21.0756 5.29169 21.0027 5.23179C20.9454 5.18752 20.9024 5.09898 20.8738 4.96617C20.8451 4.83335 20.8087 4.7383 20.7644 4.68101C20.6889 4.58205 20.5756 4.49872 20.4246 4.43101C20.2735 4.3633 20.099 4.32945 19.9011 4.32945C19.6121 4.32945 19.3835 4.39651 19.2156 4.53062C19.0476 4.66474 18.9636 4.80471 18.9636 4.95054C18.9636 5.0495 18.9981 5.1452 19.0671 5.23765C19.1362 5.3301 19.2371 5.40237 19.3699 5.45445C19.4584 5.49091 19.7078 5.5495 20.1179 5.63023C20.5281 5.71096 20.8432 5.7995 21.0632 5.89585C21.2833 5.99221 21.4662 6.14325 21.6121 6.34898C21.7579 6.55471 21.8308 6.7995 21.8308 7.08335C21.8308 7.47919 21.6915 7.79559 21.4128 8.03257C21.0431 8.34507 20.5717 8.50132 19.9988 8.50132C19.7774 8.50132 19.5619 8.47463 19.3523 8.42125C19.1427 8.36786 18.9389 8.28778 18.741 8.18101Z" fill="#000000" fill-rule="nonzero" opacity="1" stroke="none"/>
<path d="M25.1121 4.45054L25.1121 7.58335L25.9207 7.58335C26.1134 7.58335 26.2507 7.62046 26.3328 7.69468C26.4148 7.7689 26.4558 7.86591 26.4558 7.9857C26.4558 8.10289 26.4148 8.19859 26.3328 8.27281C26.2507 8.34703 26.1134 8.38414 25.9207 8.38414L23.5027 8.38414C23.31 8.38414 23.1726 8.34703 23.0906 8.27281C23.0085 8.19859 22.9675 8.10158 22.9675 7.98179C22.9675 7.8646 23.0085 7.7689 23.0906 7.69468C23.1726 7.62046 23.31 7.58335 23.5027 7.58335L24.3113 7.58335L24.3113 4.45054L23.5027 4.45054C23.31 4.45054 23.1726 4.41343 23.0906 4.33921C23.0085 4.265 22.9675 4.16799 22.9675 4.0482C22.9675 3.92841 23.0085 3.8314 23.0906 3.75718C23.1726 3.68296 23.31 3.64585 23.5027 3.64585L25.9207 3.64976C26.1134 3.64976 26.2507 3.68622 26.3328 3.75914C26.4148 3.83205 26.4558 3.92841 26.4558 4.0482C26.4558 4.16799 26.4148 4.265 26.3328 4.33921C26.2507 4.41343 26.1134 4.45054 25.9207 4.45054L25.1121 4.45054Z" fill="#000000" fill-rule="nonzero" opacity="1" stroke="none"/>
<path d="M34.3152 6.1107L33.573 8.38414L32.6746 8.38414L32.198 4.45054C32.0756 4.43492 31.9832 4.3926 31.9207 4.32359C31.8582 4.25458 31.8269 4.16669 31.8269 4.05992C31.8269 3.93492 31.8679 3.83466 31.95 3.75914C32.032 3.68362 32.1694 3.64585 32.3621 3.64585L33.4285 3.64976C33.6212 3.64976 33.7585 3.68622 33.8406 3.75914C33.9226 3.83205 33.9636 3.92841 33.9636 4.0482C33.9636 4.16799 33.9226 4.265 33.8406 4.33921C33.7585 4.41343 33.6212 4.45054 33.4285 4.45054L33.0105 4.45054L33.2761 6.68882L33.905 4.82554L34.7371 4.82554L35.3621 6.68882L35.6277 4.45054L35.2097 4.45054C35.017 4.45054 34.8796 4.41343 34.7976 4.33921C34.7156 4.265 34.6746 4.16799 34.6746 4.0482C34.6746 3.92841 34.7156 3.8314 34.7976 3.75718C34.8796 3.68296 35.017 3.64585 35.2097 3.64585L36.2722 3.64976C36.4649 3.64976 36.6023 3.68622 36.6843 3.75914C36.7664 3.83205 36.8074 3.92841 36.8074 4.0482C36.8074 4.14976 36.7748 4.237 36.7097 4.30992C36.6446 4.38283 36.5509 4.42971 36.4285 4.45054L35.9675 8.38414L35.0847 8.38414L34.3152 6.1107Z" fill="#000000" fill-rule="nonzero" opacity="1" stroke="none"/>
<path d="M39.991 6.4232L38.28 6.4232L38.28 7.58335L38.405 7.58335C38.5977 7.58335 38.7351 7.62046 38.8171 7.69468C38.8992 7.7689 38.9402 7.86591 38.9402 7.9857C38.9402 8.10289 38.8992 8.19859 38.8171 8.27281C38.7351 8.34703 38.5977 8.38414 38.405 8.38414L37.4246 8.38414C37.2319 8.38414 37.0945 8.34703 37.0125 8.27281C36.9304 8.19859 36.8894 8.10158 36.8894 7.98179C36.8894 7.83596 36.9532 7.72268 37.0808 7.64195C37.1433 7.60028 37.2761 7.58075 37.4793 7.58335L37.4793 4.45054C37.3386 4.43752 37.2325 4.39455 37.1609 4.32164C37.0893 4.24872 37.0535 4.15757 37.0535 4.0482C37.0535 3.92841 37.0945 3.8314 37.1765 3.75718C37.2585 3.68296 37.3959 3.64585 37.5886 3.64585L38.405 3.64976C38.5977 3.64976 38.7351 3.68622 38.8171 3.75914C38.8992 3.83205 38.9402 3.92841 38.9402 4.0482C38.9402 4.16799 38.8992 4.265 38.8171 4.33921C38.7351 4.41343 38.5977 4.45054 38.405 4.45054L38.28 4.45054L38.28 5.62242L39.991 5.62242L39.991 4.45054L39.866 4.45054C39.6733 4.45054 39.5359 4.41343 39.4539 4.33921C39.3718 4.265 39.3308 4.16799 39.3308 4.0482C39.3308 3.92841 39.3718 3.8314 39.4539 3.75718C39.5359 3.68296 39.6733 3.64585 39.866 3.64585L40.6824 3.64976C40.8751 3.64976 41.0125 3.68622 41.0945 3.75914C41.1765 3.83205 41.2175 3.92841 41.2175 4.0482C41.2175 4.15757 41.1817 4.24872 41.1101 4.32164C41.0385 4.39455 40.9324 4.43752 40.7918 4.45054L40.7918 7.58335C40.9975 7.58335 41.1303 7.60289 41.1902 7.64195C41.3178 7.72268 41.3816 7.83726 41.3816 7.9857C41.3816 8.10289 41.3406 8.19859 41.2585 8.27281C41.1765 8.34703 41.0391 8.38414 40.8464 8.38414L39.866 8.38414C39.6733 8.38414 39.5359 8.34703 39.4539 8.27281C39.3718 8.19859 39.3308 8.10158 39.3308 7.98179C39.3308 7.8646 39.3725 7.7689 39.4558 7.69468C39.5391 7.62046 39.6759 7.58335 39.866 7.58335L39.991 7.58335L39.991 6.4232Z" fill="#000000" fill-rule="nonzero" opacity="1" stroke="none"/>
<path d="M43.0925 6.40757L43.0925 7.58335L45.1355 7.58335L45.1355 7.14976C45.1355 6.95705 45.1726 6.81968 45.2468 6.73765C45.321 6.65562 45.4181 6.6146 45.5378 6.6146C45.655 6.6146 45.7507 6.65562 45.825 6.73765C45.8992 6.81968 45.9363 6.95705 45.9363 7.14976L45.9363 8.38414L42.1668 8.38414C41.974 8.38414 41.8367 8.34703 41.7546 8.27281C41.6726 8.19859 41.6316 8.10158 41.6316 7.98179C41.6316 7.8646 41.6733 7.7689 41.7566 7.69468C41.8399 7.62046 41.9766 7.58335 42.1668 7.58335L42.2918 7.58335L42.2918 4.45054L42.1668 4.45054C41.974 4.45054 41.8367 4.41343 41.7546 4.33921C41.6726 4.265 41.6316 4.16799 41.6316 4.0482C41.6316 3.92841 41.6726 3.8314 41.7546 3.75718C41.8367 3.68296 41.974 3.64585 42.1668 3.64585L45.7605 3.64976L45.7605 4.86851C45.7605 5.05862 45.724 5.19468 45.6511 5.27671C45.5782 5.35875 45.4819 5.39976 45.3621 5.39976C45.2423 5.39976 45.1453 5.3594 45.071 5.27867C44.9968 5.19794 44.9597 5.06122 44.9597 4.86851L44.9597 4.45054L43.0925 4.45054L43.0925 5.60679L43.7957 5.60679C43.7957 5.39846 43.8152 5.26434 43.8543 5.20445C43.935 5.07684 44.0496 5.01304 44.198 5.01304C44.3152 5.01304 44.4109 5.05406 44.4851 5.13609C44.5593 5.21812 44.5964 5.35549 44.5964 5.5482L44.5964 6.47007C44.5964 6.64455 44.5756 6.76174 44.5339 6.82164C44.4506 6.94403 44.3386 7.00523 44.198 7.00523C44.0496 7.00523 43.935 6.94143 43.8543 6.81382C43.8152 6.75393 43.7957 6.61851 43.7957 6.40757L43.0925 6.40757Z" fill="#000000" fill-rule="nonzero" opacity="1" stroke="none"/>
<path d="M47.8894 6.57554L47.8894 7.58335L48.1785 7.58335C48.3712 7.58335 48.5085 7.62046 48.5906 7.69468C48.6726 7.7689 48.7136 7.86591 48.7136 7.9857C48.7136 8.10289 48.6726 8.19859 48.5906 8.27281C48.5085 8.34703 48.3712 8.38414 48.1785 8.38414L46.9636 8.38414C46.7709 8.38414 46.6335 8.34703 46.5515 8.27281C46.4695 8.19859 46.4285 8.10158 46.4285 7.98179C46.4285 7.8646 46.4701 7.7689 46.5535 7.69468C46.6368 7.62046 46.7735 7.58335 46.9636 7.58335L47.0886 7.58335L47.0886 4.45054L46.9636 4.45054C46.7709 4.45054 46.6335 4.41343 46.5515 4.33921C46.4695 4.265 46.4285 4.16799 46.4285 4.0482C46.4285 3.92841 46.4695 3.8314 46.5515 3.75718C46.6335 3.68296 46.7709 3.64585 46.9636 3.64585L48.7761 3.64976C49.3412 3.64976 49.7794 3.78974 50.0906 4.06968C50.4018 4.34963 50.5574 4.69013 50.5574 5.09117C50.5574 5.34117 50.4845 5.56838 50.3386 5.77281C50.1928 5.97724 49.9727 6.15888 49.6785 6.31773C49.8477 6.46617 50.0287 6.65627 50.2214 6.88804C50.3412 7.03648 50.5027 7.26825 50.7058 7.58335C50.9089 7.58335 51.0431 7.60419 51.1082 7.64585C51.2253 7.72658 51.2839 7.83987 51.2839 7.9857C51.2839 8.10289 51.2436 8.19859 51.1628 8.27281C51.0821 8.34703 50.9454 8.38414 50.7527 8.38414L50.2957 8.38414C49.6472 7.38153 49.1095 6.77867 48.6824 6.57554L47.8894 6.57554ZM47.8894 5.77476L48.5144 5.77476C48.7462 5.77476 48.9532 5.7396 49.1355 5.66929C49.3803 5.57554 49.545 5.47658 49.6296 5.37242C49.7143 5.26825 49.7566 5.16539 49.7566 5.06382C49.7566 4.91278 49.6759 4.77281 49.5144 4.6439C49.3529 4.515 49.1173 4.45054 48.8074 4.45054L47.8894 4.45054L47.8894 5.77476Z" fill="#000000" fill-rule="nonzero" opacity="1" stroke="none"/>
<path d="M52.6941 6.40757L52.6941 7.58335L54.7371 7.58335L54.7371 7.14976C54.7371 6.95705 54.7742 6.81968 54.8484 6.73765C54.9226 6.65562 55.0196 6.6146 55.1394 6.6146C55.2566 6.6146 55.3523 6.65562 55.4265 6.73765C55.5007 6.81968 55.5378 6.95705 55.5378 7.14976L55.5378 8.38414L51.7683 8.38414C51.5756 8.38414 51.4382 8.34703 51.3562 8.27281C51.2742 8.19859 51.2332 8.10158 51.2332 7.98179C51.2332 7.8646 51.2748 7.7689 51.3582 7.69468C51.4415 7.62046 51.5782 7.58335 51.7683 7.58335L51.8933 7.58335L51.8933 4.45054L51.7683 4.45054C51.5756 4.45054 51.4382 4.41343 51.3562 4.33921C51.2742 4.265 51.2332 4.16799 51.2332 4.0482C51.2332 3.92841 51.2742 3.8314 51.3562 3.75718C51.4382 3.68296 51.5756 3.64585 51.7683 3.64585L55.3621 3.64976L55.3621 4.86851C55.3621 5.05862 55.3256 5.19468 55.2527 5.27671C55.1798 5.35875 55.0834 5.39976 54.9636 5.39976C54.8438 5.39976 54.7468 5.3594 54.6726 5.27867C54.5984 5.19794 54.5613 5.06122 54.5613 4.86851L54.5613 4.45054L52.6941 4.45054L52.6941 5.60679L53.3972 5.60679C53.3972 5.39846 53.4168 5.26434 53.4558 5.20445C53.5365 5.07684 53.6511 5.01304 53.7996 5.01304C53.9168 5.01304 54.0125 5.05406 54.0867 5.13609C54.1609 5.21812 54.198 5.35549 54.198 5.5482L54.198 6.47007C54.198 6.64455 54.1772 6.76174 54.1355 6.82164C54.0522 6.94403 53.9402 7.00523 53.7996 7.00523C53.6511 7.00523 53.5365 6.94143 53.4558 6.81382C53.4168 6.75393 53.3972 6.61851 53.3972 6.40757L52.6941 6.40757Z" fill="#000000" fill-rule="nonzero" opacity="1" stroke="none"/>
<path d="M63.5183 4.45054L63.5183 7.58335L64.3269 7.58335C64.5196 7.58335 64.657 7.62046 64.739 7.69468C64.821 7.7689 64.8621 7.86591 64.8621 7.9857C64.8621 8.10289 64.821 8.19859 64.739 8.27281C64.657 8.34703 64.5196 8.38414 64.3269 8.38414L61.9089 8.38414C61.7162 8.38414 61.5789 8.34703 61.4968 8.27281C61.4148 8.19859 61.3738 8.10158 61.3738 7.98179C61.3738 7.8646 61.4148 7.7689 61.4968 7.69468C61.5789 7.62046 61.7162 7.58335 61.9089 7.58335L62.7175 7.58335L62.7175 4.45054L61.9089 4.45054C61.7162 4.45054 61.5789 4.41343 61.4968 4.33921C61.4148 4.265 61.3738 4.16799 61.3738 4.0482C61.3738 3.92841 61.4148 3.8314 61.4968 3.75718C61.5789 3.68296 61.7162 3.64585 61.9089 3.64585L64.3269 3.64976C64.5196 3.64976 64.657 3.68622 64.739 3.75914C64.821 3.83205 64.8621 3.92841 64.8621 4.0482C64.8621 4.16799 64.821 4.265 64.739 4.33921C64.657 4.41343 64.5196 4.45054 64.3269 4.45054L63.5183 4.45054Z" fill="#000000" fill-rule="nonzero" opacity="1" stroke="none"/>
<path d="M66.7488 8.18101C66.6785 8.26434 66.6218 8.31773 66.5789 8.34117C66.5359 8.3646 66.4832 8.37632 66.4207 8.37632C66.2983 8.37632 66.2 8.33531 66.1257 8.25328C66.0515 8.17125 66.0144 8.03518 66.0144 7.84507L66.0144 7.30601C66.0144 7.1133 66.0515 6.97593 66.1257 6.8939C66.2 6.81187 66.2983 6.77085 66.4207 6.77085C66.5144 6.77085 66.5932 6.79559 66.657 6.84507C66.7208 6.89455 66.7696 6.97724 66.8035 7.09312C66.8373 7.20901 66.8725 7.28778 66.9089 7.32945C66.9845 7.41018 67.1186 7.49221 67.3113 7.57554C67.504 7.65888 67.7149 7.70054 67.9441 7.70054C68.3009 7.70054 68.5938 7.61721 68.823 7.45054C68.9688 7.34898 69.0418 7.22398 69.0418 7.07554C69.0418 6.97658 69.0066 6.88349 68.9363 6.79625C68.866 6.70901 68.7514 6.63674 68.5925 6.57945C68.4884 6.54039 68.2553 6.487 67.8933 6.41929C67.4558 6.33856 67.1251 6.24091 66.9011 6.12632C66.6772 6.01174 66.5001 5.85028 66.3699 5.64195C66.2397 5.43362 66.1746 5.20835 66.1746 4.96617C66.1746 4.58335 66.3347 4.24807 66.655 3.96031C66.9753 3.67255 67.392 3.52867 67.905 3.52867C68.1108 3.52867 68.3015 3.55145 68.4773 3.59703C68.6531 3.6426 68.8126 3.71226 68.9558 3.80601C69.06 3.70445 69.1641 3.65367 69.2683 3.65367C69.3855 3.65367 69.4812 3.69468 69.5554 3.77671C69.6296 3.85875 69.6668 3.99481 69.6668 4.18492L69.6668 4.78648C69.6668 4.97919 69.6296 5.11656 69.5554 5.19859C69.4812 5.28062 69.3855 5.32164 69.2683 5.32164C69.1694 5.32164 69.0834 5.29169 69.0105 5.23179C68.9532 5.18752 68.9102 5.09898 68.8816 4.96617C68.8529 4.83335 68.8165 4.7383 68.7722 4.68101C68.6967 4.58205 68.5834 4.49872 68.4324 4.43101C68.2813 4.3633 68.1069 4.32945 67.9089 4.32945C67.6199 4.32945 67.3914 4.39651 67.2234 4.53062C67.0554 4.66474 66.9714 4.80471 66.9714 4.95054C66.9714 5.0495 67.0059 5.1452 67.075 5.23765C67.144 5.3301 67.2449 5.40237 67.3777 5.45445C67.4662 5.49091 67.7156 5.5495 68.1257 5.63023C68.5359 5.71096 68.851 5.7995 69.071 5.89585C69.2911 5.99221 69.474 6.14325 69.6199 6.34898C69.7657 6.55471 69.8386 6.7995 69.8386 7.08335C69.8386 7.47919 69.6993 7.79559 69.4207 8.03257C69.0509 8.34507 68.5795 8.50132 68.0066 8.50132C67.7852 8.50132 67.5697 8.47463 67.3601 8.42125C67.1505 8.36786 66.9467 8.28778 66.7488 8.18101Z" fill="#000000" fill-rule="nonzero" opacity="1" stroke="none"/>
<path d="M76.2683 5.19664L76.2683 7.58335L76.5574 7.58335C76.7501 7.58335 76.8875 7.62046 76.9695 7.69468C77.0515 7.7689 77.0925 7.86591 77.0925 7.9857C77.0925 8.10289 77.0515 8.19859 76.9695 8.27281C76.8875 8.34703 76.7501 8.38414 76.5574 8.38414L75.5066 8.38414C75.3139 8.38414 75.1765 8.34703 75.0945 8.27281C75.0125 8.19859 74.9714 8.10158 74.9714 7.98179C74.9714 7.8646 75.0118 7.7689 75.0925 7.69468C75.1733 7.62046 75.2983 7.58335 75.4675 7.58335L75.4675 4.45054C75.3269 4.43752 75.2208 4.39455 75.1492 4.32164C75.0776 4.24872 75.0418 4.15757 75.0418 4.0482C75.0418 3.92841 75.0828 3.8314 75.1648 3.75718C75.2468 3.68296 75.3842 3.64585 75.5769 3.64585L76.4558 3.64976L77.5457 6.05992L78.616 3.64585L79.5027 3.64976C79.6954 3.64976 79.8328 3.68622 79.9148 3.75914C79.9968 3.83205 80.0378 3.92841 80.0378 4.0482C80.0378 4.15757 80.0014 4.24872 79.9285 4.32164C79.8556 4.39455 79.7501 4.43752 79.6121 4.45054L79.6121 7.58335C79.7813 7.58335 79.9063 7.62112 79.9871 7.69664C80.0678 7.77216 80.1082 7.86851 80.1082 7.9857C80.1082 8.10289 80.0671 8.19859 79.9851 8.27281C79.9031 8.34703 79.7657 8.38414 79.573 8.38414L78.5183 8.38414C78.3282 8.38414 78.1921 8.34703 78.1101 8.27281C78.0281 8.19859 77.9871 8.10158 77.9871 7.98179C77.9871 7.8646 78.0281 7.7689 78.1101 7.69468C78.1921 7.62046 78.3282 7.58335 78.5183 7.58335L78.8113 7.58335L78.8113 5.19664L77.8933 7.25914L77.198 7.25914L76.2683 5.19664Z" fill="#000000" fill-rule="nonzero" opacity="1" stroke="none"/>
<path d="M82.7253 6.39585L82.7253 7.58335L83.2644 7.58335C83.4571 7.58335 83.5945 7.62046 83.6765 7.69468C83.7585 7.7689 83.7996 7.86591 83.7996 7.9857C83.7996 8.10289 83.7585 8.19859 83.6765 8.27281C83.5945 8.34703 83.4571 8.38414 83.2644 8.38414L81.3855 8.38414C81.1954 8.38414 81.0593 8.34703 80.9773 8.27281C80.8953 8.19859 80.8543 8.10158 80.8543 7.98179C80.8543 7.8646 80.8953 7.7689 80.9773 7.69468C81.0593 7.62046 81.1954 7.58335 81.3855 7.58335L81.9246 7.58335L81.9246 6.39585L80.6003 4.45054C80.4233 4.45054 80.2937 4.41278 80.2117 4.33726C80.1296 4.26174 80.0886 4.16539 80.0886 4.0482C80.0886 3.92841 80.1296 3.8314 80.2117 3.75718C80.2937 3.68296 80.4311 3.64585 80.6238 3.64585L81.3503 3.64976C81.5431 3.64976 81.6804 3.68622 81.7625 3.75914C81.8445 3.83205 81.8855 3.92841 81.8855 4.0482C81.8855 4.22789 81.78 4.362 81.5691 4.45054L82.3269 5.56773L83.0691 4.45054C82.9519 4.40627 82.8686 4.35028 82.8191 4.28257C82.7696 4.21487 82.7449 4.13674 82.7449 4.0482C82.7449 3.92841 82.7859 3.83205 82.8679 3.75914C82.95 3.68622 83.0873 3.64846 83.28 3.64585L84.0339 3.64976C84.2266 3.64976 84.364 3.68622 84.446 3.75914C84.5281 3.83205 84.5691 3.92841 84.5691 4.0482C84.5691 4.16799 84.5274 4.265 84.4441 4.33921C84.3608 4.41343 84.2253 4.45054 84.0378 4.45054L82.7253 6.39585Z" fill="#000000" fill-rule="nonzero" opacity="1" stroke="none"/>
<path d="M93.4285 4.45054L93.4285 6.87242C93.4285 7.1771 93.3777 7.41929 93.2761 7.59898C93.1199 7.87763 92.894 8.09768 92.5984 8.25914C92.3028 8.42059 91.9923 8.50132 91.6668 8.50132C91.2475 8.50132 90.6759 8.32424 89.9519 7.97007L89.9519 6.65367C89.9519 6.46096 89.989 6.32359 90.0632 6.24156C90.1375 6.15953 90.2345 6.11851 90.3543 6.11851C90.4714 6.11851 90.5671 6.15953 90.6414 6.24156C90.7156 6.32359 90.7527 6.46096 90.7527 6.65367L90.7527 7.43882C91.1199 7.6133 91.4337 7.70054 91.6941 7.70054C91.8321 7.70054 91.9753 7.66864 92.1238 7.60484C92.2722 7.54104 92.3842 7.46487 92.4597 7.37632C92.5352 7.28778 92.5847 7.20054 92.6082 7.1146C92.6212 7.06773 92.6277 6.95575 92.6277 6.77867L92.6277 4.45054L91.655 4.45054C91.4623 4.45054 91.325 4.41343 91.2429 4.33921C91.1609 4.265 91.1199 4.16799 91.1199 4.0482C91.1199 3.92841 91.1609 3.8314 91.2429 3.75718C91.325 3.68296 91.4623 3.64585 91.655 3.64585L93.8972 3.64976C94.0899 3.64976 94.2273 3.68622 94.3093 3.75914C94.3914 3.83205 94.4324 3.92841 94.4324 4.0482C94.4324 4.16799 94.3914 4.265 94.3093 4.33921C94.2273 4.41343 94.0899 4.45054 93.8972 4.45054L93.4285 4.45054Z" fill="#000000" fill-rule="nonzero" opacity="1" stroke="none"/>
<path d="M95.9011 6.40757L95.9011 7.58335L97.9441 7.58335L97.9441 7.14976C97.9441 6.95705 97.9812 6.81968 98.0554 6.73765C98.1296 6.65562 98.2266 6.6146 98.3464 6.6146C98.4636 6.6146 98.5593 6.65562 98.6335 6.73765C98.7078 6.81968 98.7449 6.95705 98.7449 7.14976L98.7449 8.38414L94.9753 8.38414C94.7826 8.38414 94.6453 8.34703 94.5632 8.27281C94.4812 8.19859 94.4402 8.10158 94.4402 7.98179C94.4402 7.8646 94.4819 7.7689 94.5652 7.69468C94.6485 7.62046 94.7852 7.58335 94.9753 7.58335L95.1003 7.58335L95.1003 4.45054L94.9753 4.45054C94.7826 4.45054 94.6453 4.41343 94.5632 4.33921C94.4812 4.265 94.4402 4.16799 94.4402 4.0482C94.4402 3.92841 94.4812 3.8314 94.5632 3.75718C94.6453 3.68296 94.7826 3.64585 94.9753 3.64585L98.5691 3.64976L98.5691 4.86851C98.5691 5.05862 98.5326 5.19468 98.4597 5.27671C98.3868 5.35875 98.2904 5.39976 98.1707 5.39976C98.0509 5.39976 97.9539 5.3594 97.8796 5.27867C97.8054 5.19794 97.7683 5.06122 97.7683 4.86851L97.7683 4.45054L95.9011 4.45054L95.9011 5.60679L96.6043 5.60679C96.6043 5.39846 96.6238 5.26434 96.6628 5.20445C96.7436 5.07684 96.8582 5.01304 97.0066 5.01304C97.1238 5.01304 97.2195 5.05406 97.2937 5.13609C97.3679 5.21812 97.405 5.35549 97.405 5.5482L97.405 6.47007C97.405 6.64455 97.3842 6.76174 97.3425 6.82164C97.2592 6.94403 97.1472 7.00523 97.0066 7.00523C96.8582 7.00523 96.7436 6.94143 96.6628 6.81382C96.6238 6.75393 96.6043 6.61851 96.6043 6.40757L95.9011 6.40757Z" fill="#000000" fill-rule="nonzero" opacity="1" stroke="none"/>
<path d="M101.913 4.45054L101.913 7.58335L102.452 7.58335C102.645 7.58335 102.782 7.62046 102.864 7.69468C102.946 7.7689 102.987 7.86591 102.987 7.9857C102.987 8.10289 102.946 8.19859 102.864 8.27281C102.782 8.34703 102.645 8.38414 102.452 8.38414L100.577 8.38414C100.384 8.38414 100.247 8.34703 100.165 8.27281C100.083 8.19859 100.042 8.10158 100.042 7.98179C100.042 7.8646 100.083 7.7689 100.165 7.69468C100.247 7.62046 100.384 7.58335 100.577 7.58335L101.112 7.58335L101.112 4.45054L100.245 4.45054L100.245 5.20835C100.245 5.40106 100.208 5.53843 100.134 5.62046C100.059 5.7025 99.9623 5.74351 99.8425 5.74351C99.7253 5.74351 99.6296 5.7025 99.5554 5.62046C99.4812 5.53843 99.4441 5.40106 99.4441 5.20835L99.4441 3.64585L103.593 3.64976L103.593 5.20835C103.593 5.40106 103.555 5.53843 103.481 5.62046C103.407 5.7025 103.31 5.74351 103.19 5.74351C103.073 5.74351 102.977 5.7025 102.903 5.62046C102.829 5.53843 102.792 5.40106 102.792 5.20835L102.792 4.45054L101.913 4.45054Z" fill="#000000" fill-rule="nonzero" opacity="1" stroke="none"/>
<path d="M106.733 6.53648C106.718 6.68752 106.674 6.79755 106.602 6.86656C106.531 6.93557 106.44 6.97007 106.331 6.97007C106.214 6.97007 106.118 6.92906 106.044 6.84703C105.969 6.765 105.932 6.62763 105.932 6.43492L105.932 5.9857C106.565 5.74351 106.947 5.55731 107.077 5.4271C107.207 5.2969 107.272 5.16408 107.272 5.02867C107.272 4.83856 107.196 4.6745 107.044 4.53648C106.891 4.39846 106.676 4.32945 106.397 4.32945C106.103 4.32945 105.819 4.39716 105.546 4.53257L105.546 4.64976C105.546 4.83987 105.509 4.97593 105.434 5.05796C105.36 5.14 105.263 5.18101 105.143 5.18101C105.026 5.18101 104.93 5.14065 104.856 5.05992C104.782 4.97919 104.745 4.84247 104.745 4.64976L104.745 4.00523C105.154 3.81252 105.471 3.68492 105.698 3.62242C105.925 3.55992 106.159 3.52867 106.401 3.52867C106.906 3.52867 107.311 3.6745 107.616 3.96617C107.921 4.25783 108.073 4.62372 108.073 5.06382C108.073 5.37632 107.981 5.64195 107.798 5.8607C107.614 6.07945 107.259 6.30471 106.733 6.53648ZM106.901 8.08335C106.901 8.20575 106.858 8.30536 106.77 8.38218C106.683 8.45901 106.538 8.49742 106.335 8.49742C106.132 8.49742 105.986 8.45901 105.899 8.38218C105.812 8.30536 105.768 8.20575 105.768 8.08335C105.768 7.96096 105.811 7.86135 105.897 7.78453C105.983 7.7077 106.129 7.66929 106.335 7.66929C106.538 7.66929 106.683 7.7077 106.77 7.78453C106.858 7.86135 106.901 7.96096 106.901 8.08335Z" fill="#000000" fill-rule="nonzero" opacity="1" stroke="none"/>
</g>
</g>
</svg>
