<?xml version="1.0" encoding="UTF-8" standalone="no"?>
<!DOCTYPE svg PUBLIC "-//W3C//DTD SVG 1.1//EN" "http://www.w3.org/Graphics/SVG/1.1/DTD/svg11.dtd">
<!-- Created with Vectornator (http://vectornator.io/) -->
<svg height="100%" stroke-miterlimit="10" style="fill-rule:nonzero;clip-rule:evenodd;stroke-linecap:round;stroke-linejoin:round;" version="1.1" viewBox="0 0 1800 1013" width="100%" xml:space="preserve" xmlns="http://www.w3.org/2000/svg" xmlns:vectornator="http://vectornator.io" xmlns:xlink="http://www.w3.org/1999/xlink">
<defs/>
<g id="Layer-1" vectornator:layerName="Layer 1">
<path d="M860.5 628.5C857.5 627.5 853.667 631.333 849 640C844.333 648.667 840.5 654.5 837.5 657.5C834.5 660.5 832 664.167 830 668.5C829 670.667 828 672.833 827 675C826.667 672.833 826.333 670.667 826 668.5C825.333 664.167 824.333 661.5 823 660.5C821.667 659.5 818.667 659 814 659C809.333 659 804.5 660.167 799.5 662.5C794.5 664.833 790 668 786 672C782 676 777.667 679.333 773 682C768.333 684.667 765 687.667 763 691C761 694.333 760.167 698.167 760.5 702.5C760.833 706.833 763.667 710.667 769 714C774.333 717.333 779.5 718.833 784.5 718.5C789.5 718.167 794 716.833 798 714.5C800 713.333 802 712.167 804 711C804.333 713.333 804.667 715.667 805 718C805.667 722.667 806.667 725.333 808 726C809.333 726.667 811.833 726.833 815.5 726.5C817.333 726.333 819.167 726.167 821 726C820.667 723.833 820.333 721.667 820 719.5C819.333 715.167 819.5 711.5 820.5 708.5C821.5 705.5 823.667 702.333 827 699C830.333 695.667 834.167 689.667 838.5 681C842.833 672.333 848.667 663 856 653C863.333 643 867 637.667 867 637C867 636.667 867 636.333 867 636C866.333 636 865.667 636 865 636C864.333 636 863.667 636 863 636C863.333 635 863.667 634 864 633C864.333 632 864.667 631 865 630C863.5 629.5 862 629 860.5 628.5Z" fill="none" opacity="1" stroke="#000000" stroke-linecap="butt" stroke-linejoin="round" stroke-width="2"/>
<path d="M976.25 617.625C975.417 617.708 974.667 618 974 618.5C972.667 619.5 970.833 619.833 968.5 619.5C966.167 619.167 963 620.333 959 623C955 625.667 953.167 627.833 953.5 629.5C953.833 631.167 952.167 633.5 948.5 636.5C944.833 639.5 943 642 943 644C943 646 941.167 650 937.5 656C933.833 662 929.833 667 925.5 671C921.167 675 918.667 678.833 918 682.5C917.333 686.167 914.167 689.833 908.5 693.5C902.833 697.167 899.5 699 898.5 699C898 699 897.5 699 897 699C897 698.667 897 698.333 897 698C897 697.333 897.5 696.333 898.5 695C899.5 693.667 900.333 691 901 687C901.667 683 903.833 678 907.5 672C909.333 669 911.167 666 913 663C911.333 662.833 909.667 662.667 908 662.5C904.667 662.167 903 661.5 903 660.5C903 659.5 902.5 658.833 901.5 658.5C900.5 658.167 898.333 661 895 667C893.333 670 891.667 673 890 676C889.167 674.5 888.333 673 887.5 671.5C885.833 668.5 883.167 666.833 879.5 666.5C875.833 666.167 873.667 666.5 873 667.5C872.333 668.5 870.833 668.833 868.5 668.5C866.167 668.167 862.833 670.5 858.5 675.5C854.167 680.5 852 683.833 852 685.5C852 687.167 849.167 690.667 843.5 696C837.833 701.333 834.667 706.167 834 710.5C833.333 714.833 833.5 718.333 834.5 721C835.5 723.667 836.833 725.833 838.5 727.5C840.167 729.167 841.833 729.833 843.5 729.5C845.167 729.167 846.5 729.833 847.5 731.5C848.5 733.167 851.5 733.667 856.5 733C861.5 732.333 864.667 730.667 866 728C867.333 725.333 868.833 723.833 870.5 723.5C872.167 723.167 874.333 721.333 877 718C878.333 716.333 879.667 714.667 881 713C880.833 716 880.667 719 880.5 722C880.333 725 880.167 728 880 731C880.5 731 881 731 881.5 731C882.5 731 885 729 889 725C893 721 896.833 718 900.5 716C902.333 715 904.167 714 906 713C903.667 719 901.333 725 899 731C894.333 743 892.667 749.333 894 750C894.667 750.333 895.333 750.667 896 751C896.333 750 896.667 749 897 748C897.333 747 897.667 746 898 745C898.167 745.667 898.333 746.333 898.5 747C898.833 748.333 899.333 749 900 749C900.667 749 902 748.167 904 746.5C906 744.833 908 744 910 744C911 744 912 744 913 744C913 741.667 913 739.333 913 737C913 732.333 915 728.167 919 724.5C923 720.833 926.167 714.833 928.5 706.5C930.833 698.167 932.833 693.167 934.5 691.5C936.167 689.833 938.5 688.667 941.5 688C944.5 687.333 947.333 686.167 950 684.5C952.667 682.833 955.5 682 958.5 682C961.5 682 964 681.167 966 679.5C967 678.667 968 677.833 969 677C968.167 676.667 967.333 676.333 966.5 676C965.667 675.667 964.833 675.333 964 675C965.5 673.667 967 672.333 968.5 671C971.5 668.333 973.833 667.5 975.5 668.5C977.167 669.5 980 668.5 984 665.5C988 662.5 990 660.5 990 659.5C990 659 990 658.5 990 658C988.167 658.667 986.333 659.333 984.5 660C980.833 661.333 977.833 661.833 975.5 661.5C973.167 661.167 969.667 662.667 965 666C960.333 669.333 955.667 671.667 951 673C948.667 673.667 946.333 674.333 944 675C944.833 672.833 945.667 670.667 946.5 668.5C948.167 664.167 950 660.833 952 658.5C954 656.167 956.167 651.833 958.5 645.5C960.833 639.167 962.667 636 964 636C964.667 636 965.333 636 966 636C966 638 966 640 966 642C966 646 965.167 648.667 963.5 650C961.833 651.333 961 652.833 961 654.5C961 655.333 961 656.167 961 657C962.333 656.667 963.667 656.333 965 656C967.667 655.333 969.667 654.167 971 652.5C972.333 650.833 973.833 650.167 975.5 650.5C977.167 650.833 978.667 650 980 648C981.333 646 982.333 643.667 983 641C983.667 638.333 984 636 984 634C984 632 983.5 630.5 982.5 629.5C981.5 628.5 981.167 626.5 981.5 623.5C981.833 620.5 981 618.667 979 618C978 617.667 977.083 617.542 976.25 617.625Z" fill="none" opacity="1" stroke="#000000" stroke-linecap="butt" stroke-linejoin="round" stroke-width="2"/>
<path d="M1033 634.5C1031.67 634.167 1029.83 635.5 1027.5 638.5C1025.17 641.5 1023 642.833 1021 642.5C1019 642.167 1016.5 641 1013.5 639C1010.5 637 1008 636 1006 636C1004 636 1002 636.667 1000 638C998 639.333 997.5 641 998.5 643C999 644 999.5 645 1000 646C999.167 646.167 998.333 646.333 997.5 646.5C995.833 646.833 994.5 647.833 993.5 649.5C993 650.333 992.5 651.167 992 652C994 653 996 654 998 655C1000 656 1002 657 1004 658C1000.5 661.667 997 665.333 993.5 669C986.5 676.333 981.833 682 979.5 686C977.167 690 970.5 698.667 959.5 712C954 718.667 948.5 725.333 943 732C944.167 731.667 945.333 731.333 946.5 731C948.833 730.333 950.667 729.167 952 727.5C952.667 726.667 953.333 725.833 954 725C954.167 725.833 954.333 726.667 954.5 727.5C954.833 729.167 956.333 729.833 959 729.5C961.667 729.167 965.167 725.667 969.5 719C973.833 712.333 977.333 708 980 706C982.667 704 988.167 698.167 996.5 688.5C1004.83 678.833 1010.67 673 1014 671C1017.33 669 1020.17 666.667 1022.5 664C1024.83 661.333 1027.33 660.833 1030 662.5C1032.67 664.167 1037 665.167 1043 665.5C1049 665.833 1053.83 666.667 1057.5 668C1059.33 668.667 1061.17 669.333 1063 670C1062.83 669.333 1062.67 668.667 1062.5 668C1062.33 667.333 1062.17 666.667 1062 666C1064.83 666.167 1067.67 666.333 1070.5 666.5C1073.33 666.667 1076.17 666.833 1079 667C1072.5 664.167 1066 661.333 1059.5 658.5C1046.5 652.833 1040.5 648.5 1041.5 645.5C1042 644 1042.5 642.5 1043 641C1041.67 641 1040.33 641 1039 641C1037.67 641 1036.33 641 1035 641C1035 640 1035 639 1035 638C1035 636 1034.33 634.833 1033 634.5Z" fill="none" opacity="1" stroke="#000000" stroke-linecap="butt" stroke-linejoin="round" stroke-width="2"/>
<path d="M1013.5 697C1011.83 697 1010.5 699.167 1009.5 703.5C1008.5 707.833 1007.17 711.5 1005.5 714.5C1003.83 717.5 1001.33 720.667 998 724C994.667 727.333 991.5 731.833 988.5 737.5C985.5 743.167 982.333 746.667 979 748C975.667 749.333 974 751.667 974 755C974 758.333 973.167 760.833 971.5 762.5C970.667 763.333 969.833 764.167 969 765C969.833 765.833 970.667 766.667 971.5 767.5C973.167 769.167 972.833 771.333 970.5 774C968.167 776.667 964.5 779.5 959.5 782.5C954.5 785.5 951.333 787 950 787C949.333 787 948.667 787 948 787C948 786.167 948 785.333 948 784.5C948 782.833 949.5 780.333 952.5 777C955.5 773.667 957.167 771 957.5 769C957.833 767 958 765.167 958 763.5C958 761.833 957 759.333 955 756C954 754.333 953 752.667 952 751C945 757.333 938 763.667 931 770C924 776.333 917 782.667 910 789C910 787.167 910 785.333 910 783.5C910 779.833 910.833 776.667 912.5 774C914.167 771.333 915 768.5 915 765.5C915 764 915 762.5 915 761C914.5 761 914 761 913.5 761C912.5 761 911.833 760.5 911.5 759.5C911.167 758.5 909.833 758 907.5 758C906.333 758 905.167 758 904 758C904 758.667 904 759.333 904 760C904 761.333 902.667 763.667 900 767C897.333 770.333 893.667 777.167 889 787.5C884.333 797.833 880.333 805 877 809C873.667 813 872 815.333 872 816C872 816.667 873 817.333 875 818C877 818.667 877.667 820.167 877 822.5C876.667 823.667 876.333 824.833 876 826C877.5 826 879 826 880.5 826C883.5 826 886.167 825.167 888.5 823.5C890.833 821.833 893 820.833 895 820.5C897 820.167 900.5 816.5 905.5 809.5C910.5 802.5 915 797.167 919 793.5C923 789.833 925.333 788 926 788C926.333 788 926.667 788 927 788C927 789 927 790 927 791C927 793 926.333 795.667 925 799C923.667 802.333 922.833 806 922.5 810C922.167 814 922.167 816.833 922.5 818.5C922.667 819.333 922.833 820.167 923 821C923.667 820.833 924.333 820.667 925 820.5C926.333 820.167 927.167 820.5 927.5 821.5C927.833 822.5 929.333 822.833 932 822.5C934.667 822.167 936.5 821.5 937.5 820.5C938.5 819.5 939.167 818 939.5 816C939.833 814 942.333 810.5 947 805.5C951.667 800.5 954.833 797.833 956.5 797.5C957.333 797.333 958.167 797.167 959 797C957.5 801.667 956 806.333 954.5 811C951.5 820.333 947.167 829.833 941.5 839.5C938.667 844.333 935.833 849.167 933 854C933.667 854.333 934.333 854.667 935 855C936.333 855.667 937.167 856.833 937.5 858.5C937.667 859.333 937.833 860.167 938 861C938.333 860.333 938.667 859.667 939 859C939.333 858.333 939.667 857.667 940 857C940.333 857.167 940.667 857.333 941 857.5C941.667 857.833 942.167 859.333 942.5 862C942.833 864.667 943.333 866.167 944 866.5C944.333 866.667 944.667 866.833 945 867C945.167 865.833 945.333 864.667 945.5 863.5C945.833 861.167 947.167 857.833 949.5 853.5C951.833 849.167 955.333 844.333 960 839C964.667 833.667 968 827 970 819C972 811 975.333 804.667 980 800C984.667 795.333 987.333 792.167 988 790.5C988.333 789.667 988.667 788.833 989 788C991.5 789.5 994 791 996.5 792.5C1001.5 795.5 1006.5 797.667 1011.5 799C1016.5 800.333 1020.17 802.5 1022.5 805.5C1024.83 808.5 1029.17 810.167 1035.5 810.5C1041.83 810.833 1045.33 810.333 1046 809C1046.33 808.333 1046.67 807.667 1047 807C1044.5 805.833 1042 804.667 1039.5 803.5C1034.5 801.167 1030.5 798.667 1027.5 796C1024.5 793.333 1022.17 790.167 1020.5 786.5C1018.83 782.833 1016.33 778.833 1013 774.5C1011.33 772.333 1009.67 770.167 1008 768C1010.83 766.167 1013.67 764.333 1016.5 762.5C1022.17 758.833 1027.67 756 1033 754C1035.67 753 1038.33 752 1041 751C1040.67 750.667 1040.33 750.333 1040 750C1039.67 749.667 1039.33 749.333 1039 749C1040.33 747.833 1041.67 746.667 1043 745.5C1045.67 743.167 1049.17 741.667 1053.5 741C1057.83 740.333 1061.33 738.333 1064 735C1065.33 733.333 1066.67 731.667 1068 730C1064.17 730.833 1060.33 731.667 1056.5 732.5C1048.83 734.167 1041.83 736.167 1035.5 738.5C1029.17 740.833 1024.67 742 1022 742C1019.33 742 1016.5 742.833 1013.5 744.5C1012 745.333 1010.5 746.167 1009 747C1009.17 745.5 1009.33 744 1009.5 742.5C1009.83 739.5 1011.17 736.833 1013.5 734.5C1015.83 732.167 1017.5 728.667 1018.5 724C1019.5 719.333 1020.67 716.167 1022 714.5C1023.33 712.833 1023.67 710.833 1023 708.5C1022.67 707.333 1022.33 706.167 1022 705C1021.33 706 1020.67 707 1020 708C1018.67 710 1017.67 710.833 1017 710.5C1016.33 710.167 1016.17 708.167 1016.5 704.5C1016.83 700.833 1016.83 698.667 1016.5 698C1016.17 697.333 1015.17 697 1013.5 697Z" fill="none" opacity="1" stroke="#000000" stroke-linecap="butt" stroke-linejoin="round" stroke-width="2"/>
<path d="M878.688 760.219C877.062 760.406 874.5 762 871 765C866.333 769 863.5 772.167 862.5 774.5C861.5 776.833 859.5 779 856.5 781C853.5 783 850.833 785.5 848.5 788.5C846.167 791.5 842.667 794.333 838 797C835.667 798.333 833.333 799.667 831 801C831.667 797.667 832.333 794.333 833 791C834.333 784.333 836.167 779.833 838.5 777.5C840.833 775.167 842.333 773 843 771C843.667 769 843.667 767.5 843 766.5C842.333 765.5 841 765.167 839 765.5C837 765.833 835.667 765.167 835 763.5C834.333 761.833 833.333 761 832 761C830.667 761 828.833 762.667 826.5 766C824.167 769.333 822.667 772.5 822 775.5C821.333 778.5 819.667 781.667 817 785C814.333 788.333 813 792 813 796C813 800 811.5 803.667 808.5 807C805.5 810.333 803.333 814.167 802 818.5C801.333 820.667 800.667 822.833 800 825C800.833 824.833 801.667 824.667 802.5 824.5C804.167 824.167 805.333 825 806 827C806.667 829 808.833 830.333 812.5 831C816.167 831.667 819.333 830.167 822 826.5C824.667 822.833 827.833 820.333 831.5 819C835.167 817.667 838.167 815.167 840.5 811.5C842.833 807.833 844.667 805.667 846 805C846.667 804.667 847.333 804.333 848 804C847.833 805.167 847.667 806.333 847.5 807.5C847.167 809.833 846 812.333 844 815C842 817.667 841.5 819.5 842.5 820.5C843.5 821.5 843.667 822.833 843 824.5C842.667 825.333 842.333 826.167 842 827C843.167 826.667 844.333 826.333 845.5 826C847.833 825.333 850.333 825.167 853 825.5C855.667 825.833 857.667 823.667 859 819C860.333 814.333 862.333 810.167 865 806.5C867.667 802.833 869.667 798.833 871 794.5C872.333 790.167 874.5 786.5 877.5 783.5C880.5 780.5 882.667 777.167 884 773.5C884.667 771.667 885.333 769.833 886 768C885.167 768 884.333 768 883.5 768C882.667 768 881.833 768 881 768C881.167 767 881.333 766 881.5 765C881.833 763 881.333 761.5 880 760.5C879.667 760.25 879.229 760.156 878.688 760.219Z" fill="none" opacity="1" stroke="#000000" stroke-linecap="butt" stroke-linejoin="round" stroke-width="2"/>
<path d="M781 741C780.5 742.333 780 743.667 779.5 745C778.5 747.667 776.333 750.167 773 752.5C769.667 754.833 767 757.833 765 761.5C764 763.333 763 765.167 762 767C761.333 766.333 760.667 765.667 760 765C758.667 763.667 757.833 761.667 757.5 759C757.333 757.667 757.167 756.333 757 755C754.5 756.333 752 757.667 749.5 759C744.5 761.667 741.333 763 740 763C739.333 763 738.667 763 738 763C738.667 766.667 739.333 770.333 740 774C741.333 781.333 743 786.167 745 788.5C747 790.833 747.833 793.167 747.5 795.5C747.167 797.833 746.5 799.333 745.5 800C744.5 800.667 743.833 808.667 743.5 824C743.167 839.333 742.333 851.5 741 860.5C740.333 865 739.667 869.5 739 874C740.167 873.167 741.333 872.333 742.5 871.5C743.667 870.667 744.833 869.833 746 869C746.333 869.5 746.667 870 747 870.5C747.667 871.5 748.5 872 749.5 872C750.5 872 751.333 871 752 869C752.667 867 753.667 865.667 755 865C756.333 864.333 757 861.5 757 856.5C757 851.5 757.833 843.833 759.5 833.5C760.333 828.333 761.167 823.167 762 818C763.167 819 764.333 820 765.5 821C767.833 823 770.167 824 772.5 824C774.833 824 778.5 822.333 783.5 819C788.5 815.667 792.167 812.167 794.5 808.5C796.833 804.833 799.667 798.167 803 788.5C806.333 778.833 808.833 772.833 810.5 770.5C812.167 768.167 812.167 763.667 810.5 757C808.833 750.333 806.667 746.167 804 744.5C801.333 742.833 798 742.333 794 743C790 743.667 786.833 743.5 784.5 742.5C783.333 742 782.167 741.5 781 741Z" fill="none" opacity="1" stroke="#000000" stroke-linecap="butt" stroke-linejoin="round" stroke-width="2"/>
<path d="M702.125 209.625C696.875 209.708 692.333 210 688.5 210.5C680.833 211.5 672.333 213.5 663 216.5C653.667 219.5 645.5 223 638.5 227C631.5 231 624.333 236.167 617 242.5C609.667 248.833 603 255.833 597 263.5C591 271.167 585.167 280.333 579.5 291C573.833 301.667 569.167 312.167 565.5 322.5C561.833 332.833 558.833 343.833 556.5 355.5C554.167 367.167 563.167 379.833 583.5 393.5C603.833 407.167 615.5 416.333 618.5 421C621.5 425.667 624.833 429.667 628.5 433C632.167 436.333 636.167 439.167 640.5 441.5C644.833 443.833 649.5 445.5 654.5 446.5C659.5 447.5 661.5 452.667 660.5 462C659.5 471.333 673.167 492.167 701.5 524.5C729.833 556.833 752.167 573.167 768.5 573.5C784.833 573.833 798.333 565.833 809 549.5C819.667 533.167 830.5 524.167 841.5 522.5C852.5 520.833 859.167 519.333 861.5 518C863.833 516.667 872.833 505.333 888.5 484C904.167 462.667 912.5 450.333 913.5 447C914.5 443.667 909.667 431.167 899 409.5C888.333 387.833 883 370.833 883 358.5C883 346.167 882.167 335.167 880.5 325.5C878.833 315.833 875.833 305.833 871.5 295.5C867.167 285.167 863 277.167 859 271.5C855 265.833 848.333 259 839 251C829.667 243 819.667 236.5 809 231.5C798.333 226.5 784.167 221.833 766.5 217.5C748.833 213.167 733.333 210.667 720 210C713.333 209.667 707.375 209.542 702.125 209.625Z" fill="none" opacity="1" stroke="#000000" stroke-linecap="butt" stroke-linejoin="round" stroke-width="2"/>
<path d="M1110.34 219.25C1107.68 219.25 1098.33 219.5 1079 222.5C1059.67 225.5 1045.67 228.5 1037 231.5C1028.33 234.5 1020.33 237.833 1013 241.5C1005.67 245.167 998.5 249.5 991.5 254.5C984.5 259.5 978 265 972 271C966 277 960.833 283 956.5 289C952.167 295 948.333 301.167 945 307.5C941.667 313.833 938.5 321 935.5 329C932.5 337 929.833 346.333 927.5 357C925.167 367.667 923.5 383.667 922.5 405C921.5 426.333 922.5 449.333 925.5 474C928.5 498.667 933.167 522.833 939.5 546.5C945.833 570.167 954.167 581.5 964.5 580.5C974.833 579.5 987.5 576.333 1002.5 571C1017.5 565.667 1038 556.333 1064 543C1090 529.667 1111.5 519.5 1128.5 512.5C1145.5 505.5 1159.83 499 1171.5 493C1183.17 487 1193.5 482.333 1202.5 479C1211.5 475.667 1220.5 471.5 1229.5 466.5C1238.5 461.5 1245.67 456.833 1251 452.5C1256.33 448.167 1260 437.833 1262 421.5C1264 405.167 1264.83 390.833 1264.5 378.5C1264.17 366.167 1263 356.167 1261 348.5C1259 340.833 1255 331 1249 319C1243 307 1236.33 296.167 1229 286.5C1221.67 276.833 1215.33 269.5 1210 264.5C1204.67 259.5 1198.5 254.5 1191.5 249.5C1184.5 244.5 1176.5 239.667 1167.5 235C1158.5 230.333 1147.67 226.333 1135 223C1122.33 219.667 1113.01 219.25 1110.34 219.25Z" fill="none" opacity="1" stroke="#000000" stroke-linecap="butt" stroke-linejoin="round" stroke-width="2"/>
<path d="M1105 298C1099.67 299.333 1094.33 300.667 1089 302C1078.33 304.667 1069.17 308 1061.5 312C1053.83 316 1047 320.833 1041 326.5C1035 332.167 1030 338.5 1026 345.5C1022 352.5 1019 359.167 1017 365.5C1015 371.833 1013.5 378.5 1012.5 385.5C1011.5 392.5 1011 402.667 1011 416C1011 429.333 1012 443.667 1014 459C1015 466.667 1016 474.333 1017 482C1020.5 480.167 1024 478.333 1027.5 476.5C1034.5 472.833 1037 463.833 1035 449.5C1033 435.167 1032 421.167 1032 407.5C1032 393.833 1033.33 381.5 1036 370.5C1038.67 359.5 1041.33 351.667 1044 347C1046.67 342.333 1049.5 338.333 1052.5 335C1055.5 331.667 1059.17 328.5 1063.5 325.5C1067.83 322.5 1073 320 1079 318C1085 316 1090.5 313.667 1095.5 311C1100.5 308.333 1103.33 305.5 1104 302.5C1104.33 301 1104.67 299.5 1105 298Z" fill="none" opacity="1" stroke="#000000" stroke-linecap="butt" stroke-linejoin="round" stroke-width="2"/>
<path d="M1125 251C1124.83 255.833 1124.67 260.667 1124.5 265.5C1124.17 275.167 1122 286 1118 298C1114 310 1109.33 317.333 1104 320C1098.67 322.667 1092.67 326.667 1086 332C1079.33 337.333 1074.17 342.5 1070.5 347.5C1066.83 352.5 1063.67 358.333 1061 365C1058.33 371.667 1056.5 381.667 1055.5 395C1054.5 408.333 1055 423 1057 439C1059 455 1059.83 464.5 1059.5 467.5C1059.17 470.5 1055 474.667 1047 480C1039 485.333 1023.5 493.167 1000.5 503.5C977.5 513.833 965.833 519.5 965.5 520.5C965.167 521.5 966 526.167 968 534.5C970 542.833 972.167 547 974.5 547C976.833 547 982 545.833 990 543.5C998 541.167 1015.17 533.833 1041.5 521.5C1067.83 509.167 1079.17 487.333 1075.5 456C1071.83 424.667 1070.17 405.333 1070.5 398C1070.83 390.667 1071.83 384.167 1073.5 378.5C1075.17 372.833 1077 368.333 1079 365C1081 361.667 1083.17 358.667 1085.5 356C1087.83 353.333 1091.5 350.5 1096.5 347.5C1101.5 344.5 1105.83 342.5 1109.5 341.5C1113.17 340.5 1118.67 340.167 1126 340.5C1133.33 340.833 1139.83 342.167 1145.5 344.5C1151.17 346.833 1156.33 350.167 1161 354.5C1165.67 358.833 1169 362.667 1171 366C1173 369.333 1174.5 372.833 1175.5 376.5C1176.5 380.167 1178.5 393.833 1181.5 417.5C1183 429.333 1184.5 441.167 1186 453C1189.33 451.833 1192.67 450.667 1196 449.5C1202.67 447.167 1210.5 443.333 1219.5 438C1228.5 432.667 1234 423.667 1236 411C1238 398.333 1238.67 386.667 1238 376C1237.33 365.333 1231.83 360.167 1221.5 360.5C1211.17 360.833 1204.33 360.5 1201 359.5C1197.67 358.5 1193.5 354.167 1188.5 346.5C1183.5 338.833 1179.17 333.167 1175.5 329.5C1171.83 325.833 1168.5 323 1165.5 321C1162.5 319 1158.5 317.167 1153.5 315.5C1148.5 313.833 1145 311.667 1143 309C1141 306.333 1141 299.667 1143 289C1145 278.333 1145.83 270.333 1145.5 265C1145.17 259.667 1141.67 256 1135 254C1131.67 253 1128.33 252 1125 251Z" fill="none" opacity="1" stroke="#000000" stroke-linecap="butt" stroke-linejoin="round" stroke-width="2"/>
<path d="M1124.5 381C1121.5 381 1118 382.333 1114 385C1110 387.667 1107.5 391.333 1106.5 396C1105.5 400.667 1105.5 404.333 1106.5 407C1107.5 409.667 1108.83 411.833 1110.5 413.5C1112.17 415.167 1114.17 416.5 1116.5 417.5C1118.83 418.5 1121.5 419 1124.5 419C1127.5 419 1130.67 418.167 1134 416.5C1137.33 414.833 1139.5 413.333 1140.5 412C1141.5 410.667 1142.33 407.5 1143 402.5C1143.67 397.5 1142.67 393.167 1140 389.5C1137.33 385.833 1134.83 383.5 1132.5 382.5C1130.17 381.5 1127.5 381 1124.5 381Z" fill="none" opacity="1" stroke="#000000" stroke-linecap="butt" stroke-linejoin="round" stroke-width="2"/>
<path d="M1106 248C1102.67 248 1093.17 249.667 1077.5 253C1061.83 256.333 1048.5 260.333 1037.5 265C1026.5 269.667 1016.83 275 1008.5 281C1000.17 287 992.167 294.833 984.5 304.5C976.833 314.167 970.667 325 966 337C961.333 349 958 362.833 956 378.5C954 394.167 953.333 411 954 429C954.667 447 956.167 464.5 958.5 481.5C959.667 490 960.833 498.5 962 507C964.667 506 967.333 505 970 504C975.333 502 976.667 491.167 974 471.5C971.333 451.833 969.833 435 969.5 421C969.167 407 969.833 393.5 971.5 380.5C973.167 367.5 976.167 355.167 980.5 343.5C984.833 331.833 989.167 322.833 993.5 316.5C997.833 310.167 1002.33 304.667 1007 300C1011.67 295.333 1016.83 291 1022.5 287C1028.17 283 1037.33 278.333 1050 273C1062.67 267.667 1076.33 263.667 1091 261C1098.33 259.667 1105.67 258.333 1113 257C1112.67 255.5 1112.33 254 1112 252.5C1111.33 249.5 1109.33 248 1106 248Z" fill="none" opacity="1" stroke="#000000" stroke-linecap="butt" stroke-linejoin="round" stroke-width="2"/>
<path d="M1158 263C1157 269.5 1156 276 1155 282.5C1153 295.5 1154.5 302.833 1159.5 304.5C1164.5 306.167 1169.5 308.833 1174.5 312.5C1179.5 316.167 1184.5 321 1189.5 327C1194.5 333 1198 337.833 1200 341.5C1202 345.167 1205.17 347.333 1209.5 348C1213.83 348.667 1218.67 348.667 1224 348C1226.67 347.667 1229.33 347.333 1232 347C1230.33 343.167 1228.67 339.333 1227 335.5C1223.67 327.833 1219.33 320.167 1214 312.5C1208.67 304.833 1201.83 297 1193.5 289C1185.17 281 1177.17 274.667 1169.5 270C1165.67 267.667 1161.83 265.333 1158 263Z" fill="none" opacity="1" stroke="#000000" stroke-linecap="butt" stroke-linejoin="round" stroke-width="2"/>
<path d="M1108 226C1102 226 1094.17 226.667 1084.5 228C1074.83 229.333 1065.33 231.167 1056 233.5C1046.67 235.833 1035.17 240.167 1021.5 246.5C1007.83 252.833 998.5 257.833 993.5 261.5C988.5 265.167 982.833 270.167 976.5 276.5C970.167 282.833 965 288.833 961 294.5C957 300.167 953.167 306.667 949.5 314C945.833 321.333 942.5 329.5 939.5 338.5C936.5 347.5 934.167 356.5 932.5 365.5C930.833 374.5 929.667 389.333 929 410C928.333 430.667 929.167 451 931.5 471C933.833 491 938.167 513.333 944.5 538C950.833 562.667 958.667 574.333 968 573C977.333 571.667 988.833 568.5 1002.5 563.5C1016.17 558.5 1033.5 550.5 1054.5 539.5C1075.5 528.5 1097 518.333 1119 509C1141 499.667 1157.33 492.167 1168 486.5C1178.67 480.833 1187.17 477 1193.5 475C1199.83 473 1207.33 469.833 1216 465.5C1224.67 461.167 1232.83 456.5 1240.5 451.5C1248.17 446.5 1253 436.667 1255 422C1257 407.333 1257.83 393.167 1257.5 379.5C1257.17 365.833 1255.5 354.333 1252.5 345C1249.5 335.667 1245 325.5 1239 314.5C1233 303.5 1225.67 293 1217 283C1208.33 273 1198.67 264.167 1188 256.5C1177.33 248.833 1168.67 243.333 1162 240C1155.33 236.667 1149.5 234.333 1144.5 233C1139.5 231.667 1133.67 230.167 1127 228.5C1120.33 226.833 1114 226 1108 226ZM1106.62 236.625C1114.88 236.375 1122.33 237 1129 238.5C1142.33 241.5 1153 245.167 1161 249.5C1169 253.833 1177 259 1185 265C1193 271 1201.67 279.333 1211 290C1220.33 300.667 1228 311.667 1234 323C1240 334.333 1244.17 344.333 1246.5 353C1248.83 361.667 1250.17 369.667 1250.5 377C1250.83 384.333 1249.83 396 1247.5 412C1245.17 428 1243.17 437 1241.5 439C1239.83 441 1235 444.333 1227 449C1219 453.667 1209.67 457.833 1199 461.5C1188.33 465.167 1157.17 479.667 1105.5 505C1053.83 530.333 1021.83 545.333 1009.5 550C997.167 554.667 986.667 557.667 978 559C969.333 560.333 964.333 560.167 963 558.5C961.667 556.833 959.5 549.833 956.5 537.5C953.5 525.167 950.333 505.667 947 479C943.667 452.333 942.333 427.667 943 405C943.667 382.333 946 363.667 950 349C954 334.333 957.5 324 960.5 318C963.5 312 967.333 305.833 972 299.5C976.667 293.167 983.667 286 993 278C1002.33 270 1010.67 264 1018 260C1025.33 256 1032.5 252.667 1039.5 250C1046.5 247.333 1059.83 244 1079.5 240C1089.33 238 1098.37 236.875 1106.62 236.625Z" fill="none" opacity="1" stroke="#000000" stroke-linecap="butt" stroke-linejoin="round" stroke-width="2"/>
<path d="M755 381C754.833 390.833 754.667 400.667 754.5 410.5C754.167 430.167 756.333 441.5 761 444.5C763.333 446 765.667 447.5 768 449C768.333 439 768.667 429 769 419C769.667 399 767.5 387.667 762.5 385C760 383.667 757.5 382.333 755 381Z" fill="none" opacity="1" stroke="#000000" stroke-linecap="butt" stroke-linejoin="round" stroke-width="2"/>
<path d="M835 425C834.667 435.167 834.333 445.333 834 455.5C833.333 475.833 834.833 486.667 838.5 488C842.167 489.333 844.667 489.333 846 488C847.333 486.667 848 476.833 848 458.5C848 440.167 845.833 430 841.5 428C839.333 427 837.167 426 835 425Z" fill="none" opacity="1" stroke="#000000" stroke-linecap="butt" stroke-linejoin="round" stroke-width="2"/>
<path d="M710.5 217C698.167 217 687.333 218 678 220C668.667 222 660.833 224.333 654.5 227C648.167 229.667 642.333 232.667 637 236C631.667 239.333 625.833 243.833 619.5 249.5C613.167 255.167 607.167 261.667 601.5 269C595.833 276.333 590.5 284.667 585.5 294C580.5 303.333 576.333 312.5 573 321.5C569.667 330.5 566.667 340.667 564 352C561.333 363.333 569.833 375.667 589.5 389C609.167 402.333 620.333 411.167 623 415.5C625.667 419.833 628.833 423.667 632.5 427C636.167 430.333 639.833 433 643.5 435C647.167 437 652.167 438.667 658.5 440C664.833 441.333 668.167 444.333 668.5 449C668.833 453.667 668.5 459 667.5 465C666.5 471 679.5 489.333 706.5 520C733.5 550.667 754.333 566 769 566C783.667 566 796.167 558 806.5 542C816.833 526 827.5 517.167 838.5 515.5C849.5 513.833 856 512.5 858 511.5C860 510.5 868.833 499.167 884.5 477.5C900.167 455.833 902.5 433.5 891.5 410.5C880.5 387.5 875.167 369.667 875.5 357C875.833 344.333 875.333 334.167 874 326.5C872.667 318.833 871 312 869 306C867 300 863.167 292.333 857.5 283C851.833 273.667 846.667 266.667 842 262C837.333 257.333 831.833 252.833 825.5 248.5C819.167 244.167 811.833 240.167 803.5 236.5C795.167 232.833 784.833 229.333 772.5 226C760.167 222.667 749.833 220.333 741.5 219C733.167 217.667 722.833 217 710.5 217ZM708.5 229C720.167 229 731.333 229.833 742 231.5C752.667 233.167 762.667 235.333 772 238C781.333 240.667 790 243.833 798 247.5C806 251.167 813 255 819 259C825 263 830.667 267.667 836 273C841.333 278.333 845.667 283.5 849 288.5C852.333 293.5 855.333 299.333 858 306C860.667 312.667 862.833 321.833 864.5 333.5C866.167 345.167 866.667 355.5 866 364.5C865.333 373.5 870 388.333 880 409C890 429.667 895 440.667 895 442C895 443.333 887.333 454 872 474C856.667 494 842.833 504.667 830.5 506C818.167 507.333 808.167 515.333 800.5 530C792.833 544.667 788.167 552.667 786.5 554C784.833 555.333 778.5 555.833 767.5 555.5C756.5 555.167 739.333 541.5 716 514.5C692.667 487.5 681 470.333 681 463C681 455.667 680 448.667 678 442C676 435.333 673.167 431.833 669.5 431.5C665.833 431.167 661.333 429.833 656 427.5C650.667 425.167 645.833 422 641.5 418C637.167 414 634.167 410.5 632.5 407.5C630.833 404.5 620.5 396.833 601.5 384.5C582.5 372.167 573 364.833 573 362.5C573 360.167 576.167 350.5 582.5 333.5C588.833 316.5 594.167 304 598.5 296C602.833 288 607.333 280.833 612 274.5C616.667 268.167 622.167 262.167 628.5 256.5C634.833 250.833 641 246.333 647 243C653 239.667 661.833 236.5 673.5 233.5C685.167 230.5 696.833 229 708.5 229Z" fill="none" opacity="1" stroke="#000000" stroke-linecap="butt" stroke-linejoin="round" stroke-width="2"/>
<path d="M788.75 504.25C783.536 504.469 778.458 510.542 773.5 522.5C770.667 529.333 767.833 536.167 765 543C767.5 543 770 543 772.5 543C777.5 543 783.333 537 790 525C793.333 519 796.667 513 800 507C797 506.167 794 505.333 791 504.5C790.25 504.292 789.495 504.219 788.75 504.25Z" fill="none" opacity="1" stroke="#000000" stroke-linecap="butt" stroke-linejoin="round" stroke-width="2"/>
<path d="M1111 270C1109.67 270 1102.5 271.333 1089.5 274C1076.5 276.667 1064.5 280.333 1053.5 285C1042.5 289.667 1034 294.167 1028 298.5C1022 302.833 1015.67 309 1009 317C1002.33 325 997.167 333.167 993.5 341.5C989.833 349.833 986.833 360.667 984.5 374C982.167 387.333 981.167 402.667 981.5 420C981.833 437.333 983.167 454.167 985.5 470.5C986.667 478.667 987.833 486.833 989 495C991.833 493.833 994.667 492.667 997.5 491.5C1003.17 489.167 1005 480.833 1003 466.5C1001 452.167 999.833 437.5 999.5 422.5C999.167 407.5 1000 393.833 1002 381.5C1004 369.167 1006.67 359 1010 351C1013.33 343 1017.17 336 1021.5 330C1025.83 324 1032 317.833 1040 311.5C1048 305.167 1056.33 300.167 1065 296.5C1073.67 292.833 1083.33 290 1094 288C1104.67 286 1110.5 282.5 1111.5 277.5C1112 275 1112.5 272.5 1113 270C1112.33 270 1111.67 270 1111 270Z" fill="none" opacity="1" stroke="#000000" stroke-linecap="butt" stroke-linejoin="round" stroke-width="2"/>
<path d="M860 437C860.167 442.333 860.333 447.667 860.5 453C860.667 458.333 860.833 463.667 861 469C863.833 465 866.667 461 869.5 457C872.333 453 875.167 449 878 445C875 443.667 872 442.333 869 441C866 439.667 863 438.333 860 437Z" fill="none" opacity="1" stroke="#000000" stroke-linecap="butt" stroke-linejoin="round" stroke-width="2"/>
<path d="M1123 353C1117.67 353 1112.83 353.833 1108.5 355.5C1104.17 357.167 1100.17 359.667 1096.5 363C1092.83 366.333 1090.17 369.5 1088.5 372.5C1086.83 375.5 1085.33 379.667 1084 385C1082.67 390.333 1082 395.833 1082 401.5C1082 407.167 1083.67 424.5 1087 453.5C1088.67 468 1090.33 482.5 1092 497C1105.67 490.5 1119.33 484 1133 477.5C1160.33 464.5 1172.67 446.333 1170 423C1167.33 399.667 1165.17 385.333 1163.5 380C1161.83 374.667 1159.5 370.333 1156.5 367C1153.5 363.667 1150.67 361.167 1148 359.5C1145.33 357.833 1141.83 356.333 1137.5 355C1133.17 353.667 1128.33 353 1123 353ZM1124.5 368C1127.5 368 1131 368.667 1135 370C1139 371.333 1142.83 373.833 1146.5 377.5C1150.17 381.167 1152.67 384.833 1154 388.5C1155.33 392.167 1156 396 1156 400C1156 404 1155 408.333 1153 413C1151 417.667 1148.5 421.333 1145.5 424C1142.5 426.667 1139.17 428.667 1135.5 430C1131.83 431.333 1128.33 432 1125 432C1121.67 432 1117.83 431.167 1113.5 429.5C1109.17 427.833 1105.67 425.667 1103 423C1100.33 420.333 1098.17 417.167 1096.5 413.5C1094.83 409.833 1093.83 406.5 1093.5 403.5C1093.17 400.5 1093.67 396.5 1095 391.5C1096.33 386.5 1098.67 382.167 1102 378.5C1105.33 374.833 1109.17 372.167 1113.5 370.5C1117.83 368.833 1121.5 368 1124.5 368Z" fill="none" opacity="1" stroke="#000000" stroke-linecap="butt" stroke-linejoin="round" stroke-width="2"/>
<path d="M789.5 759C787.833 759 786.167 759.833 784.5 761.5C782.833 763.167 781 764.333 779 765C777 765.667 775 767.833 773 771.5C771 775.167 770.833 777.667 772.5 779C774.167 780.333 775.167 781.833 775.5 783.5C775.667 784.333 775.833 785.167 776 786C777 785.167 778 784.333 779 783.5C781 781.833 782.833 781.167 784.5 781.5C785.333 781.667 786.167 781.833 787 782C785.167 784 783.333 786 781.5 788C777.833 792 776.333 795 777 797C777.667 799 779.333 799.667 782 799C784.667 798.333 786.667 797.167 788 795.5C789.333 793.833 790.5 788.667 791.5 780C792.5 771.333 792.833 765.667 792.5 763C792.167 760.333 791.167 759 789.5 759Z" fill="none" opacity="1" stroke="#000000" stroke-linecap="butt" stroke-linejoin="round" stroke-width="2"/>
<path d="M706.75 241.875C701.417 242.125 695.667 242.667 689.5 243.5C677.167 245.167 667.833 247.333 661.5 250C655.167 252.667 649.833 255.5 645.5 258.5C641.167 261.5 636.667 265.333 632 270C627.333 274.667 622.5 280.667 617.5 288C612.5 295.333 607.667 304 603 314C598.333 324 594.333 334.333 591 345C587.667 355.667 594.333 366.167 611 376.5C627.667 386.833 637.5 394.167 640.5 398.5C643.5 402.833 646.5 406.333 649.5 409C652.5 411.667 655.833 413.833 659.5 415.5C663.167 417.167 668.167 418.5 674.5 419.5C680.833 420.5 685.333 425.167 688 433.5C690.667 441.833 692 449.667 692 457C692 464.333 702.333 479.667 723 503C733.333 514.667 743.667 526.333 754 538C756.833 531.333 759.667 524.667 762.5 518C768.167 504.667 765.5 495 754.5 489C743.5 483 732.333 475.833 721 467.5C709.667 459.167 703.667 453.667 703 451C702.333 448.333 702.5 446.333 703.5 445C704.5 443.667 706.167 443.167 708.5 443.5C710.833 443.833 717.333 448.167 728 456.5C738.667 464.833 750 472.333 762 479C774 485.667 784.667 490 794 492C803.333 494 809.833 494.667 813.5 494C815.333 493.667 817.167 493.333 819 493C814 490.5 809 488 804 485.5C794 480.5 781.333 473 766 463C750.667 453 743.167 435.667 743.5 411C743.833 386.333 736.167 368.667 720.5 358C704.833 347.333 696.333 341.167 695 339.5C693.667 337.833 693 336.333 693 335C693 333.667 693.5 332.333 694.5 331C695.5 329.667 702.167 326.833 714.5 322.5C726.833 318.167 734 316 736 316C738 316 749 321.5 769 332.5C789 343.5 808 352.667 826 360C835 363.667 844 367.333 853 371C853.333 370.167 853.667 369.333 854 368.5C854.667 366.833 854.833 360.833 854.5 350.5C854.167 340.167 853.333 332 852 326C850.667 320 848.333 313.5 845 306.5C841.667 299.5 837.167 292.833 831.5 286.5C825.833 280.167 820.667 275.333 816 272C811.333 268.667 802.5 264.167 789.5 258.5C776.5 252.833 764.167 248.833 752.5 246.5C740.833 244.167 730.5 242.667 721.5 242C717 241.667 712.083 241.625 706.75 241.875ZM674 341C678.667 341 683.167 342 687.5 344C691.833 346 695.333 348.5 698 351.5C700.667 354.5 702.833 358.167 704.5 362.5C706.167 366.833 707 371.333 707 376C707 380.667 706 385.333 704 390C702 394.667 699.5 398.5 696.5 401.5C693.5 404.5 689.667 406.833 685 408.5C680.333 410.167 675.833 410.833 671.5 410.5C667.167 410.167 663.333 409.167 660 407.5C656.667 405.833 653.5 403.333 650.5 400C647.5 396.667 645.167 392.5 643.5 387.5C641.833 382.5 641.167 377.667 641.5 373C641.833 368.333 642.833 364.167 644.5 360.5C646.167 356.833 648.5 353.5 651.5 350.5C654.5 347.5 657.833 345.167 661.5 343.5C665.167 341.833 669.333 341 674 341Z" fill="none" opacity="1" stroke="#000000" stroke-linecap="butt" stroke-linejoin="round" stroke-width="2"/>
<path d="M870 682.5C867.333 682.167 864.667 684 862 688C859.333 692 857.333 696 856 700C854.667 704 853 707 851 709C849 711 847.833 713 847.5 715C847.333 716 847.167 717 847 718C848.333 718.167 849.667 718.333 851 718.5C853.667 718.833 857 717.667 861 715C865 712.333 868.167 709.667 870.5 707C872.833 704.333 873.833 702.667 873.5 702C873.333 701.667 873.167 701.333 873 701C872 701.5 871 702 870 702.5C869 703 868 703.5 867 704C867.167 703.333 867.333 702.667 867.5 702C867.667 701.333 867.833 700.667 868 700C866.667 700 865.333 700 864 700C862.667 700 861.333 700 860 700C860.333 699.333 860.667 698.667 861 698C861.667 696.667 863.833 694.833 867.5 692.5C871.167 690.167 873.167 688 873.5 686C873.667 685 873.833 684 874 683C872.667 682.833 871.333 682.667 870 682.5Z" fill="none" opacity="1" stroke="#000000" stroke-linecap="butt" stroke-linejoin="round" stroke-width="2"/>
<path d="M781 396C780.833 406.167 780.667 416.333 780.5 426.5C780.167 446.833 782.5 458.5 787.5 461.5C790 463 792.5 464.5 795 466C795.167 455.667 795.333 445.333 795.5 435C795.833 414.333 793.5 402.667 788.5 400C786 398.667 783.5 397.333 781 396Z" fill="none" opacity="1" stroke="#000000" stroke-linecap="butt" stroke-linejoin="round" stroke-width="2"/>
<path d="M768.5 785.375C768 785.458 767.667 785.667 767.5 786C767.167 786.667 767.667 787.667 769 789C769.667 789.667 770.333 790.333 771 791C771.333 790.167 771.667 789.333 772 788.5C772.333 787.667 772.667 786.833 773 786C772.167 785.833 771.333 785.667 770.5 785.5C769.667 785.333 769 785.292 768.5 785.375Z" fill="none" opacity="1" stroke="#000000" stroke-linecap="butt" stroke-linejoin="round" stroke-width="2"/>
<path d="M727.219 331.938C726.198 332.021 725.292 332.208 724.5 332.5C718.167 334.833 715.167 336.667 715.5 338C715.833 339.333 722 344.167 734 352.5C746 360.833 759.5 369.333 774.5 378C789.5 386.667 806.5 396 825.5 406C844.5 416 857.667 422.5 865 425.5C868.667 427 872.333 428.5 876 430C872.667 422.5 869.333 415 866 407.5C859.333 392.5 846.167 381.167 826.5 373.5C806.833 365.833 786.5 356.5 765.5 345.5C747.125 335.875 734.365 331.354 727.219 331.938Z" fill="none" opacity="1" stroke="#000000" stroke-linecap="butt" stroke-linejoin="round" stroke-width="2"/>
<path d="M804.938 674.156C802.812 674.219 800.5 675.5 798 678C794.667 681.333 792.167 683.167 790.5 683.5C788.833 683.833 788 684.667 788 686C788 687.333 787 688.667 785 690C783 691.333 781.5 693 780.5 695C779.5 697 779.167 698.833 779.5 700.5C779.833 702.167 780.833 703 782.5 703C784.167 703 785.167 702.5 785.5 701.5C785.833 700.5 787 700 789 700C791 700 793 699.333 795 698C797 696.667 799.167 696 801.5 696C803.833 696 805.167 695.5 805.5 694.5C805.667 694 805.833 693.5 806 693C805.333 693 804.667 693 804 693C803.333 693 802.667 693 802 693C802.333 692.333 802.667 691.667 803 691C803.333 690.333 803.667 689.667 804 689C802.833 689 801.667 689 800.5 689C798.167 689 796.667 688.667 796 688C795.667 687.667 795.333 687.333 795 687C797.5 686 800 685 802.5 684C807.5 682 810.167 680.167 810.5 678.5C810.833 676.833 809.667 675.5 807 674.5C806.333 674.25 805.646 674.135 804.938 674.156Z" fill="none" opacity="1" stroke="#000000" stroke-linecap="butt" stroke-linejoin="round" stroke-width="2"/>
<path d="M808 411C807.667 421.167 807.333 431.333 807 441.5C806.333 461.833 808.667 473.333 814 476C816.667 477.333 819.333 478.667 822 480C822.167 469.833 822.333 459.667 822.5 449.5C822.833 429.167 820.5 417.667 815.5 415C813 413.667 810.5 412.333 808 411Z" fill="none" opacity="1" stroke="#000000" stroke-linecap="butt" stroke-linejoin="round" stroke-width="2"/>
<path d="M669.375 354.625C667.458 354.708 666 355 665 355.5C663 356.5 660.833 358.333 658.5 361C656.167 363.667 654.667 367.667 654 373C653.333 378.333 653.833 382.667 655.5 386C657.167 389.333 658.833 391.667 660.5 393C662.167 394.333 664.167 395.5 666.5 396.5C668.833 397.5 672 397.833 676 397.5C680 397.167 684 395 688 391C692 387 694.167 382.5 694.5 377.5C694.833 372.5 694.167 368.333 692.5 365C690.833 361.667 689.167 359.333 687.5 358C685.833 356.667 682.167 355.667 676.5 355C673.667 354.667 671.292 354.542 669.375 354.625Z" fill="none" opacity="1" stroke="#000000" stroke-linecap="butt" stroke-linejoin="round" stroke-width="2"/>
</g>
</svg>
