solid ASCII
  facet normal -6.365944e-01 -7.711988e-01 -0.000000e+00
    outer loop
      vertex   1.981482e+00 9.550925e+00 1.650000e+01
      vertex   1.683188e+00 9.797156e+00 1.650000e+01
      vertex   1.981482e+00 9.550925e+00 1.550000e+01
    endloop
  endfacet
  facet normal -6.365944e-01 -7.711988e-01 0.000000e+00
    outer loop
      vertex   1.981482e+00 9.550925e+00 1.550000e+01
      vertex   1.683188e+00 9.797156e+00 1.650000e+01
      vertex   1.683188e+00 9.797156e+00 1.550000e+01
    endloop
  endfacet
  facet normal -6.504964e-01 -7.595093e-01 0.000000e+00
    outer loop
      vertex   1.683188e+00 9.797156e+00 1.550000e+01
      vertex   1.683188e+00 9.797156e+00 1.650000e+01
      vertex   1.536896e+00 9.922450e+00 1.650000e+01
    endloop
  endfacet
  facet normal -6.504964e-01 -7.595093e-01 0.000000e+00
    outer loop
      vertex   1.683188e+00 9.797156e+00 1.550000e+01
      vertex   1.536896e+00 9.922450e+00 1.650000e+01
      vertex   1.536896e+00 9.922450e+00 1.550000e+01
    endloop
  endfacet
  facet normal -6.670343e-01 -7.450270e-01 0.000000e+00
    outer loop
      vertex   1.536896e+00 9.922450e+00 1.550000e+01
      vertex   1.536896e+00 9.922450e+00 1.650000e+01
      vertex   1.394032e+00 1.005036e+01 1.650000e+01
    endloop
  endfacet
  facet normal -6.670343e-01 -7.450270e-01 0.000000e+00
    outer loop
      vertex   1.536896e+00 9.922450e+00 1.550000e+01
      vertex   1.394032e+00 1.005036e+01 1.650000e+01
      vertex   1.394032e+00 1.005036e+01 1.550000e+01
    endloop
  endfacet
  facet normal -6.887897e-01 -7.249612e-01 0.000000e+00
    outer loop
      vertex   1.394032e+00 1.005036e+01 1.550000e+01
      vertex   1.394032e+00 1.005036e+01 1.650000e+01
      vertex   1.255736e+00 1.018175e+01 1.650000e+01
    endloop
  endfacet
  facet normal -6.887897e-01 -7.249612e-01 0.000000e+00
    outer loop
      vertex   1.394032e+00 1.005036e+01 1.550000e+01
      vertex   1.255736e+00 1.018175e+01 1.650000e+01
      vertex   1.255736e+00 1.018175e+01 1.550000e+01
    endloop
  endfacet
  facet normal -7.154083e-01 -6.987067e-01 0.000000e+00
    outer loop
      vertex   1.255736e+00 1.018175e+01 1.550000e+01
      vertex   1.255736e+00 1.018175e+01 1.650000e+01
      vertex   1.123152e+00 1.031751e+01 1.650000e+01
    endloop
  endfacet
  facet normal -7.154083e-01 -6.987067e-01 0.000000e+00
    outer loop
      vertex   1.255736e+00 1.018175e+01 1.550000e+01
      vertex   1.123152e+00 1.031751e+01 1.650000e+01
      vertex   1.123152e+00 1.031751e+01 1.550000e+01
    endloop
  endfacet
  facet normal -7.463247e-01 -6.655821e-01 0.000000e+00
    outer loop
      vertex   1.123152e+00 1.031751e+01 1.550000e+01
      vertex   1.123152e+00 1.031751e+01 1.650000e+01
      vertex   9.974218e-01 1.045849e+01 1.650000e+01
    endloop
  endfacet
  facet normal -7.463247e-01 -6.655821e-01 0.000000e+00
    outer loop
      vertex   1.123152e+00 1.031751e+01 1.550000e+01
      vertex   9.974218e-01 1.045849e+01 1.650000e+01
      vertex   9.974218e-01 1.045849e+01 1.550000e+01
    endloop
  endfacet
  facet normal -7.806898e-01 -6.249187e-01 0.000000e+00
    outer loop
      vertex   9.974218e-01 1.045849e+01 1.550000e+01
      vertex   9.974218e-01 1.045849e+01 1.650000e+01
      vertex   8.796862e-01 1.060557e+01 1.650000e+01
    endloop
  endfacet
  facet normal -7.806898e-01 -6.249187e-01 0.000000e+00
    outer loop
      vertex   9.974218e-01 1.045849e+01 1.550000e+01
      vertex   8.796862e-01 1.060557e+01 1.650000e+01
      vertex   8.796862e-01 1.060557e+01 1.550000e+01
    endloop
  endfacet
  facet normal -8.151657e-01 -5.792278e-01 0.000000e+00
    outer loop
      vertex   8.796862e-01 1.060557e+01 1.550000e+01
      vertex   8.796862e-01 1.060557e+01 1.650000e+01
      vertex   7.705252e-01 1.075920e+01 1.650000e+01
    endloop
  endfacet
  facet normal -8.151657e-01 -5.792278e-01 0.000000e+00
    outer loop
      vertex   8.796862e-01 1.060557e+01 1.550000e+01
      vertex   7.705252e-01 1.075920e+01 1.650000e+01
      vertex   7.705252e-01 1.075920e+01 1.550000e+01
    endloop
  endfacet
  facet normal -8.437736e-01 -5.366993e-01 0.000000e+00
    outer loop
      vertex   7.705252e-01 1.075920e+01 1.550000e+01
      vertex   7.705252e-01 1.075920e+01 1.650000e+01
      vertex   6.690689e-01 1.091870e+01 1.650000e+01
    endloop
  endfacet
  facet normal -8.437736e-01 -5.366993e-01 0.000000e+00
    outer loop
      vertex   7.705252e-01 1.075920e+01 1.550000e+01
      vertex   6.690689e-01 1.091870e+01 1.650000e+01
      vertex   6.690689e-01 1.091870e+01 1.550000e+01
    endloop
  endfacet
  facet normal -8.663611e-01 -4.994180e-01 0.000000e+00
    outer loop
      vertex   6.690689e-01 1.091870e+01 1.550000e+01
      vertex   6.690689e-01 1.091870e+01 1.650000e+01
      vertex   5.742168e-01 1.108325e+01 1.650000e+01
    endloop
  endfacet
  facet normal -8.663611e-01 -4.994180e-01 0.000000e+00
    outer loop
      vertex   6.690689e-01 1.091870e+01 1.550000e+01
      vertex   5.742168e-01 1.108325e+01 1.650000e+01
      vertex   5.742168e-01 1.108325e+01 1.550000e+01
    endloop
  endfacet
  facet normal -8.837575e-01 -4.679453e-01 0.000000e+00
    outer loop
      vertex   5.742168e-01 1.108325e+01 1.550000e+01
      vertex   5.742168e-01 1.108325e+01 1.650000e+01
      vertex   4.848681e-01 1.125199e+01 1.650000e+01
    endloop
  endfacet
  facet normal -8.837575e-01 -4.679453e-01 0.000000e+00
    outer loop
      vertex   5.742168e-01 1.108325e+01 1.550000e+01
      vertex   4.848681e-01 1.125199e+01 1.650000e+01
      vertex   4.848681e-01 1.125199e+01 1.550000e+01
    endloop
  endfacet
  facet normal -8.967190e-01 -4.426002e-01 0.000000e+00
    outer loop
      vertex   4.848681e-01 1.125199e+01 1.550000e+01
      vertex   4.848681e-01 1.125199e+01 1.650000e+01
      vertex   3.999221e-01 1.142409e+01 1.650000e+01
    endloop
  endfacet
  facet normal -8.967190e-01 -4.426002e-01 0.000000e+00
    outer loop
      vertex   4.848681e-01 1.125199e+01 1.550000e+01
      vertex   3.999221e-01 1.142409e+01 1.650000e+01
      vertex   3.999221e-01 1.142409e+01 1.550000e+01
    endloop
  endfacet
  facet normal -9.058777e-01 -4.235395e-01 0.000000e+00
    outer loop
      vertex   3.999221e-01 1.142409e+01 1.550000e+01
      vertex   3.999221e-01 1.142409e+01 1.650000e+01
      vertex   3.182782e-01 1.159872e+01 1.650000e+01
    endloop
  endfacet
  facet normal -9.058777e-01 -4.235395e-01 0.000000e+00
    outer loop
      vertex   3.999221e-01 1.142409e+01 1.550000e+01
      vertex   3.182782e-01 1.159872e+01 1.650000e+01
      vertex   3.182782e-01 1.159872e+01 1.550000e+01
    endloop
  endfacet
  facet normal -9.131407e-01 -4.076444e-01 0.000000e+00
    outer loop
      vertex   3.182782e-01 1.159872e+01 1.550000e+01
      vertex   3.182782e-01 1.159872e+01 1.650000e+01
      vertex   1.604939e-01 1.195216e+01 1.650000e+01
    endloop
  endfacet
  facet normal -9.131407e-01 -4.076444e-01 0.000000e+00
    outer loop
      vertex   3.182782e-01 1.159872e+01 1.550000e+01
      vertex   1.604939e-01 1.195216e+01 1.650000e+01
      vertex   1.604939e-01 1.195216e+01 1.550000e+01
    endloop
  endfacet
  facet normal -0.000000e+00 -1.000000e+00 -0.000000e+00
    outer loop
      vertex   1.604939e-01 1.195216e+01 1.650000e+01
      vertex   -1.419753e-01 1.195216e+01 1.650000e+01
      vertex   1.604939e-01 1.195216e+01 1.550000e+01
    endloop
  endfacet
  facet normal 0.000000e+00 -1.000000e+00 0.000000e+00
    outer loop
      vertex   1.604939e-01 1.195216e+01 1.550000e+01
      vertex   -1.419753e-01 1.195216e+01 1.650000e+01
      vertex   -1.419753e-01 1.195216e+01 1.550000e+01
    endloop
  endfacet
  facet normal 9.131408e-01 -4.076443e-01 0.000000e+00
    outer loop
      vertex   -1.419753e-01 1.195216e+01 1.650000e+01
      vertex   -2.997596e-01 1.159872e+01 1.650000e+01
      vertex   -1.419753e-01 1.195216e+01 1.550000e+01
    endloop
  endfacet
  facet normal 9.131408e-01 -4.076443e-01 0.000000e+00
    outer loop
      vertex   -1.419753e-01 1.195216e+01 1.550000e+01
      vertex   -2.997596e-01 1.159872e+01 1.650000e+01
      vertex   -2.997596e-01 1.159872e+01 1.550000e+01
    endloop
  endfacet
  facet normal 9.058777e-01 -4.235393e-01 0.000000e+00
    outer loop
      vertex   -2.997596e-01 1.159872e+01 1.550000e+01
      vertex   -2.997596e-01 1.159872e+01 1.650000e+01
      vertex   -3.814035e-01 1.142409e+01 1.650000e+01
    endloop
  endfacet
  facet normal 9.058777e-01 -4.235393e-01 0.000000e+00
    outer loop
      vertex   -2.997596e-01 1.159872e+01 1.550000e+01
      vertex   -3.814035e-01 1.142409e+01 1.650000e+01
      vertex   -3.814035e-01 1.142409e+01 1.550000e+01
    endloop
  endfacet
  facet normal 8.967191e-01 -4.426001e-01 0.000000e+00
    outer loop
      vertex   -3.814035e-01 1.142409e+01 1.550000e+01
      vertex   -3.814035e-01 1.142409e+01 1.650000e+01
      vertex   -4.663494e-01 1.125199e+01 1.650000e+01
    endloop
  endfacet
  facet normal 8.967191e-01 -4.426001e-01 0.000000e+00
    outer loop
      vertex   -3.814035e-01 1.142409e+01 1.550000e+01
      vertex   -4.663494e-01 1.125199e+01 1.650000e+01
      vertex   -4.663494e-01 1.125199e+01 1.550000e+01
    endloop
  endfacet
  facet normal 8.837575e-01 -4.679451e-01 0.000000e+00
    outer loop
      vertex   -4.663494e-01 1.125199e+01 1.550000e+01
      vertex   -4.663494e-01 1.125199e+01 1.650000e+01
      vertex   -5.556980e-01 1.108325e+01 1.650000e+01
    endloop
  endfacet
  facet normal 8.837575e-01 -4.679451e-01 0.000000e+00
    outer loop
      vertex   -4.663494e-01 1.125199e+01 1.550000e+01
      vertex   -5.556980e-01 1.108325e+01 1.650000e+01
      vertex   -5.556980e-01 1.108325e+01 1.550000e+01
    endloop
  endfacet
  facet normal 8.663612e-01 -4.994179e-01 0.000000e+00
    outer loop
      vertex   -5.556980e-01 1.108325e+01 1.550000e+01
      vertex   -5.556980e-01 1.108325e+01 1.650000e+01
      vertex   -6.505501e-01 1.091870e+01 1.650000e+01
    endloop
  endfacet
  facet normal 8.663612e-01 -4.994179e-01 0.000000e+00
    outer loop
      vertex   -5.556980e-01 1.108325e+01 1.550000e+01
      vertex   -6.505501e-01 1.091870e+01 1.650000e+01
      vertex   -6.505501e-01 1.091870e+01 1.550000e+01
    endloop
  endfacet
  facet normal 8.437737e-01 -5.366992e-01 0.000000e+00
    outer loop
      vertex   -6.505501e-01 1.091870e+01 1.550000e+01
      vertex   -6.505501e-01 1.091870e+01 1.650000e+01
      vertex   -7.520064e-01 1.075920e+01 1.650000e+01
    endloop
  endfacet
  facet normal 8.437737e-01 -5.366992e-01 0.000000e+00
    outer loop
      vertex   -6.505501e-01 1.091870e+01 1.550000e+01
      vertex   -7.520064e-01 1.075920e+01 1.650000e+01
      vertex   -7.520064e-01 1.075920e+01 1.550000e+01
    endloop
  endfacet
  facet normal 8.151657e-01 -5.792278e-01 0.000000e+00
    outer loop
      vertex   -7.520064e-01 1.075920e+01 1.550000e+01
      vertex   -7.520064e-01 1.075920e+01 1.650000e+01
      vertex   -8.611674e-01 1.060557e+01 1.650000e+01
    endloop
  endfacet
  facet normal 8.151657e-01 -5.792278e-01 0.000000e+00
    outer loop
      vertex   -7.520064e-01 1.075920e+01 1.550000e+01
      vertex   -8.611674e-01 1.060557e+01 1.650000e+01
      vertex   -8.611674e-01 1.060557e+01 1.550000e+01
    endloop
  endfacet
  facet normal 7.806898e-01 -6.249187e-01 0.000000e+00
    outer loop
      vertex   -8.611674e-01 1.060557e+01 1.550000e+01
      vertex   -8.611674e-01 1.060557e+01 1.650000e+01
      vertex   -9.789029e-01 1.045849e+01 1.650000e+01
    endloop
  endfacet
  facet normal 7.806898e-01 -6.249187e-01 0.000000e+00
    outer loop
      vertex   -8.611674e-01 1.060557e+01 1.550000e+01
      vertex   -9.789029e-01 1.045849e+01 1.650000e+01
      vertex   -9.789029e-01 1.045849e+01 1.550000e+01
    endloop
  endfacet
  facet normal 7.463247e-01 -6.655821e-01 0.000000e+00
    outer loop
      vertex   -9.789029e-01 1.045849e+01 1.550000e+01
      vertex   -9.789029e-01 1.045849e+01 1.650000e+01
      vertex   -1.104633e+00 1.031751e+01 1.650000e+01
    endloop
  endfacet
  facet normal 7.463247e-01 -6.655821e-01 0.000000e+00
    outer loop
      vertex   -9.789029e-01 1.045849e+01 1.550000e+01
      vertex   -1.104633e+00 1.031751e+01 1.650000e+01
      vertex   -1.104633e+00 1.031751e+01 1.550000e+01
    endloop
  endfacet
  facet normal 7.154083e-01 -6.987067e-01 0.000000e+00
    outer loop
      vertex   -1.104633e+00 1.031751e+01 1.550000e+01
      vertex   -1.104633e+00 1.031751e+01 1.650000e+01
      vertex   -1.237217e+00 1.018175e+01 1.650000e+01
    endloop
  endfacet
  facet normal 7.154083e-01 -6.987067e-01 0.000000e+00
    outer loop
      vertex   -1.104633e+00 1.031751e+01 1.550000e+01
      vertex   -1.237217e+00 1.018175e+01 1.650000e+01
      vertex   -1.237217e+00 1.018175e+01 1.550000e+01
    endloop
  endfacet
  facet normal 6.887897e-01 -7.249612e-01 0.000000e+00
    outer loop
      vertex   -1.237217e+00 1.018175e+01 1.550000e+01
      vertex   -1.237217e+00 1.018175e+01 1.650000e+01
      vertex   -1.375513e+00 1.005036e+01 1.650000e+01
    endloop
  endfacet
  facet normal 6.887897e-01 -7.249612e-01 0.000000e+00
    outer loop
      vertex   -1.237217e+00 1.018175e+01 1.550000e+01
      vertex   -1.375513e+00 1.005036e+01 1.650000e+01
      vertex   -1.375513e+00 1.005036e+01 1.550000e+01
    endloop
  endfacet
  facet normal 6.670343e-01 -7.450270e-01 0.000000e+00
    outer loop
      vertex   -1.375513e+00 1.005036e+01 1.550000e+01
      vertex   -1.375513e+00 1.005036e+01 1.650000e+01
      vertex   -1.518377e+00 9.922450e+00 1.650000e+01
    endloop
  endfacet
  facet normal 6.670343e-01 -7.450270e-01 0.000000e+00
    outer loop
      vertex   -1.375513e+00 1.005036e+01 1.550000e+01
      vertex   -1.518377e+00 9.922450e+00 1.650000e+01
      vertex   -1.518377e+00 9.922450e+00 1.550000e+01
    endloop
  endfacet
  facet normal 6.504964e-01 -7.595094e-01 0.000000e+00
    outer loop
      vertex   -1.518377e+00 9.922450e+00 1.550000e+01
      vertex   -1.518377e+00 9.922450e+00 1.650000e+01
      vertex   -1.664669e+00 9.797156e+00 1.650000e+01
    endloop
  endfacet
  facet normal 6.504964e-01 -7.595094e-01 0.000000e+00
    outer loop
      vertex   -1.518377e+00 9.922450e+00 1.550000e+01
      vertex   -1.664669e+00 9.797156e+00 1.650000e+01
      vertex   -1.664669e+00 9.797156e+00 1.550000e+01
    endloop
  endfacet
  facet normal 6.365944e-01 -7.711988e-01 0.000000e+00
    outer loop
      vertex   -1.664669e+00 9.797156e+00 1.550000e+01
      vertex   -1.664669e+00 9.797156e+00 1.650000e+01
      vertex   -1.962963e+00 9.550925e+00 1.650000e+01
    endloop
  endfacet
  facet normal 6.365944e-01 -7.711988e-01 0.000000e+00
    outer loop
      vertex   -1.664669e+00 9.797156e+00 1.550000e+01
      vertex   -1.962963e+00 9.550925e+00 1.650000e+01
      vertex   -1.962963e+00 9.550925e+00 1.550000e+01
    endloop
  endfacet
  facet normal 1.000000e+00 0.000000e+00 0.000000e+00
    outer loop
      vertex   -1.962963e+00 9.550925e+00 1.650000e+01
      vertex   -1.962963e+00 9.106481e+00 1.650000e+01
      vertex   -1.962963e+00 9.550925e+00 1.550000e+01
    endloop
  endfacet
  facet normal 1.000000e+00 0.000000e+00 0.000000e+00
    outer loop
      vertex   -1.962963e+00 9.550925e+00 1.550000e+01
      vertex   -1.962963e+00 9.106481e+00 1.650000e+01
      vertex   -1.962963e+00 9.106481e+00 1.550000e+01
    endloop
  endfacet
  facet normal -3.789294e-01 9.254256e-01 0.000000e+00
    outer loop
      vertex   -1.962963e+00 9.106481e+00 1.650000e+01
      vertex   -1.735624e+00 9.199568e+00 1.650000e+01
      vertex   -1.962963e+00 9.106481e+00 1.550000e+01
    endloop
  endfacet
  facet normal -3.789294e-01 9.254256e-01 0.000000e+00
    outer loop
      vertex   -1.962963e+00 9.106481e+00 1.550000e+01
      vertex   -1.735624e+00 9.199568e+00 1.650000e+01
      vertex   -1.735624e+00 9.199568e+00 1.550000e+01
    endloop
  endfacet
  facet normal -3.969694e-01 9.178318e-01 0.000000e+00
    outer loop
      vertex   -1.735624e+00 9.199568e+00 1.550000e+01
      vertex   -1.735624e+00 9.199568e+00 1.650000e+01
      vertex   -1.510766e+00 9.296821e+00 1.650000e+01
    endloop
  endfacet
  facet normal -3.969694e-01 9.178318e-01 0.000000e+00
    outer loop
      vertex   -1.735624e+00 9.199568e+00 1.550000e+01
      vertex   -1.510766e+00 9.296821e+00 1.650000e+01
      vertex   -1.510766e+00 9.296821e+00 1.550000e+01
    endloop
  endfacet
  facet normal -4.328434e-01 9.014691e-01 0.000000e+00
    outer loop
      vertex   -1.510766e+00 9.296821e+00 1.550000e+01
      vertex   -1.510766e+00 9.296821e+00 1.650000e+01
      vertex   -1.290869e+00 9.402405e+00 1.650000e+01
    endloop
  endfacet
  facet normal -4.328434e-01 9.014691e-01 0.000000e+00
    outer loop
      vertex   -1.510766e+00 9.296821e+00 1.550000e+01
      vertex   -1.290869e+00 9.402405e+00 1.650000e+01
      vertex   -1.290869e+00 9.402405e+00 1.550000e+01
    endloop
  endfacet
  facet normal -4.704900e-01 8.824053e-01 0.000000e+00
    outer loop
      vertex   -1.290869e+00 9.402405e+00 1.550000e+01
      vertex   -1.290869e+00 9.402405e+00 1.650000e+01
      vertex   -1.183557e+00 9.459623e+00 1.650000e+01
    endloop
  endfacet
  facet normal -4.704900e-01 8.824053e-01 0.000000e+00
    outer loop
      vertex   -1.290869e+00 9.402405e+00 1.550000e+01
      vertex   -1.183557e+00 9.459623e+00 1.650000e+01
      vertex   -1.183557e+00 9.459623e+00 1.550000e+01
    endloop
  endfacet
  facet normal -5.009597e-01 8.654706e-01 0.000000e+00
    outer loop
      vertex   -1.183557e+00 9.459623e+00 1.550000e+01
      vertex   -1.183557e+00 9.459623e+00 1.650000e+01
      vertex   -1.078414e+00 9.520483e+00 1.650000e+01
    endloop
  endfacet
  facet normal -5.009597e-01 8.654706e-01 0.000000e+00
    outer loop
      vertex   -1.183557e+00 9.459623e+00 1.550000e+01
      vertex   -1.078414e+00 9.520483e+00 1.650000e+01
      vertex   -1.078414e+00 9.520483e+00 1.550000e+01
    endloop
  endfacet
  facet normal -5.324440e-01 8.464653e-01 0.000000e+00
    outer loop
      vertex   -1.078414e+00 9.520483e+00 1.550000e+01
      vertex   -1.078414e+00 9.520483e+00 1.650000e+01
      vertex   -9.755568e-01 9.585182e+00 1.650000e+01
    endloop
  endfacet
  facet normal -5.324440e-01 8.464653e-01 0.000000e+00
    outer loop
      vertex   -1.078414e+00 9.520483e+00 1.550000e+01
      vertex   -9.755568e-01 9.585182e+00 1.650000e+01
      vertex   -9.755568e-01 9.585182e+00 1.550000e+01
    endloop
  endfacet
  facet normal -5.598445e-01 8.285977e-01 0.000000e+00
    outer loop
      vertex   -9.755568e-01 9.585182e+00 1.550000e+01
      vertex   -9.755568e-01 9.585182e+00 1.650000e+01
      vertex   -8.747367e-01 9.653302e+00 1.650000e+01
    endloop
  endfacet
  facet normal -5.598445e-01 8.285977e-01 0.000000e+00
    outer loop
      vertex   -9.755568e-01 9.585182e+00 1.550000e+01
      vertex   -8.747367e-01 9.653302e+00 1.650000e+01
      vertex   -8.747367e-01 9.653302e+00 1.550000e+01
    endloop
  endfacet
  facet normal -5.921712e-01 8.058122e-01 0.000000e+00
    outer loop
      vertex   -8.747367e-01 9.653302e+00 1.550000e+01
      vertex   -8.747367e-01 9.653302e+00 1.650000e+01
      vertex   -6.780435e-01 9.797847e+00 1.650000e+01
    endloop
  endfacet
  facet normal -5.921712e-01 8.058122e-01 0.000000e+00
    outer loop
      vertex   -8.747367e-01 9.653302e+00 1.550000e+01
      vertex   -6.780435e-01 9.797847e+00 1.650000e+01
      vertex   -6.780435e-01 9.797847e+00 1.550000e+01
    endloop
  endfacet
  facet normal -6.215375e-01 7.833844e-01 0.000000e+00
    outer loop
      vertex   -6.780435e-01 9.797847e+00 1.550000e+01
      vertex   -6.780435e-01 9.797847e+00 1.650000e+01
      vertex   -4.860060e-01 9.950209e+00 1.650000e+01
    endloop
  endfacet
  facet normal -6.215375e-01 7.833844e-01 0.000000e+00
    outer loop
      vertex   -6.780435e-01 9.797847e+00 1.550000e+01
      vertex   -4.860060e-01 9.950209e+00 1.650000e+01
      vertex   -4.860060e-01 9.950209e+00 1.550000e+01
    endloop
  endfacet
  facet normal -6.358043e-01 7.718503e-01 0.000000e+00
    outer loop
      vertex   -4.860060e-01 9.950209e+00 1.550000e+01
      vertex   -4.860060e-01 9.950209e+00 1.650000e+01
      vertex   -2.962965e-01 1.010648e+01 1.650000e+01
    endloop
  endfacet
  facet normal -6.358043e-01 7.718503e-01 0.000000e+00
    outer loop
      vertex   -4.860060e-01 9.950209e+00 1.550000e+01
      vertex   -2.962965e-01 1.010648e+01 1.650000e+01
      vertex   -2.962965e-01 1.010648e+01 1.550000e+01
    endloop
  endfacet
  facet normal 1.000000e+00 0.000000e+00 0.000000e+00
    outer loop
      vertex   -2.962965e-01 1.010648e+01 1.650000e+01
      vertex   -2.962965e-01 3.581790e+00 1.650000e+01
      vertex   -2.962965e-01 1.010648e+01 1.550000e+01
    endloop
  endfacet
  facet normal 1.000000e+00 0.000000e+00 0.000000e+00
    outer loop
      vertex   -2.962965e-01 1.010648e+01 1.550000e+01
      vertex   -2.962965e-01 3.581790e+00 1.650000e+01
      vertex   -2.962965e-01 3.581790e+00 1.550000e+01
    endloop
  endfacet
  facet normal -0.000000e+00 1.000000e+00 0.000000e+00
    outer loop
      vertex   -2.962965e-01 3.581790e+00 1.650000e+01
      vertex   3.086418e-01 3.581790e+00 1.650000e+01
      vertex   -2.962965e-01 3.581790e+00 1.550000e+01
    endloop
  endfacet
  facet normal 0.000000e+00 1.000000e+00 0.000000e+00
    outer loop
      vertex   -2.962965e-01 3.581790e+00 1.550000e+01
      vertex   3.086418e-01 3.581790e+00 1.650000e+01
      vertex   3.086418e-01 3.581790e+00 1.550000e+01
    endloop
  endfacet
  facet normal -1.000000e+00 0.000000e+00 0.000000e+00
    outer loop
      vertex   3.086418e-01 3.581790e+00 1.650000e+01
      vertex   3.086418e-01 1.010648e+01 1.650000e+01
      vertex   3.086418e-01 3.581790e+00 1.550000e+01
    endloop
  endfacet
  facet normal -1.000000e+00 0.000000e+00 0.000000e+00
    outer loop
      vertex   3.086418e-01 3.581790e+00 1.550000e+01
      vertex   3.086418e-01 1.010648e+01 1.650000e+01
      vertex   3.086418e-01 1.010648e+01 1.550000e+01
    endloop
  endfacet
  facet normal 6.352386e-01 7.723159e-01 0.000000e+00
    outer loop
      vertex   3.086418e-01 1.010648e+01 1.650000e+01
      vertex   4.990050e-01 9.949905e+00 1.650000e+01
      vertex   3.086418e-01 1.010648e+01 1.550000e+01
    endloop
  endfacet
  facet normal 6.352386e-01 7.723159e-01 0.000000e+00
    outer loop
      vertex   3.086418e-01 1.010648e+01 1.550000e+01
      vertex   4.990050e-01 9.949905e+00 1.650000e+01
      vertex   4.990050e-01 9.949905e+00 1.550000e+01
    endloop
  endfacet
  facet normal 6.208635e-01 7.839187e-01 -0.000000e+00
    outer loop
      vertex   4.990050e-01 9.949905e+00 1.550000e+01
      vertex   4.990050e-01 9.949905e+00 1.650000e+01
      vertex   6.917133e-01 9.797280e+00 1.650000e+01
    endloop
  endfacet
  facet normal 6.208635e-01 7.839187e-01 0.000000e+00
    outer loop
      vertex   4.990050e-01 9.949905e+00 1.550000e+01
      vertex   6.917133e-01 9.797280e+00 1.650000e+01
      vertex   6.917133e-01 9.797280e+00 1.550000e+01
    endloop
  endfacet
  facet normal 5.912684e-01 8.064749e-01 -0.000000e+00
    outer loop
      vertex   6.917133e-01 9.797280e+00 1.550000e+01
      vertex   6.917133e-01 9.797280e+00 1.650000e+01
      vertex   8.891118e-01 9.652557e+00 1.650000e+01
    endloop
  endfacet
  facet normal 5.912684e-01 8.064749e-01 0.000000e+00
    outer loop
      vertex   6.917133e-01 9.797280e+00 1.550000e+01
      vertex   8.891118e-01 9.652557e+00 1.650000e+01
      vertex   8.891118e-01 9.652557e+00 1.550000e+01
    endloop
  endfacet
  facet normal 5.586829e-01 8.293813e-01 -0.000000e+00
    outer loop
      vertex   8.891118e-01 9.652557e+00 1.550000e+01
      vertex   8.891118e-01 9.652557e+00 1.650000e+01
      vertex   9.903027e-01 9.584393e+00 1.650000e+01
    endloop
  endfacet
  facet normal 5.586829e-01 8.293813e-01 0.000000e+00
    outer loop
      vertex   8.891118e-01 9.652557e+00 1.550000e+01
      vertex   9.903027e-01 9.584393e+00 1.650000e+01
      vertex   9.903027e-01 9.584393e+00 1.550000e+01
    endloop
  endfacet
  facet normal 5.310593e-01 8.473347e-01 -0.000000e+00
    outer loop
      vertex   9.903027e-01 9.584393e+00 1.550000e+01
      vertex   9.903027e-01 9.584393e+00 1.650000e+01
      vertex   1.093546e+00 9.519687e+00 1.650000e+01
    endloop
  endfacet
  facet normal 5.310593e-01 8.473347e-01 0.000000e+00
    outer loop
      vertex   9.903027e-01 9.584393e+00 1.550000e+01
      vertex   1.093546e+00 9.519687e+00 1.650000e+01
      vertex   1.093546e+00 9.519687e+00 1.550000e+01
    endloop
  endfacet
  facet normal 4.993457e-01 8.664028e-01 -0.000000e+00
    outer loop
      vertex   1.093546e+00 9.519687e+00 1.550000e+01
      vertex   1.093546e+00 9.519687e+00 1.650000e+01
      vertex   1.199089e+00 9.458857e+00 1.650000e+01
    endloop
  endfacet
  facet normal 4.993457e-01 8.664028e-01 0.000000e+00
    outer loop
      vertex   1.093546e+00 9.519687e+00 1.550000e+01
      vertex   1.199089e+00 9.458857e+00 1.650000e+01
      vertex   1.199089e+00 9.458857e+00 1.550000e+01
    endloop
  endfacet
  facet normal 4.687212e-01 8.833462e-01 -0.000000e+00
    outer loop
      vertex   1.199089e+00 9.458857e+00 1.550000e+01
      vertex   1.199089e+00 9.458857e+00 1.650000e+01
      vertex   1.306812e+00 9.401698e+00 1.650000e+01
    endloop
  endfacet
  facet normal 4.687212e-01 8.833462e-01 0.000000e+00
    outer loop
      vertex   1.199089e+00 9.458857e+00 1.550000e+01
      vertex   1.306812e+00 9.401698e+00 1.650000e+01
      vertex   1.306812e+00 9.401698e+00 1.550000e+01
    endloop
  endfacet
  facet normal 4.308901e-01 9.024044e-01 -0.000000e+00
    outer loop
      vertex   1.306812e+00 9.401698e+00 1.550000e+01
      vertex   1.306812e+00 9.401698e+00 1.650000e+01
      vertex   1.527550e+00 9.296297e+00 1.650000e+01
    endloop
  endfacet
  facet normal 4.308901e-01 9.024044e-01 0.000000e+00
    outer loop
      vertex   1.306812e+00 9.401698e+00 1.550000e+01
      vertex   1.527550e+00 9.296297e+00 1.650000e+01
      vertex   1.527550e+00 9.296297e+00 1.550000e+01
    endloop
  endfacet
  facet normal 3.948447e-01 9.187479e-01 -0.000000e+00
    outer loop
      vertex   1.527550e+00 9.296297e+00 1.550000e+01
      vertex   1.527550e+00 9.296297e+00 1.650000e+01
      vertex   1.753270e+00 9.199291e+00 1.650000e+01
    endloop
  endfacet
  facet normal 3.948447e-01 9.187479e-01 0.000000e+00
    outer loop
      vertex   1.527550e+00 9.296297e+00 1.550000e+01
      vertex   1.753270e+00 9.199291e+00 1.650000e+01
      vertex   1.753270e+00 9.199291e+00 1.550000e+01
    endloop
  endfacet
  facet normal 3.767203e-01 9.263270e-01 -0.000000e+00
    outer loop
      vertex   1.753270e+00 9.199291e+00 1.550000e+01
      vertex   1.753270e+00 9.199291e+00 1.650000e+01
      vertex   1.981482e+00 9.106481e+00 1.650000e+01
    endloop
  endfacet
  facet normal 3.767203e-01 9.263270e-01 0.000000e+00
    outer loop
      vertex   1.753270e+00 9.199291e+00 1.550000e+01
      vertex   1.981482e+00 9.106481e+00 1.650000e+01
      vertex   1.981482e+00 9.106481e+00 1.550000e+01
    endloop
  endfacet
  facet normal -1.000000e+00 0.000000e+00 0.000000e+00
    outer loop
      vertex   1.981482e+00 9.106481e+00 1.650000e+01
      vertex   1.981482e+00 9.550925e+00 1.650000e+01
      vertex   1.981482e+00 9.106481e+00 1.550000e+01
    endloop
  endfacet
  facet normal -1.000000e+00 0.000000e+00 0.000000e+00
    outer loop
      vertex   1.981482e+00 9.106481e+00 1.550000e+01
      vertex   1.981482e+00 9.550925e+00 1.650000e+01
      vertex   1.981482e+00 9.550925e+00 1.550000e+01
    endloop
  endfacet
  facet normal 7.783817e-15 -0.000000e+00 1.000000e+00
    outer loop
      vertex   1.981482e+00 9.106481e+00 1.550000e+01
      vertex   1.981482e+00 9.550925e+00 1.550000e+01
      vertex   1.753270e+00 9.199291e+00 1.550000e+01
    endloop
  endfacet
  facet normal 2.715321e-15 3.289461e-15 1.000000e+00
    outer loop
      vertex   1.753270e+00 9.199291e+00 1.550000e+01
      vertex   1.981482e+00 9.550925e+00 1.550000e+01
      vertex   1.683188e+00 9.797156e+00 1.550000e+01
    endloop
  endfacet
  facet normal -6.942571e-15 2.157347e-15 1.000000e+00
    outer loop
      vertex   1.753270e+00 9.199291e+00 1.550000e+01
      vertex   1.683188e+00 9.797156e+00 1.550000e+01
      vertex   1.527550e+00 9.296297e+00 1.550000e+01
    endloop
  endfacet
  facet normal 0.000000e+00 0.000000e+00 1.000000e+00
    outer loop
      vertex   1.527550e+00 9.296297e+00 1.550000e+01
      vertex   1.683188e+00 9.797156e+00 1.550000e+01
      vertex   1.536896e+00 9.922450e+00 1.550000e+01
    endloop
  endfacet
  facet normal 0.000000e+00 -0.000000e+00 1.000000e+00
    outer loop
      vertex   1.527550e+00 9.296297e+00 1.550000e+01
      vertex   1.536896e+00 9.922450e+00 1.550000e+01
      vertex   1.306812e+00 9.401698e+00 1.550000e+01
    endloop
  endfacet
  facet normal 0.000000e+00 0.000000e+00 1.000000e+00
    outer loop
      vertex   1.306812e+00 9.401698e+00 1.550000e+01
      vertex   1.536896e+00 9.922450e+00 1.550000e+01
      vertex   1.394032e+00 1.005036e+01 1.550000e+01
    endloop
  endfacet
  facet normal -1.539197e-14 2.069626e-15 1.000000e+00
    outer loop
      vertex   1.306812e+00 9.401698e+00 1.550000e+01
      vertex   1.394032e+00 1.005036e+01 1.550000e+01
      vertex   1.199089e+00 9.458857e+00 1.550000e+01
    endloop
  endfacet
  facet normal -2.172897e-15 -2.287006e-15 1.000000e+00
    outer loop
      vertex   1.199089e+00 9.458857e+00 1.550000e+01
      vertex   1.394032e+00 1.005036e+01 1.550000e+01
      vertex   1.255736e+00 1.018175e+01 1.550000e+01
    endloop
  endfacet
  facet normal 1.474819e-14 -3.612954e-15 1.000000e+00
    outer loop
      vertex   1.199089e+00 9.458857e+00 1.550000e+01
      vertex   1.255736e+00 1.018175e+01 1.550000e+01
      vertex   1.093546e+00 9.519687e+00 1.550000e+01
    endloop
  endfacet
  facet normal 0.000000e+00 0.000000e+00 1.000000e+00
    outer loop
      vertex   1.093546e+00 9.519687e+00 1.550000e+01
      vertex   1.255736e+00 1.018175e+01 1.550000e+01
      vertex   1.123152e+00 1.031751e+01 1.550000e+01
    endloop
  endfacet
  facet normal 0.000000e+00 -0.000000e+00 1.000000e+00
    outer loop
      vertex   1.093546e+00 9.519687e+00 1.550000e+01
      vertex   1.123152e+00 1.031751e+01 1.550000e+01
      vertex   9.903027e-01 9.584393e+00 1.550000e+01
    endloop
  endfacet
  facet normal 0.000000e+00 -0.000000e+00 1.000000e+00
    outer loop
      vertex   9.903027e-01 9.584393e+00 1.550000e+01
      vertex   1.123152e+00 1.031751e+01 1.550000e+01
      vertex   8.891118e-01 9.652557e+00 1.550000e+01
    endloop
  endfacet
  facet normal 0.000000e+00 0.000000e+00 1.000000e+00
    outer loop
      vertex   8.891118e-01 9.652557e+00 1.550000e+01
      vertex   1.123152e+00 1.031751e+01 1.550000e+01
      vertex   9.974218e-01 1.045849e+01 1.550000e+01
    endloop
  endfacet
  facet normal 0.000000e+00 -0.000000e+00 1.000000e+00
    outer loop
      vertex   8.891118e-01 9.652557e+00 1.550000e+01
      vertex   9.974218e-01 1.045849e+01 1.550000e+01
      vertex   6.917133e-01 9.797280e+00 1.550000e+01
    endloop
  endfacet
  facet normal 0.000000e+00 0.000000e+00 1.000000e+00
    outer loop
      vertex   6.917133e-01 9.797280e+00 1.550000e+01
      vertex   9.974218e-01 1.045849e+01 1.550000e+01
      vertex   8.796862e-01 1.060557e+01 1.550000e+01
    endloop
  endfacet
  facet normal 1.226025e-14 -2.851185e-15 1.000000e+00
    outer loop
      vertex   6.917133e-01 9.797280e+00 1.550000e+01
      vertex   8.796862e-01 1.060557e+01 1.550000e+01
      vertex   7.705252e-01 1.075920e+01 1.550000e+01
    endloop
  endfacet
  facet normal -1.373447e-15 -1.734151e-15 1.000000e+00
    outer loop
      vertex   6.917133e-01 9.797280e+00 1.550000e+01
      vertex   7.705252e-01 1.075920e+01 1.550000e+01
      vertex   4.990050e-01 9.949905e+00 1.550000e+01
    endloop
  endfacet
  facet normal -2.518427e-14 6.254437e-15 1.000000e+00
    outer loop
      vertex   4.990050e-01 9.949905e+00 1.550000e+01
      vertex   7.705252e-01 1.075920e+01 1.550000e+01
      vertex   6.690689e-01 1.091870e+01 1.550000e+01
    endloop
  endfacet
  facet normal 1.317852e-15 1.602229e-15 1.000000e+00
    outer loop
      vertex   4.990050e-01 9.949905e+00 1.550000e+01
      vertex   6.690689e-01 1.091870e+01 1.550000e+01
      vertex   3.086418e-01 1.010648e+01 1.550000e+01
    endloop
  endfacet
  facet normal 1.272551e-14 -3.459962e-15 1.000000e+00
    outer loop
      vertex   3.086418e-01 1.010648e+01 1.550000e+01
      vertex   6.690689e-01 1.091870e+01 1.550000e+01
      vertex   5.742168e-01 1.108325e+01 1.550000e+01
    endloop
  endfacet
  facet normal 0.000000e+00 0.000000e+00 1.000000e+00
    outer loop
      vertex   3.086418e-01 1.010648e+01 1.550000e+01
      vertex   5.742168e-01 1.108325e+01 1.550000e+01
      vertex   4.848681e-01 1.125199e+01 1.550000e+01
    endloop
  endfacet
  facet normal 0.000000e+00 0.000000e+00 1.000000e+00
    outer loop
      vertex   4.848681e-01 1.125199e+01 1.550000e+01
      vertex   3.999221e-01 1.142409e+01 1.550000e+01
      vertex   3.086418e-01 1.010648e+01 1.550000e+01
    endloop
  endfacet
  facet normal 0.000000e+00 0.000000e+00 1.000000e+00
    outer loop
      vertex   3.086418e-01 1.010648e+01 1.550000e+01
      vertex   3.999221e-01 1.142409e+01 1.550000e+01
      vertex   3.182782e-01 1.159872e+01 1.550000e+01
    endloop
  endfacet
  facet normal -8.622564e-15 5.568215e-17 1.000000e+00
    outer loop
      vertex   3.086418e-01 1.010648e+01 1.550000e+01
      vertex   3.182782e-01 1.159872e+01 1.550000e+01
      vertex   -2.997596e-01 1.159872e+01 1.550000e+01
    endloop
  endfacet
  facet normal -8.622564e-15 -3.849286e-15 1.000000e+00
    outer loop
      vertex   -2.997596e-01 1.159872e+01 1.550000e+01
      vertex   3.182782e-01 1.159872e+01 1.550000e+01
      vertex   1.604939e-01 1.195216e+01 1.550000e+01
    endloop
  endfacet
  facet normal 0.000000e+00 -1.507757e-14 1.000000e+00
    outer loop
      vertex   -2.997596e-01 1.159872e+01 1.550000e+01
      vertex   1.604939e-01 1.195216e+01 1.550000e+01
      vertex   -1.419753e-01 1.195216e+01 1.550000e+01
    endloop
  endfacet
  facet normal 0.000000e+00 3.571201e-15 1.000000e+00
    outer loop
      vertex   3.086418e-01 1.010648e+01 1.550000e+01
      vertex   -2.997596e-01 1.159872e+01 1.550000e+01
      vertex   -2.962965e-01 1.010648e+01 1.550000e+01
    endloop
  endfacet
  facet normal 5.734930e-14 3.704294e-15 1.000000e+00
    outer loop
      vertex   -2.962965e-01 1.010648e+01 1.550000e+01
      vertex   -2.997596e-01 1.159872e+01 1.550000e+01
      vertex   -3.814035e-01 1.142409e+01 1.550000e+01
    endloop
  endfacet
  facet normal 0.000000e+00 0.000000e+00 1.000000e+00
    outer loop
      vertex   -2.962965e-01 1.010648e+01 1.550000e+01
      vertex   -3.814035e-01 1.142409e+01 1.550000e+01
      vertex   -4.663494e-01 1.125199e+01 1.550000e+01
    endloop
  endfacet
  facet normal 0.000000e+00 0.000000e+00 1.000000e+00
    outer loop
      vertex   -4.663494e-01 1.125199e+01 1.550000e+01
      vertex   -5.556980e-01 1.108325e+01 1.550000e+01
      vertex   -2.962965e-01 1.010648e+01 1.550000e+01
    endloop
  endfacet
  facet normal 0.000000e+00 0.000000e+00 1.000000e+00
    outer loop
      vertex   -2.962965e-01 1.010648e+01 1.550000e+01
      vertex   -5.556980e-01 1.108325e+01 1.550000e+01
      vertex   -6.505501e-01 1.091870e+01 1.550000e+01
    endloop
  endfacet
  facet normal 0.000000e+00 0.000000e+00 1.000000e+00
    outer loop
      vertex   -2.962965e-01 1.010648e+01 1.550000e+01
      vertex   -6.505501e-01 1.091870e+01 1.550000e+01
      vertex   -4.860060e-01 9.950209e+00 1.550000e+01
    endloop
  endfacet
  facet normal 0.000000e+00 0.000000e+00 1.000000e+00
    outer loop
      vertex   -4.860060e-01 9.950209e+00 1.550000e+01
      vertex   -6.505501e-01 1.091870e+01 1.550000e+01
      vertex   -7.520064e-01 1.075920e+01 1.550000e+01
    endloop
  endfacet
  facet normal 0.000000e+00 0.000000e+00 1.000000e+00
    outer loop
      vertex   -4.860060e-01 9.950209e+00 1.550000e+01
      vertex   -7.520064e-01 1.075920e+01 1.550000e+01
      vertex   -6.780435e-01 9.797847e+00 1.550000e+01
    endloop
  endfacet
  facet normal 0.000000e+00 0.000000e+00 1.000000e+00
    outer loop
      vertex   -6.780435e-01 9.797847e+00 1.550000e+01
      vertex   -7.520064e-01 1.075920e+01 1.550000e+01
      vertex   -8.611674e-01 1.060557e+01 1.550000e+01
    endloop
  endfacet
  facet normal 0.000000e+00 0.000000e+00 1.000000e+00
    outer loop
      vertex   -6.780435e-01 9.797847e+00 1.550000e+01
      vertex   -8.611674e-01 1.060557e+01 1.550000e+01
      vertex   -9.789029e-01 1.045849e+01 1.550000e+01
    endloop
  endfacet
  facet normal 0.000000e+00 0.000000e+00 1.000000e+00
    outer loop
      vertex   -6.780435e-01 9.797847e+00 1.550000e+01
      vertex   -9.789029e-01 1.045849e+01 1.550000e+01
      vertex   -8.747367e-01 9.653302e+00 1.550000e+01
    endloop
  endfacet
  facet normal 0.000000e+00 0.000000e+00 1.000000e+00
    outer loop
      vertex   -8.747367e-01 9.653302e+00 1.550000e+01
      vertex   -9.789029e-01 1.045849e+01 1.550000e+01
      vertex   -1.104633e+00 1.031751e+01 1.550000e+01
    endloop
  endfacet
  facet normal 0.000000e+00 0.000000e+00 1.000000e+00
    outer loop
      vertex   -8.747367e-01 9.653302e+00 1.550000e+01
      vertex   -1.104633e+00 1.031751e+01 1.550000e+01
      vertex   -9.755568e-01 9.585182e+00 1.550000e+01
    endloop
  endfacet
  facet normal 0.000000e+00 0.000000e+00 1.000000e+00
    outer loop
      vertex   -9.755568e-01 9.585182e+00 1.550000e+01
      vertex   -1.104633e+00 1.031751e+01 1.550000e+01
      vertex   -1.078414e+00 9.520483e+00 1.550000e+01
    endloop
  endfacet
  facet normal 0.000000e+00 0.000000e+00 1.000000e+00
    outer loop
      vertex   -1.078414e+00 9.520483e+00 1.550000e+01
      vertex   -1.104633e+00 1.031751e+01 1.550000e+01
      vertex   -1.237217e+00 1.018175e+01 1.550000e+01
    endloop
  endfacet
  facet normal 0.000000e+00 0.000000e+00 1.000000e+00
    outer loop
      vertex   -1.078414e+00 9.520483e+00 1.550000e+01
      vertex   -1.237217e+00 1.018175e+01 1.550000e+01
      vertex   -1.183557e+00 9.459623e+00 1.550000e+01
    endloop
  endfacet
  facet normal 0.000000e+00 0.000000e+00 1.000000e+00
    outer loop
      vertex   -1.183557e+00 9.459623e+00 1.550000e+01
      vertex   -1.237217e+00 1.018175e+01 1.550000e+01
      vertex   -1.375513e+00 1.005036e+01 1.550000e+01
    endloop
  endfacet
  facet normal 0.000000e+00 0.000000e+00 1.000000e+00
    outer loop
      vertex   -1.183557e+00 9.459623e+00 1.550000e+01
      vertex   -1.375513e+00 1.005036e+01 1.550000e+01
      vertex   -1.290869e+00 9.402405e+00 1.550000e+01
    endloop
  endfacet
  facet normal 0.000000e+00 0.000000e+00 1.000000e+00
    outer loop
      vertex   -1.290869e+00 9.402405e+00 1.550000e+01
      vertex   -1.375513e+00 1.005036e+01 1.550000e+01
      vertex   -1.518377e+00 9.922450e+00 1.550000e+01
    endloop
  endfacet
  facet normal 0.000000e+00 0.000000e+00 1.000000e+00
    outer loop
      vertex   -1.290869e+00 9.402405e+00 1.550000e+01
      vertex   -1.518377e+00 9.922450e+00 1.550000e+01
      vertex   -1.510766e+00 9.296821e+00 1.550000e+01
    endloop
  endfacet
  facet normal 0.000000e+00 0.000000e+00 1.000000e+00
    outer loop
      vertex   -1.510766e+00 9.296821e+00 1.550000e+01
      vertex   -1.518377e+00 9.922450e+00 1.550000e+01
      vertex   -1.664669e+00 9.797156e+00 1.550000e+01
    endloop
  endfacet
  facet normal 0.000000e+00 0.000000e+00 1.000000e+00
    outer loop
      vertex   -1.510766e+00 9.296821e+00 1.550000e+01
      vertex   -1.664669e+00 9.797156e+00 1.550000e+01
      vertex   -1.735624e+00 9.199568e+00 1.550000e+01
    endloop
  endfacet
  facet normal 0.000000e+00 -0.000000e+00 1.000000e+00
    outer loop
      vertex   -1.735624e+00 9.199568e+00 1.550000e+01
      vertex   -1.664669e+00 9.797156e+00 1.550000e+01
      vertex   -1.962963e+00 9.550925e+00 1.550000e+01
    endloop
  endfacet
  facet normal 0.000000e+00 0.000000e+00 1.000000e+00
    outer loop
      vertex   -1.735624e+00 9.199568e+00 1.550000e+01
      vertex   -1.962963e+00 9.550925e+00 1.550000e+01
      vertex   -1.962963e+00 9.106481e+00 1.550000e+01
    endloop
  endfacet
  facet normal 0.000000e+00 0.000000e+00 1.000000e+00
    outer loop
      vertex   -2.962965e-01 3.581790e+00 1.550000e+01
      vertex   3.086418e-01 3.581790e+00 1.550000e+01
      vertex   -2.962965e-01 1.010648e+01 1.550000e+01
    endloop
  endfacet
  facet normal -0.000000e+00 0.000000e+00 1.000000e+00
    outer loop
      vertex   -2.962965e-01 1.010648e+01 1.550000e+01
      vertex   3.086418e-01 3.581790e+00 1.550000e+01
      vertex   3.086418e-01 1.010648e+01 1.550000e+01
    endloop
  endfacet
  facet normal -1.000000e+00 0.000000e+00 0.000000e+00
    outer loop
      vertex   -2.500000e+00 1.300000e+01 1.200000e+01
      vertex   -2.500000e+00 2.250000e+00 1.200000e+01
      vertex   -2.500000e+00 1.300000e+01 1.650000e+01
    endloop
  endfacet
  facet normal -1.000000e+00 -0.000000e+00 0.000000e+00
    outer loop
      vertex   -2.500000e+00 1.300000e+01 1.650000e+01
      vertex   -2.500000e+00 2.250000e+00 1.200000e+01
      vertex   -2.500000e+00 2.250000e+00 1.650000e+01
    endloop
  endfacet
  facet normal 1.000000e+00 0.000000e+00 0.000000e+00
    outer loop
      vertex   2.500000e+00 2.250000e+00 1.200000e+01
      vertex   2.500000e+00 1.300000e+01 1.200000e+01
      vertex   2.500000e+00 2.250000e+00 1.650000e+01
    endloop
  endfacet
  facet normal 1.000000e+00 -0.000000e+00 0.000000e+00
    outer loop
      vertex   2.500000e+00 2.250000e+00 1.650000e+01
      vertex   2.500000e+00 1.300000e+01 1.200000e+01
      vertex   2.500000e+00 1.300000e+01 1.650000e+01
    endloop
  endfacet
  facet normal 0.000000e+00 -1.000000e+00 0.000000e+00
    outer loop
      vertex   2.500000e+00 2.250000e+00 1.200000e+01
      vertex   2.500000e+00 2.250000e+00 1.650000e+01
      vertex   2.500000e-01 2.250000e+00 1.200000e+01
    endloop
  endfacet
  facet normal 0.000000e+00 -1.000000e+00 0.000000e+00
    outer loop
      vertex   2.500000e-01 2.250000e+00 1.200000e+01
      vertex   2.500000e+00 2.250000e+00 1.650000e+01
      vertex   -2.500000e+00 2.250000e+00 1.650000e+01
    endloop
  endfacet
  facet normal 0.000000e+00 -1.000000e+00 0.000000e+00
    outer loop
      vertex   2.500000e-01 2.250000e+00 1.200000e+01
      vertex   -2.500000e+00 2.250000e+00 1.650000e+01
      vertex   -2.500000e+00 2.250000e+00 1.200000e+01
    endloop
  endfacet
  facet normal 0.000000e+00 0.000000e+00 1.000000e+00
    outer loop
      vertex   -1.419753e-01 1.195216e+01 1.650000e+01
      vertex   1.604939e-01 1.195216e+01 1.650000e+01
      vertex   2.500000e+00 1.300000e+01 1.650000e+01
    endloop
  endfacet
  facet normal 0.000000e+00 0.000000e+00 1.000000e+00
    outer loop
      vertex   2.500000e+00 1.300000e+01 1.650000e+01
      vertex   1.604939e-01 1.195216e+01 1.650000e+01
      vertex   3.182782e-01 1.159872e+01 1.650000e+01
    endloop
  endfacet
  facet normal 0.000000e+00 0.000000e+00 1.000000e+00
    outer loop
      vertex   2.500000e+00 1.300000e+01 1.650000e+01
      vertex   3.182782e-01 1.159872e+01 1.650000e+01
      vertex   3.999221e-01 1.142409e+01 1.650000e+01
    endloop
  endfacet
  facet normal -0.000000e+00 0.000000e+00 1.000000e+00
    outer loop
      vertex   3.999221e-01 1.142409e+01 1.650000e+01
      vertex   4.848681e-01 1.125199e+01 1.650000e+01
      vertex   2.500000e+00 1.300000e+01 1.650000e+01
    endloop
  endfacet
  facet normal 0.000000e+00 0.000000e+00 1.000000e+00
    outer loop
      vertex   2.500000e+00 1.300000e+01 1.650000e+01
      vertex   4.848681e-01 1.125199e+01 1.650000e+01
      vertex   5.742168e-01 1.108325e+01 1.650000e+01
    endloop
  endfacet
  facet normal 0.000000e+00 0.000000e+00 1.000000e+00
    outer loop
      vertex   2.500000e+00 1.300000e+01 1.650000e+01
      vertex   5.742168e-01 1.108325e+01 1.650000e+01
      vertex   6.690689e-01 1.091870e+01 1.650000e+01
    endloop
  endfacet
  facet normal -0.000000e+00 0.000000e+00 1.000000e+00
    outer loop
      vertex   6.690689e-01 1.091870e+01 1.650000e+01
      vertex   7.705252e-01 1.075920e+01 1.650000e+01
      vertex   2.500000e+00 1.300000e+01 1.650000e+01
    endloop
  endfacet
  facet normal 0.000000e+00 0.000000e+00 1.000000e+00
    outer loop
      vertex   2.500000e+00 1.300000e+01 1.650000e+01
      vertex   7.705252e-01 1.075920e+01 1.650000e+01
      vertex   8.796862e-01 1.060557e+01 1.650000e+01
    endloop
  endfacet
  facet normal 0.000000e+00 0.000000e+00 1.000000e+00
    outer loop
      vertex   2.500000e+00 1.300000e+01 1.650000e+01
      vertex   8.796862e-01 1.060557e+01 1.650000e+01
      vertex   9.974218e-01 1.045849e+01 1.650000e+01
    endloop
  endfacet
  facet normal -0.000000e+00 0.000000e+00 1.000000e+00
    outer loop
      vertex   9.974218e-01 1.045849e+01 1.650000e+01
      vertex   1.123152e+00 1.031751e+01 1.650000e+01
      vertex   2.500000e+00 1.300000e+01 1.650000e+01
    endloop
  endfacet
  facet normal 1.756488e-14 -9.015556e-15 1.000000e+00
    outer loop
      vertex   2.500000e+00 1.300000e+01 1.650000e+01
      vertex   1.123152e+00 1.031751e+01 1.650000e+01
      vertex   1.255736e+00 1.018175e+01 1.650000e+01
    endloop
  endfacet
  facet normal -1.894153e-14 7.102129e-15 1.000000e+00
    outer loop
      vertex   2.500000e+00 1.300000e+01 1.650000e+01
      vertex   1.255736e+00 1.018175e+01 1.650000e+01
      vertex   1.394032e+00 1.005036e+01 1.650000e+01
    endloop
  endfacet
  facet normal -0.000000e+00 0.000000e+00 1.000000e+00
    outer loop
      vertex   1.394032e+00 1.005036e+01 1.650000e+01
      vertex   1.536896e+00 9.922450e+00 1.650000e+01
      vertex   2.500000e+00 1.300000e+01 1.650000e+01
    endloop
  endfacet
  facet normal 0.000000e+00 0.000000e+00 1.000000e+00
    outer loop
      vertex   2.500000e+00 1.300000e+01 1.650000e+01
      vertex   1.536896e+00 9.922450e+00 1.650000e+01
      vertex   1.683188e+00 9.797156e+00 1.650000e+01
    endloop
  endfacet
  facet normal 0.000000e+00 0.000000e+00 1.000000e+00
    outer loop
      vertex   2.500000e+00 1.300000e+01 1.650000e+01
      vertex   1.683188e+00 9.797156e+00 1.650000e+01
      vertex   1.981482e+00 9.550925e+00 1.650000e+01
    endloop
  endfacet
  facet normal -0.000000e+00 0.000000e+00 1.000000e+00
    outer loop
      vertex   1.981482e+00 9.550925e+00 1.650000e+01
      vertex   1.981482e+00 9.106481e+00 1.650000e+01
      vertex   2.500000e+00 1.300000e+01 1.650000e+01
    endloop
  endfacet
  facet normal 0.000000e+00 0.000000e+00 1.000000e+00
    outer loop
      vertex   2.500000e+00 1.300000e+01 1.650000e+01
      vertex   1.981482e+00 9.106481e+00 1.650000e+01
      vertex   2.500000e+00 2.250000e+00 1.650000e+01
    endloop
  endfacet
  facet normal 0.000000e+00 0.000000e+00 1.000000e+00
    outer loop
      vertex   2.500000e+00 2.250000e+00 1.650000e+01
      vertex   1.981482e+00 9.106481e+00 1.650000e+01
      vertex   3.086418e-01 3.581790e+00 1.650000e+01
    endloop
  endfacet
  facet normal 0.000000e+00 0.000000e+00 1.000000e+00
    outer loop
      vertex   2.500000e+00 2.250000e+00 1.650000e+01
      vertex   3.086418e-01 3.581790e+00 1.650000e+01
      vertex   -2.962965e-01 3.581790e+00 1.650000e+01
    endloop
  endfacet
  facet normal 0.000000e+00 0.000000e+00 1.000000e+00
    outer loop
      vertex   1.981482e+00 9.106481e+00 1.650000e+01
      vertex   1.753270e+00 9.199291e+00 1.650000e+01
      vertex   3.086418e-01 3.581790e+00 1.650000e+01
    endloop
  endfacet
  facet normal 0.000000e+00 0.000000e+00 1.000000e+00
    outer loop
      vertex   3.086418e-01 3.581790e+00 1.650000e+01
      vertex   1.753270e+00 9.199291e+00 1.650000e+01
      vertex   1.527550e+00 9.296297e+00 1.650000e+01
    endloop
  endfacet
  facet normal 0.000000e+00 0.000000e+00 1.000000e+00
    outer loop
      vertex   3.086418e-01 3.581790e+00 1.650000e+01
      vertex   1.527550e+00 9.296297e+00 1.650000e+01
      vertex   1.306812e+00 9.401698e+00 1.650000e+01
    endloop
  endfacet
  facet normal 0.000000e+00 0.000000e+00 1.000000e+00
    outer loop
      vertex   1.306812e+00 9.401698e+00 1.650000e+01
      vertex   1.199089e+00 9.458857e+00 1.650000e+01
      vertex   3.086418e-01 3.581790e+00 1.650000e+01
    endloop
  endfacet
  facet normal 0.000000e+00 0.000000e+00 1.000000e+00
    outer loop
      vertex   3.086418e-01 3.581790e+00 1.650000e+01
      vertex   1.199089e+00 9.458857e+00 1.650000e+01
      vertex   1.093546e+00 9.519687e+00 1.650000e+01
    endloop
  endfacet
  facet normal 0.000000e+00 0.000000e+00 1.000000e+00
    outer loop
      vertex   3.086418e-01 3.581790e+00 1.650000e+01
      vertex   1.093546e+00 9.519687e+00 1.650000e+01
      vertex   9.903027e-01 9.584393e+00 1.650000e+01
    endloop
  endfacet
  facet normal 0.000000e+00 0.000000e+00 1.000000e+00
    outer loop
      vertex   9.903027e-01 9.584393e+00 1.650000e+01
      vertex   8.891118e-01 9.652557e+00 1.650000e+01
      vertex   3.086418e-01 3.581790e+00 1.650000e+01
    endloop
  endfacet
  facet normal 0.000000e+00 0.000000e+00 1.000000e+00
    outer loop
      vertex   3.086418e-01 3.581790e+00 1.650000e+01
      vertex   8.891118e-01 9.652557e+00 1.650000e+01
      vertex   6.917133e-01 9.797280e+00 1.650000e+01
    endloop
  endfacet
  facet normal 0.000000e+00 0.000000e+00 1.000000e+00
    outer loop
      vertex   3.086418e-01 3.581790e+00 1.650000e+01
      vertex   6.917133e-01 9.797280e+00 1.650000e+01
      vertex   4.990050e-01 9.949905e+00 1.650000e+01
    endloop
  endfacet
  facet normal 0.000000e+00 0.000000e+00 1.000000e+00
    outer loop
      vertex   4.990050e-01 9.949905e+00 1.650000e+01
      vertex   3.086418e-01 1.010648e+01 1.650000e+01
      vertex   3.086418e-01 3.581790e+00 1.650000e+01
    endloop
  endfacet
  facet normal 0.000000e+00 0.000000e+00 1.000000e+00
    outer loop
      vertex   -2.962965e-01 1.010648e+01 1.650000e+01
      vertex   -4.860060e-01 9.950209e+00 1.650000e+01
      vertex   -2.962965e-01 3.581790e+00 1.650000e+01
    endloop
  endfacet
  facet normal 0.000000e+00 0.000000e+00 1.000000e+00
    outer loop
      vertex   -2.962965e-01 3.581790e+00 1.650000e+01
      vertex   -4.860060e-01 9.950209e+00 1.650000e+01
      vertex   -6.780435e-01 9.797847e+00 1.650000e+01
    endloop
  endfacet
  facet normal 0.000000e+00 0.000000e+00 1.000000e+00
    outer loop
      vertex   -2.962965e-01 3.581790e+00 1.650000e+01
      vertex   -6.780435e-01 9.797847e+00 1.650000e+01
      vertex   -8.747367e-01 9.653302e+00 1.650000e+01
    endloop
  endfacet
  facet normal 0.000000e+00 0.000000e+00 1.000000e+00
    outer loop
      vertex   -8.747367e-01 9.653302e+00 1.650000e+01
      vertex   -9.755568e-01 9.585182e+00 1.650000e+01
      vertex   -2.962965e-01 3.581790e+00 1.650000e+01
    endloop
  endfacet
  facet normal 0.000000e+00 0.000000e+00 1.000000e+00
    outer loop
      vertex   -2.962965e-01 3.581790e+00 1.650000e+01
      vertex   -9.755568e-01 9.585182e+00 1.650000e+01
      vertex   -1.078414e+00 9.520483e+00 1.650000e+01
    endloop
  endfacet
  facet normal 0.000000e+00 0.000000e+00 1.000000e+00
    outer loop
      vertex   -2.962965e-01 3.581790e+00 1.650000e+01
      vertex   -1.078414e+00 9.520483e+00 1.650000e+01
      vertex   -1.183557e+00 9.459623e+00 1.650000e+01
    endloop
  endfacet
  facet normal 0.000000e+00 0.000000e+00 1.000000e+00
    outer loop
      vertex   -1.183557e+00 9.459623e+00 1.650000e+01
      vertex   -1.290869e+00 9.402405e+00 1.650000e+01
      vertex   -2.962965e-01 3.581790e+00 1.650000e+01
    endloop
  endfacet
  facet normal 0.000000e+00 0.000000e+00 1.000000e+00
    outer loop
      vertex   -2.962965e-01 3.581790e+00 1.650000e+01
      vertex   -1.290869e+00 9.402405e+00 1.650000e+01
      vertex   -1.510766e+00 9.296821e+00 1.650000e+01
    endloop
  endfacet
  facet normal 0.000000e+00 0.000000e+00 1.000000e+00
    outer loop
      vertex   -2.962965e-01 3.581790e+00 1.650000e+01
      vertex   -1.510766e+00 9.296821e+00 1.650000e+01
      vertex   -1.735624e+00 9.199568e+00 1.650000e+01
    endloop
  endfacet
  facet normal 0.000000e+00 0.000000e+00 1.000000e+00
    outer loop
      vertex   -1.735624e+00 9.199568e+00 1.650000e+01
      vertex   -1.962963e+00 9.106481e+00 1.650000e+01
      vertex   -2.962965e-01 3.581790e+00 1.650000e+01
    endloop
  endfacet
  facet normal 0.000000e+00 0.000000e+00 1.000000e+00
    outer loop
      vertex   -2.962965e-01 3.581790e+00 1.650000e+01
      vertex   -1.962963e+00 9.106481e+00 1.650000e+01
      vertex   -2.500000e+00 2.250000e+00 1.650000e+01
    endloop
  endfacet
  facet normal 0.000000e+00 0.000000e+00 1.000000e+00
    outer loop
      vertex   -2.962965e-01 3.581790e+00 1.650000e+01
      vertex   -2.500000e+00 2.250000e+00 1.650000e+01
      vertex   2.500000e+00 2.250000e+00 1.650000e+01
    endloop
  endfacet
  facet normal 0.000000e+00 0.000000e+00 1.000000e+00
    outer loop
      vertex   -2.500000e+00 2.250000e+00 1.650000e+01
      vertex   -1.962963e+00 9.106481e+00 1.650000e+01
      vertex   -2.500000e+00 1.300000e+01 1.650000e+01
    endloop
  endfacet
  facet normal 0.000000e+00 0.000000e+00 1.000000e+00
    outer loop
      vertex   -2.500000e+00 1.300000e+01 1.650000e+01
      vertex   -1.962963e+00 9.106481e+00 1.650000e+01
      vertex   -1.962963e+00 9.550925e+00 1.650000e+01
    endloop
  endfacet
  facet normal 0.000000e+00 0.000000e+00 1.000000e+00
    outer loop
      vertex   -2.500000e+00 1.300000e+01 1.650000e+01
      vertex   -1.962963e+00 9.550925e+00 1.650000e+01
      vertex   -1.664669e+00 9.797156e+00 1.650000e+01
    endloop
  endfacet
  facet normal 0.000000e+00 -0.000000e+00 1.000000e+00
    outer loop
      vertex   -1.664669e+00 9.797156e+00 1.650000e+01
      vertex   -1.518377e+00 9.922450e+00 1.650000e+01
      vertex   -2.500000e+00 1.300000e+01 1.650000e+01
    endloop
  endfacet
  facet normal 0.000000e+00 0.000000e+00 1.000000e+00
    outer loop
      vertex   -2.500000e+00 1.300000e+01 1.650000e+01
      vertex   -1.518377e+00 9.922450e+00 1.650000e+01
      vertex   -1.375513e+00 1.005036e+01 1.650000e+01
    endloop
  endfacet
  facet normal 0.000000e+00 0.000000e+00 1.000000e+00
    outer loop
      vertex   -2.500000e+00 1.300000e+01 1.650000e+01
      vertex   -1.375513e+00 1.005036e+01 1.650000e+01
      vertex   -1.237217e+00 1.018175e+01 1.650000e+01
    endloop
  endfacet
  facet normal 0.000000e+00 -0.000000e+00 1.000000e+00
    outer loop
      vertex   -1.237217e+00 1.018175e+01 1.650000e+01
      vertex   -1.104633e+00 1.031751e+01 1.650000e+01
      vertex   -2.500000e+00 1.300000e+01 1.650000e+01
    endloop
  endfacet
  facet normal 0.000000e+00 0.000000e+00 1.000000e+00
    outer loop
      vertex   -2.500000e+00 1.300000e+01 1.650000e+01
      vertex   -1.104633e+00 1.031751e+01 1.650000e+01
      vertex   -9.789029e-01 1.045849e+01 1.650000e+01
    endloop
  endfacet
  facet normal 0.000000e+00 0.000000e+00 1.000000e+00
    outer loop
      vertex   -2.500000e+00 1.300000e+01 1.650000e+01
      vertex   -9.789029e-01 1.045849e+01 1.650000e+01
      vertex   -8.611674e-01 1.060557e+01 1.650000e+01
    endloop
  endfacet
  facet normal 1.657760e-14 1.134631e-14 1.000000e+00
    outer loop
      vertex   -8.611674e-01 1.060557e+01 1.650000e+01
      vertex   -7.520064e-01 1.075920e+01 1.650000e+01
      vertex   -2.500000e+00 1.300000e+01 1.650000e+01
    endloop
  endfacet
  facet normal -1.460862e-14 -1.298129e-14 1.000000e+00
    outer loop
      vertex   -2.500000e+00 1.300000e+01 1.650000e+01
      vertex   -7.520064e-01 1.075920e+01 1.650000e+01
      vertex   -6.505501e-01 1.091870e+01 1.650000e+01
    endloop
  endfacet
  facet normal 0.000000e+00 0.000000e+00 1.000000e+00
    outer loop
      vertex   -2.500000e+00 1.300000e+01 1.650000e+01
      vertex   -6.505501e-01 1.091870e+01 1.650000e+01
      vertex   -5.556980e-01 1.108325e+01 1.650000e+01
    endloop
  endfacet
  facet normal 0.000000e+00 -0.000000e+00 1.000000e+00
    outer loop
      vertex   -5.556980e-01 1.108325e+01 1.650000e+01
      vertex   -4.663494e-01 1.125199e+01 1.650000e+01
      vertex   -2.500000e+00 1.300000e+01 1.650000e+01
    endloop
  endfacet
  facet normal 0.000000e+00 0.000000e+00 1.000000e+00
    outer loop
      vertex   -2.500000e+00 1.300000e+01 1.650000e+01
      vertex   -4.663494e-01 1.125199e+01 1.650000e+01
      vertex   -3.814035e-01 1.142409e+01 1.650000e+01
    endloop
  endfacet
  facet normal 2.245709e-14 3.019057e-14 1.000000e+00
    outer loop
      vertex   -2.500000e+00 1.300000e+01 1.650000e+01
      vertex   -3.814035e-01 1.142409e+01 1.650000e+01
      vertex   -2.997596e-01 1.159872e+01 1.650000e+01
    endloop
  endfacet
  facet normal -7.454586e-15 -1.677555e-14 1.000000e+00
    outer loop
      vertex   -2.997596e-01 1.159872e+01 1.650000e+01
      vertex   -1.419753e-01 1.195216e+01 1.650000e+01
      vertex   -2.500000e+00 1.300000e+01 1.650000e+01
    endloop
  endfacet
  facet normal -0.000000e+00 0.000000e+00 1.000000e+00
    outer loop
      vertex   -2.500000e+00 1.300000e+01 1.650000e+01
      vertex   -1.419753e-01 1.195216e+01 1.650000e+01
      vertex   2.500000e+00 1.300000e+01 1.650000e+01
    endloop
  endfacet
  facet normal 0.000000e+00 0.000000e+00 -1.000000e+00
    outer loop
      vertex   2.500000e-01 2.250000e+00 1.200000e+01
      vertex   -2.500000e+00 2.250000e+00 1.200000e+01
      vertex   2.500000e-01 1.300000e+01 1.200000e+01
    endloop
  endfacet
  facet normal -0.000000e+00 0.000000e+00 -1.000000e+00
    outer loop
      vertex   2.500000e-01 1.300000e+01 1.200000e+01
      vertex   -2.500000e+00 2.250000e+00 1.200000e+01
      vertex   -2.500000e+00 1.300000e+01 1.200000e+01
    endloop
  endfacet
  facet normal 1.000000e+00 0.000000e+00 0.000000e+00
    outer loop
      vertex   2.500000e+00 -1.300000e+01 1.200000e+01
      vertex   2.500000e+00 -2.250000e+00 1.200000e+01
      vertex   2.500000e+00 -1.300000e+01 1.650000e+01
    endloop
  endfacet
  facet normal 1.000000e+00 -0.000000e+00 0.000000e+00
    outer loop
      vertex   2.500000e+00 -1.300000e+01 1.650000e+01
      vertex   2.500000e+00 -2.250000e+00 1.200000e+01
      vertex   2.500000e+00 -2.250000e+00 1.650000e+01
    endloop
  endfacet
  facet normal -1.000000e+00 0.000000e+00 0.000000e+00
    outer loop
      vertex   -2.500000e+00 -2.250000e+00 1.200000e+01
      vertex   -2.500000e+00 -1.300000e+01 1.200000e+01
      vertex   -2.500000e+00 -2.250000e+00 1.650000e+01
    endloop
  endfacet
  facet normal -1.000000e+00 -0.000000e+00 0.000000e+00
    outer loop
      vertex   -2.500000e+00 -2.250000e+00 1.650000e+01
      vertex   -2.500000e+00 -1.300000e+01 1.200000e+01
      vertex   -2.500000e+00 -1.300000e+01 1.650000e+01
    endloop
  endfacet
  facet normal 0.000000e+00 1.000000e+00 0.000000e+00
    outer loop
      vertex   -2.500000e+00 -2.250000e+00 1.200000e+01
      vertex   -2.500000e+00 -2.250000e+00 1.650000e+01
      vertex   2.500000e-01 -2.250000e+00 1.200000e+01
    endloop
  endfacet
  facet normal 0.000000e+00 1.000000e+00 -0.000000e+00
    outer loop
      vertex   2.500000e-01 -2.250000e+00 1.200000e+01
      vertex   -2.500000e+00 -2.250000e+00 1.650000e+01
      vertex   2.500000e+00 -2.250000e+00 1.650000e+01
    endloop
  endfacet
  facet normal 0.000000e+00 1.000000e+00 0.000000e+00
    outer loop
      vertex   2.500000e-01 -2.250000e+00 1.200000e+01
      vertex   2.500000e+00 -2.250000e+00 1.650000e+01
      vertex   2.500000e+00 -2.250000e+00 1.200000e+01
    endloop
  endfacet
  facet normal 0.000000e+00 0.000000e+00 1.000000e+00
    outer loop
      vertex   2.500000e+00 -2.250000e+00 1.650000e+01
      vertex   -2.500000e+00 -2.250000e+00 1.650000e+01
      vertex   2.500000e+00 -1.300000e+01 1.650000e+01
    endloop
  endfacet
  facet normal 0.000000e+00 0.000000e+00 1.000000e+00
    outer loop
      vertex   2.500000e+00 -1.300000e+01 1.650000e+01
      vertex   -2.500000e+00 -2.250000e+00 1.650000e+01
      vertex   -2.500000e+00 -1.300000e+01 1.650000e+01
    endloop
  endfacet
  facet normal -0.000000e+00 0.000000e+00 -1.000000e+00
    outer loop
      vertex   2.500000e-01 -1.300000e+01 1.200000e+01
      vertex   -2.500000e+00 -1.300000e+01 1.200000e+01
      vertex   2.500000e-01 -2.250000e+00 1.200000e+01
    endloop
  endfacet
  facet normal -0.000000e+00 0.000000e+00 -1.000000e+00
    outer loop
      vertex   2.500000e-01 -2.250000e+00 1.200000e+01
      vertex   -2.500000e+00 -1.300000e+01 1.200000e+01
      vertex   -2.500000e+00 -2.250000e+00 1.200000e+01
    endloop
  endfacet
  facet normal -0.000000e+00 0.000000e+00 1.000000e+00
    outer loop
      vertex   2.500000e-01 2.250000e+00 1.200000e+01
      vertex   2.500000e+00 -2.250000e+00 1.200000e+01
      vertex   2.500000e+00 2.250000e+00 1.200000e+01
    endloop
  endfacet
  facet normal 0.000000e+00 0.000000e+00 1.000000e+00
    outer loop
      vertex   2.500000e+00 2.250000e+00 1.200000e+01
      vertex   2.500000e+00 -2.250000e+00 1.200000e+01
      vertex   8.000000e+00 -3.500000e+00 1.200000e+01
    endloop
  endfacet
  facet normal -0.000000e+00 0.000000e+00 1.000000e+00
    outer loop
      vertex   2.500000e+00 2.250000e+00 1.200000e+01
      vertex   8.000000e+00 -3.500000e+00 1.200000e+01
      vertex   8.000000e+00 3.500000e+00 1.200000e+01
    endloop
  endfacet
  facet normal 0.000000e+00 0.000000e+00 1.000000e+00
    outer loop
      vertex   2.500000e-01 2.250000e+00 1.200000e+01
      vertex   2.500000e-01 -2.250000e+00 1.200000e+01
      vertex   2.500000e+00 -2.250000e+00 1.200000e+01
    endloop
  endfacet
  facet normal 0.000000e+00 0.000000e+00 1.000000e+00
    outer loop
      vertex   8.000000e+00 -3.500000e+00 1.200000e+01
      vertex   2.500000e+00 -2.250000e+00 1.200000e+01
      vertex   6.463835e+00 -6.463835e+00 1.200000e+01
    endloop
  endfacet
  facet normal 0.000000e+00 0.000000e+00 1.000000e+00
    outer loop
      vertex   6.463835e+00 -6.463835e+00 1.200000e+01
      vertex   2.500000e+00 -2.250000e+00 1.200000e+01
      vertex   2.500000e+00 -1.300000e+01 1.200000e+01
    endloop
  endfacet
  facet normal 0.000000e+00 0.000000e+00 1.000000e+00
    outer loop
      vertex   6.463835e+00 -6.463835e+00 1.200000e+01
      vertex   2.500000e+00 -1.300000e+01 1.200000e+01
      vertex   6.463835e+00 -1.121383e+01 1.200000e+01
    endloop
  endfacet
  facet normal 0.000000e+00 0.000000e+00 1.000000e+00
    outer loop
      vertex   6.463835e+00 -1.121383e+01 1.200000e+01
      vertex   2.500000e+00 -1.300000e+01 1.200000e+01
      vertex   1.300000e+01 -1.300000e+01 1.200000e+01
    endloop
  endfacet
  facet normal 0.000000e+00 0.000000e+00 1.000000e+00
    outer loop
      vertex   6.463835e+00 -1.121383e+01 1.200000e+01
      vertex   1.300000e+01 -1.300000e+01 1.200000e+01
      vertex   1.121383e+01 -1.121383e+01 1.200000e+01
    endloop
  endfacet
  facet normal -0.000000e+00 0.000000e+00 1.000000e+00
    outer loop
      vertex   1.121383e+01 -1.121383e+01 1.200000e+01
      vertex   1.300000e+01 -1.300000e+01 1.200000e+01
      vertex   1.121383e+01 -6.463835e+00 1.200000e+01
    endloop
  endfacet
  facet normal -0.000000e+00 0.000000e+00 1.000000e+00
    outer loop
      vertex   1.121383e+01 -6.463835e+00 1.200000e+01
      vertex   1.300000e+01 -1.300000e+01 1.200000e+01
      vertex   1.300000e+01 -3.500000e+00 1.200000e+01
    endloop
  endfacet
  facet normal 0.000000e+00 -0.000000e+00 1.000000e+00
    outer loop
      vertex   1.121383e+01 -6.463835e+00 1.200000e+01
      vertex   1.300000e+01 -3.500000e+00 1.200000e+01
      vertex   8.000000e+00 -3.500000e+00 1.200000e+01
    endloop
  endfacet
  facet normal 0.000000e+00 0.000000e+00 1.000000e+00
    outer loop
      vertex   1.300000e+01 3.500000e+00 1.200000e+01
      vertex   1.121383e+01 6.463835e+00 1.200000e+01
      vertex   8.000000e+00 3.500000e+00 1.200000e+01
    endloop
  endfacet
  facet normal 0.000000e+00 -0.000000e+00 1.000000e+00
    outer loop
      vertex   8.000000e+00 3.500000e+00 1.200000e+01
      vertex   1.121383e+01 6.463835e+00 1.200000e+01
      vertex   6.463835e+00 6.463835e+00 1.200000e+01
    endloop
  endfacet
  facet normal 0.000000e+00 0.000000e+00 1.000000e+00
    outer loop
      vertex   8.000000e+00 3.500000e+00 1.200000e+01
      vertex   6.463835e+00 6.463835e+00 1.200000e+01
      vertex   2.500000e+00 2.250000e+00 1.200000e+01
    endloop
  endfacet
  facet normal 0.000000e+00 0.000000e+00 1.000000e+00
    outer loop
      vertex   2.500000e+00 2.250000e+00 1.200000e+01
      vertex   6.463835e+00 6.463835e+00 1.200000e+01
      vertex   2.500000e+00 1.300000e+01 1.200000e+01
    endloop
  endfacet
  facet normal 0.000000e+00 0.000000e+00 1.000000e+00
    outer loop
      vertex   2.500000e+00 1.300000e+01 1.200000e+01
      vertex   6.463835e+00 6.463835e+00 1.200000e+01
      vertex   6.463835e+00 1.121383e+01 1.200000e+01
    endloop
  endfacet
  facet normal -0.000000e+00 0.000000e+00 1.000000e+00
    outer loop
      vertex   2.500000e+00 1.300000e+01 1.200000e+01
      vertex   6.463835e+00 1.121383e+01 1.200000e+01
      vertex   1.300000e+01 1.300000e+01 1.200000e+01
    endloop
  endfacet
  facet normal 0.000000e+00 0.000000e+00 1.000000e+00
    outer loop
      vertex   1.300000e+01 1.300000e+01 1.200000e+01
      vertex   6.463835e+00 1.121383e+01 1.200000e+01
      vertex   1.121383e+01 1.121383e+01 1.200000e+01
    endloop
  endfacet
  facet normal 0.000000e+00 0.000000e+00 1.000000e+00
    outer loop
      vertex   1.300000e+01 1.300000e+01 1.200000e+01
      vertex   1.121383e+01 1.121383e+01 1.200000e+01
      vertex   1.121383e+01 6.463835e+00 1.200000e+01
    endloop
  endfacet
  facet normal 0.000000e+00 -0.000000e+00 1.000000e+00
    outer loop
      vertex   1.300000e+01 3.500000e+00 1.200000e+01
      vertex   1.300000e+01 1.300000e+01 1.200000e+01
      vertex   1.121383e+01 6.463835e+00 1.200000e+01
    endloop
  endfacet
  facet normal 0.000000e+00 0.000000e+00 1.000000e+00
    outer loop
      vertex   6.463835e+00 -6.463835e+00 1.200000e+01
      vertex   1.121383e+01 -6.463835e+00 1.200000e+01
      vertex   8.000000e+00 -3.500000e+00 1.200000e+01
    endloop
  endfacet
  facet normal -1.869849e-16 1.000000e+00 0.000000e+00
    outer loop
      vertex   1.121383e+01 6.463835e+00 1.000000e+01
      vertex   6.463835e+00 6.463835e+00 1.000000e+01
      vertex   1.121383e+01 6.463835e+00 1.200000e+01
    endloop
  endfacet
  facet normal -1.869849e-16 1.000000e+00 0.000000e+00
    outer loop
      vertex   1.121383e+01 6.463835e+00 1.200000e+01
      vertex   6.463835e+00 6.463835e+00 1.000000e+01
      vertex   6.463835e+00 6.463835e+00 1.200000e+01
    endloop
  endfacet
  facet normal -1.000000e+00 -3.739699e-16 0.000000e+00
    outer loop
      vertex   1.121383e+01 1.121383e+01 1.000000e+01
      vertex   1.121383e+01 6.463835e+00 1.000000e+01
      vertex   1.121383e+01 1.121383e+01 1.200000e+01
    endloop
  endfacet
  facet normal -1.000000e+00 -3.739699e-16 0.000000e+00
    outer loop
      vertex   1.121383e+01 1.121383e+01 1.200000e+01
      vertex   1.121383e+01 6.463835e+00 1.000000e+01
      vertex   1.121383e+01 6.463835e+00 1.200000e+01
    endloop
  endfacet
  facet normal 3.739699e-16 -1.000000e+00 0.000000e+00
    outer loop
      vertex   6.463835e+00 1.121383e+01 1.000000e+01
      vertex   1.121383e+01 1.121383e+01 1.000000e+01
      vertex   6.463835e+00 1.121383e+01 1.200000e+01
    endloop
  endfacet
  facet normal 3.739699e-16 -1.000000e+00 0.000000e+00
    outer loop
      vertex   6.463835e+00 1.121383e+01 1.200000e+01
      vertex   1.121383e+01 1.121383e+01 1.000000e+01
      vertex   1.121383e+01 1.121383e+01 1.200000e+01
    endloop
  endfacet
  facet normal 1.000000e+00 1.869849e-16 -0.000000e+00
    outer loop
      vertex   6.463835e+00 6.463835e+00 1.000000e+01
      vertex   6.463835e+00 1.121383e+01 1.000000e+01
      vertex   6.463835e+00 6.463835e+00 1.200000e+01
    endloop
  endfacet
  facet normal 1.000000e+00 1.869849e-16 0.000000e+00
    outer loop
      vertex   6.463835e+00 6.463835e+00 1.200000e+01
      vertex   6.463835e+00 1.121383e+01 1.000000e+01
      vertex   6.463835e+00 1.121383e+01 1.200000e+01
    endloop
  endfacet
  facet normal 1.000000e+00 0.000000e+00 0.000000e+00
    outer loop
      vertex   6.463835e+00 -1.121383e+01 1.000000e+01
      vertex   6.463835e+00 -6.463835e+00 1.000000e+01
      vertex   6.463835e+00 -1.121383e+01 1.200000e+01
    endloop
  endfacet
  facet normal 1.000000e+00 -0.000000e+00 0.000000e+00
    outer loop
      vertex   6.463835e+00 -1.121383e+01 1.200000e+01
      vertex   6.463835e+00 -6.463835e+00 1.000000e+01
      vertex   6.463835e+00 -6.463835e+00 1.200000e+01
    endloop
  endfacet
  facet normal 3.739699e-16 1.000000e+00 -0.000000e+00
    outer loop
      vertex   1.121383e+01 -1.121383e+01 1.000000e+01
      vertex   6.463835e+00 -1.121383e+01 1.000000e+01
      vertex   1.121383e+01 -1.121383e+01 1.200000e+01
    endloop
  endfacet
  facet normal 7.479397e-16 1.000000e+00 -8.881784e-16
    outer loop
      vertex   1.121383e+01 -1.121383e+01 1.200000e+01
      vertex   6.463835e+00 -1.121383e+01 1.000000e+01
      vertex   6.463835e+00 -1.121383e+01 1.200000e+01
    endloop
  endfacet
  facet normal -1.000000e+00 3.739699e-16 -1.660760e-31
    outer loop
      vertex   1.121383e+01 -6.463835e+00 1.000000e+01
      vertex   1.121383e+01 -1.121383e+01 1.000000e+01
      vertex   1.121383e+01 -6.463835e+00 1.200000e+01
    endloop
  endfacet
  facet normal -1.000000e+00 3.739699e-16 0.000000e+00
    outer loop
      vertex   1.121383e+01 -6.463835e+00 1.200000e+01
      vertex   1.121383e+01 -1.121383e+01 1.000000e+01
      vertex   1.121383e+01 -1.121383e+01 1.200000e+01
    endloop
  endfacet
  facet normal -1.869849e-16 -1.000000e+00 0.000000e+00
    outer loop
      vertex   6.463835e+00 -6.463835e+00 1.000000e+01
      vertex   1.121383e+01 -6.463835e+00 1.000000e+01
      vertex   6.463835e+00 -6.463835e+00 1.200000e+01
    endloop
  endfacet
  facet normal 0.000000e+00 -1.000000e+00 4.440892e-16
    outer loop
      vertex   6.463835e+00 -6.463835e+00 1.200000e+01
      vertex   1.121383e+01 -6.463835e+00 1.000000e+01
      vertex   1.121383e+01 -6.463835e+00 1.200000e+01
    endloop
  endfacet
  facet normal 1.000000e+00 0.000000e+00 0.000000e+00
    outer loop
      vertex   1.300000e+01 3.500000e+00 1.000000e+01
      vertex   1.300000e+01 1.300000e+01 1.000000e+01
      vertex   1.300000e+01 3.500000e+00 1.200000e+01
    endloop
  endfacet
  facet normal 1.000000e+00 -0.000000e+00 0.000000e+00
    outer loop
      vertex   1.300000e+01 3.500000e+00 1.200000e+01
      vertex   1.300000e+01 1.300000e+01 1.000000e+01
      vertex   1.300000e+01 1.300000e+01 1.200000e+01
    endloop
  endfacet
  facet normal 0.000000e+00 -1.000000e+00 0.000000e+00
    outer loop
      vertex   8.000000e+00 3.500000e+00 1.000000e+01
      vertex   1.300000e+01 3.500000e+00 1.000000e+01
      vertex   8.000000e+00 3.500000e+00 1.200000e+01
    endloop
  endfacet
  facet normal 0.000000e+00 -1.000000e+00 0.000000e+00
    outer loop
      vertex   8.000000e+00 3.500000e+00 1.200000e+01
      vertex   1.300000e+01 3.500000e+00 1.000000e+01
      vertex   1.300000e+01 3.500000e+00 1.200000e+01
    endloop
  endfacet
  facet normal 1.000000e+00 0.000000e+00 0.000000e+00
    outer loop
      vertex   8.000000e+00 -3.500000e+00 1.000000e+01
      vertex   8.000000e+00 3.500000e+00 1.000000e+01
      vertex   8.000000e+00 -3.500000e+00 1.200000e+01
    endloop
  endfacet
  facet normal 1.000000e+00 -0.000000e+00 0.000000e+00
    outer loop
      vertex   8.000000e+00 -3.500000e+00 1.200000e+01
      vertex   8.000000e+00 3.500000e+00 1.000000e+01
      vertex   8.000000e+00 3.500000e+00 1.200000e+01
    endloop
  endfacet
  facet normal 0.000000e+00 1.000000e+00 -0.000000e+00
    outer loop
      vertex   1.300000e+01 -3.500000e+00 1.000000e+01
      vertex   8.000000e+00 -3.500000e+00 1.000000e+01
      vertex   1.300000e+01 -3.500000e+00 1.200000e+01
    endloop
  endfacet
  facet normal 0.000000e+00 1.000000e+00 0.000000e+00
    outer loop
      vertex   1.300000e+01 -3.500000e+00 1.200000e+01
      vertex   8.000000e+00 -3.500000e+00 1.000000e+01
      vertex   8.000000e+00 -3.500000e+00 1.200000e+01
    endloop
  endfacet
  facet normal 1.000000e+00 0.000000e+00 -0.000000e+00
    outer loop
      vertex   1.300000e+01 -1.300000e+01 1.000000e+01
      vertex   1.300000e+01 -3.500000e+00 1.000000e+01
      vertex   1.300000e+01 -1.300000e+01 1.200000e+01
    endloop
  endfacet
  facet normal 1.000000e+00 -0.000000e+00 0.000000e+00
    outer loop
      vertex   1.300000e+01 -1.300000e+01 1.200000e+01
      vertex   1.300000e+01 -3.500000e+00 1.000000e+01
      vertex   1.300000e+01 -3.500000e+00 1.200000e+01
    endloop
  endfacet
  facet normal -1.578984e-15 -1.000000e+00 -0.000000e+00
    outer loop
      vertex   2.500000e-01 -1.300000e+01 1.200000e+01
      vertex   2.500000e-01 -1.300000e+01 1.000000e+01
      vertex   2.500000e+00 -1.300000e+01 1.200000e+01
    endloop
  endfacet
  facet normal -2.786442e-16 -1.000000e+00 -1.462882e-15
    outer loop
      vertex   2.500000e+00 -1.300000e+01 1.200000e+01
      vertex   2.500000e-01 -1.300000e+01 1.000000e+01
      vertex   1.300000e+01 -1.300000e+01 1.000000e+01
    endloop
  endfacet
  facet normal -1.691768e-16 -1.000000e+00 -8.881784e-16
    outer loop
      vertex   2.500000e+00 -1.300000e+01 1.200000e+01
      vertex   1.300000e+01 -1.300000e+01 1.000000e+01
      vertex   1.300000e+01 -1.300000e+01 1.200000e+01
    endloop
  endfacet
  facet normal -1.578984e-15 -1.000000e+00 0.000000e+00
    outer loop
      vertex   2.500000e+00 -1.300000e+01 1.200000e+01
      vertex   2.500000e+00 -1.300000e+01 1.650000e+01
      vertex   2.500000e-01 -1.300000e+01 1.200000e+01
    endloop
  endfacet
  facet normal 0.000000e+00 -1.000000e+00 -7.894919e-16
    outer loop
      vertex   2.500000e-01 -1.300000e+01 1.200000e+01
      vertex   2.500000e+00 -1.300000e+01 1.650000e+01
      vertex   -2.500000e+00 -1.300000e+01 1.650000e+01
    endloop
  endfacet
  facet normal 1.291896e-15 -1.000000e+00 0.000000e+00
    outer loop
      vertex   2.500000e-01 -1.300000e+01 1.200000e+01
      vertex   -2.500000e+00 -1.300000e+01 1.650000e+01
      vertex   -2.500000e+00 -1.300000e+01 1.200000e+01
    endloop
  endfacet
  facet normal -1.000000e+00 -2.323723e-17 -0.000000e+00
    outer loop
      vertex   2.500000e-01 1.300000e+01 1.200000e+01
      vertex   2.500000e-01 1.300000e+01 1.000000e+01
      vertex   2.500000e-01 2.250000e+00 1.200000e+01
    endloop
  endfacet
  facet normal -1.000000e+00 0.000000e+00 1.249001e-16
    outer loop
      vertex   2.500000e-01 2.250000e+00 1.200000e+01
      vertex   2.500000e-01 1.300000e+01 1.000000e+01
      vertex   2.500000e-01 -1.300000e+01 1.000000e+01
    endloop
  endfacet
  facet normal -1.000000e+00 0.000000e+00 1.249001e-16
    outer loop
      vertex   2.500000e-01 2.250000e+00 1.200000e+01
      vertex   2.500000e-01 -1.300000e+01 1.000000e+01
      vertex   2.500000e-01 -2.250000e+00 1.200000e+01
    endloop
  endfacet
  facet normal -1.000000e+00 2.323723e-17 0.000000e+00
    outer loop
      vertex   2.500000e-01 -2.250000e+00 1.200000e+01
      vertex   2.500000e-01 -1.300000e+01 1.000000e+01
      vertex   2.500000e-01 -1.300000e+01 1.200000e+01
    endloop
  endfacet
  facet normal 0.000000e+00 1.000000e+00 0.000000e+00
    outer loop
      vertex   1.300000e+01 1.300000e+01 1.200000e+01
      vertex   1.300000e+01 1.300000e+01 1.000000e+01
      vertex   2.500000e+00 1.300000e+01 1.200000e+01
    endloop
  endfacet
  facet normal -2.786442e-16 1.000000e+00 -1.462882e-15
    outer loop
      vertex   2.500000e+00 1.300000e+01 1.200000e+01
      vertex   1.300000e+01 1.300000e+01 1.000000e+01
      vertex   2.500000e-01 1.300000e+01 1.000000e+01
    endloop
  endfacet
  facet normal -1.578984e-15 1.000000e+00 0.000000e+00
    outer loop
      vertex   2.500000e+00 1.300000e+01 1.200000e+01
      vertex   2.500000e-01 1.300000e+01 1.000000e+01
      vertex   2.500000e-01 1.300000e+01 1.200000e+01
    endloop
  endfacet
  facet normal 1.291896e-15 1.000000e+00 -0.000000e+00
    outer loop
      vertex   -2.500000e+00 1.300000e+01 1.200000e+01
      vertex   -2.500000e+00 1.300000e+01 1.650000e+01
      vertex   2.500000e-01 1.300000e+01 1.200000e+01
    endloop
  endfacet
  facet normal 0.000000e+00 1.000000e+00 -7.894919e-16
    outer loop
      vertex   2.500000e-01 1.300000e+01 1.200000e+01
      vertex   -2.500000e+00 1.300000e+01 1.650000e+01
      vertex   2.500000e+00 1.300000e+01 1.650000e+01
    endloop
  endfacet
  facet normal -1.578984e-15 1.000000e+00 0.000000e+00
    outer loop
      vertex   2.500000e-01 1.300000e+01 1.200000e+01
      vertex   2.500000e+00 1.300000e+01 1.650000e+01
      vertex   2.500000e+00 1.300000e+01 1.200000e+01
    endloop
  endfacet
  facet normal 0.000000e+00 0.000000e+00 -1.000000e+00
    outer loop
      vertex   1.300000e+01 1.300000e+01 1.000000e+01
      vertex   6.463835e+00 1.121383e+01 1.000000e+01
      vertex   2.500000e-01 1.300000e+01 1.000000e+01
    endloop
  endfacet
  facet normal 0.000000e+00 0.000000e+00 -1.000000e+00
    outer loop
      vertex   2.500000e-01 1.300000e+01 1.000000e+01
      vertex   6.463835e+00 1.121383e+01 1.000000e+01
      vertex   6.463835e+00 6.463835e+00 1.000000e+01
    endloop
  endfacet
  facet normal 0.000000e+00 0.000000e+00 -1.000000e+00
    outer loop
      vertex   2.500000e-01 1.300000e+01 1.000000e+01
      vertex   6.463835e+00 6.463835e+00 1.000000e+01
      vertex   2.500000e-01 -1.300000e+01 1.000000e+01
    endloop
  endfacet
  facet normal 0.000000e+00 0.000000e+00 -1.000000e+00
    outer loop
      vertex   2.500000e-01 -1.300000e+01 1.000000e+01
      vertex   6.463835e+00 6.463835e+00 1.000000e+01
      vertex   6.463835e+00 -6.463835e+00 1.000000e+01
    endloop
  endfacet
  facet normal 0.000000e+00 0.000000e+00 -1.000000e+00
    outer loop
      vertex   2.500000e-01 -1.300000e+01 1.000000e+01
      vertex   6.463835e+00 -6.463835e+00 1.000000e+01
      vertex   6.463835e+00 -1.121383e+01 1.000000e+01
    endloop
  endfacet
  facet normal 0.000000e+00 0.000000e+00 -1.000000e+00
    outer loop
      vertex   1.300000e+01 3.500000e+00 1.000000e+01
      vertex   1.121383e+01 6.463835e+00 1.000000e+01
      vertex   1.300000e+01 1.300000e+01 1.000000e+01
    endloop
  endfacet
  facet normal 0.000000e+00 0.000000e+00 -1.000000e+00
    outer loop
      vertex   1.300000e+01 1.300000e+01 1.000000e+01
      vertex   1.121383e+01 6.463835e+00 1.000000e+01
      vertex   1.121383e+01 1.121383e+01 1.000000e+01
    endloop
  endfacet
  facet normal 0.000000e+00 0.000000e+00 -1.000000e+00
    outer loop
      vertex   1.300000e+01 1.300000e+01 1.000000e+01
      vertex   1.121383e+01 1.121383e+01 1.000000e+01
      vertex   6.463835e+00 1.121383e+01 1.000000e+01
    endloop
  endfacet
  facet normal 0.000000e+00 0.000000e+00 -1.000000e+00
    outer loop
      vertex   1.300000e+01 3.500000e+00 1.000000e+01
      vertex   8.000000e+00 3.500000e+00 1.000000e+01
      vertex   1.121383e+01 6.463835e+00 1.000000e+01
    endloop
  endfacet
  facet normal 0.000000e+00 0.000000e+00 -1.000000e+00
    outer loop
      vertex   1.121383e+01 6.463835e+00 1.000000e+01
      vertex   8.000000e+00 3.500000e+00 1.000000e+01
      vertex   6.463835e+00 6.463835e+00 1.000000e+01
    endloop
  endfacet
  facet normal 0.000000e+00 0.000000e+00 -1.000000e+00
    outer loop
      vertex   6.463835e+00 6.463835e+00 1.000000e+01
      vertex   8.000000e+00 3.500000e+00 1.000000e+01
      vertex   8.000000e+00 -3.500000e+00 1.000000e+01
    endloop
  endfacet
  facet normal 0.000000e+00 -0.000000e+00 -1.000000e+00
    outer loop
      vertex   6.463835e+00 6.463835e+00 1.000000e+01
      vertex   8.000000e+00 -3.500000e+00 1.000000e+01
      vertex   6.463835e+00 -6.463835e+00 1.000000e+01
    endloop
  endfacet
  facet normal 0.000000e+00 0.000000e+00 -1.000000e+00
    outer loop
      vertex   6.463835e+00 -6.463835e+00 1.000000e+01
      vertex   8.000000e+00 -3.500000e+00 1.000000e+01
      vertex   1.121383e+01 -6.463835e+00 1.000000e+01
    endloop
  endfacet
  facet normal 0.000000e+00 0.000000e+00 -1.000000e+00
    outer loop
      vertex   1.121383e+01 -6.463835e+00 1.000000e+01
      vertex   8.000000e+00 -3.500000e+00 1.000000e+01
      vertex   1.300000e+01 -3.500000e+00 1.000000e+01
    endloop
  endfacet
  facet normal 0.000000e+00 0.000000e+00 -1.000000e+00
    outer loop
      vertex   1.121383e+01 -6.463835e+00 1.000000e+01
      vertex   1.300000e+01 -3.500000e+00 1.000000e+01
      vertex   1.300000e+01 -1.300000e+01 1.000000e+01
    endloop
  endfacet
  facet normal 0.000000e+00 0.000000e+00 -1.000000e+00
    outer loop
      vertex   2.500000e-01 -1.300000e+01 1.000000e+01
      vertex   6.463835e+00 -1.121383e+01 1.000000e+01
      vertex   1.300000e+01 -1.300000e+01 1.000000e+01
    endloop
  endfacet
  facet normal 0.000000e+00 0.000000e+00 -1.000000e+00
    outer loop
      vertex   1.300000e+01 -1.300000e+01 1.000000e+01
      vertex   6.463835e+00 -1.121383e+01 1.000000e+01
      vertex   1.121383e+01 -1.121383e+01 1.000000e+01
    endloop
  endfacet
  facet normal 0.000000e+00 0.000000e+00 -1.000000e+00
    outer loop
      vertex   1.300000e+01 -1.300000e+01 1.000000e+01
      vertex   1.121383e+01 -1.121383e+01 1.000000e+01
      vertex   1.121383e+01 -6.463835e+00 1.000000e+01
    endloop
  endfacet
endsolid
