999
Generated by Autodesk CAM - http://cam.autodesk.com
0
SECTION
2
HEADER
9
$ACADVER
1
AC1006
9
$ANGBASE
50
0
9
$ANGDIR
70
0
0
ENDSEC
0
SECTION
2
BLOCKS
0
ENDSEC
9
$EXTMIN
10
-149.05
20
-35.8
30
0
9
$EXTMAX
10
0
20
61.3
30
15
0
SECTION
2
ENTITIES
0
ARC
8
1
62
1
10
-148.5
20
60.75
30
0
40
0.55
50
180
51
0
0
ARC
8
1
62
1
10
-148.5
20
60.75
30
0
40
0.55
50
0
51
180
0
ARC
8
1
62
1
10
-132.5
20
60.75
30
0
40
0.55
50
180
51
0
0
ARC
8
1
62
1
10
-132.5
20
60.75
30
0
40
0.55
50
0
51
180
0
ARC
8
1
62
1
10
-116.5
20
60.75
30
0
40
0.55
50
180
51
0
0
ARC
8
1
62
1
10
-116.5
20
60.75
30
0
40
0.55
50
0
51
180
0
ARC
8
1
62
1
10
-100.5
20
60.75
30
0
40
0.55
50
180
51
0
0
ARC
8
1
62
1
10
-100.5
20
60.75
30
0
40
0.55
50
0
51
180
0
ARC
8
1
62
1
10
-84.5
20
60.75
30
0
40
0.55
50
180
51
0
0
ARC
8
1
62
1
10
-84.5
20
60.75
30
0
40
0.55
50
0
51
180
0
ARC
8
1
62
1
10
-68.5
20
60.75
30
0
40
0.55
50
180
51
0
0
ARC
8
1
62
1
10
-68.5
20
60.75
30
0
40
0.55
50
0
51
180
0
ARC
8
1
62
1
10
-52.5
20
60.75
30
0
40
0.55
50
180
51
0
0
ARC
8
1
62
1
10
-52.5
20
60.75
30
0
40
0.55
50
0
51
180
0
ARC
8
1
62
1
10
-36.5
20
60.75
30
0
40
0.55
50
0
51
180
0
ARC
8
1
62
1
10
-36.5
20
60.75
30
0
40
0.55
50
180
51
0
0
ARC
8
1
62
1
10
-36.5
20
28.75
30
0
40
0.55
50
0
51
180
0
ARC
8
1
62
1
10
-36.5
20
28.75
30
0
40
0.55
50
180
51
0
0
ARC
8
1
62
1
10
-52.5
20
28.75
30
0
40
0.55
50
0
51
180
0
ARC
8
1
62
1
10
-52.5
20
28.75
30
0
40
0.55
50
180
51
0
0
ARC
8
1
62
1
10
-68.5
20
28.75
30
0
40
0.55
50
0
51
180
0
ARC
8
1
62
1
10
-68.5
20
28.75
30
0
40
0.55
50
180
51
0
0
ARC
8
1
62
1
10
-84.5
20
28.75
30
0
40
0.55
50
0
51
180
0
ARC
8
1
62
1
10
-84.5
20
28.75
30
0
40
0.55
50
180
51
0
0
ARC
8
1
62
1
10
-100.5
20
28.75
30
0
40
0.55
50
0
51
180
0
ARC
8
1
62
1
10
-100.5
20
28.75
30
0
40
0.55
50
180
51
0
0
ARC
8
1
62
1
10
-116.5
20
28.75
30
0
40
0.55
50
0
51
180
0
ARC
8
1
62
1
10
-116.5
20
28.75
30
0
40
0.55
50
180
51
0
0
ARC
8
1
62
1
10
-132.5
20
28.75
30
0
40
0.55
50
0
51
180
0
ARC
8
1
62
1
10
-132.5
20
28.75
30
0
40
0.55
50
180
51
0
0
ARC
8
1
62
1
10
-148.5
20
28.75
30
0
40
0.55
50
116.565407
51
-63.434593
0
ARC
8
1
62
1
10
-148.5
20
28.75
30
0
40
0.55
50
-63.434593
51
116.565407
0
ARC
8
1
62
1
10
-148.5
20
-3.25
30
0
40
0.55
50
180
51
0
0
ARC
8
1
62
1
10
-148.5
20
-3.25
30
0
40
0.55
50
0
51
180
0
ARC
8
1
62
1
10
-132.5
20
-3.25
30
0
40
0.55
50
180
51
0
0
ARC
8
1
62
1
10
-132.5
20
-3.25
30
0
40
0.55
50
0
51
180
0
ARC
8
1
62
1
10
-116.5
20
-3.25
30
0
40
0.55
50
180
51
0
0
ARC
8
1
62
1
10
-116.5
20
-3.25
30
0
40
0.55
50
0
51
180
0
ARC
8
1
62
1
10
-100.5
20
-3.25
30
0
40
0.55
50
180
51
0
0
ARC
8
1
62
1
10
-100.5
20
-3.25
30
0
40
0.55
50
0
51
180
0
ARC
8
1
62
1
10
-84.5
20
-3.25
30
0
40
0.55
50
180
51
0
0
ARC
8
1
62
1
10
-84.5
20
-3.25
30
0
40
0.55
50
0
51
180
0
ARC
8
1
62
1
10
-68.5
20
-3.25
30
0
40
0.55
50
180
51
0
0
ARC
8
1
62
1
10
-68.5
20
-3.25
30
0
40
0.55
50
0
51
180
0
ARC
8
1
62
1
10
-52.5
20
-3.25
30
0
40
0.55
50
180
51
0
0
ARC
8
1
62
1
10
-52.5
20
-3.25
30
0
40
0.55
50
0
51
180
0
ARC
8
1
62
1
10
-36.5
20
-3.25
30
0
40
0.55
50
0
51
180
0
ARC
8
1
62
1
10
-36.5
20
-3.25
30
0
40
0.55
50
180
51
0
0
ARC
8
1
62
1
10
-36.5
20
-35.25
30
0
40
0.55
50
0
51
180
0
ARC
8
1
62
1
10
-36.5
20
-35.25
30
0
40
0.55
50
180
51
0
0
ARC
8
1
62
1
10
-52.5
20
-35.25
30
0
40
0.55
50
0
51
180
0
ARC
8
1
62
1
10
-52.5
20
-35.25
30
0
40
0.55
50
180
51
0
0
ARC
8
1
62
1
10
-68.5
20
-35.25
30
0
40
0.55
50
0
51
180
0
ARC
8
1
62
1
10
-68.5
20
-35.25
30
0
40
0.55
50
180
51
0
0
ARC
8
1
62
1
10
-84.5
20
-35.25
30
0
40
0.55
50
0
51
180
0
ARC
8
1
62
1
10
-84.5
20
-35.25
30
0
40
0.55
50
180
51
0
0
ARC
8
1
62
1
10
-100.5
20
-35.25
30
0
40
0.55
50
0
51
180
0
ARC
8
1
62
1
10
-100.5
20
-35.25
30
0
40
0.55
50
180
51
0
0
ARC
8
1
62
1
10
-116.5
20
-35.25
30
0
40
0.55
50
0
51
180
0
ARC
8
1
62
1
10
-116.5
20
-35.25
30
0
40
0.55
50
180
51
0
0
ARC
8
1
62
1
10
-132.5
20
-35.25
30
0
40
0.55
50
-90
51
90
0
ARC
8
1
62
1
10
-132.5
20
-35.25
30
0
40
0.55
50
90
51
-90
0
ARC
8
1
62
1
10
-140.5
20
-31.25
30
0
40
0.55
50
90
51
-90
0
ARC
8
1
62
1
10
-140.5
20
-31.25
30
0
40
0.55
50
-90
51
90
0
ARC
8
1
62
1
10
-148.5
20
-35.25
30
0
40
0.55
50
-156.671897
51
23.328103
0
ARC
8
1
62
1
10
-148.5
20
-35.25
30
0
40
0.55
50
23.328103
51
-156.671897
0
ENDSEC
0
EOF
