999
Generated by Autodesk CAM - http://cam.autodesk.com
0
SECTION
2
HEADER
9
$ACADVER
1
AC1006
9
$ANGBASE
50
0
9
$ANGDIR
70
0
0
ENDSEC
0
SECTION
2
BLOCKS
0
ENDSEC
9
$EXTMIN
10
-156.685
20
-77.635
30
0
9
$EXTMAX
10
156.685
20
76.935
30
15
0
SECTION
2
ENTITIES
0
ARC
8
1
62
1
10
138.49
20
4.75
30
0
40
0.175
50
90
51
180
0
LINE
8
1
62
1
10
138.49
20
4.925
30
0
11
141.825
21
4.925
31
0
0
LINE
8
1
62
1
10
141.825
20
4.925
30
0
11
141.825
21
20.575
31
0
0
LINE
8
1
62
1
10
141.825
20
20.575
30
0
11
138.49
21
20.575
31
0
0
ARC
8
1
62
1
10
138.49
20
20.75
30
0
40
0.175
50
180
51
-90
0
LINE
8
1
62
1
10
138.315
20
20.75
30
0
11
138.315
21
36.75
31
0
0
ARC
8
1
62
1
10
138.49
20
36.75
30
0
40
0.175
50
90
51
180
0
LINE
8
1
62
1
10
138.49
20
36.925
30
0
11
141.825
21
36.925
31
0
0
LINE
8
1
62
1
10
141.825
20
36.925
30
0
11
141.825
21
52.575
31
0
0
LINE
8
1
62
1
10
141.825
20
52.575
30
0
11
138.49
21
52.575
31
0
0
ARC
8
1
62
1
10
138.49
20
52.75
30
0
40
0.175
50
180
51
-90
0
LINE
8
1
62
1
10
138.315
20
52.75
30
0
11
138.315
21
68.75
31
0
0
ARC
8
1
62
1
10
138.49
20
68.75
30
0
40
0.175
50
90
51
180
0
LINE
8
1
62
1
10
138.49
20
68.925
30
0
11
141.825
21
68.925
31
0
0
LINE
8
1
62
1
10
141.825
20
68.925
30
0
11
141.825
21
73.25
31
0
0
ARC
8
1
62
1
10
142
20
73.25
30
0
40
0.175
50
90
51
180
0
LINE
8
1
62
1
10
142
20
73.425
30
0
11
145.325
21
73.425
31
0
0
LINE
8
1
62
1
10
145.325
20
73.425
30
0
11
145.325
21
76.76
31
0
0
ARC
8
1
62
1
10
145.5
20
76.76
30
0
40
0.175
50
90
51
180
0
LINE
8
1
62
1
10
145.5
20
76.935
30
0
11
149.5
21
76.935
31
0
0
ARC
8
1
62
1
10
149.5
20
76.76
30
0
40
0.175
50
0
51
90
0
LINE
8
1
62
1
10
149.675
20
76.76
30
0
11
149.675
21
73.425
31
0
0
LINE
8
1
62
1
10
149.675
20
73.425
30
0
11
153
21
73.425
31
0
0
ARC
8
1
62
1
10
153
20
73.25
30
0
40
0.175
50
0
51
90
0
LINE
8
1
62
1
10
153.175
20
73.25
30
0
11
153.175
21
68.925
31
0
0
LINE
8
1
62
1
10
153.175
20
68.925
30
0
11
156.51
21
68.925
31
0
0
ARC
8
1
62
1
10
156.51
20
68.75
30
0
40
0.175
50
0
51
90
0
LINE
8
1
62
1
10
156.685
20
68.75
30
0
11
156.685
21
52.75
31
0
0
ARC
8
1
62
1
10
156.51
20
52.75
30
0
40
0.175
50
-90
51
0
0
LINE
8
1
62
1
10
156.51
20
52.575
30
0
11
153.175
21
52.575
31
0
0
LINE
8
1
62
1
10
153.175
20
52.575
30
0
11
153.175
21
36.925
31
0
0
LINE
8
1
62
1
10
153.175
20
36.925
30
0
11
156.51
21
36.925
31
0
0
ARC
8
1
62
1
10
156.51
20
36.75
30
0
40
0.175
50
0
51
90
0
LINE
8
1
62
1
10
156.685
20
36.75
30
0
11
156.685
21
20.75
31
0
0
ARC
8
1
62
1
10
156.51
20
20.75
30
0
40
0.175
50
-90
51
0
0
LINE
8
1
62
1
10
156.51
20
20.575
30
0
11
153.175
21
20.575
31
0
0
LINE
8
1
62
1
10
153.175
20
20.575
30
0
11
153.175
21
4.925
31
0
0
LINE
8
1
62
1
10
153.175
20
4.925
30
0
11
156.51
21
4.925
31
0
0
ARC
8
1
62
1
10
156.51
20
4.75
30
0
40
0.175
50
0
51
90
0
LINE
8
1
62
1
10
156.685
20
4.75
30
0
11
156.685
21
-11.25
31
0
0
ARC
8
1
62
1
10
156.51
20
-11.25
30
0
40
0.175
50
-90
51
0
0
LINE
8
1
62
1
10
156.51
20
-11.425
30
0
11
153.175
21
-11.425
31
0
0
LINE
8
1
62
1
10
153.175
20
-11.425
30
0
11
153.175
21
-27.075
31
0
0
LINE
8
1
62
1
10
153.175
20
-27.075
30
0
11
156.51
21
-27.075
31
0
0
ARC
8
1
62
1
10
156.51
20
-27.25
30
0
40
0.175
50
0
51
90
0
LINE
8
1
62
1
10
156.685
20
-27.25
30
0
11
156.685
21
-43.25
31
0
0
ARC
8
1
62
1
10
156.51
20
-43.25
30
0
40
0.175
50
-90
51
0
0
LINE
8
1
62
1
10
156.51
20
-43.425
30
0
11
153.175
21
-43.425
31
0
0
LINE
8
1
62
1
10
153.175
20
-43.425
30
0
11
153.175
21
-47.75
31
0
0
ARC
8
1
62
1
10
153
20
-47.75
30
0
40
0.175
50
-90
51
0
0
LINE
8
1
62
1
10
153
20
-47.925
30
0
11
149.675
21
-47.925
31
0
0
LINE
8
1
62
1
10
149.675
20
-47.925
30
0
11
149.675
21
-51.26
31
0
0
ARC
8
1
62
1
10
149.5
20
-51.26
30
0
40
0.175
50
-90
51
0
0
LINE
8
1
62
1
10
149.5
20
-51.435
30
0
11
145.5
21
-51.435
31
0
0
ARC
8
1
62
1
10
145.5
20
-51.26
30
0
40
0.175
50
180
51
-90
0
LINE
8
1
62
1
10
145.325
20
-51.26
30
0
11
145.325
21
-47.925
31
0
0
LINE
8
1
62
1
10
145.325
20
-47.925
30
0
11
142
21
-47.925
31
0
0
ARC
8
1
62
1
10
142
20
-47.75
30
0
40
0.175
50
180
51
-90
0
LINE
8
1
62
1
10
141.825
20
-47.75
30
0
11
141.825
21
-43.425
31
0
0
LINE
8
1
62
1
10
141.825
20
-43.425
30
0
11
138.49
21
-43.425
31
0
0
ARC
8
1
62
1
10
138.49
20
-43.25
30
0
40
0.175
50
180
51
-90
0
LINE
8
1
62
1
10
138.315
20
-43.25
30
0
11
138.315
21
-27.25
31
0
0
ARC
8
1
62
1
10
138.49
20
-27.25
30
0
40
0.175
50
90
51
180
0
LINE
8
1
62
1
10
138.49
20
-27.075
30
0
11
141.825
21
-27.075
31
0
0
LINE
8
1
62
1
10
141.825
20
-27.075
30
0
11
141.825
21
-11.425
31
0
0
LINE
8
1
62
1
10
141.825
20
-11.425
30
0
11
138.49
21
-11.425
31
0
0
ARC
8
1
62
1
10
138.49
20
-11.25
30
0
40
0.175
50
180
51
-90
0
LINE
8
1
62
1
10
138.315
20
-11.25
30
0
11
138.315
21
4.75
31
0
0
ARC
8
1
62
1
10
113.49
20
4.75
30
0
40
0.175
50
90
51
180
0
LINE
8
1
62
1
10
113.49
20
4.925
30
0
11
116.825
21
4.925
31
0
0
LINE
8
1
62
1
10
116.825
20
4.925
30
0
11
116.825
21
20.575
31
0
0
LINE
8
1
62
1
10
116.825
20
20.575
30
0
11
113.49
21
20.575
31
0
0
ARC
8
1
62
1
10
113.49
20
20.75
30
0
40
0.175
50
180
51
-90
0
LINE
8
1
62
1
10
113.315
20
20.75
30
0
11
113.315
21
36.75
31
0
0
ARC
8
1
62
1
10
113.49
20
36.75
30
0
40
0.175
50
90
51
180
0
LINE
8
1
62
1
10
113.49
20
36.925
30
0
11
116.825
21
36.925
31
0
0
LINE
8
1
62
1
10
116.825
20
36.925
30
0
11
116.825
21
52.575
31
0
0
LINE
8
1
62
1
10
116.825
20
52.575
30
0
11
113.49
21
52.575
31
0
0
ARC
8
1
62
1
10
113.49
20
52.75
30
0
40
0.175
50
180
51
-90
0
LINE
8
1
62
1
10
113.315
20
52.75
30
0
11
113.315
21
68.75
31
0
0
ARC
8
1
62
1
10
113.49
20
68.75
30
0
40
0.175
50
90
51
180
0
LINE
8
1
62
1
10
113.49
20
68.925
30
0
11
116.825
21
68.925
31
0
0
LINE
8
1
62
1
10
116.825
20
68.925
30
0
11
116.825
21
73.25
31
0
0
ARC
8
1
62
1
10
117
20
73.25
30
0
40
0.175
50
90
51
180
0
LINE
8
1
62
1
10
117
20
73.425
30
0
11
120.325
21
73.425
31
0
0
LINE
8
1
62
1
10
120.325
20
73.425
30
0
11
120.325
21
76.76
31
0
0
ARC
8
1
62
1
10
120.5
20
76.76
30
0
40
0.175
50
90
51
180
0
LINE
8
1
62
1
10
120.5
20
76.935
30
0
11
124.5
21
76.935
31
0
0
ARC
8
1
62
1
10
124.5
20
76.76
30
0
40
0.175
50
0
51
90
0
LINE
8
1
62
1
10
124.675
20
76.76
30
0
11
124.675
21
73.425
31
0
0
LINE
8
1
62
1
10
124.675
20
73.425
30
0
11
128
21
73.425
31
0
0
ARC
8
1
62
1
10
128
20
73.25
30
0
40
0.175
50
0
51
90
0
LINE
8
1
62
1
10
128.175
20
73.25
30
0
11
128.175
21
68.925
31
0
0
LINE
8
1
62
1
10
128.175
20
68.925
30
0
11
131.51
21
68.925
31
0
0
ARC
8
1
62
1
10
131.51
20
68.75
30
0
40
0.175
50
0
51
90
0
LINE
8
1
62
1
10
131.685
20
68.75
30
0
11
131.685
21
52.75
31
0
0
ARC
8
1
62
1
10
131.51
20
52.75
30
0
40
0.175
50
-90
51
0
0
LINE
8
1
62
1
10
131.51
20
52.575
30
0
11
128.175
21
52.575
31
0
0
LINE
8
1
62
1
10
128.175
20
52.575
30
0
11
128.175
21
36.925
31
0
0
LINE
8
1
62
1
10
128.175
20
36.925
30
0
11
131.51
21
36.925
31
0
0
ARC
8
1
62
1
10
131.51
20
36.75
30
0
40
0.175
50
0
51
90
0
LINE
8
1
62
1
10
131.685
20
36.75
30
0
11
131.685
21
20.75
31
0
0
ARC
8
1
62
1
10
131.51
20
20.75
30
0
40
0.175
50
-90
51
0
0
LINE
8
1
62
1
10
131.51
20
20.575
30
0
11
128.175
21
20.575
31
0
0
LINE
8
1
62
1
10
128.175
20
20.575
30
0
11
128.175
21
4.925
31
0
0
LINE
8
1
62
1
10
128.175
20
4.925
30
0
11
131.51
21
4.925
31
0
0
ARC
8
1
62
1
10
131.51
20
4.75
30
0
40
0.175
50
0
51
90
0
LINE
8
1
62
1
10
131.685
20
4.75
30
0
11
131.685
21
-11.25
31
0
0
ARC
8
1
62
1
10
131.51
20
-11.25
30
0
40
0.175
50
-90
51
0
0
LINE
8
1
62
1
10
131.51
20
-11.425
30
0
11
128.175
21
-11.425
31
0
0
LINE
8
1
62
1
10
128.175
20
-11.425
30
0
11
128.175
21
-27.075
31
0
0
LINE
8
1
62
1
10
128.175
20
-27.075
30
0
11
131.51
21
-27.075
31
0
0
ARC
8
1
62
1
10
131.51
20
-27.25
30
0
40
0.175
50
0
51
90
0
LINE
8
1
62
1
10
131.685
20
-27.25
30
0
11
131.685
21
-43.25
31
0
0
ARC
8
1
62
1
10
131.51
20
-43.25
30
0
40
0.175
50
-90
51
0
0
LINE
8
1
62
1
10
131.51
20
-43.425
30
0
11
128.175
21
-43.425
31
0
0
LINE
8
1
62
1
10
128.175
20
-43.425
30
0
11
128.175
21
-47.75
31
0
0
ARC
8
1
62
1
10
128
20
-47.75
30
0
40
0.175
50
-90
51
0
0
LINE
8
1
62
1
10
128
20
-47.925
30
0
11
124.675
21
-47.925
31
0
0
LINE
8
1
62
1
10
124.675
20
-47.925
30
0
11
124.675
21
-51.26
31
0
0
ARC
8
1
62
1
10
124.5
20
-51.26
30
0
40
0.175
50
-90
51
0
0
LINE
8
1
62
1
10
124.5
20
-51.435
30
0
11
120.5
21
-51.435
31
0
0
ARC
8
1
62
1
10
120.5
20
-51.26
30
0
40
0.175
50
180
51
-90
0
LINE
8
1
62
1
10
120.325
20
-51.26
30
0
11
120.325
21
-47.925
31
0
0
LINE
8
1
62
1
10
120.325
20
-47.925
30
0
11
117
21
-47.925
31
0
0
ARC
8
1
62
1
10
117
20
-47.75
30
0
40
0.175
50
180
51
-90
0
LINE
8
1
62
1
10
116.825
20
-47.75
30
0
11
116.825
21
-43.425
31
0
0
LINE
8
1
62
1
10
116.825
20
-43.425
30
0
11
113.49
21
-43.425
31
0
0
ARC
8
1
62
1
10
113.49
20
-43.25
30
0
40
0.175
50
180
51
-90
0
LINE
8
1
62
1
10
113.315
20
-43.25
30
0
11
113.315
21
-27.25
31
0
0
ARC
8
1
62
1
10
113.49
20
-27.25
30
0
40
0.175
50
90
51
180
0
LINE
8
1
62
1
10
113.49
20
-27.075
30
0
11
116.825
21
-27.075
31
0
0
LINE
8
1
62
1
10
116.825
20
-27.075
30
0
11
116.825
21
-11.425
31
0
0
LINE
8
1
62
1
10
116.825
20
-11.425
30
0
11
113.49
21
-11.425
31
0
0
ARC
8
1
62
1
10
113.49
20
-11.25
30
0
40
0.175
50
180
51
-90
0
LINE
8
1
62
1
10
113.315
20
-11.25
30
0
11
113.315
21
4.75
31
0
0
LINE
8
1
62
1
10
-18.175
20
-30.075
30
0
11
-18.175
21
-27.425
31
0
0
LINE
8
1
62
1
10
-18.175
20
-27.425
30
0
11
-21.51
21
-27.425
31
0
0
ARC
8
1
62
1
10
-21.51
20
-27.25
30
0
40
0.175
50
180
51
-90
0
LINE
8
1
62
1
10
-21.685
20
-27.25
30
0
11
-21.685
21
-11.25
31
0
0
ARC
8
1
62
1
10
-21.51
20
-11.25
30
0
40
0.175
50
90
51
180
0
LINE
8
1
62
1
10
-21.51
20
-11.075
30
0
11
-18.175
21
-11.075
31
0
0
LINE
8
1
62
1
10
-18.175
20
-11.075
30
0
11
-18.175
21
4.575
31
0
0
LINE
8
1
62
1
10
-18.175
20
4.575
30
0
11
-21.51
21
4.575
31
0
0
ARC
8
1
62
1
10
-21.51
20
4.75
30
0
40
0.175
50
180
51
-90
0
LINE
8
1
62
1
10
-21.685
20
4.75
30
0
11
-21.685
21
20.75
31
0
0
ARC
8
1
62
1
10
-21.51
20
20.75
30
0
40
0.175
50
90
51
180
0
LINE
8
1
62
1
10
-21.51
20
20.925
30
0
11
-18.175
21
20.925
31
0
0
LINE
8
1
62
1
10
-18.175
20
20.925
30
0
11
-18.175
21
36.575
31
0
0
LINE
8
1
62
1
10
-18.175
20
36.575
30
0
11
-21.51
21
36.575
31
0
0
ARC
8
1
62
1
10
-21.51
20
36.75
30
0
40
0.175
50
180
51
-90
0
LINE
8
1
62
1
10
-21.685
20
36.75
30
0
11
-21.685
21
52.75
31
0
0
ARC
8
1
62
1
10
-21.51
20
52.75
30
0
40
0.175
50
90
51
180
0
LINE
8
1
62
1
10
-21.51
20
52.925
30
0
11
-18.175
21
52.925
31
0
0
LINE
8
1
62
1
10
-18.175
20
52.925
30
0
11
-18.175
21
68.575
31
0
0
LINE
8
1
62
1
10
-18.175
20
68.575
30
0
11
-21.51
21
68.575
31
0
0
ARC
8
1
62
1
10
-21.51
20
68.75
30
0
40
0.175
50
180
51
-90
0
LINE
8
1
62
1
10
-21.685
20
68.75
30
0
11
-21.685
21
76.76
31
0
0
ARC
8
1
62
1
10
-21.51
20
76.76
30
0
40
0.175
50
90
51
180
0
LINE
8
1
62
1
10
-21.51
20
76.935
30
0
11
-13.5
21
76.935
31
0
0
ARC
8
1
62
1
10
-13.5
20
76.76
30
0
40
0.175
50
0
51
90
0
LINE
8
1
62
1
10
-13.325
20
76.76
30
0
11
-13.325
21
73.425
31
0
0
LINE
8
1
62
1
10
-13.325
20
73.425
30
0
11
2.325
21
73.425
31
0
0
LINE
8
1
62
1
10
2.325
20
73.425
30
0
11
2.325
21
76.76
31
0
0
ARC
8
1
62
1
10
2.5
20
76.76
30
0
40
0.175
50
90
51
180
0
LINE
8
1
62
1
10
2.5
20
76.935
30
0
11
18.5
21
76.935
31
0
0
ARC
8
1
62
1
10
18.5
20
76.76
30
0
40
0.175
50
0
51
90
0
LINE
8
1
62
1
10
18.675
20
76.76
30
0
11
18.675
21
73.425
31
0
0
LINE
8
1
62
1
10
18.675
20
73.425
30
0
11
34.325
21
73.425
31
0
0
LINE
8
1
62
1
10
34.325
20
73.425
30
0
11
34.325
21
76.76
31
0
0
ARC
8
1
62
1
10
34.5
20
76.76
30
0
40
0.175
50
90
51
180
0
LINE
8
1
62
1
10
34.5
20
76.935
30
0
11
50.5
21
76.935
31
0
0
ARC
8
1
62
1
10
50.5
20
76.76
30
0
40
0.175
50
0
51
90
0
LINE
8
1
62
1
10
50.675
20
76.76
30
0
11
50.675
21
73.425
31
0
0
LINE
8
1
62
1
10
50.675
20
73.425
30
0
11
66.325
21
73.425
31
0
0
LINE
8
1
62
1
10
66.325
20
73.425
30
0
11
66.325
21
76.76
31
0
0
ARC
8
1
62
1
10
66.5
20
76.76
30
0
40
0.175
50
90
51
180
0
LINE
8
1
62
1
10
66.5
20
76.935
30
0
11
82.5
21
76.935
31
0
0
ARC
8
1
62
1
10
82.5
20
76.76
30
0
40
0.175
50
0
51
90
0
LINE
8
1
62
1
10
82.675
20
76.76
30
0
11
82.675
21
73.425
31
0
0
LINE
8
1
62
1
10
82.675
20
73.425
30
0
11
98.325
21
73.425
31
0
0
LINE
8
1
62
1
10
98.325
20
73.425
30
0
11
98.325
21
76.76
31
0
0
ARC
8
1
62
1
10
98.5
20
76.76
30
0
40
0.175
50
90
51
180
0
LINE
8
1
62
1
10
98.5
20
76.935
30
0
11
106.51
21
76.935
31
0
0
ARC
8
1
62
1
10
106.51
20
76.76
30
0
40
0.175
50
0
51
90
0
LINE
8
1
62
1
10
106.685
20
76.76
30
0
11
106.685
21
68.75
31
0
0
ARC
8
1
62
1
10
106.51
20
68.75
30
0
40
0.175
50
-90
51
0
0
LINE
8
1
62
1
10
106.51
20
68.575
30
0
11
103.175
21
68.575
31
0
0
LINE
8
1
62
1
10
103.175
20
68.575
30
0
11
103.175
21
52.925
31
0
0
LINE
8
1
62
1
10
103.175
20
52.925
30
0
11
106.51
21
52.925
31
0
0
ARC
8
1
62
1
10
106.51
20
52.75
30
0
40
0.175
50
0
51
90
0
LINE
8
1
62
1
10
106.685
20
52.75
30
0
11
106.685
21
36.75
31
0
0
ARC
8
1
62
1
10
106.51
20
36.75
30
0
40
0.175
50
-90
51
0
0
LINE
8
1
62
1
10
106.51
20
36.575
30
0
11
103.175
21
36.575
31
0
0
LINE
8
1
62
1
10
103.175
20
36.575
30
0
11
103.175
21
20.925
31
0
0
LINE
8
1
62
1
10
103.175
20
20.925
30
0
11
106.51
21
20.925
31
0
0
ARC
8
1
62
1
10
106.51
20
20.75
30
0
40
0.175
50
0
51
90
0
LINE
8
1
62
1
10
106.685
20
20.75
30
0
11
106.685
21
4.75
31
0
0
ARC
8
1
62
1
10
106.51
20
4.75
30
0
40
0.175
50
-90
51
0
0
LINE
8
1
62
1
10
106.51
20
4.575
30
0
11
103.175
21
4.575
31
0
0
LINE
8
1
62
1
10
103.175
20
4.575
30
0
11
103.175
21
-11.075
31
0
0
LINE
8
1
62
1
10
103.175
20
-11.075
30
0
11
106.51
21
-11.075
31
0
0
ARC
8
1
62
1
10
106.51
20
-11.25
30
0
40
0.175
50
0
51
90
0
LINE
8
1
62
1
10
106.685
20
-11.25
30
0
11
106.685
21
-27.25
31
0
0
ARC
8
1
62
1
10
106.51
20
-27.25
30
0
40
0.175
50
-90
51
0
0
LINE
8
1
62
1
10
106.51
20
-27.425
30
0
11
103.175
21
-27.425
31
0
0
LINE
8
1
62
1
10
103.175
20
-27.425
30
0
11
103.175
21
-43.075
31
0
0
LINE
8
1
62
1
10
103.175
20
-43.075
30
0
11
106.51
21
-43.075
31
0
0
ARC
8
1
62
1
10
106.51
20
-43.25
30
0
40
0.175
50
0
51
90
0
LINE
8
1
62
1
10
106.685
20
-43.25
30
0
11
106.685
21
-51.26
31
0
0
ARC
8
1
62
1
10
106.51
20
-51.26
30
0
40
0.175
50
-90
51
0
0
LINE
8
1
62
1
10
106.51
20
-51.435
30
0
11
98.5
21
-51.435
31
0
0
ARC
8
1
62
1
10
98.5
20
-51.26
30
0
40
0.175
50
180
51
-90
0
LINE
8
1
62
1
10
98.325
20
-51.26
30
0
11
98.325
21
-47.925
31
0
0
LINE
8
1
62
1
10
98.325
20
-47.925
30
0
11
82.675
21
-47.925
31
0
0
LINE
8
1
62
1
10
82.675
20
-47.925
30
0
11
82.675
21
-51.26
31
0
0
ARC
8
1
62
1
10
82.5
20
-51.26
30
0
40
0.175
50
-90
51
0
0
LINE
8
1
62
1
10
82.5
20
-51.435
30
0
11
66.5
21
-51.435
31
0
0
ARC
8
1
62
1
10
66.5
20
-51.26
30
0
40
0.175
50
180
51
-90
0
LINE
8
1
62
1
10
66.325
20
-51.26
30
0
11
66.325
21
-47.925
31
0
0
LINE
8
1
62
1
10
66.325
20
-47.925
30
0
11
50.675
21
-47.925
31
0
0
LINE
8
1
62
1
10
50.675
20
-47.925
30
0
11
50.675
21
-51.26
31
0
0
ARC
8
1
62
1
10
50.5
20
-51.26
30
0
40
0.175
50
-90
51
0
0
LINE
8
1
62
1
10
50.5
20
-51.435
30
0
11
34.5
21
-51.435
31
0
0
ARC
8
1
62
1
10
34.5
20
-51.26
30
0
40
0.175
50
180
51
-90
0
LINE
8
1
62
1
10
34.325
20
-51.26
30
0
11
34.325
21
-47.925
31
0
0
LINE
8
1
62
1
10
34.325
20
-47.925
30
0
11
18.675
21
-47.925
31
0
0
LINE
8
1
62
1
10
18.675
20
-47.925
30
0
11
18.675
21
-51.26
31
0
0
ARC
8
1
62
1
10
18.5
20
-51.26
30
0
40
0.175
50
-90
51
0
0
LINE
8
1
62
1
10
18.5
20
-51.435
30
0
11
2.5
21
-51.435
31
0
0
ARC
8
1
62
1
10
2.5
20
-51.26
30
0
40
0.175
50
180
51
-90
0
LINE
8
1
62
1
10
2.325
20
-51.26
30
0
11
2.325
21
-47.925
31
0
0
LINE
8
1
62
1
10
2.325
20
-47.925
30
0
11
-13.325
21
-47.925
31
0
0
LINE
8
1
62
1
10
-13.325
20
-47.925
30
0
11
-13.325
21
-51.26
31
0
0
ARC
8
1
62
1
10
-13.5
20
-51.26
30
0
40
0.175
50
-90
51
0
0
LINE
8
1
62
1
10
-13.5
20
-51.435
30
0
11
-21.51
21
-51.435
31
0
0
ARC
8
1
62
1
10
-21.51
20
-51.26
30
0
40
0.175
50
180
51
-90
0
LINE
8
1
62
1
10
-21.685
20
-51.26
30
0
11
-21.685
21
-43.25
31
0
0
ARC
8
1
62
1
10
-21.51
20
-43.25
30
0
40
0.175
50
90
51
180
0
LINE
8
1
62
1
10
-21.51
20
-43.075
30
0
11
-18.175
21
-43.075
31
0
0
LINE
8
1
62
1
10
-18.175
20
-43.075
30
0
11
-18.175
21
-30.075
31
0
0
LINE
8
1
62
1
10
-28.315
20
18.196
30
0
11
-28.315
21
4.75
31
0
0
ARC
8
1
62
1
10
-28.49
20
4.75
30
0
40
0.175
50
-90
51
0
0
LINE
8
1
62
1
10
-28.49
20
4.575
30
0
11
-31.825
21
4.575
31
0
0
LINE
8
1
62
1
10
-31.825
20
4.575
30
0
11
-31.825
21
-11.075
31
0
0
LINE
8
1
62
1
10
-31.825
20
-11.075
30
0
11
-28.49
21
-11.075
31
0
0
ARC
8
1
62
1
10
-28.49
20
-11.25
30
0
40
0.175
50
0
51
90
0
LINE
8
1
62
1
10
-28.315
20
-11.25
30
0
11
-28.315
21
-27.25
31
0
0
ARC
8
1
62
1
10
-28.49
20
-27.25
30
0
40
0.175
50
-90
51
0
0
LINE
8
1
62
1
10
-28.49
20
-27.425
30
0
11
-31.825
21
-27.425
31
0
0
LINE
8
1
62
1
10
-31.825
20
-27.425
30
0
11
-31.825
21
-43.075
31
0
0
LINE
8
1
62
1
10
-31.825
20
-43.075
30
0
11
-28.49
21
-43.075
31
0
0
ARC
8
1
62
1
10
-28.49
20
-43.25
30
0
40
0.175
50
0
51
90
0
LINE
8
1
62
1
10
-28.315
20
-43.25
30
0
11
-28.315
21
-51.26
31
0
0
ARC
8
1
62
1
10
-28.49
20
-51.26
30
0
40
0.175
50
-90
51
0
0
LINE
8
1
62
1
10
-28.49
20
-51.435
30
0
11
-36.5
21
-51.435
31
0
0
ARC
8
1
62
1
10
-36.5
20
-51.26
30
0
40
0.175
50
180
51
-90
0
LINE
8
1
62
1
10
-36.675
20
-51.26
30
0
11
-36.675
21
-47.925
31
0
0
LINE
8
1
62
1
10
-36.675
20
-47.925
30
0
11
-52.325
21
-47.925
31
0
0
LINE
8
1
62
1
10
-52.325
20
-47.925
30
0
11
-52.325
21
-51.26
31
0
0
ARC
8
1
62
1
10
-52.5
20
-51.26
30
0
40
0.175
50
-90
51
0
0
LINE
8
1
62
1
10
-52.5
20
-51.435
30
0
11
-68.5
21
-51.435
31
0
0
ARC
8
1
62
1
10
-68.5
20
-51.26
30
0
40
0.175
50
180
51
-90
0
LINE
8
1
62
1
10
-68.675
20
-51.26
30
0
11
-68.675
21
-47.925
31
0
0
LINE
8
1
62
1
10
-68.675
20
-47.925
30
0
11
-84.325
21
-47.925
31
0
0
LINE
8
1
62
1
10
-84.325
20
-47.925
30
0
11
-84.325
21
-51.26
31
0
0
ARC
8
1
62
1
10
-84.5
20
-51.26
30
0
40
0.175
50
-90
51
0
0
LINE
8
1
62
1
10
-84.5
20
-51.435
30
0
11
-100.5
21
-51.435
31
0
0
ARC
8
1
62
1
10
-100.5
20
-51.26
30
0
40
0.175
50
180
51
-90
0
LINE
8
1
62
1
10
-100.675
20
-51.26
30
0
11
-100.675
21
-47.925
31
0
0
LINE
8
1
62
1
10
-100.675
20
-47.925
30
0
11
-116.325
21
-47.925
31
0
0
LINE
8
1
62
1
10
-116.325
20
-47.925
30
0
11
-116.325
21
-51.26
31
0
0
ARC
8
1
62
1
10
-116.5
20
-51.26
30
0
40
0.175
50
-90
51
0
0
LINE
8
1
62
1
10
-116.5
20
-51.435
30
0
11
-132.5
21
-51.435
31
0
0
ARC
8
1
62
1
10
-132.5
20
-51.26
30
0
40
0.175
50
180
51
-90
0
LINE
8
1
62
1
10
-132.675
20
-51.26
30
0
11
-132.675
21
-47.925
31
0
0
LINE
8
1
62
1
10
-132.675
20
-47.925
30
0
11
-148.325
21
-47.925
31
0
0
LINE
8
1
62
1
10
-148.325
20
-47.925
30
0
11
-148.325
21
-51.26
31
0
0
ARC
8
1
62
1
10
-148.5
20
-51.26
30
0
40
0.175
50
-90
51
0
0
LINE
8
1
62
1
10
-148.5
20
-51.435
30
0
11
-156.51
21
-51.435
31
0
0
ARC
8
1
62
1
10
-156.51
20
-51.26
30
0
40
0.175
50
180
51
-90
0
LINE
8
1
62
1
10
-156.685
20
-51.26
30
0
11
-156.685
21
-43.25
31
0
0
ARC
8
1
62
1
10
-156.51
20
-43.25
30
0
40
0.175
50
90
51
180
0
LINE
8
1
62
1
10
-156.51
20
-43.075
30
0
11
-153.175
21
-43.075
31
0
0
LINE
8
1
62
1
10
-153.175
20
-43.075
30
0
11
-153.175
21
-27.425
31
0
0
LINE
8
1
62
1
10
-153.175
20
-27.425
30
0
11
-156.51
21
-27.425
31
0
0
ARC
8
1
62
1
10
-156.51
20
-27.25
30
0
40
0.175
50
180
51
-90
0
LINE
8
1
62
1
10
-156.685
20
-27.25
30
0
11
-156.685
21
-11.25
31
0
0
ARC
8
1
62
1
10
-156.51
20
-11.25
30
0
40
0.175
50
90
51
180
0
LINE
8
1
62
1
10
-156.51
20
-11.075
30
0
11
-153.175
21
-11.075
31
0
0
LINE
8
1
62
1
10
-153.175
20
-11.075
30
0
11
-153.175
21
4.575
31
0
0
LINE
8
1
62
1
10
-153.175
20
4.575
30
0
11
-156.51
21
4.575
31
0
0
ARC
8
1
62
1
10
-156.51
20
4.75
30
0
40
0.175
50
180
51
-90
0
LINE
8
1
62
1
10
-156.685
20
4.75
30
0
11
-156.685
21
20.75
31
0
0
ARC
8
1
62
1
10
-156.51
20
20.75
30
0
40
0.175
50
90
51
180
0
LINE
8
1
62
1
10
-156.51
20
20.925
30
0
11
-153.175
21
20.925
31
0
0
LINE
8
1
62
1
10
-153.175
20
20.925
30
0
11
-153.175
21
36.575
31
0
0
LINE
8
1
62
1
10
-153.175
20
36.575
30
0
11
-156.51
21
36.575
31
0
0
ARC
8
1
62
1
10
-156.51
20
36.75
30
0
40
0.175
50
180
51
-90
0
LINE
8
1
62
1
10
-156.685
20
36.75
30
0
11
-156.685
21
52.75
31
0
0
ARC
8
1
62
1
10
-156.51
20
52.75
30
0
40
0.175
50
90
51
180
0
LINE
8
1
62
1
10
-156.51
20
52.925
30
0
11
-153.175
21
52.925
31
0
0
LINE
8
1
62
1
10
-153.175
20
52.925
30
0
11
-153.175
21
68.575
31
0
0
LINE
8
1
62
1
10
-153.175
20
68.575
30
0
11
-156.51
21
68.575
31
0
0
ARC
8
1
62
1
10
-156.51
20
68.75
30
0
40
0.175
50
180
51
-90
0
LINE
8
1
62
1
10
-156.685
20
68.75
30
0
11
-156.685
21
76.76
31
0
0
ARC
8
1
62
1
10
-156.51
20
76.76
30
0
40
0.175
50
90
51
180
0
LINE
8
1
62
1
10
-156.51
20
76.935
30
0
11
-148.5
21
76.935
31
0
0
ARC
8
1
62
1
10
-148.5
20
76.76
30
0
40
0.175
50
0
51
90
0
LINE
8
1
62
1
10
-148.325
20
76.76
30
0
11
-148.325
21
73.425
31
0
0
LINE
8
1
62
1
10
-148.325
20
73.425
30
0
11
-132.675
21
73.425
31
0
0
LINE
8
1
62
1
10
-132.675
20
73.425
30
0
11
-132.675
21
76.76
31
0
0
ARC
8
1
62
1
10
-132.5
20
76.76
30
0
40
0.175
50
90
51
180
0
LINE
8
1
62
1
10
-132.5
20
76.935
30
0
11
-116.5
21
76.935
31
0
0
ARC
8
1
62
1
10
-116.5
20
76.76
30
0
40
0.175
50
0
51
90
0
LINE
8
1
62
1
10
-116.325
20
76.76
30
0
11
-116.325
21
73.425
31
0
0
LINE
8
1
62
1
10
-116.325
20
73.425
30
0
11
-100.675
21
73.425
31
0
0
LINE
8
1
62
1
10
-100.675
20
73.425
30
0
11
-100.675
21
76.76
31
0
0
ARC
8
1
62
1
10
-100.5
20
76.76
30
0
40
0.175
50
90
51
180
0
LINE
8
1
62
1
10
-100.5
20
76.935
30
0
11
-84.5
21
76.935
31
0
0
ARC
8
1
62
1
10
-84.5
20
76.76
30
0
40
0.175
50
0
51
90
0
LINE
8
1
62
1
10
-84.325
20
76.76
30
0
11
-84.325
21
73.425
31
0
0
LINE
8
1
62
1
10
-84.325
20
73.425
30
0
11
-68.675
21
73.425
31
0
0
LINE
8
1
62
1
10
-68.675
20
73.425
30
0
11
-68.675
21
76.76
31
0
0
ARC
8
1
62
1
10
-68.5
20
76.76
30
0
40
0.175
50
90
51
180
0
LINE
8
1
62
1
10
-68.5
20
76.935
30
0
11
-52.5
21
76.935
31
0
0
ARC
8
1
62
1
10
-52.5
20
76.76
30
0
40
0.175
50
0
51
90
0
LINE
8
1
62
1
10
-52.325
20
76.76
30
0
11
-52.325
21
73.425
31
0
0
LINE
8
1
62
1
10
-52.325
20
73.425
30
0
11
-36.675
21
73.425
31
0
0
LINE
8
1
62
1
10
-36.675
20
73.425
30
0
11
-36.675
21
76.76
31
0
0
ARC
8
1
62
1
10
-36.5
20
76.76
30
0
40
0.175
50
90
51
180
0
LINE
8
1
62
1
10
-36.5
20
76.935
30
0
11
-28.49
21
76.935
31
0
0
ARC
8
1
62
1
10
-28.49
20
76.76
30
0
40
0.175
50
0
51
90
0
LINE
8
1
62
1
10
-28.315
20
76.76
30
0
11
-28.315
21
68.75
31
0
0
ARC
8
1
62
1
10
-28.49
20
68.75
30
0
40
0.175
50
-90
51
0
0
LINE
8
1
62
1
10
-28.49
20
68.575
30
0
11
-31.825
21
68.575
31
0
0
LINE
8
1
62
1
10
-31.825
20
68.575
30
0
11
-31.825
21
52.925
31
0
0
LINE
8
1
62
1
10
-31.825
20
52.925
30
0
11
-28.49
21
52.925
31
0
0
ARC
8
1
62
1
10
-28.49
20
52.75
30
0
40
0.175
50
0
51
90
0
LINE
8
1
62
1
10
-28.315
20
52.75
30
0
11
-28.315
21
36.75
31
0
0
ARC
8
1
62
1
10
-28.49
20
36.75
30
0
40
0.175
50
-90
51
0
0
LINE
8
1
62
1
10
-28.49
20
36.575
30
0
11
-31.825
21
36.575
31
0
0
LINE
8
1
62
1
10
-31.825
20
36.575
30
0
11
-31.825
21
20.925
31
0
0
LINE
8
1
62
1
10
-31.825
20
20.925
30
0
11
-28.49
21
20.925
31
0
0
ARC
8
1
62
1
10
-28.49
20
20.75
30
0
40
0.175
50
0
51
90
0
LINE
8
1
62
1
10
-28.315
20
20.75
30
0
11
-28.315
21
18.196
31
0
0
ARC
8
1
62
1
10
-13.5
20
-58.24
30
0
40
0.175
50
90
51
100.969281
0
LINE
8
1
62
1
10
-13.5
20
-58.065
30
0
11
2.5
21
-58.065
31
0
0
ARC
8
1
62
1
10
2.5
20
-58.24
30
0
40
0.175
50
0
51
90
0
LINE
8
1
62
1
10
2.675
20
-58.24
30
0
11
2.675
21
-61.575
31
0
0
LINE
8
1
62
1
10
2.675
20
-61.575
30
0
11
18.325
21
-61.575
31
0
0
LINE
8
1
62
1
10
18.325
20
-61.575
30
0
11
18.325
21
-58.24
31
0
0
ARC
8
1
62
1
10
18.5
20
-58.24
30
0
40
0.175
50
90
51
180
0
LINE
8
1
62
1
10
18.5
20
-58.065
30
0
11
34.5
21
-58.065
31
0
0
ARC
8
1
62
1
10
34.5
20
-58.24
30
0
40
0.175
50
0
51
90
0
LINE
8
1
62
1
10
34.675
20
-58.24
30
0
11
34.675
21
-61.575
31
0
0
LINE
8
1
62
1
10
34.675
20
-61.575
30
0
11
50.325
21
-61.575
31
0
0
LINE
8
1
62
1
10
50.325
20
-61.575
30
0
11
50.325
21
-58.24
31
0
0
ARC
8
1
62
1
10
50.5
20
-58.24
30
0
40
0.175
50
90
51
180
0
LINE
8
1
62
1
10
50.5
20
-58.065
30
0
11
66.5
21
-58.065
31
0
0
ARC
8
1
62
1
10
66.5
20
-58.24
30
0
40
0.175
50
0
51
90
0
LINE
8
1
62
1
10
66.675
20
-58.24
30
0
11
66.675
21
-61.575
31
0
0
LINE
8
1
62
1
10
66.675
20
-61.575
30
0
11
82.325
21
-61.575
31
0
0
LINE
8
1
62
1
10
82.325
20
-61.575
30
0
11
82.325
21
-58.24
31
0
0
ARC
8
1
62
1
10
82.5
20
-58.24
30
0
40
0.175
50
90
51
180
0
LINE
8
1
62
1
10
82.5
20
-58.065
30
0
11
98.5
21
-58.065
31
0
0
ARC
8
1
62
1
10
98.5
20
-58.24
30
0
40
0.175
50
0
51
90
0
LINE
8
1
62
1
10
98.675
20
-58.24
30
0
11
98.675
21
-61.575
31
0
0
LINE
8
1
62
1
10
98.675
20
-61.575
30
0
11
106.51
21
-61.575
31
0
0
ARC
8
1
62
1
10
106.51
20
-61.75
30
0
40
0.175
50
0
51
90
0
LINE
8
1
62
1
10
106.685
20
-61.75
30
0
11
106.685
21
-65.25
31
0
0
ARC
8
1
62
1
10
106.51
20
-65.25
30
0
40
0.175
50
-90
51
0
0
LINE
8
1
62
1
10
106.51
20
-65.425
30
0
11
103.175
21
-65.425
31
0
0
LINE
8
1
62
1
10
103.175
20
-65.425
30
0
11
103.175
21
-69.075
31
0
0
LINE
8
1
62
1
10
103.175
20
-69.075
30
0
11
106.51
21
-69.075
31
0
0
ARC
8
1
62
1
10
106.51
20
-69.25
30
0
40
0.175
50
0
51
90
0
LINE
8
1
62
1
10
106.685
20
-69.25
30
0
11
106.685
21
-72.75
31
0
0
ARC
8
1
62
1
10
106.51
20
-72.75
30
0
40
0.175
50
-90
51
0
0
LINE
8
1
62
1
10
106.51
20
-72.925
30
0
11
98.675
21
-72.925
31
0
0
LINE
8
1
62
1
10
98.675
20
-72.925
30
0
11
98.675
21
-76.26
31
0
0
ARC
8
1
62
1
10
98.5
20
-76.26
30
0
40
0.175
50
-90
51
0
0
LINE
8
1
62
1
10
98.5
20
-76.435
30
0
11
82.5
21
-76.435
31
0
0
ARC
8
1
62
1
10
82.5
20
-76.26
30
0
40
0.175
50
180
51
-90
0
LINE
8
1
62
1
10
82.325
20
-76.26
30
0
11
82.325
21
-72.925
31
0
0
LINE
8
1
62
1
10
82.325
20
-72.925
30
0
11
66.675
21
-72.925
31
0
0
LINE
8
1
62
1
10
66.675
20
-72.925
30
0
11
66.675
21
-76.26
31
0
0
ARC
8
1
62
1
10
66.5
20
-76.26
30
0
40
0.175
50
-90
51
0
0
LINE
8
1
62
1
10
66.5
20
-76.435
30
0
11
50.5
21
-76.435
31
0
0
ARC
8
1
62
1
10
50.5
20
-76.26
30
0
40
0.175
50
180
51
-90
0
LINE
8
1
62
1
10
50.325
20
-76.26
30
0
11
50.325
21
-72.925
31
0
0
LINE
8
1
62
1
10
50.325
20
-72.925
30
0
11
34.675
21
-72.925
31
0
0
LINE
8
1
62
1
10
34.675
20
-72.925
30
0
11
34.675
21
-76.26
31
0
0
ARC
8
1
62
1
10
34.5
20
-76.26
30
0
40
0.175
50
-90
51
0
0
LINE
8
1
62
1
10
34.5
20
-76.435
30
0
11
18.5
21
-76.435
31
0
0
ARC
8
1
62
1
10
18.5
20
-76.26
30
0
40
0.175
50
180
51
-90
0
LINE
8
1
62
1
10
18.325
20
-76.26
30
0
11
18.325
21
-72.925
31
0
0
LINE
8
1
62
1
10
18.325
20
-72.925
30
0
11
2.675
21
-72.925
31
0
0
LINE
8
1
62
1
10
2.675
20
-72.925
30
0
11
2.675
21
-76.26
31
0
0
ARC
8
1
62
1
10
2.5
20
-76.26
30
0
40
0.175
50
-90
51
0
0
LINE
8
1
62
1
10
2.5
20
-76.435
30
0
11
-13.5
21
-76.435
31
0
0
ARC
8
1
62
1
10
-13.5
20
-76.26
30
0
40
0.175
50
180
51
-90
0
LINE
8
1
62
1
10
-13.675
20
-76.26
30
0
11
-13.675
21
-72.925
31
0
0
LINE
8
1
62
1
10
-13.675
20
-72.925
30
0
11
-21.51
21
-72.925
31
0
0
ARC
8
1
62
1
10
-21.51
20
-72.75
30
0
40
0.175
50
180
51
-90
0
LINE
8
1
62
1
10
-21.685
20
-72.75
30
0
11
-21.685
21
-69.25
31
0
0
ARC
8
1
62
1
10
-21.51
20
-69.25
30
0
40
0.175
50
90
51
180
0
LINE
8
1
62
1
10
-21.51
20
-69.075
30
0
11
-18.175
21
-69.075
31
0
0
LINE
8
1
62
1
10
-18.175
20
-69.075
30
0
11
-18.175
21
-65.425
31
0
0
LINE
8
1
62
1
10
-18.175
20
-65.425
30
0
11
-21.51
21
-65.425
31
0
0
ARC
8
1
62
1
10
-21.51
20
-65.25
30
0
40
0.175
50
180
51
-90
0
LINE
8
1
62
1
10
-21.685
20
-65.25
30
0
11
-21.685
21
-61.75
31
0
0
ARC
8
1
62
1
10
-21.51
20
-61.75
30
0
40
0.175
50
90
51
180
0
LINE
8
1
62
1
10
-21.51
20
-61.575
30
0
11
-13.675
21
-61.575
31
0
0
LINE
8
1
62
1
10
-13.675
20
-61.575
30
0
11
-13.675
21
-58.24
31
0
0
ARC
8
1
62
1
10
-13.5
20
-58.24
30
0
40
0.175
50
100.969281
51
180
0
ARC
8
1
62
1
10
-36.5
20
-76.76
30
0
40
0.175
50
-90
51
0
0
LINE
8
1
62
1
10
-36.5
20
-76.935
30
0
11
-52.5
21
-76.935
31
0
0
ARC
8
1
62
1
10
-52.5
20
-76.76
30
0
40
0.175
50
180
51
-90
0
LINE
8
1
62
1
10
-52.675
20
-76.76
30
0
11
-52.675
21
-73.425
31
0
0
LINE
8
1
62
1
10
-52.675
20
-73.425
30
0
11
-68.325
21
-73.425
31
0
0
LINE
8
1
62
1
10
-68.325
20
-73.425
30
0
11
-68.325
21
-76.76
31
0
0
ARC
8
1
62
1
10
-68.5
20
-76.76
30
0
40
0.175
50
-90
51
0
0
LINE
8
1
62
1
10
-68.5
20
-76.935
30
0
11
-84.5
21
-76.935
31
0
0
ARC
8
1
62
1
10
-84.5
20
-76.76
30
0
40
0.175
50
180
51
-90
0
LINE
8
1
62
1
10
-84.675
20
-76.76
30
0
11
-84.675
21
-73.425
31
0
0
LINE
8
1
62
1
10
-84.675
20
-73.425
30
0
11
-87
21
-73.425
31
0
0
ARC
8
1
62
1
10
-87
20
-73.25
30
0
40
0.175
50
180
51
-90
0
LINE
8
1
62
1
10
-87.175
20
-73.25
30
0
11
-87.175
21
-67.425
31
0
0
LINE
8
1
62
1
10
-87.175
20
-67.425
30
0
11
-97.825
21
-67.425
31
0
0
LINE
8
1
62
1
10
-97.825
20
-67.425
30
0
11
-97.825
21
-73.25
31
0
0
ARC
8
1
62
1
10
-98
20
-73.25
30
0
40
0.175
50
-90
51
0
0
LINE
8
1
62
1
10
-98
20
-73.425
30
0
11
-100.325
21
-73.425
31
0
0
LINE
8
1
62
1
10
-100.325
20
-73.425
30
0
11
-100.325
21
-76.76
31
0
0
ARC
8
1
62
1
10
-100.5
20
-76.76
30
0
40
0.175
50
-90
51
0
0
LINE
8
1
62
1
10
-100.5
20
-76.935
30
0
11
-116.5
21
-76.935
31
0
0
ARC
8
1
62
1
10
-116.5
20
-76.76
30
0
40
0.175
50
180
51
-90
0
LINE
8
1
62
1
10
-116.675
20
-76.76
30
0
11
-116.675
21
-73.425
31
0
0
LINE
8
1
62
1
10
-116.675
20
-73.425
30
0
11
-132.325
21
-73.425
31
0
0
LINE
8
1
62
1
10
-132.325
20
-73.425
30
0
11
-132.325
21
-76.76
31
0
0
ARC
8
1
62
1
10
-132.5
20
-76.76
30
0
40
0.175
50
-90
51
0
0
LINE
8
1
62
1
10
-132.5
20
-76.935
30
0
11
-148.5
21
-76.935
31
0
0
ARC
8
1
62
1
10
-148.5
20
-76.76
30
0
40
0.175
50
180
51
-90
0
LINE
8
1
62
1
10
-148.675
20
-76.76
30
0
11
-148.675
21
-73.425
31
0
0
LINE
8
1
62
1
10
-148.675
20
-73.425
30
0
11
-156.51
21
-73.425
31
0
0
ARC
8
1
62
1
10
-156.51
20
-73.25
30
0
40
0.175
50
180
51
-90
0
LINE
8
1
62
1
10
-156.685
20
-73.25
30
0
11
-156.685
21
-69.75
31
0
0
ARC
8
1
62
1
10
-156.51
20
-69.75
30
0
40
0.175
50
90
51
180
0
LINE
8
1
62
1
10
-156.51
20
-69.575
30
0
11
-153.175
21
-69.575
31
0
0
LINE
8
1
62
1
10
-153.175
20
-69.575
30
0
11
-153.175
21
-65.925
31
0
0
LINE
8
1
62
1
10
-153.175
20
-65.925
30
0
11
-156.51
21
-65.925
31
0
0
ARC
8
1
62
1
10
-156.51
20
-65.75
30
0
40
0.175
50
180
51
-90
0
LINE
8
1
62
1
10
-156.685
20
-65.75
30
0
11
-156.685
21
-62.25
31
0
0
ARC
8
1
62
1
10
-156.51
20
-62.25
30
0
40
0.175
50
90
51
180
0
LINE
8
1
62
1
10
-156.51
20
-62.075
30
0
11
-148.675
21
-62.075
31
0
0
LINE
8
1
62
1
10
-148.675
20
-62.075
30
0
11
-148.675
21
-58.74
31
0
0
ARC
8
1
62
1
10
-148.5
20
-58.74
30
0
40
0.175
50
90
51
180
0
LINE
8
1
62
1
10
-148.5
20
-58.565
30
0
11
-132.5
21
-58.565
31
0
0
ARC
8
1
62
1
10
-132.5
20
-58.74
30
0
40
0.175
50
0
51
90
0
LINE
8
1
62
1
10
-132.325
20
-58.74
30
0
11
-132.325
21
-62.075
31
0
0
LINE
8
1
62
1
10
-132.325
20
-62.075
30
0
11
-116.675
21
-62.075
31
0
0
LINE
8
1
62
1
10
-116.675
20
-62.075
30
0
11
-116.675
21
-58.74
31
0
0
ARC
8
1
62
1
10
-116.5
20
-58.74
30
0
40
0.175
50
90
51
180
0
LINE
8
1
62
1
10
-116.5
20
-58.565
30
0
11
-100.5
21
-58.565
31
0
0
ARC
8
1
62
1
10
-100.5
20
-58.74
30
0
40
0.175
50
0
51
90
0
LINE
8
1
62
1
10
-100.325
20
-58.74
30
0
11
-100.325
21
-62.075
31
0
0
LINE
8
1
62
1
10
-100.325
20
-62.075
30
0
11
-84.675
21
-62.075
31
0
0
LINE
8
1
62
1
10
-84.675
20
-62.075
30
0
11
-84.675
21
-58.74
31
0
0
ARC
8
1
62
1
10
-84.5
20
-58.74
30
0
40
0.175
50
90
51
180
0
LINE
8
1
62
1
10
-84.5
20
-58.565
30
0
11
-68.5
21
-58.565
31
0
0
ARC
8
1
62
1
10
-68.5
20
-58.74
30
0
40
0.175
50
0
51
90
0
LINE
8
1
62
1
10
-68.325
20
-58.74
30
0
11
-68.325
21
-62.075
31
0
0
LINE
8
1
62
1
10
-68.325
20
-62.075
30
0
11
-52.675
21
-62.075
31
0
0
LINE
8
1
62
1
10
-52.675
20
-62.075
30
0
11
-52.675
21
-58.74
31
0
0
ARC
8
1
62
1
10
-52.5
20
-58.74
30
0
40
0.175
50
90
51
180
0
LINE
8
1
62
1
10
-52.5
20
-58.565
30
0
11
-36.5
21
-58.565
31
0
0
ARC
8
1
62
1
10
-36.5
20
-58.74
30
0
40
0.175
50
0
51
90
0
LINE
8
1
62
1
10
-36.325
20
-58.74
30
0
11
-36.325
21
-62.075
31
0
0
LINE
8
1
62
1
10
-36.325
20
-62.075
30
0
11
-28.49
21
-62.075
31
0
0
ARC
8
1
62
1
10
-28.49
20
-62.25
30
0
40
0.175
50
0
51
90
0
LINE
8
1
62
1
10
-28.315
20
-62.25
30
0
11
-28.315
21
-65.75
31
0
0
ARC
8
1
62
1
10
-28.49
20
-65.75
30
0
40
0.175
50
-90
51
0
0
LINE
8
1
62
1
10
-28.49
20
-65.925
30
0
11
-31.825
21
-65.925
31
0
0
LINE
8
1
62
1
10
-31.825
20
-65.925
30
0
11
-31.825
21
-69.575
31
0
0
LINE
8
1
62
1
10
-31.825
20
-69.575
30
0
11
-28.49
21
-69.575
31
0
0
ARC
8
1
62
1
10
-28.49
20
-69.75
30
0
40
0.175
50
0
51
90
0
LINE
8
1
62
1
10
-28.315
20
-69.75
30
0
11
-28.315
21
-73.25
31
0
0
ARC
8
1
62
1
10
-28.49
20
-73.25
30
0
40
0.175
50
-90
51
0
0
LINE
8
1
62
1
10
-28.49
20
-73.425
30
0
11
-36.325
21
-73.425
31
0
0
LINE
8
1
62
1
10
-36.325
20
-73.425
30
0
11
-36.325
21
-76.76
31
0
0
ENDSEC
0
EOF
