<?xml version="1.0" encoding="UTF-8" standalone="no"?>
<!DOCTYPE svg PUBLIC "-//W3C//DTD SVG 1.1//EN" "http://www.w3.org/Graphics/SVG/1.1/DTD/svg11.dtd">
<!-- Created with Vectornator (http://vectornator.io/) -->
<svg height="100%" stroke-miterlimit="10" style="fill-rule:nonzero;clip-rule:evenodd;stroke-linecap:round;stroke-linejoin:round;" version="1.1" viewBox="0 0 540 540" width="100%" xml:space="preserve" xmlns="http://www.w3.org/2000/svg" xmlns:vectornator="http://vectornator.io" xmlns:xlink="http://www.w3.org/1999/xlink">
<defs/>
<clipPath id="ArtboardFrame">
<rect height="540" width="540" x="0" y="0"/>
</clipPath>
<g clip-path="url(#ArtboardFrame)" id="Layer-1" vectornator:layerName="Layer 1">
<g opacity="1" vectornator:layerName="Group 1">
<path d="M228 276C226.667 276 225.667 276.667 225 278C224.667 278.667 224.333 279.333 224 280C223.5 279.667 223 279.333 222.5 279C222 278.667 221.5 278.333 221 278C220.667 278.667 220.333 279.333 220 280C219.667 280.667 219.333 281.333 219 282C220.333 282.333 221.667 282.667 223 283C225.667 283.667 227.5 282.667 228.5 280C229 278.667 229.5 277.333 230 276C229.333 276 228.667 276 228 276Z" fill="#000000" fill-rule="nonzero" opacity="1" stroke="none"/>
<path d="M319 173C320 174.667 321 176.333 322 178C324 181.333 326.333 183.5 329 184.5C330.333 185 331.667 185.5 333 186C332.167 184.5 331.333 183 330.5 181.5C328.833 178.5 327.333 177 326 177C324.667 177 323.167 176.333 321.5 175C320.667 174.333 319.833 173.667 319 173Z" fill="#000000" fill-rule="nonzero" opacity="1" stroke="none"/>
<path d="M301.25 225.375C300.25 225.458 299.333 225.667 298.5 226C297.667 226.333 296.833 226.667 296 227C298 226.833 300 226.667 302 226.5C304 226.333 306 226.167 308 226C306.833 225.833 305.667 225.667 304.5 225.5C303.333 225.333 302.25 225.292 301.25 225.375Z" fill="#000000" fill-rule="nonzero" opacity="1" stroke="none"/>
<path d="M309 162C309.333 163.167 309.667 164.333 310 165.5C310.667 167.833 311.333 169 312 169C312.333 169 312.667 169 313 169C312.333 167.833 311.667 166.667 311 165.5C310.333 164.333 309.667 163.167 309 162Z" fill="#000000" fill-rule="nonzero" opacity="1" stroke="none"/>
<path d="M314 206C314.667 206.833 315.333 207.667 316 208.5C316.667 209.333 317.333 210.167 318 211C317.833 210.333 317.667 209.667 317.5 209C317.333 208.333 317.167 207.667 317 207C317.667 207 318.333 207 319 207C320.333 207 322 208 324 210C325 211 326 212 327 213C326.5 211.833 326 210.667 325.5 209.5C324.5 207.167 322.333 206 319 206C317.333 206 315.667 206 314 206Z" fill="#000000" fill-rule="nonzero" opacity="1" stroke="none"/>
<path d="M304 212.5C300.667 212.167 297 213 293 215C291 216 289 217 287 218C291.333 217.833 295.667 217.667 300 217.5C304.333 217.333 308.667 217.167 313 217C312.333 216.333 311.667 215.667 311 215C309.667 213.667 307.333 212.833 304 212.5Z" fill="#000000" fill-rule="nonzero" opacity="1" stroke="none"/>
<path d="M211 373C209.333 376.167 207.667 379.333 206 382.5C202.667 388.833 185.5 392 154.5 392C139 392 123.5 392 108 392C108 392.333 108 392.667 108 393C108 393.667 112.5 399 121.5 409C130.5 419 136.167 424.333 138.5 425C140.833 425.667 142.333 426.833 143 428.5C143.667 430.167 144.833 431.167 146.5 431.5C148.167 431.833 149.167 431.333 149.5 430C149.833 428.667 150.667 427.5 152 426.5C153.333 425.5 156 425 160 425C162 425 164 425 166 425C166 425.5 166 426 166 426.5C166 427.5 165 429 163 431C161 433 159.5 434 158.5 434C158 434 157.5 434 157 434C157.333 434.5 157.667 435 158 435.5C158.667 436.5 158.833 437.667 158.5 439C158.167 440.333 160.833 442.833 166.5 446.5C172.167 450.167 179.833 454 189.5 458C194.333 460 199.167 462 204 464C204 454.5 204 445 204 435.5C204 416.5 204.667 405.5 206 402.5C207.333 399.5 208.5 393.833 209.5 385.5C210 381.333 210.5 377.167 211 373Z" fill="#000000" fill-rule="nonzero" opacity="1" stroke="none"/>
<path d="M228.5 232C226.167 232 224 232.333 222 233C221 233.333 220 233.667 219 234C219.167 234.333 219.333 234.667 219.5 235C219.833 235.667 222.333 235.667 227 235C229.333 234.667 231.667 234.333 234 234C233.667 233.667 233.333 233.333 233 233C232.333 232.333 230.833 232 228.5 232Z" fill="#000000" fill-rule="nonzero" opacity="1" stroke="none"/>
<path d="M276.125 292.5C272.875 292.667 268.667 293 263.5 293.5C253.167 294.5 247.667 295.5 247 296.5C246.333 297.5 246.833 298.833 248.5 300.5C250.167 302.167 252.167 303.333 254.5 304C256.833 304.667 261.833 304 269.5 302C277.167 300 282 298 284 296C285 295 286 294 287 293C285.667 292.833 284.333 292.667 283 292.5C281.667 292.333 279.375 292.333 276.125 292.5Z" fill="#000000" fill-rule="nonzero" opacity="1" stroke="none"/>
<path d="M270.5 53C258.167 53 244.167 54.5 228.5 57.5C212.833 60.5 197.667 65.1667 183 71.5C168.333 77.8333 156.333 84.1667 147 90.5C137.667 96.8333 128 104.833 118 114.5C108 124.167 98.6667 135.333 90 148C81.3333 160.667 73.8333 174.833 67.5 190.5C61.1667 206.167 56.8333 221.167 54.5 235.5C52.1667 249.833 51.1667 264 51.5 278C51.8333 292 53.5 305.833 56.5 319.5C59.5 333.167 64.1667 347.167 70.5 361.5C76.8333 375.833 83.6667 388.167 91 398.5C98.3333 408.833 107.333 419.167 118 429.5C128.667 439.833 139.333 448.5 150 455.5C160.667 462.5 173.5 469 188.5 475C203.5 481 217.5 485.167 230.5 487.5C243.5 489.833 258.833 490.833 276.5 490.5C294.167 490.167 309.833 488.333 323.5 485C337.167 481.667 350.667 476.833 364 470.5C377.333 464.167 390.167 456.333 402.5 447C414.833 437.667 425.333 428.167 434 418.5C442.667 408.833 451 397.167 459 383.5C467 369.833 473.167 356.833 477.5 344.5C481.833 332.167 485 319.333 487 306C489 292.667 489.833 279.5 489.5 266.5C489.167 253.5 487.5 240 484.5 226C481.5 212 477.5 199 472.5 187C467.5 175 461.167 163.167 453.5 151.5C445.833 139.833 437.333 129.167 428 119.5C418.667 109.833 408.333 101 397 93C385.667 85 372.667 77.8333 358 71.5C343.333 65.1667 328.167 60.5 312.5 57.5C296.833 54.5 282.833 53 270.5 53ZM270.5 64C280.833 64 293.333 65.3333 308 68C322.667 70.6667 336.167 74.5 348.5 79.5C360.833 84.5 373 91 385 99C397 107 407.833 115.833 417.5 125.5C427.167 135.167 435.667 145.5 443 156.5C450.333 167.5 456.5 178.667 461.5 190C466.5 201.333 470 210.833 472 218.5C474 226.167 475.667 235 477 245C478.333 255 478.833 266 478.5 278C478.167 290 476.333 303.333 473 318C469.667 332.667 465 346.5 459 359.5C453 372.5 446.5 383.833 439.5 393.5C432.5 403.167 425 412 417 420C409 428 398.167 436.5 384.5 445.5C370.833 454.5 358 461.333 346 466C334 470.667 321.667 474.167 309 476.5C296.333 478.833 283.5 480 270.5 480C257.5 480 244.667 478.833 232 476.5C219.333 474.167 207 470.667 195 466C183 461.333 170.167 454.5 156.5 445.5C142.833 436.5 131 426.833 121 416.5C111 406.167 103 396.5 97 387.5C91 378.5 85.1667 367.333 79.5 354C73.8333 340.667 69.6667 327.833 67 315.5C64.3333 303.167 62.8333 290.833 62.5 278.5C62.1667 266.167 63.1667 252.833 65.5 238.5C67.8333 224.167 71.3333 210.833 76 198.5C80.6667 186.167 87.3333 173.333 96 160C104.667 146.667 114 135 124 125C134 115 144.833 106.167 156.5 98.5C168.167 90.8333 179.667 84.6667 191 80C202.333 75.3333 215.833 71.5 231.5 68.5C247.167 65.5 260.167 64 270.5 64Z" fill="#000000" fill-rule="nonzero" opacity="1" stroke="none"/>
<path d="M249 242C248.5 242.5 248 243 247.5 243.5C246.5 244.5 246 245.667 246 247C246 247.667 246 248.333 246 249C246.667 248.167 247.333 247.333 248 246.5C249.333 244.833 249.833 243.667 249.5 243C249.333 242.667 249.167 242.333 249 242Z" fill="#000000" fill-rule="nonzero" opacity="1" stroke="none"/>
<path d="M282 281.5C274.667 281.167 265.833 282 255.5 284C245.167 286 239 288 237 290C235 292 234 293.5 234 294.5C234 295.5 234.5 296.333 235.5 297C236.5 297.667 239.167 296.5 243.5 293.5C247.833 290.5 252.333 288.167 257 286.5C261.667 284.833 267.333 284 274 284C280.667 284 287.333 284.833 294 286.5C297.333 287.333 300.667 288.167 304 289C303.833 288.333 303.667 287.667 303.5 287C303.167 285.667 301.333 284.5 298 283.5C294.667 282.5 289.333 281.833 282 281.5Z" fill="#000000" fill-rule="nonzero" opacity="1" stroke="none"/>
<path d="M213 156C210.333 156 207.833 156.833 205.5 158.5C203.167 160.167 199 165.333 193 174C187 182.667 183.5 188.167 182.5 190.5C181.5 192.833 181.333 194.833 182 196.5C182.667 198.167 184.167 199.167 186.5 199.5C188.833 199.833 190.833 199.5 192.5 198.5C194.167 197.5 196 193.667 198 187C200 180.333 204 173.833 210 167.5C216 161.167 218.667 157.667 218 157C217.333 156.333 215.667 156 213 156Z" fill="#000000" fill-rule="nonzero" opacity="1" stroke="none"/>
<path d="M300 190.5C297.333 190.167 291.833 191.833 283.5 195.5C275.167 199.167 272.167 204 274.5 210C275.667 213 276.833 216 278 219C279.333 218.5 280.667 218 282 217.5C284.667 216.5 287.5 214.667 290.5 212C293.5 209.333 297.667 208 303 208C305.667 208 308.333 208 311 208C310.5 207.667 310 207.333 309.5 207C308.5 206.333 304.833 206.333 298.5 207C295.333 207.333 292.167 207.667 289 208C289 207.5 289 207 289 206.5C289 205.5 290.333 204.167 293 202.5C295.667 200.833 299.5 199.667 304.5 199C307 198.667 309.5 198.333 312 198C311.833 197.5 311.667 197 311.5 196.5C311.167 195.5 309.833 194.333 307.5 193C305.167 191.667 302.667 190.833 300 190.5Z" fill="#000000" fill-rule="nonzero" opacity="1" stroke="none"/>
<path d="M277 238C278.667 240.5 280.333 243 282 245.5C285.333 250.5 291 257.167 299 265.5C303 269.667 307 273.833 311 278C310.833 276.333 310.667 274.667 310.5 273C310.167 269.667 305.333 263.167 296 253.5C286.667 243.833 281.167 238.833 279.5 238.5C278.667 238.333 277.833 238.167 277 238Z" fill="#000000" fill-rule="nonzero" opacity="1" stroke="none"/>
<path d="M193 206C192.286 206 190.893 207.118 189.031 209.031C189.519 209.357 190.012 209.675 190.5 210C191 210.333 191.5 210.667 192 211C192.5 210.167 193 209.333 193.5 208.5C194 207.667 194.5 206.833 195 206C194.333 206 193.667 206 193 206Z" fill="#000000" fill-rule="nonzero" opacity="1" stroke="none"/>
<path d="M253.594 249.031C251.031 248.844 249.5 249.5 249 251C248.333 253 247.333 254.167 246 254.5C244.667 254.833 243 256.5 241 259.5C240 261 239 262.5 238 264C239.167 263 240.333 262 241.5 261C242.667 260 243.833 259 245 258C245.667 259.333 246.333 260.667 247 262C248.333 264.667 250 266 252 266C254 266 256.167 267.167 258.5 269.5C260.833 271.833 262.5 273 263.5 273C264.5 273 266.167 271.667 268.5 269C270.833 266.333 273.833 264.5 277.5 263.5C281.167 262.5 283.5 261.167 284.5 259.5C285.5 257.833 286 256.5 286 255.5C286 254.5 284.5 253 281.5 251C278.5 249 274.667 248.5 270 249.5C265.333 250.5 260.833 250.5 256.5 249.5C255.417 249.25 254.448 249.094 253.594 249.031Z" fill="#000000" fill-rule="nonzero" opacity="1" stroke="none"/>
<path d="M228 198.5C221.333 198.167 217.833 198.667 217.5 200C217.167 201.333 215.5 202.833 212.5 204.5C209.5 206.167 207.333 208 206 210C204.667 212 203.667 215.167 203 219.5C202.333 223.833 201.5 226.167 200.5 226.5C199.5 226.833 199.167 228.333 199.5 231C199.667 232.333 199.833 233.667 200 235C200.833 234.833 201.667 234.667 202.5 234.5C204.167 234.167 205.167 233.667 205.5 233C205.667 232.667 205.833 232.333 206 232C205.667 231.833 205.333 231.667 205 231.5C204.667 231.333 204.333 231.167 204 231C204.833 230.833 205.667 230.667 206.5 230.5C208.167 230.167 210.167 229 212.5 227C214.833 225 221.667 223.5 233 222.5C244.333 221.5 250.333 220.5 251 219.5C251.667 218.5 252.167 215.5 252.5 210.5C252.833 205.5 250.5 202.333 245.5 201C240.5 199.667 234.667 198.833 228 198.5ZM222.75 207.875C224.75 207.625 226.667 207.667 228.5 208C230.333 208.333 232.167 208.667 234 209C233.833 209.5 233.667 210 233.5 210.5C233.167 211.5 231.167 212.167 227.5 212.5C225.667 212.667 223.833 212.833 222 213C223.5 213 225 213 226.5 213C229.5 213 231.5 213.5 232.5 214.5C233 215 233.5 215.5 234 216C231.833 216.167 229.667 216.333 227.5 216.5C223.167 216.833 220.167 217.667 218.5 219C217.667 219.667 216.833 220.333 216 221C216 220.5 216 220 216 219.5C216 218.5 217 217.333 219 216C220 215.333 221 214.667 222 214C221.667 213.833 221.333 213.667 221 213.5C220.333 213.167 217.833 214.167 213.5 216.5C211.333 217.667 209.167 218.833 207 220C207.5 218.667 208 217.333 208.5 216C209.5 213.333 212.167 211.167 216.5 209.5C218.667 208.667 220.75 208.125 222.75 207.875Z" fill="#000000" fill-rule="nonzero" opacity="1" stroke="none"/>
<path d="M183 161C182.833 161.667 182.667 162.333 182.5 163C182.333 163.667 182.167 164.333 182 165C182.667 164.5 183.333 164 184 163.5C184.667 163 185.333 162.5 186 162C185.5 161.833 185 161.667 184.5 161.5C184 161.333 183.5 161.167 183 161Z" fill="#000000" fill-rule="nonzero" opacity="1" stroke="none"/>
<path d="M255.375 70.5C250.292 70.5 247 70.6667 245.5 71C242.5 71.6667 241 72.3333 241 73C241 73.3333 241 73.6667 241 74C242 74 243 74 244 74C245 74 246 74 247 74C246.333 75 245.667 76 245 77C243.667 79 243.167 81.5 243.5 84.5C243.667 86 243.833 87.5 244 89C242.833 88.3333 241.667 87.6667 240.5 87C238.167 85.6667 235.667 85.5 233 86.5C231.667 87 230.333 87.5 229 88C229.333 86.6667 229.667 85.3333 230 84C230.667 81.3333 230.167 79.3333 228.5 78C226.833 76.6667 224.667 76 222 76C219.333 76 213.5 77.5 204.5 80.5C195.5 83.5 187.333 86.8333 180 90.5C172.667 94.1667 167.333 97.3333 164 100C160.667 102.667 159.167 105.5 159.5 108.5C159.667 110 159.833 111.5 160 113C159.167 112.333 158.333 111.667 157.5 111C155.833 109.667 154.333 109 153 109C151.667 109 148.333 111 143 115C137.667 119 135.333 121.5 136 122.5C136.333 123 136.667 123.5 137 124C136 124.667 135 125.333 134 126C132 127.333 131.167 129.5 131.5 132.5C131.667 134 131.833 135.5 132 137C131.167 136.333 130.333 135.667 129.5 135C127.833 133.667 126.333 133 125 133C123.667 133 121.667 134.333 119 137C116.333 139.667 113.333 143.167 110 147.5C106.667 151.833 105 155 105 157C105 158 105 159 105 160C104.333 160 103.667 160 103 160C101.667 160 99.8333 161.833 97.5 165.5C95.1667 169.167 91 178 85 192C79 206 76 213.833 76 215.5C76 216.333 76 217.167 76 218C76.6667 218 77.3333 218 78 218C78.6667 218 79.3333 218 80 218C80 218.333 80 218.667 80 219C80 219.667 79.3333 220.5 78 221.5C76.6667 222.5 76.1667 224.5 76.5 227.5C76.6667 229 76.8333 230.5 77 232C76.5 231.667 76 231.333 75.5 231C74.5 230.333 73.5 230.333 72.5 231C71.5 231.667 70.3333 236.667 69 246C68.3333 250.667 67.6667 255.333 67 260C67.6667 259.667 68.3333 259.333 69 259C69.6667 258.667 70.3333 258.333 71 258C71.3333 259.167 71.6667 260.333 72 261.5C72.6667 263.833 74.1667 265 76.5 265C77.6667 265 78.8333 265 80 265C80 265.5 80 266 80 266.5C80 267.5 79.3333 268.5 78 269.5C76.6667 270.5 76.1667 272.5 76.5 275.5C76.6667 277 76.8333 278.5 77 280C76 279.333 75 278.667 74 278C72 276.667 70.5 276.167 69.5 276.5C68.5 276.833 68 279 68 283C68 287 68.3333 289.333 69 290C69.6667 290.667 87.5 291 122.5 291C157.5 291 176.667 294.5 180 301.5C183.333 308.5 185.5 312.5 186.5 313.5C187.5 314.5 189 315 191 315C193 315 194.833 316.667 196.5 320C197.333 321.667 198.167 323.333 199 325C178.333 325 157.667 325 137 325C116.333 325 95.6667 325 75 325C76.8333 330.5 78.6667 336 80.5 341.5C84.1667 352.5 107.5 358 150.5 358C172 358 193.5 358 215 358C214.333 360 213.667 362 213 364C212.333 366 211.667 368 211 370C212 369.167 213 368.333 214 367.5C215 366.667 216 365.833 217 365C218.667 367.333 220.333 369.667 222 372C225.333 376.667 228 378.333 230 377C232 375.667 235 376.167 239 378.5C243 380.833 245.167 382.5 245.5 383.5C245.667 384 245.833 384.5 246 385C245.333 385.167 244.667 385.333 244 385.5C243.333 385.667 242.667 385.833 242 386C244 387 246 388 248 389C252 391 254 393.833 254 397.5C254 401.167 255.167 403.5 257.5 404.5C258.667 405 259.833 405.5 261 406C260 407.833 259 409.667 258 411.5C256 415.167 256.333 418 259 420C261.667 422 263 423.667 263 425C263 425.667 263 426.333 263 427C261 426.667 259 426.333 257 426C253 425.333 250 426 248 428C246 430 245 431.333 245 432C245 432.333 245 432.667 245 433C247.167 432.5 249.333 432 251.5 431.5C255.833 430.5 259.333 430 262 430C264.667 430 266.333 430.333 267 431C267.667 431.667 265.833 435.833 261.5 443.5C257.167 451.167 254.5 458.167 253.5 464.5C253 467.667 252.5 470.833 252 474C252.667 473.333 253.333 472.667 254 472C255.333 470.667 257.5 469.5 260.5 468.5C263.5 467.5 267.167 462.333 271.5 453C275.833 443.667 278.167 437.5 278.5 434.5C278.667 433 278.833 431.5 279 430C279.667 430.5 280.333 431 281 431.5C281.667 432 282.333 432.5 283 433C283.167 432.333 283.333 431.667 283.5 431C283.667 430.333 283.833 429.667 284 429C284.333 429.333 284.667 429.667 285 430C285.667 430.667 284.667 433.333 282 438C279.333 442.667 277.167 449.5 275.5 458.5C273.833 467.5 273.167 472.5 273.5 473.5C273.833 474.5 277.333 474.833 284 474.5C290.667 474.167 295.167 473.833 297.5 473.5C299.833 473.167 301 472.667 301 472C301 471.333 299.833 469.833 297.5 467.5C295.167 465.167 293.333 462.667 292 460C290.667 457.333 289.833 453.167 289.5 447.5C289.167 441.833 290.167 438.333 292.5 437C294.833 435.667 296 434.333 296 433C296 432.333 296 431.667 296 431C300.167 431.5 304.333 432 308.5 432.5C312.667 433 316.833 433.5 321 434C320 432.333 319 430.667 318 429C316 425.667 313.833 424.5 311.5 425.5C309.167 426.5 307 426.667 305 426C304 425.667 303 425.333 302 425C303.333 423.5 304.667 422 306 420.5C308.667 417.5 308.333 414.167 305 410.5C301.667 406.833 299.833 404.167 299.5 402.5C299.167 400.833 303.5 396.833 312.5 390.5C321.5 384.167 327.667 379.167 331 375.5C334.333 371.833 337.167 367.833 339.5 363.5C340.667 361.333 341.833 359.167 343 357C343.5 357.5 344 358 344.5 358.5C345.5 359.5 347.667 367.667 351 383C354.333 398.333 356.667 406.667 358 408C359.333 409.333 360.667 417 362 431C362.667 438 363.333 445 364 452C369.167 448.833 374.333 445.667 379.5 442.5C389.833 436.167 396 431.667 398 429C400 426.333 402.5 424.167 405.5 422.5C408.5 420.833 413 416.833 419 410.5C425 404.167 428.667 399.5 430 396.5C430.667 395 431.333 393.5 432 392C421.5 392 411 392 400.5 392C379.5 392 367.833 391.5 365.5 390.5C363.167 389.5 360.167 386.333 356.5 381C352.833 375.667 350.333 370.5 349 365.5C348.333 363 347.667 360.5 347 358C364.833 358 382.667 358 400.5 358C425.021 358 442.133 355.387 451.844 350.187C456.258 347.824 459.146 344.938 460.5 341.5C462.667 336 464.833 330.5 467 325C449.833 325 432.667 325 415.5 325C398.333 325 381.167 325 364 325C364 322.5 364 320 364 317.5C364 312.5 364.667 307.667 366 303C367.333 298.333 368.833 295.167 370.5 293.5C372.167 291.833 389.5 291 422.5 291C439 291 455.5 291 472 291C472 285.333 472 279.667 472 274C472 268.333 472 262.667 472 257C461.167 257.167 450.333 257.333 439.5 257.5C417.833 257.833 403.333 257.833 396 257.5C388.667 257.167 384.667 256.5 384 255.5C383.333 254.5 381.833 248.833 379.5 238.5C378.333 233.333 377.167 228.167 376 223C391.167 223 406.333 223 421.5 223C436.667 223 451.833 223 467 223C466 219.5 465 216 464 212.5C462 205.5 460 200 458 196C456 192 441.5 189.833 414.5 189.5C387.5 189.167 373.833 187.833 373.5 185.5C373.167 183.167 374 179.5 376 174.5C378 169.5 377.833 165.167 375.5 161.5C374.333 159.667 373.167 157.833 372 156C382.667 156 393.333 156 404 156C414.667 156 425.333 156 436 156C436 155.5 436 155 436 154.5C436 153.5 431.333 148 422 138C412.667 128 388 122.833 348 122.5C328 122.333 308 122.167 288 122C292.833 123.667 297.667 125.333 302.5 127C312.167 130.333 319.833 132.167 325.5 132.5C328.333 132.667 331.167 132.833 334 133C333.667 132.833 333.333 132.667 333 132.5C332.667 132.333 332.333 132.167 332 132C332.333 131.667 332.667 131.333 333 131C333.667 130.333 335.5 130.167 338.5 130.5C341.5 130.833 344.333 131.667 347 133C349.667 134.333 354.667 139.333 362 148C369.333 156.667 372.667 162.667 372 166C371.667 167.667 371.333 169.333 371 171C371.5 171 372 171 372.5 171C373 171 373.5 171 374 171C374 171.5 374 172 374 172.5C374 173.5 373 174.5 371 175.5C369 176.5 368.167 177.5 368.5 178.5C368.833 179.5 368.667 180.167 368 180.5C367.333 180.833 367.667 182.833 369 186.5C370.333 190.167 371 193.833 371 197.5C371 199.333 371 201.167 371 203C369.833 202.5 368.667 202 367.5 201.5C365.167 200.5 363.667 199.333 363 198C362.333 196.667 361.5 196 360.5 196C360 196 359.5 196 359 196C359 196.833 359 197.667 359 198.5C359 199.333 359 200.167 359 201C358.5 200.833 358 200.667 357.5 200.5C357 200.333 356.5 200.167 356 200C356 204 356 208 356 212C356 220 355.333 224.167 354 224.5C352.667 224.833 351 223.667 349 221C348 219.667 347 218.333 346 217C345.833 218.167 345.667 219.333 345.5 220.5C345.167 222.833 346.333 232.333 349 249C350.333 257.333 351.667 265.667 353 274C354.5 273.667 356 273.333 357.5 273C360.5 272.333 362.333 270.833 363 268.5C363.667 266.167 364.833 264.833 366.5 264.5C367.333 264.333 368.167 264.167 369 264C369.167 265.5 369.333 267 369.5 268.5C369.833 271.5 371 274.167 373 276.5C375 278.833 375 282.167 373 286.5C371 290.833 369 293.5 367 294.5C365 295.5 362.333 296 359 296C355.667 296 353.667 292.667 353 286C352.667 282.667 352.333 279.333 352 276C351.333 279.333 350.667 282.667 350 286C348.667 292.667 347.5 296.5 346.5 297.5C345.5 298.5 344.333 298.833 343 298.5C341.667 298.167 338.833 300 334.5 304C330.167 308 328 311.333 328 314C328 316.667 327.167 319.333 325.5 322C323.833 324.667 322.333 326 321 326C319.667 326 318.833 325.167 318.5 323.5C318.167 321.833 317.667 321 317 321C316.333 321 315.833 321.333 315.5 322C315.167 322.667 313.333 322.833 310 322.5C306.667 322.167 302.833 323.5 298.5 326.5C294.167 329.5 290.667 330.5 288 329.5C285.333 328.5 280.5 328.167 273.5 328.5C266.5 328.833 262.667 329.5 262 330.5C261.333 331.5 259.667 332 257 332C254.333 332 250 330.667 244 328C238 325.333 233.833 324.167 231.5 324.5C230.333 324.667 229.167 324.833 228 325C227.833 323.833 227.667 322.667 227.5 321.5C227.167 319.167 225.333 317 222 315C218.667 313 216 310.167 214 306.5C212 302.833 210.833 298.667 210.5 294C210.167 289.333 210.667 286.833 212 286.5C213.333 286.167 214.5 283.833 215.5 279.5C216 277.333 216.5 275.167 217 273C215.333 273.167 213.667 273.333 212 273.5C208.667 273.833 206.5 271.5 205.5 266.5C204.5 261.5 201.833 256.833 197.5 252.5C193.167 248.167 191 241 191 231C191 226 191 221 191 216C190.5 216.333 190 216.667 189.5 217C189 217.333 188.5 217.667 188 218C187.833 217.5 187.667 217 187.5 216.5C187.167 215.5 187.333 214 188 212C188.32 211.041 188.649 210.084 188.969 209.125C187.364 210.78 185.446 212.942 183 216C177.667 222.667 174.167 226.167 172.5 226.5C170.833 226.833 169.833 226.667 169.5 226C169.167 225.333 169.5 223 170.5 219C171 217 171.5 215 172 213C171.333 213.333 170.667 213.667 170 214C169.333 214.333 168.667 214.667 168 215C168.167 214.167 168.333 213.333 168.5 212.5C168.667 211.667 168.833 210.833 169 210C168.5 210 168 210 167.5 210C166.5 210 165.833 209.5 165.5 208.5C165.167 207.5 166.833 204.833 170.5 200.5C174.167 196.167 176 193 176 191C176 189 177.667 186.667 181 184C182.667 182.667 184.333 181.333 186 180C185.167 180.167 184.333 180.333 183.5 180.5C182.667 180.667 181.833 180.833 181 181C181.333 178.667 181.667 176.333 182 174C182.667 169.333 182.5 166.833 181.5 166.5C181 166.333 180.5 166.167 180 166C179.333 168.5 178.667 171 178 173.5C177.333 176 176.667 178.5 176 181C175.667 179.833 175.333 178.667 175 177.5C174.333 175.167 173.333 173.333 172 172C171.333 171.333 170.667 170.667 170 170C171 170 172 170 173 170C175 170 176.5 169.5 177.5 168.5C178.5 167.5 179.333 165.333 180 162C180.667 158.667 182.167 156.667 184.5 156C185.667 155.667 186.833 155.333 188 155C187.333 153.833 186.667 152.667 186 151.5C184.667 149.167 185.167 146.667 187.5 144C189.833 141.333 192.667 139.833 196 139.5C199.333 139.167 203 138 207 136C211 134 213.667 132 215 130C216.333 128 218.167 126.667 220.5 126C222.833 125.333 224 124.667 224 124C224 123.667 224 123.333 224 123C225.167 123 226.333 123 227.5 123C229.833 123 231.667 121.667 233 119C234.333 116.333 235.333 115 236 115C236.667 115 237.333 115.833 238 117.5C238.667 119.167 242.5 119.167 249.5 117.5C256.5 115.833 260.167 110.667 260.5 102C260.833 93.3333 261.333 88.8333 262 88.5C262.667 88.1667 278 88 308 88C323 88 338 88 353 88C350.333 86.6667 347.667 85.3333 345 84C339.667 81.3333 331.167 78.6667 319.5 76C307.833 73.3333 293.333 71.6667 276 71C267.333 70.6667 260.458 70.5 255.375 70.5ZM208 90C208.833 91.5 209.667 93 210.5 94.5C212.167 97.5 214 99 216 99C217 99 218 99 219 99C218.167 99.8333 217.333 100.667 216.5 101.5C214.833 103.167 214.333 105.5 215 108.5C215.333 110 215.667 111.5 216 113C215 112.333 214 111.667 213 111C211 109.667 208.667 109.5 206 110.5C204.667 111 203.333 111.5 202 112C202.167 111 202.333 110 202.5 109C202.833 107 202.167 104.833 200.5 102.5C199.667 101.333 198.833 100.167 198 99C198.833 99 199.667 99 200.5 99C202.167 99 203.667 98.3333 205 97C206.333 95.6667 207.167 94.1667 207.5 92.5C207.667 91.6667 207.833 90.8333 208 90ZM180 116C180.667 117 181.333 118 182 119C183.333 121 185.5 122 188.5 122C190 122 191.5 122 193 122C191.833 123 190.667 124 189.5 125C187.167 127 186.333 129.5 187 132.5C187.333 134 187.667 135.5 188 137C186.5 136.333 185 135.667 183.5 135C180.5 133.667 178.167 133.667 176.5 135C175.667 135.667 174.833 136.333 174 137C174.167 135.5 174.333 134 174.5 132.5C174.833 129.5 174.167 127.167 172.5 125.5C171.667 124.667 170.833 123.833 170 123C171.167 122.833 172.333 122.667 173.5 122.5C175.833 122.167 177.5 121 178.5 119C179 118 179.5 117 180 116ZM152 139C152.833 140.167 153.667 141.333 154.5 142.5C156.167 144.833 158 146 160 146C161 146 162 146 163 146C162.333 146.833 161.667 147.667 161 148.5C159.667 150.167 159.167 152.5 159.5 155.5C159.667 157 159.833 158.5 160 160C158.667 159.333 157.333 158.667 156 158C153.333 156.667 150.833 156.667 148.5 158C147.333 158.667 146.167 159.333 145 160C145.333 158.5 145.667 157 146 155.5C146.667 152.5 146.167 150.333 144.5 149C143.667 148.333 142.833 147.667 142 147C143.167 146.833 144.333 146.667 145.5 146.5C147.833 146.167 149.5 144.833 150.5 142.5C151 141.333 151.5 140.167 152 139ZM124 163C124.833 164.167 125.667 165.333 126.5 166.5C128.167 168.833 130.167 170.167 132.5 170.5C133.667 170.667 134.833 170.833 136 171C135.167 171.833 134.333 172.667 133.5 173.5C131.833 175.167 131.167 177.333 131.5 180C131.667 181.333 131.833 182.667 132 184C130.667 183.333 129.333 182.667 128 182C125.333 180.667 123 180.833 121 182.5C120 183.333 119 184.167 118 185C118.167 183.333 118.333 181.667 118.5 180C118.833 176.667 118 174.167 116 172.5C115 171.667 114 170.833 113 170C114.5 169.833 116 169.667 117.5 169.5C120.5 169.167 122.333 168 123 166C123.333 165 123.667 164 124 163ZM152 186C152.667 187.167 153.333 188.333 154 189.5C155.333 191.833 157.5 193.333 160.5 194C162 194.333 163.5 194.667 165 195C164 195.667 163 196.333 162 197C160 198.333 159.333 200.5 160 203.5C160.333 205 160.667 206.5 161 208C159.333 207.5 157.667 207 156 206.5C152.667 205.5 150.167 205.667 148.5 207C147.667 207.667 146.833 208.333 146 209C146.167 207.333 146.333 205.667 146.5 204C146.833 200.667 146 198.167 144 196.5C143 195.667 142 194.833 141 194C142.333 194 143.667 194 145 194C147.667 194 149.5 192.667 150.5 190C151 188.667 151.5 187.333 152 186ZM98 187C98.6667 187 99.5 188.167 100.5 190.5C101.5 192.833 103.333 194 106 194C107.333 194 108.667 194 110 194C109 194.833 108 195.667 107 196.5C105 198.167 104.167 200.667 104.5 204C104.667 205.667 104.833 207.333 105 209C104 208.167 103 207.333 102 206.5C100 204.833 97.6667 204.667 95 206C93.6667 206.667 92.3333 207.333 91 208C91.1667 206.5 91.3333 205 91.5 203.5C91.8333 200.5 91.1667 198.167 89.5 196.5C88.6667 195.667 87.8333 194.833 87 194C88.1667 194 89.3333 194 90.5 194C92.8333 194 94.5 192.833 95.5 190.5C96.5 188.167 97.3333 187 98 187ZM124 211C124.5 211.167 125 211.333 125.5 211.5C126.5 211.833 127.333 213 128 215C128.667 217 130 218 132 218C133 218 134 218 135 218C134.333 219 133.667 220 133 221C131.667 223 131.333 225.333 132 228C132.333 229.333 132.667 230.667 133 232C132.167 231.5 131.333 231 130.5 230.5C128.833 229.5 126.5 229.333 123.5 230C122 230.333 120.5 230.667 119 231C119 229.667 119 228.333 119 227C119 224.333 118.333 222.167 117 220.5C116.333 219.667 115.667 218.833 115 218C116.167 217.833 117.333 217.667 118.5 217.5C120.833 217.167 122.333 216 123 214C123.333 213 123.667 212 124 211ZM97 235C97.8333 236.167 98.6667 237.333 99.5 238.5C101.167 240.833 103 242.167 105 242.5C106 242.667 107 242.833 108 243C107.167 244 106.333 245 105.5 246C103.833 248 103.167 250.167 103.5 252.5C103.667 253.667 103.833 254.833 104 256C102.833 255.333 101.667 254.667 100.5 254C98.1667 252.667 96 252.667 94 254C93 254.667 92 255.333 91 256C91.1667 254.833 91.3333 253.667 91.5 252.5C91.8333 250.167 91.3333 247.833 90 245.5C89.3333 244.333 88.6667 243.167 88 242C89.1667 241.833 90.3333 241.667 91.5 241.5C93.8333 241.167 95.3333 240 96 238C96.3333 237 96.6667 236 97 235ZM152 235C152.667 236 153.333 237 154 238C155.333 240 157.167 241.333 159.5 242C160.667 242.333 161.833 242.667 163 243C162.333 243.667 161.667 244.333 161 245C159.667 246.333 159.333 248.5 160 251.5C160.333 253 160.667 254.5 161 256C160.5 256 160 256 159.5 256C158.5 256 157.667 255.5 157 254.5C156.333 253.5 155 253 153 253C151 253 149.333 253.5 148 254.5C147.333 255 146.667 255.5 146 256C146.167 254.5 146.333 253 146.5 251.5C146.833 248.5 146.333 246.167 145 244.5C144.333 243.667 143.667 242.833 143 242C144.167 241.833 145.333 241.667 146.5 241.5C148.833 241.167 150.333 240 151 238C151.333 237 151.667 236 152 235ZM168.906 250.5C169.385 250.417 169.917 250.417 170.5 250.5C171.667 250.667 172.833 250.833 174 251C173.167 252.5 172.333 254 171.5 255.5C170.667 257 169.833 258.5 169 260C168.333 259.5 167.667 259 167 258.5C165.667 257.5 165.333 255.833 166 253.5C166.5 251.75 167.469 250.75 168.906 250.5ZM125.5 259C126.5 259 127.167 260 127.5 262C127.833 264 129.167 265 131.5 265C133.833 265 135.167 265.333 135.5 266C135.833 266.667 135.167 267.667 133.5 269C131.833 270.333 131.167 272.333 131.5 275C131.667 276.333 131.833 277.667 132 279C130.667 278.5 129.333 278 128 277.5C125.333 276.5 123 276.667 121 278C120 278.667 119 279.333 118 280C118.167 278.5 118.333 277 118.5 275.5C118.833 272.5 118.167 270.5 116.5 269.5C114.833 268.5 114 267.5 114 266.5C114 265.5 115.5 264.833 118.5 264.5C121.5 264.167 123.167 263.167 123.5 261.5C123.833 259.833 124.5 259 125.5 259ZM176 276C176.5 276.167 177 276.333 177.5 276.5C178.5 276.833 179.5 278.667 180.5 282C181.5 285.333 183 287.167 185 287.5C187 287.833 188.833 288.833 190.5 290.5C192.167 292.167 193.5 294 194.5 296C195.5 298 196 300.167 196 302.5C196 304.833 195.667 306.333 195 307C194.333 307.667 192.833 308 190.5 308C188.167 308 186.333 307.5 185 306.5C183.667 305.5 181.667 300.833 179 292.5C176.333 284.167 175.167 279.333 175.5 278C175.667 277.333 175.833 276.667 176 276Z" fill="#000000" fill-rule="nonzero" opacity="1" stroke="none"/>
</g>
<g fill="#000000" opacity="1" stroke="none" vectornator:layerName="Curve 1">
<path d="M489.455 284.487L508.064 293.21L506.633 311.302L519.351 296.92L538.104 305.812L526.415 287.412L540.857 271.028L520.934 276.911L510.637 260.708L509.201 278.851L489.455 284.487ZM496.401 285.037L511.502 280.755L512.499 268.158L519.875 279.748L533.496 275.714L523.408 287.174L531.568 300.078L518.751 293.952L509.643 304.237L510.636 291.693L496.401 285.037Z"/>
<path d="M486.938 230.771L507.138 234.563L510.277 252.437L518.994 235.332L539.374 239.25L523.455 224.359L533.34 204.884L515.522 215.562L501.499 202.45L504.647 220.376L486.938 230.771ZM493.801 229.566L507.351 221.643L505.165 209.197L515.206 218.574L527.385 211.262L520.485 224.88L531.612 235.333L517.67 232.608L511.425 244.844L509.248 232.45L493.801 229.566Z"/>
<path d="M471.007 179.471L491.511 178.063L499.042 194.575L503.18 175.828L523.891 174.497L504.74 164.085L509.412 142.751L494.85 157.565L477.981 148.399L485.534 164.958L471.007 179.471ZM477.346 176.58L488.47 165.505L483.226 154.008L495.302 160.56L505.251 150.421L501.996 165.337L515.393 172.657L501.214 173.523L498.245 186.937L493.023 175.488L477.346 176.58Z"/>
<path d="M442.684 133.654L462.198 127.201L473.591 141.327L472.946 122.14L492.679 115.71L471.543 110.378L470.774 88.5512L460.345 106.516L441.729 101.823L453.155 115.989L442.684 133.654ZM448.108 129.279L456.135 115.791L448.202 105.955L461.526 109.305L468.648 97.0137L469.196 112.271L483.991 116.037L470.471 120.395L470.923 134.126L463.023 124.331L448.108 129.279Z"/>
<path d="M403.849 96.1636L421.179 85.1138L435.694 96.0072L430.354 77.5663L447.903 66.4854L426.104 66.5098L419.996 45.5415L414.301 65.5181L395.102 65.5432L409.659 76.4678L403.849 96.1636ZM408.032 90.5905L412.498 75.5431L402.392 67.9583L416.13 67.9314L420.014 54.2671L424.294 68.922L439.561 68.9372L427.526 76.4838L431.339 89.6826L421.274 82.1291L408.032 90.5905Z"/>
<path d="M356.944 69.2872L371.055 54.3436L387.789 61.3667L378.111 44.7857L392.426 29.7585L371.292 35.1001L360.253 16.2556L359.603 37.018L340.991 41.7261L357.773 48.7693L356.944 69.2872ZM359.641 62.8622L360.301 47.1798L348.65 42.2898L361.966 38.9121L362.399 24.7132L370.125 37.8811L384.935 34.1712L375.104 44.426L382.022 56.2958L370.418 51.4259L359.641 62.8622Z"/>
<path d="M304.702 54.4858L314.836 36.6048L332.763 39.4287L319.406 25.6384L329.718 7.62757L310.472 17.8614L295.251 2.19831L299.579 22.5151L282.629 31.5316L300.608 34.3635L304.702 54.4858ZM305.787 47.6027L302.683 32.2163L290.201 30.2501L302.326 23.7901L299.355 9.89866L310.002 20.8406L323.497 13.7016L316.4 26.0071L325.952 35.8817L313.521 33.9236L305.787 47.6027Z"/>
<path d="M250.628 52.6364L256.114 32.8292L274.19 31.2129L257.883 21.081L263.51 1.10442L247.326 15.7077L228.757 4.21181L237.89 22.8685L223.64 35.7328L241.767 34.1119L250.628 52.6364ZM250.008 45.6961L243.259 31.5248L230.673 32.6502L240.865 23.4379L234.608 10.6844L247.595 18.7117L258.951 8.50784L255.056 22.169L266.721 29.427L254.187 30.5477L250.008 45.6961Z"/>
<path d="M197.867 64.062L198.32 43.5141L215.446 37.508L197.15 31.6913L197.698 10.9445L185.597 29.0752L164.773 22.492L178.209 38.3341L167.554 54.3043L184.728 48.2811L197.867 64.062ZM195.561 57.4866L185.538 45.4069L173.615 49.5887L181.232 38.1555L172.035 27.3292L186.595 31.9213L195.097 19.2408L194.677 33.4401L207.767 37.611L195.892 41.7757L195.561 57.4866Z"/>
<path d="M149.5 88.0932L144.903 68.0609L160.035 58.041L140.871 56.8855L136.319 36.637L129.029 57.1806L107.227 55.9015L124.136 67.9677L117.719 86.0622L132.894 76.0136L149.5 88.0932ZM145.653 82.2836L132.975 73.0284L122.44 80.005L127.023 67.0536L115.453 58.8115L130.695 59.6952L135.83 45.3177L138.902 59.187L152.615 60.0227L142.123 66.9706L145.653 82.2836Z"/>
<path d="M108.551 123.223L99.1628 104.94L111.36 91.5018L92.5023 95.1015L83.1033 76.5978L81.0981 98.3038L59.6521 102.434L79.0117 109.964L77.2493 129.081L89.4817 115.605L108.551 123.223ZM103.392 118.54L88.8254 112.692L80.3326 122.048L81.5849 108.367L68.3415 103.228L83.3313 100.331L84.7678 85.1314L91.1612 97.8169L104.658 95.2497L96.1998 104.568L103.392 118.54Z"/>
<path d="M77.6504 167.298L64.0058 151.928L72.4736 135.876L55.1057 144.058L41.3959 128.477L44.8578 149.998L25.1153 159.337L45.7401 161.811L48.7928 180.765L57.2849 164.668L77.6504 167.298ZM71.4874 164.047L55.924 162.009L50.028 173.186L47.8347 159.623L33.7289 157.943L47.5254 151.406L45.1325 136.327L54.4828 147.021L66.9151 141.175L61.0435 152.305L71.4874 164.047Z"/>
<path d="M58.6799 217.738L41.6542 206.226L45.8835 188.577L31.0824 200.805L13.9413 189.104L22.6248 209.098L5.80977 223.035L26.4047 220.324L34.0558 237.932L38.2973 220.233L58.6799 217.738ZM51.9038 216.115L36.3205 217.995L33.3757 230.283L27.8924 217.686L13.8099 219.551L25.5577 209.801L19.5056 195.784L31.2129 203.83L41.8102 195.087L38.8775 207.325L51.9038 216.115Z"/>
<path d="M52.6177 271.484L33.3021 264.461L33.1096 246.314L21.729 261.775L2.25573 254.598L15.5438 271.878L2.62585 289.488L21.9419 281.846L33.648 297.063L33.4549 278.864L52.6177 271.484ZM45.6501 271.558L30.9928 277.174L31.1269 289.809L22.7429 278.926L9.53775 284.162L18.5596 271.846L9.2785 259.723L22.5918 264.678L30.743 253.619L30.8764 266.203L45.6501 271.558Z"/>
<path d="M12.2653 317.264L55.1138 314.334L29.1623 335.213L62.1997 340.798L23.403 358.861L21.8334 352.999L43.7138 343.224L16.1124 338.602L37.8214 321.119L13.8479 323.175L12.2653 317.264Z"/>
<path d="M47.0857 387.693L39.8406 372.554L29.3668 372.725L26.6156 366.977L72.5734 366.488L43.0677 401.354L40.2727 395.514L47.0857 387.693ZM51.0602 383.117L60.5742 372.118L45.9196 372.376L51.0602 383.117Z"/>
<path d="M68.814 397.327L90.2843 401.391L94.6513 407.97L70.0632 403.02L62.0451 429.736L57.664 423.135L64.3898 401.727L62.7004 401.385L49.1827 410.358L45.911 405.429L78.5734 383.749L81.8451 388.677L68.814 397.327Z"/>
<path d="M105.195 428.331L94.9865 416.38L87.8241 422.499L97.7355 434.101L93.5075 437.713L83.5961 426.11L73.6343 434.62L83.8425 446.57L79.6145 450.182L65.5638 433.733L95.372 408.27L109.423 424.719L105.195 428.331Z"/>
<path d="M106.965 450.329C110.341 445.964 114.84 443.452 120.464 442.793C126.074 442.124 131.115 443.519 135.587 446.978C140.006 450.395 142.574 454.906 143.29 460.509C144.02 466.124 142.671 471.147 139.243 475.579C135.795 480.038 131.276 482.589 125.687 483.231C120.074 483.876 115.005 482.448 110.479 478.948C106.475 475.852 103.951 471.686 102.908 466.45C101.771 460.67 103.123 455.297 106.965 450.329ZM111.639 454.039C108.988 457.467 107.96 461.176 108.554 465.167C109.135 469.147 110.926 472.297 113.925 474.616C117.179 477.133 120.794 478.131 124.77 477.61C128.766 477.063 132.028 475.156 134.554 471.889C137.112 468.581 138.151 464.955 137.671 461.011C137.214 457.063 135.366 453.836 132.125 451.33C128.898 448.834 125.304 447.852 121.341 448.383C117.399 448.886 114.165 450.772 111.639 454.039Z"/>
<path d="M157.781 482.878L159.929 493.74L160.251 493.626C161.315 493.259 162.335 492.887 163.309 492.509C164.283 492.132 165.239 491.735 166.176 491.319L167.685 496.639C166.946 497.009 166.025 497.405 164.92 497.827C163.816 498.25 162.517 498.721 161.023 499.241L163.144 510.579L156.668 507.075L155.513 500.993C150.593 502.546 146.428 502.399 143.019 500.554C139.967 498.903 137.904 496.526 136.831 493.424C135.81 490.331 136.081 487.34 137.644 484.452C139.505 481.013 142.705 479.049 147.242 478.56L150.331 478.24C150.369 478.241 150.441 478.232 150.548 478.213C150.655 478.193 150.803 478.168 150.994 478.136C150.029 474.477 150.183 471.471 151.456 469.119C152.713 466.797 154.495 465.317 156.803 464.68C159.141 464.059 161.531 464.409 163.972 465.73C166.339 467.011 167.914 468.778 168.697 471.03C169.48 473.282 169.287 475.487 168.119 477.646C167.313 479.135 166.16 480.252 164.659 480.999C163.173 481.754 160.88 482.38 157.781 482.878ZM152.067 483.568L151.668 483.611C148.742 483.933 146.65 484.331 145.392 484.805C144.15 485.288 143.258 486.028 142.719 487.025C141.945 488.454 141.809 490.074 142.311 491.886C142.882 493.677 143.882 494.959 145.311 495.732C147.321 496.82 150.349 496.755 154.395 495.538L152.067 483.568ZM156.749 477.584L157.342 477.501C158.37 477.345 159.232 477.191 159.93 477.04C160.628 476.888 161.158 476.727 161.52 476.557C162.264 476.248 162.854 475.692 163.289 474.888C163.781 473.98 163.874 473.078 163.57 472.182C163.266 471.286 162.6 470.56 161.573 470.004C160.635 469.496 159.689 469.36 158.735 469.594C157.796 469.798 157.094 470.332 156.626 471.195C156.078 472.208 155.941 473.423 156.213 474.84L156.662 477.104C156.666 477.203 156.695 477.363 156.749 477.584Z"/>
<path d="M177.107 495.271C178.798 490.018 182.176 486.126 187.241 483.596C192.289 481.06 197.504 480.658 202.886 482.39C208.203 484.102 212.151 487.471 214.73 492.498C217.324 497.529 217.763 502.712 216.046 508.045C214.319 513.411 210.937 517.346 205.898 519.849C200.839 522.364 195.586 522.745 190.14 520.992C185.322 519.441 181.533 516.381 178.772 511.811C175.738 506.762 175.183 501.249 177.107 495.271ZM182.764 497.172C181.436 501.297 181.73 505.135 183.645 508.685C185.545 512.231 188.299 514.584 191.909 515.746C195.824 517.007 199.563 516.716 203.125 514.876C206.698 513.003 209.117 510.1 210.382 506.169C211.663 502.189 211.408 498.426 209.615 494.879C207.844 491.321 205.009 488.915 201.11 487.66C197.226 486.41 193.512 486.708 189.966 488.554C186.43 490.368 184.029 493.24 182.764 497.172Z"/>
<path d="M254.962 512.081L271.113 513.333L271.013 514.624C270.785 517.561 270.237 520.133 269.37 522.34C268.533 524.381 267.242 526.25 265.497 527.948C261.552 531.751 256.778 533.435 251.175 533.001C245.707 532.577 241.177 530.239 237.585 525.988C233.994 521.719 232.414 516.809 232.844 511.257C233.284 505.586 235.64 500.93 239.912 497.289C244.186 493.63 249.166 492.022 254.854 492.463C257.908 492.699 260.712 493.545 263.265 494.999C265.699 496.445 268.031 498.663 270.261 501.654L265.747 505.353C262.872 500.835 259.13 498.397 254.523 498.04C250.388 497.719 246.809 498.876 243.787 501.511C240.768 504.095 239.095 507.497 238.768 511.716C238.43 516.07 239.713 519.777 242.617 522.838C245.334 525.68 248.396 527.233 251.806 527.498C254.708 527.723 257.392 526.946 259.855 525.168C262.321 523.373 263.795 521.11 264.278 518.38L254.532 517.624L254.962 512.081Z"/>
<path d="M289.11 515.525L302.378 531.348L295.159 531.851L282.874 516.621L281.81 516.695L282.925 532.704L277.024 533.115L274.299 494.006L281.214 493.525C286.381 493.165 290.181 493.876 292.612 495.658C295.296 497.642 296.761 500.408 297.008 503.954C297.201 506.723 296.573 509.16 295.125 511.263C293.676 513.366 291.671 514.787 289.11 515.525ZM281.452 511.554L283.326 511.423C288.916 511.034 291.561 508.703 291.264 504.431C290.985 500.429 288.127 498.617 282.69 498.996L280.587 499.142L281.452 511.554Z"/>
<path d="M323.177 493.233L307.737 496.169L309.497 505.423L324.488 502.572L325.527 508.035L310.536 510.886L312.984 523.757L328.424 520.82L329.463 526.283L308.211 530.325L300.886 491.812L322.138 487.77L323.177 493.233Z"/>
<path d="M360.286 506.602L344.449 512.157L343.479 522.587L337.465 524.697L341.98 478.959L373.428 512.083L367.319 514.226L360.286 506.602ZM356.169 502.153L346.271 491.499L344.932 506.095L356.169 502.153Z"/>
<path d="M377.392 472.047L392.973 501.864L387.73 504.604L372.148 474.787L364.16 478.961L361.584 474.033L382.782 462.956L385.358 467.884L377.392 472.047Z"/>
<path d="M431.395 464.699L418.137 474.991L420.526 485.19L415.492 489.098L405.265 444.29L445.597 465.728L440.483 469.698L431.395 464.699ZM426.08 461.786L413.313 454.821L416.673 469.088L426.08 461.786Z"/>
<path d="M451.61 429.862L462.504 417.873L463.463 418.744C465.643 420.725 467.338 422.735 468.55 424.774C469.648 426.686 470.333 428.853 470.605 431.272C471.189 436.72 469.591 441.524 465.812 445.683C462.124 449.742 457.499 451.887 451.938 452.117C446.364 452.335 441.517 450.572 437.395 446.827C433.186 443.002 430.953 438.286 430.697 432.678C430.428 427.059 432.212 422.138 436.048 417.917C438.109 415.649 440.496 413.953 443.21 412.829C445.845 411.792 449.027 411.31 452.757 411.383L452.911 417.218C447.578 416.718 443.358 418.178 440.251 421.598C437.462 424.667 436.181 428.204 436.408 432.207C436.598 436.176 438.259 439.584 441.391 442.43C444.623 445.367 448.338 446.627 452.536 446.211C456.447 445.808 459.553 444.341 461.852 441.81C463.81 439.656 464.842 437.06 464.949 434.023C465.042 430.975 464.159 428.423 462.3 426.367L455.726 433.602L451.61 429.862Z"/>
<path d="M489.092 397.027L480.092 411.193L485.787 419.985L482.369 425.364L457.604 386.647L502.807 393.196L499.335 398.661L489.092 397.027ZM483.106 396.081L468.736 393.84L476.72 406.132L483.106 396.081Z"/>
<path d="M472.13 365.658L507.175 383.229L504.523 388.517L469.478 370.946L472.13 365.658Z"/>
<path d="M511.66 374.889L472.372 360.417L510.32 343.927L484.755 334.511L486.8 328.959L525.827 343.334L487.95 359.85L513.705 369.337L511.66 374.889Z"/>
</g>
<g fill="#000000" opacity="1" stroke="none" vectornator:layerName="Text 1">
<path d="M-95.7283 243.697L-95.7283 277.067L-101.596 277.067L-101.596 243.697L-110.537 243.697L-110.537 238.181L-86.8127 238.181L-86.8127 243.697L-95.7283 243.697Z"/>
<path d="M-62.4334 266.137L-80.0127 266.137C-79.8616 268.152-79.2068 269.755-78.0483 270.947C-76.8897 272.123-75.4038 272.71-73.5905 272.71C-72.1801 272.71-71.0132 272.375-70.0897 271.703C-69.1831 271.031-68.1505 269.789-66.9919 267.976L-62.2068 270.645C-62.9455 271.904-63.7263 272.983-64.549 273.882C-65.3717 274.78-66.2532 275.519-67.1934 276.098C-68.1337 276.677-69.1495 277.101-70.2408 277.37C-71.3322 277.638-72.5159 277.773-73.792 277.773C-77.4522 277.773-80.3905 276.597-82.6068 274.247C-84.8231 271.879-85.9312 268.74-85.9312 264.827C-85.9312 260.949-84.8567 257.809-82.7075 255.408C-80.5416 253.041-77.6705 251.857-74.0942 251.857C-70.4843 251.857-67.63 253.007-65.5312 255.307C-63.4492 257.591-62.4082 260.756-62.4082 264.802L-62.4334 266.137ZM-68.2512 261.503C-69.0403 258.481-70.946 256.97-73.9683 256.97C-74.6567 256.97-75.3031 257.075-75.9075 257.284C-76.512 257.494-77.0618 257.797-77.5571 258.191C-78.0525 258.586-78.4764 259.06-78.829 259.614C-79.1816 260.168-79.4502 260.798-79.6349 261.503L-68.2512 261.503Z"/>
<path d="M-49.6141 263.795L-58.429 252.537L-51.6793 252.537L-46.2141 259.69L-40.6482 252.537L-33.6971 252.537L-42.7638 263.795L-32.2615 277.067L-39.0112 277.067L-46.2141 267.9L-53.5934 277.067L-60.5193 277.067L-49.6141 263.795Z"/>
<path d="M-22.5904 257.826L-22.5904 277.067L-28.2571 277.067L-28.2571 257.826L-30.6749 257.826L-30.6749 252.537L-28.2571 252.537L-28.2571 243.546L-22.5904 243.546L-22.5904 252.537L-18.183 252.537L-18.183 257.826L-22.5904 257.826Z"/>
</g>
<path d="M395.249 490.563C395.249 490.563 435.627 454.196 463.974 413.374C492.321 372.552 502.436 337.825 510.619 320.927" fill="none" opacity="1" stroke="#000000" stroke-linecap="butt" stroke-linejoin="round" stroke-opacity="0.997748" stroke-width="4.02086" vectornator:layerName="Curve 2"/>
</g>
</svg>
