<?xml version="1.0" encoding="UTF-8" standalone="no"?>
<!DOCTYPE svg PUBLIC "-//W3C//DTD SVG 1.1//EN" "http://www.w3.org/Graphics/SVG/1.1/DTD/svg11.dtd">
<!-- Created with Vectornator (http://vectornator.io/) -->
<svg height="100%" stroke-miterlimit="10" style="fill-rule:nonzero;clip-rule:evenodd;stroke-linecap:round;stroke-linejoin:round;" version="1.1" viewBox="0 0 1148 1148" width="100%" xml:space="preserve" xmlns="http://www.w3.org/2000/svg" xmlns:vectornator="http://vectornator.io" xmlns:xlink="http://www.w3.org/1999/xlink">
<defs/>
<g id="Untitled" vectornator:layerName="Untitled">
<path d="M0 0L1148 0L1148 0L1148 1148L1148 1148L0 1148L0 1148L0 0L0 0Z" fill="#ffffff" fill-rule="nonzero" opacity="1" stroke="none"/>
<g opacity="1">
<path d="M280 56L308 56L308 56L308 84L308 84L280 84L280 84L280 56L280 56Z" fill="#000000" fill-rule="nonzero" opacity="1" stroke="none"/>
<path d="M308 56L336 56L336 56L336 84L336 84L308 84L308 84L308 56L308 56Z" fill="#000000" fill-rule="nonzero" opacity="1" stroke="none"/>
<path d="M364 56L392 56L392 56L392 84L392 84L364 84L364 84L364 56L364 56Z" fill="#000000" fill-rule="nonzero" opacity="1" stroke="none"/>
<path d="M420 56L448 56L448 56L448 84L448 84L420 84L420 84L420 56L420 56Z" fill="#000000" fill-rule="nonzero" opacity="1" stroke="none"/>
<path d="M476 56L504 56L504 56L504 84L504 84L476 84L476 84L476 56L476 56Z" fill="#000000" fill-rule="nonzero" opacity="1" stroke="none"/>
<path d="M560 56L588 56L588 56L588 84L588 84L560 84L560 84L560 56L560 56Z" fill="#000000" fill-rule="nonzero" opacity="1" stroke="none"/>
<path d="M616 56L644 56L644 56L644 84L644 84L616 84L616 84L616 56L616 56Z" fill="#000000" fill-rule="nonzero" opacity="1" stroke="none"/>
<path d="M784 56L812 56L812 56L812 84L812 84L784 84L784 84L784 56L784 56Z" fill="#000000" fill-rule="nonzero" opacity="1" stroke="none"/>
<path d="M812 56L840 56L840 56L840 84L840 84L812 84L812 84L812 56L812 56Z" fill="#000000" fill-rule="nonzero" opacity="1" stroke="none"/>
<path d="M840 56L868 56L868 56L868 84L868 84L840 84L840 84L840 56L840 56Z" fill="#000000" fill-rule="nonzero" opacity="1" stroke="none"/>
<path d="M308 84L336 84L336 84L336 112L336 112L308 112L308 112L308 84L308 84Z" fill="#000000" fill-rule="nonzero" opacity="1" stroke="none"/>
<path d="M336 84L364 84L364 84L364 112L364 112L336 112L336 112L336 84L336 84Z" fill="#000000" fill-rule="nonzero" opacity="1" stroke="none"/>
<path d="M364 84L392 84L392 84L392 112L392 112L364 112L364 112L364 84L364 84Z" fill="#000000" fill-rule="nonzero" opacity="1" stroke="none"/>
<path d="M504 84L532 84L532 84L532 112L532 112L504 112L504 112L504 84L504 84Z" fill="#000000" fill-rule="nonzero" opacity="1" stroke="none"/>
<path d="M588 84L616 84L616 84L616 112L616 112L588 112L588 112L588 84L588 84Z" fill="#000000" fill-rule="nonzero" opacity="1" stroke="none"/>
<path d="M700 84L728 84L728 84L728 112L728 112L700 112L700 112L700 84L700 84Z" fill="#000000" fill-rule="nonzero" opacity="1" stroke="none"/>
<path d="M728 84L756 84L756 84L756 112L756 112L728 112L728 112L728 84L728 84Z" fill="#000000" fill-rule="nonzero" opacity="1" stroke="none"/>
<path d="M756 84L784 84L784 84L784 112L784 112L756 112L756 112L756 84L756 84Z" fill="#000000" fill-rule="nonzero" opacity="1" stroke="none"/>
<path d="M784 84L812 84L812 84L812 112L812 112L784 112L784 112L784 84L784 84Z" fill="#000000" fill-rule="nonzero" opacity="1" stroke="none"/>
<path d="M812 84L840 84L840 84L840 112L840 112L812 112L812 112L812 84L812 84Z" fill="#000000" fill-rule="nonzero" opacity="1" stroke="none"/>
<path d="M840 84L868 84L868 84L868 112L868 112L840 112L840 112L840 84L840 84Z" fill="#000000" fill-rule="nonzero" opacity="1" stroke="none"/>
<path d="M308 112L336 112L336 112L336 140L336 140L308 140L308 140L308 112L308 112Z" fill="#000000" fill-rule="nonzero" opacity="1" stroke="none"/>
<path d="M364 112L392 112L392 112L392 140L392 140L364 140L364 140L364 112L364 112Z" fill="#000000" fill-rule="nonzero" opacity="1" stroke="none"/>
<path d="M392 112L420 112L420 112L420 140L420 140L392 140L392 140L392 112L392 112Z" fill="#000000" fill-rule="nonzero" opacity="1" stroke="none"/>
<path d="M420 112L448 112L448 112L448 140L448 140L420 140L420 140L420 112L420 112Z" fill="#000000" fill-rule="nonzero" opacity="1" stroke="none"/>
<path d="M476 112L504 112L504 112L504 140L504 140L476 140L476 140L476 112L476 112Z" fill="#000000" fill-rule="nonzero" opacity="1" stroke="none"/>
<path d="M504 112L532 112L532 112L532 140L532 140L504 140L504 140L504 112L504 112Z" fill="#000000" fill-rule="nonzero" opacity="1" stroke="none"/>
<path d="M560 112L588 112L588 112L588 140L588 140L560 140L560 140L560 112L560 112Z" fill="#000000" fill-rule="nonzero" opacity="1" stroke="none"/>
<path d="M588 112L616 112L616 112L616 140L616 140L588 140L588 140L588 112L588 112Z" fill="#000000" fill-rule="nonzero" opacity="1" stroke="none"/>
<path d="M672 112L700 112L700 112L700 140L700 140L672 140L672 140L672 112L672 112Z" fill="#000000" fill-rule="nonzero" opacity="1" stroke="none"/>
<path d="M700 112L728 112L728 112L728 140L728 140L700 140L700 140L700 112L700 112Z" fill="#000000" fill-rule="nonzero" opacity="1" stroke="none"/>
<path d="M728 112L756 112L756 112L756 140L756 140L728 140L728 140L728 112L728 112Z" fill="#000000" fill-rule="nonzero" opacity="1" stroke="none"/>
<path d="M280 140L308 140L308 140L308 168L308 168L280 168L280 168L280 140L280 140Z" fill="#000000" fill-rule="nonzero" opacity="1" stroke="none"/>
<path d="M336 140L364 140L364 140L364 168L364 168L336 168L336 168L336 140L336 140Z" fill="#000000" fill-rule="nonzero" opacity="1" stroke="none"/>
<path d="M364 140L392 140L392 140L392 168L392 168L364 168L364 168L364 140L364 140Z" fill="#000000" fill-rule="nonzero" opacity="1" stroke="none"/>
<path d="M504 140L532 140L532 140L532 168L532 168L504 168L504 168L504 140L504 140Z" fill="#000000" fill-rule="nonzero" opacity="1" stroke="none"/>
<path d="M532 140L560 140L560 140L560 168L560 168L532 168L532 168L532 140L532 140Z" fill="#000000" fill-rule="nonzero" opacity="1" stroke="none"/>
<path d="M560 140L588 140L588 140L588 168L588 168L560 168L560 168L560 140L560 140Z" fill="#000000" fill-rule="nonzero" opacity="1" stroke="none"/>
<path d="M728 140L756 140L756 140L756 168L756 168L728 168L728 168L728 140L728 140Z" fill="#000000" fill-rule="nonzero" opacity="1" stroke="none"/>
<path d="M784 140L812 140L812 140L812 168L812 168L784 168L784 168L784 140L784 140Z" fill="#000000" fill-rule="nonzero" opacity="1" stroke="none"/>
<path d="M336 168L364 168L364 168L364 196L364 196L336 196L336 196L336 168L336 168Z" fill="#000000" fill-rule="nonzero" opacity="1" stroke="none"/>
<path d="M364 168L392 168L392 168L392 196L392 196L364 196L364 196L364 168L364 168Z" fill="#000000" fill-rule="nonzero" opacity="1" stroke="none"/>
<path d="M392 168L420 168L420 168L420 196L420 196L392 196L392 196L392 168L392 168Z" fill="#000000" fill-rule="nonzero" opacity="1" stroke="none"/>
<path d="M420 168L448 168L448 168L448 196L448 196L420 196L420 196L420 168L420 168Z" fill="#000000" fill-rule="nonzero" opacity="1" stroke="none"/>
<path d="M504 168L532 168L532 168L532 196L532 196L504 196L504 196L504 168L504 168Z" fill="#000000" fill-rule="nonzero" opacity="1" stroke="none"/>
<path d="M616 168L644 168L644 168L644 196L644 196L616 196L616 196L616 168L616 168Z" fill="#000000" fill-rule="nonzero" opacity="1" stroke="none"/>
<path d="M728 168L756 168L756 168L756 196L756 196L728 196L728 196L728 168L728 168Z" fill="#000000" fill-rule="nonzero" opacity="1" stroke="none"/>
<path d="M756 168L784 168L784 168L784 196L784 196L756 196L756 196L756 168L756 168Z" fill="#000000" fill-rule="nonzero" opacity="1" stroke="none"/>
<path d="M812 168L840 168L840 168L840 196L840 196L812 196L812 196L812 168L812 168Z" fill="#000000" fill-rule="nonzero" opacity="1" stroke="none"/>
<path d="M840 168L868 168L868 168L868 196L868 196L840 196L840 196L840 168L840 168Z" fill="#000000" fill-rule="nonzero" opacity="1" stroke="none"/>
<path d="M308 196L336 196L336 196L336 224L336 224L308 224L308 224L308 196L308 196Z" fill="#000000" fill-rule="nonzero" opacity="1" stroke="none"/>
<path d="M336 196L364 196L364 196L364 224L364 224L336 224L336 224L336 196L336 196Z" fill="#000000" fill-rule="nonzero" opacity="1" stroke="none"/>
<path d="M364 196L392 196L392 196L392 224L392 224L364 224L364 224L364 196L364 196Z" fill="#000000" fill-rule="nonzero" opacity="1" stroke="none"/>
<path d="M392 196L420 196L420 196L420 224L420 224L392 224L392 224L392 196L392 196Z" fill="#000000" fill-rule="nonzero" opacity="1" stroke="none"/>
<path d="M448 196L476 196L476 196L476 224L476 224L448 224L448 224L448 196L448 196Z" fill="#000000" fill-rule="nonzero" opacity="1" stroke="none"/>
<path d="M476 196L504 196L504 196L504 224L504 224L476 224L476 224L476 196L476 196Z" fill="#000000" fill-rule="nonzero" opacity="1" stroke="none"/>
<path d="M532 196L560 196L560 196L560 224L560 224L532 224L532 224L532 196L532 196Z" fill="#000000" fill-rule="nonzero" opacity="1" stroke="none"/>
<path d="M588 196L616 196L616 196L616 224L616 224L588 224L588 224L588 196L588 196Z" fill="#000000" fill-rule="nonzero" opacity="1" stroke="none"/>
<path d="M616 196L644 196L644 196L644 224L644 224L616 224L616 224L616 196L616 196Z" fill="#000000" fill-rule="nonzero" opacity="1" stroke="none"/>
<path d="M644 196L672 196L672 196L672 224L672 224L644 224L644 224L644 196L644 196Z" fill="#000000" fill-rule="nonzero" opacity="1" stroke="none"/>
<path d="M756 196L784 196L784 196L784 224L784 224L756 224L756 224L756 196L756 196Z" fill="#000000" fill-rule="nonzero" opacity="1" stroke="none"/>
<path d="M784 196L812 196L812 196L812 224L812 224L784 224L784 224L784 196L784 196Z" fill="#000000" fill-rule="nonzero" opacity="1" stroke="none"/>
<path d="M812 196L840 196L840 196L840 224L840 224L812 224L812 224L812 196L812 196Z" fill="#000000" fill-rule="nonzero" opacity="1" stroke="none"/>
<path d="M840 196L868 196L868 196L868 224L868 224L840 224L840 224L840 196L840 196Z" fill="#000000" fill-rule="nonzero" opacity="1" stroke="none"/>
<path d="M280 224L308 224L308 224L308 252L308 252L280 252L280 252L280 224L280 224Z" fill="#000000" fill-rule="nonzero" opacity="1" stroke="none"/>
<path d="M336 224L364 224L364 224L364 252L364 252L336 252L336 252L336 224L336 224Z" fill="#000000" fill-rule="nonzero" opacity="1" stroke="none"/>
<path d="M392 224L420 224L420 224L420 252L420 252L392 252L392 252L392 224L392 224Z" fill="#000000" fill-rule="nonzero" opacity="1" stroke="none"/>
<path d="M448 224L476 224L476 224L476 252L476 252L448 252L448 252L448 224L448 224Z" fill="#000000" fill-rule="nonzero" opacity="1" stroke="none"/>
<path d="M504 224L532 224L532 224L532 252L532 252L504 252L504 252L504 224L504 224Z" fill="#000000" fill-rule="nonzero" opacity="1" stroke="none"/>
<path d="M560 224L588 224L588 224L588 252L588 252L560 252L560 252L560 224L560 224Z" fill="#000000" fill-rule="nonzero" opacity="1" stroke="none"/>
<path d="M616 224L644 224L644 224L644 252L644 252L616 252L616 252L616 224L616 224Z" fill="#000000" fill-rule="nonzero" opacity="1" stroke="none"/>
<path d="M672 224L700 224L700 224L700 252L700 252L672 252L672 252L672 224L672 224Z" fill="#000000" fill-rule="nonzero" opacity="1" stroke="none"/>
<path d="M728 224L756 224L756 224L756 252L756 252L728 252L728 252L728 224L728 224Z" fill="#000000" fill-rule="nonzero" opacity="1" stroke="none"/>
<path d="M784 224L812 224L812 224L812 252L812 252L784 252L784 252L784 224L784 224Z" fill="#000000" fill-rule="nonzero" opacity="1" stroke="none"/>
<path d="M840 224L868 224L868 224L868 252L868 252L840 252L840 252L840 224L840 224Z" fill="#000000" fill-rule="nonzero" opacity="1" stroke="none"/>
<path d="M448 252L476 252L476 252L476 280L476 280L448 280L448 280L448 252L448 252Z" fill="#000000" fill-rule="nonzero" opacity="1" stroke="none"/>
<path d="M532 252L560 252L560 252L560 280L560 280L532 280L532 280L532 252L532 252Z" fill="#000000" fill-rule="nonzero" opacity="1" stroke="none"/>
<path d="M588 252L616 252L616 252L616 280L616 280L588 280L588 280L588 252L588 252Z" fill="#000000" fill-rule="nonzero" opacity="1" stroke="none"/>
<path d="M616 252L644 252L644 252L644 280L644 280L616 280L616 280L616 252L616 252Z" fill="#000000" fill-rule="nonzero" opacity="1" stroke="none"/>
<path d="M672 252L700 252L700 252L700 280L700 280L672 280L672 280L672 252L672 252Z" fill="#000000" fill-rule="nonzero" opacity="1" stroke="none"/>
<path d="M700 252L728 252L728 252L728 280L728 280L700 280L700 280L700 252L700 252Z" fill="#000000" fill-rule="nonzero" opacity="1" stroke="none"/>
<path d="M728 252L756 252L756 252L756 280L756 280L728 280L728 280L728 252L728 252Z" fill="#000000" fill-rule="nonzero" opacity="1" stroke="none"/>
<path d="M756 252L784 252L784 252L784 280L784 280L756 280L756 280L756 252L756 252Z" fill="#000000" fill-rule="nonzero" opacity="1" stroke="none"/>
<path d="M784 252L812 252L812 252L812 280L812 280L784 280L784 280L784 252L784 252Z" fill="#000000" fill-rule="nonzero" opacity="1" stroke="none"/>
<path d="M840 252L868 252L868 252L868 280L868 280L840 280L840 280L840 252L840 252Z" fill="#000000" fill-rule="nonzero" opacity="1" stroke="none"/>
<path d="M112 280L140 280L140 280L140 308L140 308L112 308L112 308L112 280L112 280Z" fill="#000000" fill-rule="nonzero" opacity="1" stroke="none"/>
<path d="M168 280L196 280L196 280L196 308L196 308L168 308L168 308L168 280L168 280Z" fill="#000000" fill-rule="nonzero" opacity="1" stroke="none"/>
<path d="M196 280L224 280L224 280L224 308L224 308L196 308L196 308L196 280L196 280Z" fill="#000000" fill-rule="nonzero" opacity="1" stroke="none"/>
<path d="M224 280L252 280L252 280L252 308L252 308L224 308L224 308L224 280L224 280Z" fill="#000000" fill-rule="nonzero" opacity="1" stroke="none"/>
<path d="M280 280L308 280L308 280L308 308L308 308L280 308L280 308L280 280L280 280Z" fill="#000000" fill-rule="nonzero" opacity="1" stroke="none"/>
<path d="M364 280L392 280L392 280L392 308L392 308L364 308L364 308L364 280L364 280Z" fill="#000000" fill-rule="nonzero" opacity="1" stroke="none"/>
<path d="M392 280L420 280L420 280L420 308L420 308L392 308L392 308L392 280L392 280Z" fill="#000000" fill-rule="nonzero" opacity="1" stroke="none"/>
<path d="M448 280L476 280L476 280L476 308L476 308L448 308L448 308L448 280L448 280Z" fill="#000000" fill-rule="nonzero" opacity="1" stroke="none"/>
<path d="M560 280L588 280L588 280L588 308L588 308L560 308L560 308L560 280L560 280Z" fill="#000000" fill-rule="nonzero" opacity="1" stroke="none"/>
<path d="M588 280L616 280L616 280L616 308L616 308L588 308L588 308L588 280L588 280Z" fill="#000000" fill-rule="nonzero" opacity="1" stroke="none"/>
<path d="M672 280L700 280L700 280L700 308L700 308L672 308L672 308L672 280L672 280Z" fill="#000000" fill-rule="nonzero" opacity="1" stroke="none"/>
<path d="M728 280L756 280L756 280L756 308L756 308L728 308L728 308L728 280L728 280Z" fill="#000000" fill-rule="nonzero" opacity="1" stroke="none"/>
<path d="M784 280L812 280L812 280L812 308L812 308L784 308L784 308L784 280L784 280Z" fill="#000000" fill-rule="nonzero" opacity="1" stroke="none"/>
<path d="M812 280L840 280L840 280L840 308L840 308L812 308L812 308L812 280L812 280Z" fill="#000000" fill-rule="nonzero" opacity="1" stroke="none"/>
<path d="M840 280L868 280L868 280L868 308L868 308L840 308L840 308L840 280L840 280Z" fill="#000000" fill-rule="nonzero" opacity="1" stroke="none"/>
<path d="M868 280L896 280L896 280L896 308L896 308L868 308L868 308L868 280L868 280Z" fill="#000000" fill-rule="nonzero" opacity="1" stroke="none"/>
<path d="M980 280L1008 280L1008 280L1008 308L1008 308L980 308L980 308L980 280L980 280Z" fill="#000000" fill-rule="nonzero" opacity="1" stroke="none"/>
<path d="M1064 280L1092 280L1092 280L1092 308L1092 308L1064 308L1064 308L1064 280L1064 280Z" fill="#000000" fill-rule="nonzero" opacity="1" stroke="none"/>
<path d="M56 308L84 308L84 308L84 336L84 336L56 336L56 336L56 308L56 308Z" fill="#000000" fill-rule="nonzero" opacity="1" stroke="none"/>
<path d="M112 308L140 308L140 308L140 336L140 336L112 336L112 336L112 308L112 308Z" fill="#000000" fill-rule="nonzero" opacity="1" stroke="none"/>
<path d="M336 308L364 308L364 308L364 336L364 336L336 336L336 336L336 308L336 308Z" fill="#000000" fill-rule="nonzero" opacity="1" stroke="none"/>
<path d="M392 308L420 308L420 308L420 336L420 336L392 336L392 336L392 308L392 308Z" fill="#000000" fill-rule="nonzero" opacity="1" stroke="none"/>
<path d="M448 308L476 308L476 308L476 336L476 336L448 336L448 336L448 308L448 308Z" fill="#000000" fill-rule="nonzero" opacity="1" stroke="none"/>
<path d="M532 308L560 308L560 308L560 336L560 336L532 336L532 336L532 308L532 308Z" fill="#000000" fill-rule="nonzero" opacity="1" stroke="none"/>
<path d="M560 308L588 308L588 308L588 336L588 336L560 336L560 336L560 308L560 308Z" fill="#000000" fill-rule="nonzero" opacity="1" stroke="none"/>
<path d="M616 308L644 308L644 308L644 336L644 336L616 336L616 336L616 308L616 308Z" fill="#000000" fill-rule="nonzero" opacity="1" stroke="none"/>
<path d="M700 308L728 308L728 308L728 336L728 336L700 336L700 336L700 308L700 308Z" fill="#000000" fill-rule="nonzero" opacity="1" stroke="none"/>
<path d="M728 308L756 308L756 308L756 336L756 336L728 336L728 336L728 308L728 308Z" fill="#000000" fill-rule="nonzero" opacity="1" stroke="none"/>
<path d="M840 308L868 308L868 308L868 336L868 336L840 336L840 336L840 308L840 308Z" fill="#000000" fill-rule="nonzero" opacity="1" stroke="none"/>
<path d="M896 308L924 308L924 308L924 336L924 336L896 336L896 336L896 308L896 308Z" fill="#000000" fill-rule="nonzero" opacity="1" stroke="none"/>
<path d="M980 308L1008 308L1008 308L1008 336L1008 336L980 336L980 336L980 308L980 308Z" fill="#000000" fill-rule="nonzero" opacity="1" stroke="none"/>
<path d="M1064 308L1092 308L1092 308L1092 336L1092 336L1064 336L1064 336L1064 308L1064 308Z" fill="#000000" fill-rule="nonzero" opacity="1" stroke="none"/>
<path d="M56 336L84 336L84 336L84 364L84 364L56 364L56 364L56 336L56 336Z" fill="#000000" fill-rule="nonzero" opacity="1" stroke="none"/>
<path d="M168 336L196 336L196 336L196 364L196 364L168 364L168 364L168 336L168 336Z" fill="#000000" fill-rule="nonzero" opacity="1" stroke="none"/>
<path d="M224 336L252 336L252 336L252 364L252 364L224 364L224 364L224 336L224 336Z" fill="#000000" fill-rule="nonzero" opacity="1" stroke="none"/>
<path d="M252 336L280 336L280 336L280 364L280 364L252 364L252 364L252 336L252 336Z" fill="#000000" fill-rule="nonzero" opacity="1" stroke="none"/>
<path d="M308 336L336 336L336 336L336 364L336 364L308 364L308 364L308 336L308 336Z" fill="#000000" fill-rule="nonzero" opacity="1" stroke="none"/>
<path d="M392 336L420 336L420 336L420 364L420 364L392 364L392 364L392 336L392 336Z" fill="#000000" fill-rule="nonzero" opacity="1" stroke="none"/>
<path d="M448 336L476 336L476 336L476 364L476 364L448 364L448 364L448 336L448 336Z" fill="#000000" fill-rule="nonzero" opacity="1" stroke="none"/>
<path d="M476 336L504 336L504 336L504 364L504 364L476 364L476 364L476 336L476 336Z" fill="#000000" fill-rule="nonzero" opacity="1" stroke="none"/>
<path d="M504 336L532 336L532 336L532 364L532 364L504 364L504 364L504 336L504 336Z" fill="#000000" fill-rule="nonzero" opacity="1" stroke="none"/>
<path d="M532 336L560 336L560 336L560 364L560 364L532 364L532 364L532 336L532 336Z" fill="#000000" fill-rule="nonzero" opacity="1" stroke="none"/>
<path d="M560 336L588 336L588 336L588 364L588 364L560 364L560 364L560 336L560 336Z" fill="#000000" fill-rule="nonzero" opacity="1" stroke="none"/>
<path d="M588 336L616 336L616 336L616 364L616 364L588 364L588 364L588 336L588 336Z" fill="#000000" fill-rule="nonzero" opacity="1" stroke="none"/>
<path d="M644 336L672 336L672 336L672 364L672 364L644 364L644 364L644 336L644 336Z" fill="#000000" fill-rule="nonzero" opacity="1" stroke="none"/>
<path d="M700 336L728 336L728 336L728 364L728 364L700 364L700 364L700 336L700 336Z" fill="#000000" fill-rule="nonzero" opacity="1" stroke="none"/>
<path d="M756 336L784 336L784 336L784 364L784 364L756 364L756 364L756 336L756 336Z" fill="#000000" fill-rule="nonzero" opacity="1" stroke="none"/>
<path d="M896 336L924 336L924 336L924 364L924 364L896 364L896 364L896 336L896 336Z" fill="#000000" fill-rule="nonzero" opacity="1" stroke="none"/>
<path d="M924 336L952 336L952 336L952 364L952 364L924 364L924 364L924 336L924 336Z" fill="#000000" fill-rule="nonzero" opacity="1" stroke="none"/>
<path d="M952 336L980 336L980 336L980 364L980 364L952 364L952 364L952 336L952 336Z" fill="#000000" fill-rule="nonzero" opacity="1" stroke="none"/>
<path d="M980 336L1008 336L1008 336L1008 364L1008 364L980 364L980 364L980 336L980 336Z" fill="#000000" fill-rule="nonzero" opacity="1" stroke="none"/>
<path d="M1036 336L1064 336L1064 336L1064 364L1064 364L1036 364L1036 364L1036 336L1036 336Z" fill="#000000" fill-rule="nonzero" opacity="1" stroke="none"/>
<path d="M1064 336L1092 336L1092 336L1092 364L1092 364L1064 364L1064 364L1064 336L1064 336Z" fill="#000000" fill-rule="nonzero" opacity="1" stroke="none"/>
<path d="M56 364L84 364L84 364L84 392L84 392L56 392L56 392L56 364L56 364Z" fill="#000000" fill-rule="nonzero" opacity="1" stroke="none"/>
<path d="M84 364L112 364L112 364L112 392L112 392L84 392L84 392L84 364L84 364Z" fill="#000000" fill-rule="nonzero" opacity="1" stroke="none"/>
<path d="M168 364L196 364L196 364L196 392L196 392L168 392L168 392L168 364L168 364Z" fill="#000000" fill-rule="nonzero" opacity="1" stroke="none"/>
<path d="M196 364L224 364L224 364L224 392L224 392L196 392L196 392L196 364L196 364Z" fill="#000000" fill-rule="nonzero" opacity="1" stroke="none"/>
<path d="M308 364L336 364L336 364L336 392L336 392L308 392L308 392L308 364L308 364Z" fill="#000000" fill-rule="nonzero" opacity="1" stroke="none"/>
<path d="M336 364L364 364L364 364L364 392L364 392L336 392L336 392L336 364L336 364Z" fill="#000000" fill-rule="nonzero" opacity="1" stroke="none"/>
<path d="M392 364L420 364L420 364L420 392L420 392L392 392L392 392L392 364L392 364Z" fill="#000000" fill-rule="nonzero" opacity="1" stroke="none"/>
<path d="M504 364L532 364L532 364L532 392L532 392L504 392L504 392L504 364L504 364Z" fill="#000000" fill-rule="nonzero" opacity="1" stroke="none"/>
<path d="M532 364L560 364L560 364L560 392L560 392L532 392L532 392L532 364L532 364Z" fill="#000000" fill-rule="nonzero" opacity="1" stroke="none"/>
<path d="M588 364L616 364L616 364L616 392L616 392L588 392L588 392L588 364L588 364Z" fill="#000000" fill-rule="nonzero" opacity="1" stroke="none"/>
<path d="M700 364L728 364L728 364L728 392L728 392L700 392L700 392L700 364L700 364Z" fill="#000000" fill-rule="nonzero" opacity="1" stroke="none"/>
<path d="M756 364L784 364L784 364L784 392L784 392L756 392L756 392L756 364L756 364Z" fill="#000000" fill-rule="nonzero" opacity="1" stroke="none"/>
<path d="M784 364L812 364L812 364L812 392L812 392L784 392L784 392L784 364L784 364Z" fill="#000000" fill-rule="nonzero" opacity="1" stroke="none"/>
<path d="M812 364L840 364L840 364L840 392L840 392L812 392L812 392L812 364L812 364Z" fill="#000000" fill-rule="nonzero" opacity="1" stroke="none"/>
<path d="M840 364L868 364L868 364L868 392L868 392L840 392L840 392L840 364L840 364Z" fill="#000000" fill-rule="nonzero" opacity="1" stroke="none"/>
<path d="M868 364L896 364L896 364L896 392L896 392L868 392L868 392L868 364L868 364Z" fill="#000000" fill-rule="nonzero" opacity="1" stroke="none"/>
<path d="M924 364L952 364L952 364L952 392L952 392L924 392L924 392L924 364L924 364Z" fill="#000000" fill-rule="nonzero" opacity="1" stroke="none"/>
<path d="M1036 364L1064 364L1064 364L1064 392L1064 392L1036 392L1036 392L1036 364L1036 364Z" fill="#000000" fill-rule="nonzero" opacity="1" stroke="none"/>
<path d="M56 392L84 392L84 392L84 420L84 420L56 420L56 420L56 392L56 392Z" fill="#000000" fill-rule="nonzero" opacity="1" stroke="none"/>
<path d="M84 392L112 392L112 392L112 420L112 420L84 420L84 420L84 392L84 392Z" fill="#000000" fill-rule="nonzero" opacity="1" stroke="none"/>
<path d="M112 392L140 392L140 392L140 420L140 420L112 420L112 420L112 392L112 392Z" fill="#000000" fill-rule="nonzero" opacity="1" stroke="none"/>
<path d="M140 392L168 392L168 392L168 420L168 420L140 420L140 420L140 392L140 392Z" fill="#000000" fill-rule="nonzero" opacity="1" stroke="none"/>
<path d="M168 392L196 392L196 392L196 420L196 420L168 420L168 420L168 392L168 392Z" fill="#000000" fill-rule="nonzero" opacity="1" stroke="none"/>
<path d="M224 392L252 392L252 392L252 420L252 420L224 420L224 420L224 392L224 392Z" fill="#000000" fill-rule="nonzero" opacity="1" stroke="none"/>
<path d="M336 392L364 392L364 392L364 420L364 420L336 420L336 420L336 392L336 392Z" fill="#000000" fill-rule="nonzero" opacity="1" stroke="none"/>
<path d="M364 392L392 392L392 392L392 420L392 420L364 420L364 420L364 392L364 392Z" fill="#000000" fill-rule="nonzero" opacity="1" stroke="none"/>
<path d="M420 392L448 392L448 392L448 420L448 420L420 420L420 420L420 392L420 392Z" fill="#000000" fill-rule="nonzero" opacity="1" stroke="none"/>
<path d="M504 392L532 392L532 392L532 420L532 420L504 420L504 420L504 392L504 392Z" fill="#000000" fill-rule="nonzero" opacity="1" stroke="none"/>
<path d="M560 392L588 392L588 392L588 420L588 420L560 420L560 420L560 392L560 392Z" fill="#000000" fill-rule="nonzero" opacity="1" stroke="none"/>
<path d="M700 392L728 392L728 392L728 420L728 420L700 420L700 420L700 392L700 392Z" fill="#000000" fill-rule="nonzero" opacity="1" stroke="none"/>
<path d="M756 392L784 392L784 392L784 420L784 420L756 420L756 420L756 392L756 392Z" fill="#000000" fill-rule="nonzero" opacity="1" stroke="none"/>
<path d="M840 392L868 392L868 392L868 420L868 420L840 420L840 420L840 392L840 392Z" fill="#000000" fill-rule="nonzero" opacity="1" stroke="none"/>
<path d="M868 392L896 392L896 392L896 420L896 420L868 420L868 420L868 392L868 392Z" fill="#000000" fill-rule="nonzero" opacity="1" stroke="none"/>
<path d="M896 392L924 392L924 392L924 420L924 420L896 420L896 420L896 392L896 392Z" fill="#000000" fill-rule="nonzero" opacity="1" stroke="none"/>
<path d="M1036 392L1064 392L1064 392L1064 420L1064 420L1036 420L1036 420L1036 392L1036 392Z" fill="#000000" fill-rule="nonzero" opacity="1" stroke="none"/>
<path d="M84 420L112 420L112 420L112 448L112 448L84 448L84 448L84 420L84 420Z" fill="#000000" fill-rule="nonzero" opacity="1" stroke="none"/>
<path d="M112 420L140 420L140 420L140 448L140 448L112 448L112 448L112 420L112 420Z" fill="#000000" fill-rule="nonzero" opacity="1" stroke="none"/>
<path d="M140 420L168 420L168 420L168 448L168 448L140 448L140 448L140 420L140 420Z" fill="#000000" fill-rule="nonzero" opacity="1" stroke="none"/>
<path d="M168 420L196 420L196 420L196 448L196 448L168 448L168 448L168 420L168 420Z" fill="#000000" fill-rule="nonzero" opacity="1" stroke="none"/>
<path d="M196 420L224 420L224 420L224 448L224 448L196 448L196 448L196 420L196 420Z" fill="#000000" fill-rule="nonzero" opacity="1" stroke="none"/>
<path d="M280 420L308 420L308 420L308 448L308 448L280 448L280 448L280 420L280 420Z" fill="#000000" fill-rule="nonzero" opacity="1" stroke="none"/>
<path d="M336 420L364 420L364 420L364 448L364 448L336 448L336 448L336 420L336 420Z" fill="#000000" fill-rule="nonzero" opacity="1" stroke="none"/>
<path d="M364 420L392 420L392 420L392 448L392 448L364 448L364 448L364 420L364 420Z" fill="#000000" fill-rule="nonzero" opacity="1" stroke="none"/>
<path d="M728 420L756 420L756 420L756 448L756 448L728 448L728 448L728 420L728 420Z" fill="#000000" fill-rule="nonzero" opacity="1" stroke="none"/>
<path d="M840 420L868 420L868 420L868 448L868 448L840 448L840 448L840 420L840 420Z" fill="#000000" fill-rule="nonzero" opacity="1" stroke="none"/>
<path d="M896 420L924 420L924 420L924 448L924 448L896 448L896 448L896 420L896 420Z" fill="#000000" fill-rule="nonzero" opacity="1" stroke="none"/>
<path d="M980 420L1008 420L1008 420L1008 448L1008 448L980 448L980 448L980 420L980 420Z" fill="#000000" fill-rule="nonzero" opacity="1" stroke="none"/>
<path d="M1008 420L1036 420L1036 420L1036 448L1036 448L1008 448L1008 448L1008 420L1008 420Z" fill="#000000" fill-rule="nonzero" opacity="1" stroke="none"/>
<path d="M1036 420L1064 420L1064 420L1064 448L1064 448L1036 448L1036 448L1036 420L1036 420Z" fill="#000000" fill-rule="nonzero" opacity="1" stroke="none"/>
<path d="M1064 420L1092 420L1092 420L1092 448L1092 448L1064 448L1064 448L1064 420L1064 420Z" fill="#000000" fill-rule="nonzero" opacity="1" stroke="none"/>
<path d="M112 448L140 448L140 448L140 476L140 476L112 476L112 476L112 448L112 448Z" fill="#000000" fill-rule="nonzero" opacity="1" stroke="none"/>
<path d="M224 448L252 448L252 448L252 476L252 476L224 476L224 476L224 448L224 448Z" fill="#000000" fill-rule="nonzero" opacity="1" stroke="none"/>
<path d="M308 448L336 448L336 448L336 476L336 476L308 476L308 476L308 448L308 448Z" fill="#000000" fill-rule="nonzero" opacity="1" stroke="none"/>
<path d="M336 448L364 448L364 448L364 476L364 476L336 476L336 476L336 448L336 448Z" fill="#000000" fill-rule="nonzero" opacity="1" stroke="none"/>
<path d="M392 448L420 448L420 448L420 476L420 476L392 476L392 476L392 448L392 448Z" fill="#000000" fill-rule="nonzero" opacity="1" stroke="none"/>
<path d="M728 448L756 448L756 448L756 476L756 476L728 476L728 476L728 448L728 448Z" fill="#000000" fill-rule="nonzero" opacity="1" stroke="none"/>
<path d="M756 448L784 448L784 448L784 476L784 476L756 476L756 476L756 448L756 448Z" fill="#000000" fill-rule="nonzero" opacity="1" stroke="none"/>
<path d="M868 448L896 448L896 448L896 476L896 476L868 476L868 476L868 448L868 448Z" fill="#000000" fill-rule="nonzero" opacity="1" stroke="none"/>
<path d="M952 448L980 448L980 448L980 476L980 476L952 476L952 476L952 448L952 448Z" fill="#000000" fill-rule="nonzero" opacity="1" stroke="none"/>
<path d="M1008 448L1036 448L1036 448L1036 476L1036 476L1008 476L1008 476L1008 448L1008 448Z" fill="#000000" fill-rule="nonzero" opacity="1" stroke="none"/>
<path d="M1036 448L1064 448L1064 448L1064 476L1064 476L1036 476L1036 476L1036 448L1036 448Z" fill="#000000" fill-rule="nonzero" opacity="1" stroke="none"/>
<path d="M1064 448L1092 448L1092 448L1092 476L1092 476L1064 476L1064 476L1064 448L1064 448Z" fill="#000000" fill-rule="nonzero" opacity="1" stroke="none"/>
<path d="M56 476L84 476L84 476L84 504L84 504L56 504L56 504L56 476L56 476Z" fill="#000000" fill-rule="nonzero" opacity="1" stroke="none"/>
<path d="M112 476L140 476L140 476L140 504L140 504L112 504L112 504L112 476L112 476Z" fill="#000000" fill-rule="nonzero" opacity="1" stroke="none"/>
<path d="M168 476L196 476L196 476L196 504L196 504L168 504L168 504L168 476L168 476Z" fill="#000000" fill-rule="nonzero" opacity="1" stroke="none"/>
<path d="M196 476L224 476L224 476L224 504L224 504L196 504L196 504L196 476L196 476Z" fill="#000000" fill-rule="nonzero" opacity="1" stroke="none"/>
<path d="M252 476L280 476L280 476L280 504L280 504L252 504L252 504L252 476L252 476Z" fill="#000000" fill-rule="nonzero" opacity="1" stroke="none"/>
<path d="M280 476L308 476L308 476L308 504L308 504L280 504L280 504L280 476L280 476Z" fill="#000000" fill-rule="nonzero" opacity="1" stroke="none"/>
<path d="M392 476L420 476L420 476L420 504L420 504L392 504L392 504L392 476L392 476Z" fill="#000000" fill-rule="nonzero" opacity="1" stroke="none"/>
<path d="M756 476L784 476L784 476L784 504L784 504L756 504L756 504L756 476L756 476Z" fill="#000000" fill-rule="nonzero" opacity="1" stroke="none"/>
<path d="M784 476L812 476L812 476L812 504L812 504L784 504L784 504L784 476L784 476Z" fill="#000000" fill-rule="nonzero" opacity="1" stroke="none"/>
<path d="M868 476L896 476L896 476L896 504L896 504L868 504L868 504L868 476L868 476Z" fill="#000000" fill-rule="nonzero" opacity="1" stroke="none"/>
<path d="M896 476L924 476L924 476L924 504L924 504L896 504L896 504L896 476L896 476Z" fill="#000000" fill-rule="nonzero" opacity="1" stroke="none"/>
<path d="M924 476L952 476L952 476L952 504L952 504L924 504L924 504L924 476L924 476Z" fill="#000000" fill-rule="nonzero" opacity="1" stroke="none"/>
<path d="M952 476L980 476L980 476L980 504L980 504L952 504L952 504L952 476L952 476Z" fill="#000000" fill-rule="nonzero" opacity="1" stroke="none"/>
<path d="M1036 476L1064 476L1064 476L1064 504L1064 504L1036 504L1036 504L1036 476L1036 476Z" fill="#000000" fill-rule="nonzero" opacity="1" stroke="none"/>
<path d="M56 504L84 504L84 504L84 532L84 532L56 532L56 532L56 504L56 504Z" fill="#000000" fill-rule="nonzero" opacity="1" stroke="none"/>
<path d="M84 504L112 504L112 504L112 532L112 532L84 532L84 532L84 504L84 504Z" fill="#000000" fill-rule="nonzero" opacity="1" stroke="none"/>
<path d="M168 504L196 504L196 504L196 532L196 532L168 532L168 532L168 504L168 504Z" fill="#000000" fill-rule="nonzero" opacity="1" stroke="none"/>
<path d="M196 504L224 504L224 504L224 532L224 532L196 532L196 532L196 504L196 504Z" fill="#000000" fill-rule="nonzero" opacity="1" stroke="none"/>
<path d="M224 504L252 504L252 504L252 532L252 532L224 532L224 532L224 504L224 504Z" fill="#000000" fill-rule="nonzero" opacity="1" stroke="none"/>
<path d="M252 504L280 504L280 504L280 532L280 532L252 532L252 532L252 504L252 504Z" fill="#000000" fill-rule="nonzero" opacity="1" stroke="none"/>
<path d="M280 504L308 504L308 504L308 532L308 532L280 532L280 532L280 504L280 504Z" fill="#000000" fill-rule="nonzero" opacity="1" stroke="none"/>
<path d="M336 504L364 504L364 504L364 532L364 532L336 532L336 532L336 504L336 504Z" fill="#000000" fill-rule="nonzero" opacity="1" stroke="none"/>
<path d="M812 504L840 504L840 504L840 532L840 532L812 532L812 532L812 504L812 504Z" fill="#000000" fill-rule="nonzero" opacity="1" stroke="none"/>
<path d="M840 504L868 504L868 504L868 532L868 532L840 532L840 532L840 504L840 504Z" fill="#000000" fill-rule="nonzero" opacity="1" stroke="none"/>
<path d="M868 504L896 504L896 504L896 532L896 532L868 532L868 532L868 504L868 504Z" fill="#000000" fill-rule="nonzero" opacity="1" stroke="none"/>
<path d="M896 504L924 504L924 504L924 532L924 532L896 532L896 532L896 504L896 504Z" fill="#000000" fill-rule="nonzero" opacity="1" stroke="none"/>
<path d="M980 504L1008 504L1008 504L1008 532L1008 532L980 532L980 532L980 504L980 504Z" fill="#000000" fill-rule="nonzero" opacity="1" stroke="none"/>
<path d="M1036 504L1064 504L1064 504L1064 532L1064 532L1036 532L1036 532L1036 504L1036 504Z" fill="#000000" fill-rule="nonzero" opacity="1" stroke="none"/>
<path d="M1064 504L1092 504L1092 504L1092 532L1092 532L1064 532L1064 532L1064 504L1064 504Z" fill="#000000" fill-rule="nonzero" opacity="1" stroke="none"/>
<path d="M56 532L84 532L84 532L84 560L84 560L56 560L56 560L56 532L56 532Z" fill="#000000" fill-rule="nonzero" opacity="1" stroke="none"/>
<path d="M196 532L224 532L224 532L224 560L224 560L196 560L196 560L196 532L196 532Z" fill="#000000" fill-rule="nonzero" opacity="1" stroke="none"/>
<path d="M252 532L280 532L280 532L280 560L280 560L252 560L252 560L252 532L252 532Z" fill="#000000" fill-rule="nonzero" opacity="1" stroke="none"/>
<path d="M308 532L336 532L336 532L336 560L336 560L308 560L308 560L308 532L308 532Z" fill="#000000" fill-rule="nonzero" opacity="1" stroke="none"/>
<path d="M336 532L364 532L364 532L364 560L364 560L336 560L336 560L336 532L336 532Z" fill="#000000" fill-rule="nonzero" opacity="1" stroke="none"/>
<path d="M392 532L420 532L420 532L420 560L420 560L392 560L392 560L392 532L392 532Z" fill="#000000" fill-rule="nonzero" opacity="1" stroke="none"/>
<path d="M728 532L756 532L756 532L756 560L756 560L728 560L728 560L728 532L728 532Z" fill="#000000" fill-rule="nonzero" opacity="1" stroke="none"/>
<path d="M840 532L868 532L868 532L868 560L868 560L840 560L840 560L840 532L840 532Z" fill="#000000" fill-rule="nonzero" opacity="1" stroke="none"/>
<path d="M868 532L896 532L896 532L896 560L896 560L868 560L868 560L868 532L868 532Z" fill="#000000" fill-rule="nonzero" opacity="1" stroke="none"/>
<path d="M896 532L924 532L924 532L924 560L924 560L896 560L896 560L896 532L896 532Z" fill="#000000" fill-rule="nonzero" opacity="1" stroke="none"/>
<path d="M924 532L952 532L952 532L952 560L952 560L924 560L924 560L924 532L924 532Z" fill="#000000" fill-rule="nonzero" opacity="1" stroke="none"/>
<path d="M980 532L1008 532L1008 532L1008 560L1008 560L980 560L980 560L980 532L980 532Z" fill="#000000" fill-rule="nonzero" opacity="1" stroke="none"/>
<path d="M1008 532L1036 532L1036 532L1036 560L1036 560L1008 560L1008 560L1008 532L1008 532Z" fill="#000000" fill-rule="nonzero" opacity="1" stroke="none"/>
<path d="M1036 532L1064 532L1064 532L1064 560L1064 560L1036 560L1036 560L1036 532L1036 532Z" fill="#000000" fill-rule="nonzero" opacity="1" stroke="none"/>
<path d="M1064 532L1092 532L1092 532L1092 560L1092 560L1064 560L1064 560L1064 532L1064 532Z" fill="#000000" fill-rule="nonzero" opacity="1" stroke="none"/>
<path d="M84 560L112 560L112 560L112 588L112 588L84 588L84 588L84 560L84 560Z" fill="#000000" fill-rule="nonzero" opacity="1" stroke="none"/>
<path d="M140 560L168 560L168 560L168 588L168 588L140 588L140 588L140 560L140 560Z" fill="#000000" fill-rule="nonzero" opacity="1" stroke="none"/>
<path d="M168 560L196 560L196 560L196 588L196 588L168 588L168 588L168 560L168 560Z" fill="#000000" fill-rule="nonzero" opacity="1" stroke="none"/>
<path d="M224 560L252 560L252 560L252 588L252 588L224 588L224 588L224 560L224 560Z" fill="#000000" fill-rule="nonzero" opacity="1" stroke="none"/>
<path d="M336 560L364 560L364 560L364 588L364 588L336 588L336 588L336 560L336 560Z" fill="#000000" fill-rule="nonzero" opacity="1" stroke="none"/>
<path d="M364 560L392 560L392 560L392 588L392 588L364 588L364 588L364 560L364 560Z" fill="#000000" fill-rule="nonzero" opacity="1" stroke="none"/>
<path d="M728 560L756 560L756 560L756 588L756 588L728 588L728 588L728 560L728 560Z" fill="#000000" fill-rule="nonzero" opacity="1" stroke="none"/>
<path d="M784 560L812 560L812 560L812 588L812 588L784 588L784 588L784 560L784 560Z" fill="#000000" fill-rule="nonzero" opacity="1" stroke="none"/>
<path d="M1008 560L1036 560L1036 560L1036 588L1036 588L1008 588L1008 588L1008 560L1008 560Z" fill="#000000" fill-rule="nonzero" opacity="1" stroke="none"/>
<path d="M1036 560L1064 560L1064 560L1064 588L1064 588L1036 588L1036 588L1036 560L1036 560Z" fill="#000000" fill-rule="nonzero" opacity="1" stroke="none"/>
<path d="M1064 560L1092 560L1092 560L1092 588L1092 588L1064 588L1064 588L1064 560L1064 560Z" fill="#000000" fill-rule="nonzero" opacity="1" stroke="none"/>
<path d="M252 588L280 588L280 588L280 616L280 616L252 616L252 616L252 588L252 588Z" fill="#000000" fill-rule="nonzero" opacity="1" stroke="none"/>
<path d="M280 588L308 588L308 588L308 616L308 616L280 616L280 616L280 588L280 588Z" fill="#000000" fill-rule="nonzero" opacity="1" stroke="none"/>
<path d="M308 588L336 588L336 588L336 616L336 616L308 616L308 616L308 588L308 588Z" fill="#000000" fill-rule="nonzero" opacity="1" stroke="none"/>
<path d="M336 588L364 588L364 588L364 616L364 616L336 616L336 616L336 588L336 588Z" fill="#000000" fill-rule="nonzero" opacity="1" stroke="none"/>
<path d="M756 588L784 588L784 588L784 616L784 616L756 616L756 616L756 588L756 588Z" fill="#000000" fill-rule="nonzero" opacity="1" stroke="none"/>
<path d="M784 588L812 588L812 588L812 616L812 616L784 616L784 616L784 588L784 588Z" fill="#000000" fill-rule="nonzero" opacity="1" stroke="none"/>
<path d="M840 588L868 588L868 588L868 616L868 616L840 616L840 616L840 588L840 588Z" fill="#000000" fill-rule="nonzero" opacity="1" stroke="none"/>
<path d="M924 588L952 588L952 588L952 616L952 616L924 616L924 616L924 588L924 588Z" fill="#000000" fill-rule="nonzero" opacity="1" stroke="none"/>
<path d="M112 616L140 616L140 616L140 644L140 644L112 644L112 644L112 616L112 616Z" fill="#000000" fill-rule="nonzero" opacity="1" stroke="none"/>
<path d="M168 616L196 616L196 616L196 644L196 644L168 644L168 644L168 616L168 616Z" fill="#000000" fill-rule="nonzero" opacity="1" stroke="none"/>
<path d="M196 616L224 616L224 616L224 644L224 644L196 644L196 644L196 616L196 616Z" fill="#000000" fill-rule="nonzero" opacity="1" stroke="none"/>
<path d="M224 616L252 616L252 616L252 644L252 644L224 644L224 644L224 616L224 616Z" fill="#000000" fill-rule="nonzero" opacity="1" stroke="none"/>
<path d="M280 616L308 616L308 616L308 644L308 644L280 644L280 644L280 616L280 616Z" fill="#000000" fill-rule="nonzero" opacity="1" stroke="none"/>
<path d="M308 616L336 616L336 616L336 644L336 644L308 644L308 644L308 616L308 616Z" fill="#000000" fill-rule="nonzero" opacity="1" stroke="none"/>
<path d="M364 616L392 616L392 616L392 644L392 644L364 644L364 644L364 616L364 616Z" fill="#000000" fill-rule="nonzero" opacity="1" stroke="none"/>
<path d="M756 616L784 616L784 616L784 644L784 644L756 644L756 644L756 616L756 616Z" fill="#000000" fill-rule="nonzero" opacity="1" stroke="none"/>
<path d="M784 616L812 616L812 616L812 644L812 644L784 644L784 644L784 616L784 616Z" fill="#000000" fill-rule="nonzero" opacity="1" stroke="none"/>
<path d="M812 616L840 616L840 616L840 644L840 644L812 644L812 644L812 616L812 616Z" fill="#000000" fill-rule="nonzero" opacity="1" stroke="none"/>
<path d="M840 616L868 616L868 616L868 644L868 644L840 644L840 644L840 616L840 616Z" fill="#000000" fill-rule="nonzero" opacity="1" stroke="none"/>
<path d="M868 616L896 616L896 616L896 644L896 644L868 644L868 644L868 616L868 616Z" fill="#000000" fill-rule="nonzero" opacity="1" stroke="none"/>
<path d="M896 616L924 616L924 616L924 644L924 644L896 644L896 644L896 616L896 616Z" fill="#000000" fill-rule="nonzero" opacity="1" stroke="none"/>
<path d="M924 616L952 616L952 616L952 644L952 644L924 644L924 644L924 616L924 616Z" fill="#000000" fill-rule="nonzero" opacity="1" stroke="none"/>
<path d="M980 616L1008 616L1008 616L1008 644L1008 644L980 644L980 644L980 616L980 616Z" fill="#000000" fill-rule="nonzero" opacity="1" stroke="none"/>
<path d="M56 644L84 644L84 644L84 672L84 672L56 672L56 672L56 644L56 644Z" fill="#000000" fill-rule="nonzero" opacity="1" stroke="none"/>
<path d="M140 644L168 644L168 644L168 672L168 672L140 672L140 672L140 644L140 644Z" fill="#000000" fill-rule="nonzero" opacity="1" stroke="none"/>
<path d="M168 644L196 644L196 644L196 672L196 672L168 672L168 672L168 644L168 644Z" fill="#000000" fill-rule="nonzero" opacity="1" stroke="none"/>
<path d="M196 644L224 644L224 644L224 672L224 672L196 672L196 672L196 644L196 644Z" fill="#000000" fill-rule="nonzero" opacity="1" stroke="none"/>
<path d="M280 644L308 644L308 644L308 672L308 672L280 672L280 672L280 644L280 644Z" fill="#000000" fill-rule="nonzero" opacity="1" stroke="none"/>
<path d="M308 644L336 644L336 644L336 672L336 672L308 672L308 672L308 644L308 644Z" fill="#000000" fill-rule="nonzero" opacity="1" stroke="none"/>
<path d="M728 644L756 644L756 644L756 672L756 672L728 672L728 672L728 644L728 644Z" fill="#000000" fill-rule="nonzero" opacity="1" stroke="none"/>
<path d="M896 644L924 644L924 644L924 672L924 672L896 672L896 672L896 644L896 644Z" fill="#000000" fill-rule="nonzero" opacity="1" stroke="none"/>
<path d="M1036 644L1064 644L1064 644L1064 672L1064 672L1036 672L1036 672L1036 644L1036 644Z" fill="#000000" fill-rule="nonzero" opacity="1" stroke="none"/>
<path d="M1064 644L1092 644L1092 644L1092 672L1092 672L1064 672L1064 672L1064 644L1064 644Z" fill="#000000" fill-rule="nonzero" opacity="1" stroke="none"/>
<path d="M84 672L112 672L112 672L112 700L112 700L84 700L84 700L84 672L84 672Z" fill="#000000" fill-rule="nonzero" opacity="1" stroke="none"/>
<path d="M112 672L140 672L140 672L140 700L140 700L112 700L112 700L112 672L112 672Z" fill="#000000" fill-rule="nonzero" opacity="1" stroke="none"/>
<path d="M168 672L196 672L196 672L196 700L196 700L168 700L168 700L168 672L168 672Z" fill="#000000" fill-rule="nonzero" opacity="1" stroke="none"/>
<path d="M224 672L252 672L252 672L252 700L252 700L224 700L224 700L224 672L224 672Z" fill="#000000" fill-rule="nonzero" opacity="1" stroke="none"/>
<path d="M280 672L308 672L308 672L308 700L308 700L280 700L280 700L280 672L280 672Z" fill="#000000" fill-rule="nonzero" opacity="1" stroke="none"/>
<path d="M364 672L392 672L392 672L392 700L392 700L364 700L364 700L364 672L364 672Z" fill="#000000" fill-rule="nonzero" opacity="1" stroke="none"/>
<path d="M728 672L756 672L756 672L756 700L756 700L728 700L728 700L728 672L728 672Z" fill="#000000" fill-rule="nonzero" opacity="1" stroke="none"/>
<path d="M756 672L784 672L784 672L784 700L784 700L756 700L756 700L756 672L756 672Z" fill="#000000" fill-rule="nonzero" opacity="1" stroke="none"/>
<path d="M840 672L868 672L868 672L868 700L868 700L840 700L840 700L840 672L840 672Z" fill="#000000" fill-rule="nonzero" opacity="1" stroke="none"/>
<path d="M896 672L924 672L924 672L924 700L924 700L896 700L896 700L896 672L896 672Z" fill="#000000" fill-rule="nonzero" opacity="1" stroke="none"/>
<path d="M952 672L980 672L980 672L980 700L980 700L952 700L952 700L952 672L952 672Z" fill="#000000" fill-rule="nonzero" opacity="1" stroke="none"/>
<path d="M1008 672L1036 672L1036 672L1036 700L1036 700L1008 700L1008 700L1008 672L1008 672Z" fill="#000000" fill-rule="nonzero" opacity="1" stroke="none"/>
<path d="M1036 672L1064 672L1064 672L1064 700L1064 700L1036 700L1036 700L1036 672L1036 672Z" fill="#000000" fill-rule="nonzero" opacity="1" stroke="none"/>
<path d="M1064 672L1092 672L1092 672L1092 700L1092 700L1064 700L1064 700L1064 672L1064 672Z" fill="#000000" fill-rule="nonzero" opacity="1" stroke="none"/>
<path d="M112 700L140 700L140 700L140 728L140 728L112 728L112 728L112 700L112 700Z" fill="#000000" fill-rule="nonzero" opacity="1" stroke="none"/>
<path d="M140 700L168 700L168 700L168 728L168 728L140 728L140 728L140 700L140 700Z" fill="#000000" fill-rule="nonzero" opacity="1" stroke="none"/>
<path d="M280 700L308 700L308 700L308 728L308 728L280 728L280 728L280 700L280 700Z" fill="#000000" fill-rule="nonzero" opacity="1" stroke="none"/>
<path d="M336 700L364 700L364 700L364 728L364 728L336 728L336 728L336 700L336 700Z" fill="#000000" fill-rule="nonzero" opacity="1" stroke="none"/>
<path d="M392 700L420 700L420 700L420 728L420 728L392 728L392 728L392 700L392 700Z" fill="#000000" fill-rule="nonzero" opacity="1" stroke="none"/>
<path d="M728 700L756 700L756 700L756 728L756 728L728 728L728 728L728 700L728 700Z" fill="#000000" fill-rule="nonzero" opacity="1" stroke="none"/>
<path d="M896 700L924 700L924 700L924 728L924 728L896 728L896 728L896 700L896 700Z" fill="#000000" fill-rule="nonzero" opacity="1" stroke="none"/>
<path d="M56 728L84 728L84 728L84 756L84 756L56 756L56 756L56 728L56 728Z" fill="#000000" fill-rule="nonzero" opacity="1" stroke="none"/>
<path d="M84 728L112 728L112 728L112 756L112 756L84 756L84 756L84 728L84 728Z" fill="#000000" fill-rule="nonzero" opacity="1" stroke="none"/>
<path d="M140 728L168 728L168 728L168 756L168 756L140 756L140 756L140 728L140 728Z" fill="#000000" fill-rule="nonzero" opacity="1" stroke="none"/>
<path d="M196 728L224 728L224 728L224 756L224 756L196 756L196 756L196 728L196 728Z" fill="#000000" fill-rule="nonzero" opacity="1" stroke="none"/>
<path d="M224 728L252 728L252 728L252 756L252 756L224 756L224 756L224 728L224 728Z" fill="#000000" fill-rule="nonzero" opacity="1" stroke="none"/>
<path d="M252 728L280 728L280 728L280 756L280 756L252 756L252 756L252 728L252 728Z" fill="#000000" fill-rule="nonzero" opacity="1" stroke="none"/>
<path d="M336 728L364 728L364 728L364 756L364 756L336 756L336 756L336 728L336 728Z" fill="#000000" fill-rule="nonzero" opacity="1" stroke="none"/>
<path d="M504 728L532 728L532 728L532 756L532 756L504 756L504 756L504 728L504 728Z" fill="#000000" fill-rule="nonzero" opacity="1" stroke="none"/>
<path d="M560 728L588 728L588 728L588 756L588 756L560 756L560 756L560 728L560 728Z" fill="#000000" fill-rule="nonzero" opacity="1" stroke="none"/>
<path d="M616 728L644 728L644 728L644 756L644 756L616 756L616 756L616 728L616 728Z" fill="#000000" fill-rule="nonzero" opacity="1" stroke="none"/>
<path d="M644 728L672 728L672 728L672 756L672 756L644 756L644 756L644 728L644 728Z" fill="#000000" fill-rule="nonzero" opacity="1" stroke="none"/>
<path d="M700 728L728 728L728 728L728 756L728 756L700 756L700 756L700 728L700 728Z" fill="#000000" fill-rule="nonzero" opacity="1" stroke="none"/>
<path d="M728 728L756 728L756 728L756 756L756 756L728 756L728 756L728 728L728 728Z" fill="#000000" fill-rule="nonzero" opacity="1" stroke="none"/>
<path d="M812 728L840 728L840 728L840 756L840 756L812 756L812 756L812 728L812 728Z" fill="#000000" fill-rule="nonzero" opacity="1" stroke="none"/>
<path d="M868 728L896 728L896 728L896 756L896 756L868 756L868 756L868 728L868 728Z" fill="#000000" fill-rule="nonzero" opacity="1" stroke="none"/>
<path d="M896 728L924 728L924 728L924 756L924 756L896 756L896 756L896 728L896 728Z" fill="#000000" fill-rule="nonzero" opacity="1" stroke="none"/>
<path d="M980 728L1008 728L1008 728L1008 756L1008 756L980 756L980 756L980 728L980 728Z" fill="#000000" fill-rule="nonzero" opacity="1" stroke="none"/>
<path d="M1008 728L1036 728L1036 728L1036 756L1036 756L1008 756L1008 756L1008 728L1008 728Z" fill="#000000" fill-rule="nonzero" opacity="1" stroke="none"/>
<path d="M1036 728L1064 728L1064 728L1064 756L1064 756L1036 756L1036 756L1036 728L1036 728Z" fill="#000000" fill-rule="nonzero" opacity="1" stroke="none"/>
<path d="M1064 728L1092 728L1092 728L1092 756L1092 756L1064 756L1064 756L1064 728L1064 728Z" fill="#000000" fill-rule="nonzero" opacity="1" stroke="none"/>
<path d="M112 756L140 756L140 756L140 784L140 784L112 784L112 784L112 756L112 756Z" fill="#000000" fill-rule="nonzero" opacity="1" stroke="none"/>
<path d="M140 756L168 756L168 756L168 784L168 784L140 784L140 784L140 756L140 756Z" fill="#000000" fill-rule="nonzero" opacity="1" stroke="none"/>
<path d="M252 756L280 756L280 756L280 784L280 784L252 784L252 784L252 756L252 756Z" fill="#000000" fill-rule="nonzero" opacity="1" stroke="none"/>
<path d="M308 756L336 756L336 756L336 784L336 784L308 784L308 784L308 756L308 756Z" fill="#000000" fill-rule="nonzero" opacity="1" stroke="none"/>
<path d="M364 756L392 756L392 756L392 784L392 784L364 784L364 784L364 756L364 756Z" fill="#000000" fill-rule="nonzero" opacity="1" stroke="none"/>
<path d="M392 756L420 756L420 756L420 784L420 784L392 784L392 784L392 756L392 756Z" fill="#000000" fill-rule="nonzero" opacity="1" stroke="none"/>
<path d="M420 756L448 756L448 756L448 784L448 784L420 784L420 784L420 756L420 756Z" fill="#000000" fill-rule="nonzero" opacity="1" stroke="none"/>
<path d="M448 756L476 756L476 756L476 784L476 784L448 784L448 784L448 756L448 756Z" fill="#000000" fill-rule="nonzero" opacity="1" stroke="none"/>
<path d="M476 756L504 756L504 756L504 784L504 784L476 784L476 784L476 756L476 756Z" fill="#000000" fill-rule="nonzero" opacity="1" stroke="none"/>
<path d="M504 756L532 756L532 756L532 784L532 784L504 784L504 784L504 756L504 756Z" fill="#000000" fill-rule="nonzero" opacity="1" stroke="none"/>
<path d="M560 756L588 756L588 756L588 784L588 784L560 784L560 784L560 756L560 756Z" fill="#000000" fill-rule="nonzero" opacity="1" stroke="none"/>
<path d="M644 756L672 756L672 756L672 784L672 784L644 784L644 784L644 756L644 756Z" fill="#000000" fill-rule="nonzero" opacity="1" stroke="none"/>
<path d="M700 756L728 756L728 756L728 784L728 784L700 784L700 784L700 756L700 756Z" fill="#000000" fill-rule="nonzero" opacity="1" stroke="none"/>
<path d="M728 756L756 756L756 756L756 784L756 784L728 784L728 784L728 756L728 756Z" fill="#000000" fill-rule="nonzero" opacity="1" stroke="none"/>
<path d="M756 756L784 756L784 756L784 784L784 784L756 784L756 784L756 756L756 756Z" fill="#000000" fill-rule="nonzero" opacity="1" stroke="none"/>
<path d="M840 756L868 756L868 756L868 784L868 784L840 784L840 784L840 756L840 756Z" fill="#000000" fill-rule="nonzero" opacity="1" stroke="none"/>
<path d="M868 756L896 756L896 756L896 784L896 784L868 784L868 784L868 756L868 756Z" fill="#000000" fill-rule="nonzero" opacity="1" stroke="none"/>
<path d="M896 756L924 756L924 756L924 784L924 784L896 784L896 784L896 756L896 756Z" fill="#000000" fill-rule="nonzero" opacity="1" stroke="none"/>
<path d="M980 756L1008 756L1008 756L1008 784L1008 784L980 784L980 784L980 756L980 756Z" fill="#000000" fill-rule="nonzero" opacity="1" stroke="none"/>
<path d="M1008 756L1036 756L1036 756L1036 784L1036 784L1008 784L1008 784L1008 756L1008 756Z" fill="#000000" fill-rule="nonzero" opacity="1" stroke="none"/>
<path d="M1036 756L1064 756L1064 756L1064 784L1064 784L1036 784L1036 784L1036 756L1036 756Z" fill="#000000" fill-rule="nonzero" opacity="1" stroke="none"/>
<path d="M1064 756L1092 756L1092 756L1092 784L1092 784L1064 784L1064 784L1064 756L1064 756Z" fill="#000000" fill-rule="nonzero" opacity="1" stroke="none"/>
<path d="M56 784L84 784L84 784L84 812L84 812L56 812L56 812L56 784L56 784Z" fill="#000000" fill-rule="nonzero" opacity="1" stroke="none"/>
<path d="M140 784L168 784L168 784L168 812L168 812L140 812L140 812L140 784L140 784Z" fill="#000000" fill-rule="nonzero" opacity="1" stroke="none"/>
<path d="M196 784L224 784L224 784L224 812L224 812L196 812L196 812L196 784L196 784Z" fill="#000000" fill-rule="nonzero" opacity="1" stroke="none"/>
<path d="M224 784L252 784L252 784L252 812L252 812L224 812L224 812L224 784L224 784Z" fill="#000000" fill-rule="nonzero" opacity="1" stroke="none"/>
<path d="M252 784L280 784L280 784L280 812L280 812L252 812L252 812L252 784L252 784Z" fill="#000000" fill-rule="nonzero" opacity="1" stroke="none"/>
<path d="M280 784L308 784L308 784L308 812L308 812L280 812L280 812L280 784L280 784Z" fill="#000000" fill-rule="nonzero" opacity="1" stroke="none"/>
<path d="M308 784L336 784L336 784L336 812L336 812L308 812L308 812L308 784L308 784Z" fill="#000000" fill-rule="nonzero" opacity="1" stroke="none"/>
<path d="M448 784L476 784L476 784L476 812L476 812L448 812L448 812L448 784L448 784Z" fill="#000000" fill-rule="nonzero" opacity="1" stroke="none"/>
<path d="M476 784L504 784L504 784L504 812L504 812L476 812L476 812L476 784L476 784Z" fill="#000000" fill-rule="nonzero" opacity="1" stroke="none"/>
<path d="M504 784L532 784L532 784L532 812L532 812L504 812L504 812L504 784L504 784Z" fill="#000000" fill-rule="nonzero" opacity="1" stroke="none"/>
<path d="M560 784L588 784L588 784L588 812L588 812L560 812L560 812L560 784L560 784Z" fill="#000000" fill-rule="nonzero" opacity="1" stroke="none"/>
<path d="M672 784L700 784L700 784L700 812L700 812L672 812L672 812L672 784L672 784Z" fill="#000000" fill-rule="nonzero" opacity="1" stroke="none"/>
<path d="M700 784L728 784L728 784L728 812L728 812L700 812L700 812L700 784L700 784Z" fill="#000000" fill-rule="nonzero" opacity="1" stroke="none"/>
<path d="M728 784L756 784L756 784L756 812L756 812L728 812L728 812L728 784L728 784Z" fill="#000000" fill-rule="nonzero" opacity="1" stroke="none"/>
<path d="M756 784L784 784L784 784L784 812L784 812L756 812L756 812L756 784L756 784Z" fill="#000000" fill-rule="nonzero" opacity="1" stroke="none"/>
<path d="M896 784L924 784L924 784L924 812L924 812L896 812L896 812L896 784L896 784Z" fill="#000000" fill-rule="nonzero" opacity="1" stroke="none"/>
<path d="M1008 784L1036 784L1036 784L1036 812L1036 812L1008 812L1008 812L1008 784L1008 784Z" fill="#000000" fill-rule="nonzero" opacity="1" stroke="none"/>
<path d="M1036 784L1064 784L1064 784L1064 812L1064 812L1036 812L1036 812L1036 784L1036 784Z" fill="#000000" fill-rule="nonzero" opacity="1" stroke="none"/>
<path d="M1064 784L1092 784L1092 784L1092 812L1092 812L1064 812L1064 812L1064 784L1064 784Z" fill="#000000" fill-rule="nonzero" opacity="1" stroke="none"/>
<path d="M84 812L112 812L112 812L112 840L112 840L84 840L84 840L84 812L84 812Z" fill="#000000" fill-rule="nonzero" opacity="1" stroke="none"/>
<path d="M112 812L140 812L140 812L140 840L140 840L112 840L112 840L112 812L112 812Z" fill="#000000" fill-rule="nonzero" opacity="1" stroke="none"/>
<path d="M140 812L168 812L168 812L168 840L168 840L140 840L140 840L140 812L140 812Z" fill="#000000" fill-rule="nonzero" opacity="1" stroke="none"/>
<path d="M168 812L196 812L196 812L196 840L196 840L168 840L168 840L168 812L168 812Z" fill="#000000" fill-rule="nonzero" opacity="1" stroke="none"/>
<path d="M308 812L336 812L336 812L336 840L336 840L308 840L308 840L308 812L308 812Z" fill="#000000" fill-rule="nonzero" opacity="1" stroke="none"/>
<path d="M364 812L392 812L392 812L392 840L392 840L364 840L364 840L364 812L364 812Z" fill="#000000" fill-rule="nonzero" opacity="1" stroke="none"/>
<path d="M420 812L448 812L448 812L448 840L448 840L420 840L420 840L420 812L420 812Z" fill="#000000" fill-rule="nonzero" opacity="1" stroke="none"/>
<path d="M448 812L476 812L476 812L476 840L476 840L448 840L448 840L448 812L448 812Z" fill="#000000" fill-rule="nonzero" opacity="1" stroke="none"/>
<path d="M476 812L504 812L504 812L504 840L504 840L476 840L476 840L476 812L476 812Z" fill="#000000" fill-rule="nonzero" opacity="1" stroke="none"/>
<path d="M504 812L532 812L532 812L532 840L532 840L504 840L504 840L504 812L504 812Z" fill="#000000" fill-rule="nonzero" opacity="1" stroke="none"/>
<path d="M588 812L616 812L616 812L616 840L616 840L588 840L588 840L588 812L588 812Z" fill="#000000" fill-rule="nonzero" opacity="1" stroke="none"/>
<path d="M728 812L756 812L756 812L756 840L756 840L728 840L728 840L728 812L728 812Z" fill="#000000" fill-rule="nonzero" opacity="1" stroke="none"/>
<path d="M756 812L784 812L784 812L784 840L784 840L756 840L756 840L756 812L756 812Z" fill="#000000" fill-rule="nonzero" opacity="1" stroke="none"/>
<path d="M784 812L812 812L812 812L812 840L812 840L784 840L784 840L784 812L784 812Z" fill="#000000" fill-rule="nonzero" opacity="1" stroke="none"/>
<path d="M812 812L840 812L840 812L840 840L840 840L812 840L812 840L812 812L812 812Z" fill="#000000" fill-rule="nonzero" opacity="1" stroke="none"/>
<path d="M896 812L924 812L924 812L924 840L924 840L896 840L896 840L896 812L896 812Z" fill="#000000" fill-rule="nonzero" opacity="1" stroke="none"/>
<path d="M952 812L980 812L980 812L980 840L980 840L952 840L952 840L952 812L952 812Z" fill="#000000" fill-rule="nonzero" opacity="1" stroke="none"/>
<path d="M56 840L84 840L84 840L84 868L84 868L56 868L56 868L56 840L56 840Z" fill="#000000" fill-rule="nonzero" opacity="1" stroke="none"/>
<path d="M112 840L140 840L140 840L140 868L140 868L112 868L112 868L112 840L112 840Z" fill="#000000" fill-rule="nonzero" opacity="1" stroke="none"/>
<path d="M196 840L224 840L224 840L224 868L224 868L196 868L196 868L196 840L196 840Z" fill="#000000" fill-rule="nonzero" opacity="1" stroke="none"/>
<path d="M224 840L252 840L252 840L252 868L252 868L224 868L224 868L224 840L224 840Z" fill="#000000" fill-rule="nonzero" opacity="1" stroke="none"/>
<path d="M308 840L336 840L336 840L336 868L336 868L308 868L308 868L308 840L308 840Z" fill="#000000" fill-rule="nonzero" opacity="1" stroke="none"/>
<path d="M336 840L364 840L364 840L364 868L364 868L336 868L336 868L336 840L336 840Z" fill="#000000" fill-rule="nonzero" opacity="1" stroke="none"/>
<path d="M392 840L420 840L420 840L420 868L420 868L392 868L392 868L392 840L392 840Z" fill="#000000" fill-rule="nonzero" opacity="1" stroke="none"/>
<path d="M420 840L448 840L448 840L448 868L448 868L420 868L420 868L420 840L420 840Z" fill="#000000" fill-rule="nonzero" opacity="1" stroke="none"/>
<path d="M476 840L504 840L504 840L504 868L504 868L476 868L476 868L476 840L476 840Z" fill="#000000" fill-rule="nonzero" opacity="1" stroke="none"/>
<path d="M700 840L728 840L728 840L728 868L728 868L700 868L700 868L700 840L700 840Z" fill="#000000" fill-rule="nonzero" opacity="1" stroke="none"/>
<path d="M728 840L756 840L756 840L756 868L756 868L728 868L728 868L728 840L728 840Z" fill="#000000" fill-rule="nonzero" opacity="1" stroke="none"/>
<path d="M756 840L784 840L784 840L784 868L784 868L756 868L756 868L756 840L756 840Z" fill="#000000" fill-rule="nonzero" opacity="1" stroke="none"/>
<path d="M812 840L840 840L840 840L840 868L840 868L812 868L812 868L812 840L812 840Z" fill="#000000" fill-rule="nonzero" opacity="1" stroke="none"/>
<path d="M840 840L868 840L868 840L868 868L868 868L840 868L840 868L840 840L840 840Z" fill="#000000" fill-rule="nonzero" opacity="1" stroke="none"/>
<path d="M868 840L896 840L896 840L896 868L896 868L868 868L868 868L868 840L868 840Z" fill="#000000" fill-rule="nonzero" opacity="1" stroke="none"/>
<path d="M896 840L924 840L924 840L924 868L924 868L896 868L896 868L896 840L896 840Z" fill="#000000" fill-rule="nonzero" opacity="1" stroke="none"/>
<path d="M924 840L952 840L952 840L952 868L952 868L924 868L924 868L924 840L924 840Z" fill="#000000" fill-rule="nonzero" opacity="1" stroke="none"/>
<path d="M952 840L980 840L980 840L980 868L980 868L952 868L952 868L952 840L952 840Z" fill="#000000" fill-rule="nonzero" opacity="1" stroke="none"/>
<path d="M1064 840L1092 840L1092 840L1092 868L1092 868L1064 868L1064 868L1064 840L1064 840Z" fill="#000000" fill-rule="nonzero" opacity="1" stroke="none"/>
<path d="M280 868L308 868L308 868L308 896L308 896L280 896L280 896L280 868L280 868Z" fill="#000000" fill-rule="nonzero" opacity="1" stroke="none"/>
<path d="M308 868L336 868L336 868L336 896L336 896L308 896L308 896L308 868L308 868Z" fill="#000000" fill-rule="nonzero" opacity="1" stroke="none"/>
<path d="M420 868L448 868L448 868L448 896L448 896L420 896L420 896L420 868L420 868Z" fill="#000000" fill-rule="nonzero" opacity="1" stroke="none"/>
<path d="M448 868L476 868L476 868L476 896L476 896L448 896L448 896L448 868L448 868Z" fill="#000000" fill-rule="nonzero" opacity="1" stroke="none"/>
<path d="M532 868L560 868L560 868L560 896L560 896L532 896L532 896L532 868L532 868Z" fill="#000000" fill-rule="nonzero" opacity="1" stroke="none"/>
<path d="M588 868L616 868L616 868L616 896L616 896L588 896L588 896L588 868L588 868Z" fill="#000000" fill-rule="nonzero" opacity="1" stroke="none"/>
<path d="M644 868L672 868L672 868L672 896L672 896L644 896L644 896L644 868L644 868Z" fill="#000000" fill-rule="nonzero" opacity="1" stroke="none"/>
<path d="M728 868L756 868L756 868L756 896L756 896L728 896L728 896L728 868L728 868Z" fill="#000000" fill-rule="nonzero" opacity="1" stroke="none"/>
<path d="M812 868L840 868L840 868L840 896L840 896L812 896L812 896L812 868L812 868Z" fill="#000000" fill-rule="nonzero" opacity="1" stroke="none"/>
<path d="M840 868L868 868L868 868L868 896L868 896L840 896L840 896L840 868L840 868Z" fill="#000000" fill-rule="nonzero" opacity="1" stroke="none"/>
<path d="M952 868L980 868L980 868L980 896L980 896L952 896L952 896L952 868L952 868Z" fill="#000000" fill-rule="nonzero" opacity="1" stroke="none"/>
<path d="M1064 868L1092 868L1092 868L1092 896L1092 896L1064 896L1064 896L1064 868L1064 868Z" fill="#000000" fill-rule="nonzero" opacity="1" stroke="none"/>
<path d="M308 896L336 896L336 896L336 924L336 924L308 924L308 924L308 896L308 896Z" fill="#000000" fill-rule="nonzero" opacity="1" stroke="none"/>
<path d="M336 896L364 896L364 896L364 924L364 924L336 924L336 924L336 896L336 896Z" fill="#000000" fill-rule="nonzero" opacity="1" stroke="none"/>
<path d="M364 896L392 896L392 896L392 924L392 924L364 924L364 924L364 896L364 896Z" fill="#000000" fill-rule="nonzero" opacity="1" stroke="none"/>
<path d="M420 896L448 896L448 896L448 924L448 924L420 924L420 924L420 896L420 896Z" fill="#000000" fill-rule="nonzero" opacity="1" stroke="none"/>
<path d="M448 896L476 896L476 896L476 924L476 924L448 924L448 924L448 896L448 896Z" fill="#000000" fill-rule="nonzero" opacity="1" stroke="none"/>
<path d="M532 896L560 896L560 896L560 924L560 924L532 924L532 924L532 896L532 896Z" fill="#000000" fill-rule="nonzero" opacity="1" stroke="none"/>
<path d="M560 896L588 896L588 896L588 924L588 924L560 924L560 924L560 896L560 896Z" fill="#000000" fill-rule="nonzero" opacity="1" stroke="none"/>
<path d="M588 896L616 896L616 896L616 924L616 924L588 924L588 924L588 896L588 896Z" fill="#000000" fill-rule="nonzero" opacity="1" stroke="none"/>
<path d="M644 896L672 896L672 896L672 924L672 924L644 924L644 924L644 896L644 896Z" fill="#000000" fill-rule="nonzero" opacity="1" stroke="none"/>
<path d="M672 896L700 896L700 896L700 924L700 924L672 924L672 924L672 896L672 896Z" fill="#000000" fill-rule="nonzero" opacity="1" stroke="none"/>
<path d="M728 896L756 896L756 896L756 924L756 924L728 924L728 924L728 896L728 896Z" fill="#000000" fill-rule="nonzero" opacity="1" stroke="none"/>
<path d="M812 896L840 896L840 896L840 924L840 924L812 924L812 924L812 896L812 896Z" fill="#000000" fill-rule="nonzero" opacity="1" stroke="none"/>
<path d="M840 896L868 896L868 896L868 924L868 924L840 924L840 924L840 896L840 896Z" fill="#000000" fill-rule="nonzero" opacity="1" stroke="none"/>
<path d="M896 896L924 896L924 896L924 924L924 924L896 924L896 924L896 896L896 896Z" fill="#000000" fill-rule="nonzero" opacity="1" stroke="none"/>
<path d="M952 896L980 896L980 896L980 924L980 924L952 924L952 924L952 896L952 896Z" fill="#000000" fill-rule="nonzero" opacity="1" stroke="none"/>
<path d="M1008 896L1036 896L1036 896L1036 924L1036 924L1008 924L1008 924L1008 896L1008 896Z" fill="#000000" fill-rule="nonzero" opacity="1" stroke="none"/>
<path d="M1036 896L1064 896L1064 896L1064 924L1064 924L1036 924L1036 924L1036 896L1036 896Z" fill="#000000" fill-rule="nonzero" opacity="1" stroke="none"/>
<path d="M1064 896L1092 896L1092 896L1092 924L1092 924L1064 924L1064 924L1064 896L1064 896Z" fill="#000000" fill-rule="nonzero" opacity="1" stroke="none"/>
<path d="M280 924L308 924L308 924L308 952L308 952L280 952L280 952L280 924L280 924Z" fill="#000000" fill-rule="nonzero" opacity="1" stroke="none"/>
<path d="M336 924L364 924L364 924L364 952L364 952L336 952L336 952L336 924L336 924Z" fill="#000000" fill-rule="nonzero" opacity="1" stroke="none"/>
<path d="M364 924L392 924L392 924L392 952L392 952L364 952L364 952L364 924L364 924Z" fill="#000000" fill-rule="nonzero" opacity="1" stroke="none"/>
<path d="M448 924L476 924L476 924L476 952L476 952L448 952L448 952L448 924L448 924Z" fill="#000000" fill-rule="nonzero" opacity="1" stroke="none"/>
<path d="M504 924L532 924L532 924L532 952L532 952L504 952L504 952L504 924L504 924Z" fill="#000000" fill-rule="nonzero" opacity="1" stroke="none"/>
<path d="M532 924L560 924L560 924L560 952L560 952L532 952L532 952L532 924L532 924Z" fill="#000000" fill-rule="nonzero" opacity="1" stroke="none"/>
<path d="M560 924L588 924L588 924L588 952L588 952L560 952L560 952L560 924L560 924Z" fill="#000000" fill-rule="nonzero" opacity="1" stroke="none"/>
<path d="M616 924L644 924L644 924L644 952L644 952L616 952L616 952L616 924L616 924Z" fill="#000000" fill-rule="nonzero" opacity="1" stroke="none"/>
<path d="M700 924L728 924L728 924L728 952L728 952L700 952L700 952L700 924L700 924Z" fill="#000000" fill-rule="nonzero" opacity="1" stroke="none"/>
<path d="M728 924L756 924L756 924L756 952L756 952L728 952L728 952L728 924L728 924Z" fill="#000000" fill-rule="nonzero" opacity="1" stroke="none"/>
<path d="M756 924L784 924L784 924L784 952L784 952L756 952L756 952L756 924L756 924Z" fill="#000000" fill-rule="nonzero" opacity="1" stroke="none"/>
<path d="M784 924L812 924L812 924L812 952L812 952L784 952L784 952L784 924L784 924Z" fill="#000000" fill-rule="nonzero" opacity="1" stroke="none"/>
<path d="M840 924L868 924L868 924L868 952L868 952L840 952L840 952L840 924L840 924Z" fill="#000000" fill-rule="nonzero" opacity="1" stroke="none"/>
<path d="M952 924L980 924L980 924L980 952L980 952L952 952L952 952L952 924L952 924Z" fill="#000000" fill-rule="nonzero" opacity="1" stroke="none"/>
<path d="M280 952L308 952L308 952L308 980L308 980L280 980L280 980L280 952L280 952Z" fill="#000000" fill-rule="nonzero" opacity="1" stroke="none"/>
<path d="M308 952L336 952L336 952L336 980L336 980L308 980L308 980L308 952L308 952Z" fill="#000000" fill-rule="nonzero" opacity="1" stroke="none"/>
<path d="M420 952L448 952L448 952L448 980L448 980L420 980L420 980L420 952L420 952Z" fill="#000000" fill-rule="nonzero" opacity="1" stroke="none"/>
<path d="M476 952L504 952L504 952L504 980L504 980L476 980L476 980L476 952L476 952Z" fill="#000000" fill-rule="nonzero" opacity="1" stroke="none"/>
<path d="M560 952L588 952L588 952L588 980L588 980L560 980L560 980L560 952L560 952Z" fill="#000000" fill-rule="nonzero" opacity="1" stroke="none"/>
<path d="M644 952L672 952L672 952L672 980L672 980L644 980L644 980L644 952L644 952Z" fill="#000000" fill-rule="nonzero" opacity="1" stroke="none"/>
<path d="M756 952L784 952L784 952L784 980L784 980L756 980L756 980L756 952L756 952Z" fill="#000000" fill-rule="nonzero" opacity="1" stroke="none"/>
<path d="M840 952L868 952L868 952L868 980L868 980L840 980L840 980L840 952L840 952Z" fill="#000000" fill-rule="nonzero" opacity="1" stroke="none"/>
<path d="M868 952L896 952L896 952L896 980L896 980L868 980L868 980L868 952L868 952Z" fill="#000000" fill-rule="nonzero" opacity="1" stroke="none"/>
<path d="M896 952L924 952L924 952L924 980L924 980L896 980L896 980L896 952L896 952Z" fill="#000000" fill-rule="nonzero" opacity="1" stroke="none"/>
<path d="M924 952L952 952L952 952L952 980L952 980L924 980L924 980L924 952L924 952Z" fill="#000000" fill-rule="nonzero" opacity="1" stroke="none"/>
<path d="M952 952L980 952L980 952L980 980L980 980L952 980L952 980L952 952L952 952Z" fill="#000000" fill-rule="nonzero" opacity="1" stroke="none"/>
<path d="M980 952L1008 952L1008 952L1008 980L1008 980L980 980L980 980L980 952L980 952Z" fill="#000000" fill-rule="nonzero" opacity="1" stroke="none"/>
<path d="M336 980L364 980L364 980L364 1008L364 1008L336 1008L336 1008L336 980L336 980Z" fill="#000000" fill-rule="nonzero" opacity="1" stroke="none"/>
<path d="M420 980L448 980L448 980L448 1008L448 1008L420 1008L420 1008L420 980L420 980Z" fill="#000000" fill-rule="nonzero" opacity="1" stroke="none"/>
<path d="M532 980L560 980L560 980L560 1008L560 1008L532 1008L532 1008L532 980L532 980Z" fill="#000000" fill-rule="nonzero" opacity="1" stroke="none"/>
<path d="M588 980L616 980L616 980L616 1008L616 1008L588 1008L588 1008L588 980L588 980Z" fill="#000000" fill-rule="nonzero" opacity="1" stroke="none"/>
<path d="M616 980L644 980L644 980L644 1008L644 1008L616 1008L616 1008L616 980L616 980Z" fill="#000000" fill-rule="nonzero" opacity="1" stroke="none"/>
<path d="M700 980L728 980L728 980L728 1008L728 1008L700 1008L700 1008L700 980L700 980Z" fill="#000000" fill-rule="nonzero" opacity="1" stroke="none"/>
<path d="M840 980L868 980L868 980L868 1008L868 1008L840 1008L840 1008L840 980L840 980Z" fill="#000000" fill-rule="nonzero" opacity="1" stroke="none"/>
<path d="M868 980L896 980L896 980L896 1008L896 1008L868 1008L868 1008L868 980L868 980Z" fill="#000000" fill-rule="nonzero" opacity="1" stroke="none"/>
<path d="M924 980L952 980L952 980L952 1008L952 1008L924 1008L924 1008L924 980L924 980Z" fill="#000000" fill-rule="nonzero" opacity="1" stroke="none"/>
<path d="M952 980L980 980L980 980L980 1008L980 1008L952 1008L952 1008L952 980L952 980Z" fill="#000000" fill-rule="nonzero" opacity="1" stroke="none"/>
<path d="M1036 980L1064 980L1064 980L1064 1008L1064 1008L1036 1008L1036 1008L1036 980L1036 980Z" fill="#000000" fill-rule="nonzero" opacity="1" stroke="none"/>
<path d="M1064 980L1092 980L1092 980L1092 1008L1092 1008L1064 1008L1064 1008L1064 980L1064 980Z" fill="#000000" fill-rule="nonzero" opacity="1" stroke="none"/>
<path d="M280 1008L308 1008L308 1008L308 1036L308 1036L280 1036L280 1036L280 1008L280 1008Z" fill="#000000" fill-rule="nonzero" opacity="1" stroke="none"/>
<path d="M308 1008L336 1008L336 1008L336 1036L336 1036L308 1036L308 1036L308 1008L308 1008Z" fill="#000000" fill-rule="nonzero" opacity="1" stroke="none"/>
<path d="M336 1008L364 1008L364 1008L364 1036L364 1036L336 1036L336 1036L336 1008L336 1008Z" fill="#000000" fill-rule="nonzero" opacity="1" stroke="none"/>
<path d="M364 1008L392 1008L392 1008L392 1036L392 1036L364 1036L364 1036L364 1008L364 1008Z" fill="#000000" fill-rule="nonzero" opacity="1" stroke="none"/>
<path d="M392 1008L420 1008L420 1008L420 1036L420 1036L392 1036L392 1036L392 1008L392 1008Z" fill="#000000" fill-rule="nonzero" opacity="1" stroke="none"/>
<path d="M420 1008L448 1008L448 1008L448 1036L448 1036L420 1036L420 1036L420 1008L420 1008Z" fill="#000000" fill-rule="nonzero" opacity="1" stroke="none"/>
<path d="M448 1008L476 1008L476 1008L476 1036L476 1036L448 1036L448 1036L448 1008L448 1008Z" fill="#000000" fill-rule="nonzero" opacity="1" stroke="none"/>
<path d="M476 1008L504 1008L504 1008L504 1036L504 1036L476 1036L476 1036L476 1008L476 1008Z" fill="#000000" fill-rule="nonzero" opacity="1" stroke="none"/>
<path d="M504 1008L532 1008L532 1008L532 1036L532 1036L504 1036L504 1036L504 1008L504 1008Z" fill="#000000" fill-rule="nonzero" opacity="1" stroke="none"/>
<path d="M532 1008L560 1008L560 1008L560 1036L560 1036L532 1036L532 1036L532 1008L532 1008Z" fill="#000000" fill-rule="nonzero" opacity="1" stroke="none"/>
<path d="M560 1008L588 1008L588 1008L588 1036L588 1036L560 1036L560 1036L560 1008L560 1008Z" fill="#000000" fill-rule="nonzero" opacity="1" stroke="none"/>
<path d="M616 1008L644 1008L644 1008L644 1036L644 1036L616 1036L616 1036L616 1008L616 1008Z" fill="#000000" fill-rule="nonzero" opacity="1" stroke="none"/>
<path d="M756 1008L784 1008L784 1008L784 1036L784 1036L756 1036L756 1036L756 1008L756 1008Z" fill="#000000" fill-rule="nonzero" opacity="1" stroke="none"/>
<path d="M840 1008L868 1008L868 1008L868 1036L868 1036L840 1036L840 1036L840 1008L840 1008Z" fill="#000000" fill-rule="nonzero" opacity="1" stroke="none"/>
<path d="M868 1008L896 1008L896 1008L896 1036L896 1036L868 1036L868 1036L868 1008L868 1008Z" fill="#000000" fill-rule="nonzero" opacity="1" stroke="none"/>
<path d="M924 1008L952 1008L952 1008L952 1036L952 1036L924 1036L924 1036L924 1008L924 1008Z" fill="#000000" fill-rule="nonzero" opacity="1" stroke="none"/>
<path d="M952 1008L980 1008L980 1008L980 1036L980 1036L952 1036L952 1036L952 1008L952 1008Z" fill="#000000" fill-rule="nonzero" opacity="1" stroke="none"/>
<path d="M980 1008L1008 1008L1008 1008L1008 1036L1008 1036L980 1036L980 1036L980 1008L980 1008Z" fill="#000000" fill-rule="nonzero" opacity="1" stroke="none"/>
<path d="M1008 1008L1036 1008L1036 1008L1036 1036L1036 1036L1008 1036L1008 1036L1008 1008L1008 1008Z" fill="#000000" fill-rule="nonzero" opacity="1" stroke="none"/>
<path d="M1064 1008L1092 1008L1092 1008L1092 1036L1092 1036L1064 1036L1064 1036L1064 1008L1064 1008Z" fill="#000000" fill-rule="nonzero" opacity="1" stroke="none"/>
<path d="M308 1036L336 1036L336 1036L336 1064L336 1064L308 1064L308 1064L308 1036L308 1036Z" fill="#000000" fill-rule="nonzero" opacity="1" stroke="none"/>
<path d="M336 1036L364 1036L364 1036L364 1064L364 1064L336 1064L336 1064L336 1036L336 1036Z" fill="#000000" fill-rule="nonzero" opacity="1" stroke="none"/>
<path d="M364 1036L392 1036L392 1036L392 1064L392 1064L364 1064L364 1064L364 1036L364 1036Z" fill="#000000" fill-rule="nonzero" opacity="1" stroke="none"/>
<path d="M420 1036L448 1036L448 1036L448 1064L448 1064L420 1064L420 1064L420 1036L420 1036Z" fill="#000000" fill-rule="nonzero" opacity="1" stroke="none"/>
<path d="M448 1036L476 1036L476 1036L476 1064L476 1064L448 1064L448 1064L448 1036L448 1036Z" fill="#000000" fill-rule="nonzero" opacity="1" stroke="none"/>
<path d="M504 1036L532 1036L532 1036L532 1064L532 1064L504 1064L504 1064L504 1036L504 1036Z" fill="#000000" fill-rule="nonzero" opacity="1" stroke="none"/>
<path d="M560 1036L588 1036L588 1036L588 1064L588 1064L560 1064L560 1064L560 1036L560 1036Z" fill="#000000" fill-rule="nonzero" opacity="1" stroke="none"/>
<path d="M588 1036L616 1036L616 1036L616 1064L616 1064L588 1064L588 1064L588 1036L588 1036Z" fill="#000000" fill-rule="nonzero" opacity="1" stroke="none"/>
<path d="M644 1036L672 1036L672 1036L672 1064L672 1064L644 1064L644 1064L644 1036L644 1036Z" fill="#000000" fill-rule="nonzero" opacity="1" stroke="none"/>
<path d="M700 1036L728 1036L728 1036L728 1064L728 1064L700 1064L700 1064L700 1036L700 1036Z" fill="#000000" fill-rule="nonzero" opacity="1" stroke="none"/>
<path d="M756 1036L784 1036L784 1036L784 1064L784 1064L756 1064L756 1064L756 1036L756 1036Z" fill="#000000" fill-rule="nonzero" opacity="1" stroke="none"/>
<path d="M784 1036L812 1036L812 1036L812 1064L812 1064L784 1064L784 1064L784 1036L784 1036Z" fill="#000000" fill-rule="nonzero" opacity="1" stroke="none"/>
<path d="M812 1036L840 1036L840 1036L840 1064L840 1064L812 1064L812 1064L812 1036L812 1036Z" fill="#000000" fill-rule="nonzero" opacity="1" stroke="none"/>
<path d="M840 1036L868 1036L868 1036L868 1064L868 1064L840 1064L840 1064L840 1036L840 1036Z" fill="#000000" fill-rule="nonzero" opacity="1" stroke="none"/>
<path d="M868 1036L896 1036L896 1036L896 1064L896 1064L868 1064L868 1064L868 1036L868 1036Z" fill="#000000" fill-rule="nonzero" opacity="1" stroke="none"/>
<path d="M952 1036L980 1036L980 1036L980 1064L980 1064L952 1064L952 1064L952 1036L952 1036Z" fill="#000000" fill-rule="nonzero" opacity="1" stroke="none"/>
<path d="M1036 1036L1064 1036L1064 1036L1064 1064L1064 1064L1036 1064L1036 1064L1036 1036L1036 1036Z" fill="#000000" fill-rule="nonzero" opacity="1" stroke="none"/>
<path d="M308 1064L336 1064L336 1064L336 1092L336 1092L308 1092L308 1092L308 1064L308 1064Z" fill="#000000" fill-rule="nonzero" opacity="1" stroke="none"/>
<path d="M448 1064L476 1064L476 1064L476 1092L476 1092L448 1092L448 1092L448 1064L448 1064Z" fill="#000000" fill-rule="nonzero" opacity="1" stroke="none"/>
<path d="M476 1064L504 1064L504 1064L504 1092L504 1092L476 1092L476 1092L476 1064L476 1064Z" fill="#000000" fill-rule="nonzero" opacity="1" stroke="none"/>
<path d="M532 1064L560 1064L560 1064L560 1092L560 1092L532 1092L532 1092L532 1064L532 1064Z" fill="#000000" fill-rule="nonzero" opacity="1" stroke="none"/>
<path d="M588 1064L616 1064L616 1064L616 1092L616 1092L588 1092L588 1092L588 1064L588 1064Z" fill="#000000" fill-rule="nonzero" opacity="1" stroke="none"/>
<path d="M616 1064L644 1064L644 1064L644 1092L644 1092L616 1092L616 1092L616 1064L616 1064Z" fill="#000000" fill-rule="nonzero" opacity="1" stroke="none"/>
<path d="M644 1064L672 1064L672 1064L672 1092L672 1092L644 1092L644 1092L644 1064L644 1064Z" fill="#000000" fill-rule="nonzero" opacity="1" stroke="none"/>
<path d="M672 1064L700 1064L700 1064L700 1092L700 1092L672 1092L672 1092L672 1064L672 1064Z" fill="#000000" fill-rule="nonzero" opacity="1" stroke="none"/>
<path d="M812 1064L840 1064L840 1064L840 1092L840 1092L812 1092L812 1092L812 1064L812 1064Z" fill="#000000" fill-rule="nonzero" opacity="1" stroke="none"/>
<path d="M840 1064L868 1064L868 1064L868 1092L868 1092L840 1092L840 1092L840 1064L840 1064Z" fill="#000000" fill-rule="nonzero" opacity="1" stroke="none"/>
<path d="M868 1064L896 1064L896 1064L896 1092L896 1092L868 1092L868 1092L868 1064L868 1064Z" fill="#000000" fill-rule="nonzero" opacity="1" stroke="none"/>
<path d="M924 1064L952 1064L952 1064L952 1092L952 1092L924 1092L924 1092L924 1064L924 1064Z" fill="#000000" fill-rule="nonzero" opacity="1" stroke="none"/>
<path d="M952 1064L980 1064L980 1064L980 1092L980 1092L952 1092L952 1092L952 1064L952 1064Z" fill="#000000" fill-rule="nonzero" opacity="1" stroke="none"/>
<path d="M1036 1064L1064 1064L1064 1064L1064 1092L1064 1092L1036 1092L1036 1092L1036 1064L1036 1064Z" fill="#000000" fill-rule="nonzero" opacity="1" stroke="none"/>
<path d="M1064 1064L1092 1064L1092 1064L1092 1092L1092 1092L1064 1092L1064 1092L1064 1064L1064 1064Z" fill="#000000" fill-rule="nonzero" opacity="1" stroke="none"/>
<g opacity="1">
<path d="M222.6 56L85.4 56L56 56L56 85.4L56 222.6L56 252L85.4 252L222.6 252L252 252L252 222.6L252 85.4L252 56L222.6 56ZM222.6 222.6L85.4 222.6L85.4 85.4L222.6 85.4L222.6 222.6Z" fill="#000000" fill-rule="nonzero" opacity="1" stroke="none"/>
</g>
<g opacity="1">
<path d="M1062.6 56L925.4 56L896 56L896 85.4L896 222.6L896 252L925.4 252L1062.6 252L1092 252L1092 222.6L1092 85.4L1092 56L1062.6 56ZM1062.6 222.6L925.4 222.6L925.4 85.4L1062.6 85.4L1062.6 222.6Z" fill="#000000" fill-rule="nonzero" opacity="1" stroke="none"/>
</g>
<g opacity="1">
<path d="M222.6 896L85.4 896L56 896L56 925.4L56 1062.6L56 1092L85.4 1092L222.6 1092L252 1092L252 1062.6L252 925.4L252 896L222.6 896ZM222.6 1062.6L85.4 1062.6L85.4 925.4L222.6 925.4L222.6 1062.6Z" fill="#000000" fill-rule="nonzero" opacity="1" stroke="none"/>
</g>
<path d="M112 112L196 112L196 112L196 196L196 196L112 196L112 196L112 112L112 112Z" fill="#000000" fill-rule="nonzero" opacity="1" stroke="none"/>
<path d="M952 112L1036 112L1036 112L1036 196L1036 196L952 196L952 196L952 112L952 112Z" fill="#000000" fill-rule="nonzero" opacity="1" stroke="none"/>
<path d="M112 952L196 952L196 952L196 1036L196 1036L112 1036L112 1036L112 952L112 952Z" fill="#000000" fill-rule="nonzero" opacity="1" stroke="none"/>
<path d="M573.541 423.143C488.637 423.143 420 492.286 420 577.825C420 646.201 463.978 704.08 524.987 724.565C532.615 726.105 535.409 721.237 535.409 717.141C535.409 713.555 535.157 701.264 535.157 688.457C492.446 697.678 483.552 670.017 483.552 670.017C476.688 652.091 466.517 647.483 466.517 647.483C452.538 638.007 467.536 638.007 467.536 638.007C483.043 639.032 491.179 653.885 491.179 653.885C504.904 677.444 527.021 670.787 535.918 666.689C537.188 656.701 541.258 649.787 545.579 645.946C511.514 642.36 475.673 629.044 475.673 569.628C475.673 552.726 481.77 538.897 491.431 528.143C489.907 524.302 484.567 508.421 492.958 487.166C492.958 487.166 505.923 483.068 535.154 503.044C547.669 499.658 560.576 497.935 573.541 497.921C586.505 497.921 599.721 499.715 611.925 503.044C641.16 483.068 654.124 487.166 654.124 487.166C662.515 508.421 657.173 524.302 655.648 528.143C665.564 538.897 671.41 552.726 671.41 569.628C671.41 629.044 635.569 642.103 601.249 645.946C606.843 650.811 611.67 660.029 611.67 674.628C611.67 695.371 611.419 712.019 611.419 717.138C611.419 721.237 614.216 726.105 621.841 724.568C682.85 704.077 726.828 646.201 726.828 577.825C727.079 492.286 658.191 423.143 573.541 423.143Z" fill="#000000" fill-rule="evenodd" opacity="1" stroke="none"/>
</g>
</g>
</svg>
