<?xml version="1.0" encoding="UTF-8" standalone="no"?>
<!DOCTYPE svg PUBLIC "-//W3C//DTD SVG 1.1//EN" "http://www.w3.org/Graphics/SVG/1.1/DTD/svg11.dtd">
<!-- Created with Vectornator (http://vectornator.io/) -->
<svg height="100%" stroke-miterlimit="10" style="fill-rule:nonzero;clip-rule:evenodd;stroke-linecap:round;stroke-linejoin:round;" version="1.1" viewBox="0 0 1147 1147" width="100%" xml:space="preserve" xmlns="http://www.w3.org/2000/svg" xmlns:vectornator="http://vectornator.io" xmlns:xlink="http://www.w3.org/1999/xlink">
<defs/>
<g id="Untitled" vectornator:layerName="Untitled">
<path d="M0 0L1147 0L1147 0L1147 1147L1147 1147L0 1147L0 1147L0 0L0 0Z" fill="#ffffff" fill-rule="nonzero" opacity="1" stroke="none"/>
<g opacity="1">
<path d="M341 62L372 62L372 62L372 93L372 93L341 93L341 93L341 62L341 62Z" fill="#000000" fill-rule="nonzero" opacity="1" stroke="none"/>
<path d="M403 62L434 62L434 62L434 93L434 93L403 93L403 93L403 62L403 62Z" fill="#000000" fill-rule="nonzero" opacity="1" stroke="none"/>
<path d="M465 62L496 62L496 62L496 93L496 93L465 93L465 93L465 62L465 62Z" fill="#000000" fill-rule="nonzero" opacity="1" stroke="none"/>
<path d="M496 62L527 62L527 62L527 93L527 93L496 93L496 93L496 62L496 62Z" fill="#000000" fill-rule="nonzero" opacity="1" stroke="none"/>
<path d="M620 62L651 62L651 62L651 93L651 93L620 93L620 93L620 62L620 62Z" fill="#000000" fill-rule="nonzero" opacity="1" stroke="none"/>
<path d="M713 62L744 62L744 62L744 93L744 93L713 93L713 93L713 62L713 62Z" fill="#000000" fill-rule="nonzero" opacity="1" stroke="none"/>
<path d="M744 62L775 62L775 62L775 93L775 93L744 93L744 93L744 62L744 62Z" fill="#000000" fill-rule="nonzero" opacity="1" stroke="none"/>
<path d="M806 62L837 62L837 62L837 93L837 93L806 93L806 93L806 62L806 62Z" fill="#000000" fill-rule="nonzero" opacity="1" stroke="none"/>
<path d="M310 93L341 93L341 93L341 124L341 124L310 124L310 124L310 93L310 93Z" fill="#000000" fill-rule="nonzero" opacity="1" stroke="none"/>
<path d="M341 93L372 93L372 93L372 124L372 124L341 124L341 124L341 93L341 93Z" fill="#000000" fill-rule="nonzero" opacity="1" stroke="none"/>
<path d="M496 93L527 93L527 93L527 124L527 124L496 124L496 124L496 93L496 93Z" fill="#000000" fill-rule="nonzero" opacity="1" stroke="none"/>
<path d="M527 93L558 93L558 93L558 124L558 124L527 124L527 124L527 93L527 93Z" fill="#000000" fill-rule="nonzero" opacity="1" stroke="none"/>
<path d="M558 93L589 93L589 93L589 124L589 124L558 124L558 124L558 93L558 93Z" fill="#000000" fill-rule="nonzero" opacity="1" stroke="none"/>
<path d="M589 93L620 93L620 93L620 124L620 124L589 124L589 124L589 93L589 93Z" fill="#000000" fill-rule="nonzero" opacity="1" stroke="none"/>
<path d="M651 93L682 93L682 93L682 124L682 124L651 124L651 124L651 93L651 93Z" fill="#000000" fill-rule="nonzero" opacity="1" stroke="none"/>
<path d="M744 93L775 93L775 93L775 124L775 124L744 124L744 124L744 93L744 93Z" fill="#000000" fill-rule="nonzero" opacity="1" stroke="none"/>
<path d="M310 124L341 124L341 124L341 155L341 155L310 155L310 155L310 124L310 124Z" fill="#000000" fill-rule="nonzero" opacity="1" stroke="none"/>
<path d="M372 124L403 124L403 124L403 155L403 155L372 155L372 155L372 124L372 124Z" fill="#000000" fill-rule="nonzero" opacity="1" stroke="none"/>
<path d="M403 124L434 124L434 124L434 155L434 155L403 155L403 155L403 124L403 124Z" fill="#000000" fill-rule="nonzero" opacity="1" stroke="none"/>
<path d="M434 124L465 124L465 124L465 155L465 155L434 155L434 155L434 124L434 124Z" fill="#000000" fill-rule="nonzero" opacity="1" stroke="none"/>
<path d="M620 124L651 124L651 124L651 155L651 155L620 155L620 155L620 124L620 124Z" fill="#000000" fill-rule="nonzero" opacity="1" stroke="none"/>
<path d="M651 124L682 124L682 124L682 155L682 155L651 155L651 155L651 124L651 124Z" fill="#000000" fill-rule="nonzero" opacity="1" stroke="none"/>
<path d="M682 124L713 124L713 124L713 155L713 155L682 155L682 155L682 124L682 124Z" fill="#000000" fill-rule="nonzero" opacity="1" stroke="none"/>
<path d="M713 124L744 124L744 124L744 155L744 155L713 155L713 155L713 124L713 124Z" fill="#000000" fill-rule="nonzero" opacity="1" stroke="none"/>
<path d="M806 124L837 124L837 124L837 155L837 155L806 155L806 155L806 124L806 124Z" fill="#000000" fill-rule="nonzero" opacity="1" stroke="none"/>
<path d="M310 155L341 155L341 155L341 186L341 186L310 186L310 186L310 155L310 155Z" fill="#000000" fill-rule="nonzero" opacity="1" stroke="none"/>
<path d="M341 155L372 155L372 155L372 186L372 186L341 186L341 186L341 155L341 155Z" fill="#000000" fill-rule="nonzero" opacity="1" stroke="none"/>
<path d="M372 155L403 155L403 155L403 186L403 186L372 186L372 186L372 155L372 155Z" fill="#000000" fill-rule="nonzero" opacity="1" stroke="none"/>
<path d="M434 155L465 155L465 155L465 186L465 186L434 186L434 186L434 155L434 155Z" fill="#000000" fill-rule="nonzero" opacity="1" stroke="none"/>
<path d="M589 155L620 155L620 155L620 186L620 186L589 186L589 186L589 155L589 155Z" fill="#000000" fill-rule="nonzero" opacity="1" stroke="none"/>
<path d="M620 155L651 155L651 155L651 186L651 186L620 186L620 186L620 155L620 155Z" fill="#000000" fill-rule="nonzero" opacity="1" stroke="none"/>
<path d="M651 155L682 155L682 155L682 186L682 186L651 186L651 186L651 155L651 155Z" fill="#000000" fill-rule="nonzero" opacity="1" stroke="none"/>
<path d="M682 155L713 155L713 155L713 186L713 186L682 186L682 186L682 155L682 155Z" fill="#000000" fill-rule="nonzero" opacity="1" stroke="none"/>
<path d="M713 155L744 155L744 155L744 186L744 186L713 186L713 186L713 155L713 155Z" fill="#000000" fill-rule="nonzero" opacity="1" stroke="none"/>
<path d="M775 155L806 155L806 155L806 186L806 186L775 186L775 186L775 155L775 155Z" fill="#000000" fill-rule="nonzero" opacity="1" stroke="none"/>
<path d="M310 186L341 186L341 186L341 217L341 217L310 217L310 217L310 186L310 186Z" fill="#000000" fill-rule="nonzero" opacity="1" stroke="none"/>
<path d="M403 186L434 186L434 186L434 217L434 217L403 217L403 217L403 186L403 186Z" fill="#000000" fill-rule="nonzero" opacity="1" stroke="none"/>
<path d="M434 186L465 186L465 186L465 217L465 217L434 217L434 217L434 186L434 186Z" fill="#000000" fill-rule="nonzero" opacity="1" stroke="none"/>
<path d="M496 186L527 186L527 186L527 217L527 217L496 217L496 217L496 186L496 186Z" fill="#000000" fill-rule="nonzero" opacity="1" stroke="none"/>
<path d="M558 186L589 186L589 186L589 217L589 217L558 217L558 217L558 186L558 186Z" fill="#000000" fill-rule="nonzero" opacity="1" stroke="none"/>
<path d="M744 186L775 186L775 186L775 217L775 217L744 217L744 217L744 186L744 186Z" fill="#000000" fill-rule="nonzero" opacity="1" stroke="none"/>
<path d="M775 186L806 186L806 186L806 217L806 217L775 217L775 217L775 186L775 186Z" fill="#000000" fill-rule="nonzero" opacity="1" stroke="none"/>
<path d="M806 186L837 186L837 186L837 217L837 217L806 217L806 217L806 186L806 186Z" fill="#000000" fill-rule="nonzero" opacity="1" stroke="none"/>
<path d="M310 217L341 217L341 217L341 248L341 248L310 248L310 248L310 217L310 217Z" fill="#000000" fill-rule="nonzero" opacity="1" stroke="none"/>
<path d="M496 217L527 217L527 217L527 248L527 248L496 248L496 248L496 217L496 217Z" fill="#000000" fill-rule="nonzero" opacity="1" stroke="none"/>
<path d="M589 217L620 217L620 217L620 248L620 248L589 248L589 248L589 217L589 217Z" fill="#000000" fill-rule="nonzero" opacity="1" stroke="none"/>
<path d="M682 217L713 217L713 217L713 248L713 248L682 248L682 248L682 217L682 217Z" fill="#000000" fill-rule="nonzero" opacity="1" stroke="none"/>
<path d="M744 217L775 217L775 217L775 248L775 248L744 248L744 248L744 217L744 217Z" fill="#000000" fill-rule="nonzero" opacity="1" stroke="none"/>
<path d="M806 217L837 217L837 217L837 248L837 248L806 248L806 248L806 217L806 217Z" fill="#000000" fill-rule="nonzero" opacity="1" stroke="none"/>
<path d="M310 248L341 248L341 248L341 279L341 279L310 279L310 279L310 248L310 248Z" fill="#000000" fill-rule="nonzero" opacity="1" stroke="none"/>
<path d="M372 248L403 248L403 248L403 279L403 279L372 279L372 279L372 248L372 248Z" fill="#000000" fill-rule="nonzero" opacity="1" stroke="none"/>
<path d="M434 248L465 248L465 248L465 279L465 279L434 279L434 279L434 248L434 248Z" fill="#000000" fill-rule="nonzero" opacity="1" stroke="none"/>
<path d="M496 248L527 248L527 248L527 279L527 279L496 279L496 279L496 248L496 248Z" fill="#000000" fill-rule="nonzero" opacity="1" stroke="none"/>
<path d="M558 248L589 248L589 248L589 279L589 279L558 279L558 279L558 248L558 248Z" fill="#000000" fill-rule="nonzero" opacity="1" stroke="none"/>
<path d="M620 248L651 248L651 248L651 279L651 279L620 279L620 279L620 248L620 248Z" fill="#000000" fill-rule="nonzero" opacity="1" stroke="none"/>
<path d="M682 248L713 248L713 248L713 279L713 279L682 279L682 279L682 248L682 248Z" fill="#000000" fill-rule="nonzero" opacity="1" stroke="none"/>
<path d="M744 248L775 248L775 248L775 279L775 279L744 279L744 279L744 248L744 248Z" fill="#000000" fill-rule="nonzero" opacity="1" stroke="none"/>
<path d="M806 248L837 248L837 248L837 279L837 279L806 279L806 279L806 248L806 248Z" fill="#000000" fill-rule="nonzero" opacity="1" stroke="none"/>
<path d="M372 279L403 279L403 279L403 310L403 310L372 310L372 310L372 279L372 279Z" fill="#000000" fill-rule="nonzero" opacity="1" stroke="none"/>
<path d="M465 279L496 279L496 279L496 310L496 310L465 310L465 310L465 279L465 279Z" fill="#000000" fill-rule="nonzero" opacity="1" stroke="none"/>
<path d="M527 279L558 279L558 279L558 310L558 310L527 310L527 310L527 279L527 279Z" fill="#000000" fill-rule="nonzero" opacity="1" stroke="none"/>
<path d="M682 279L713 279L713 279L713 310L713 310L682 310L682 310L682 279L682 279Z" fill="#000000" fill-rule="nonzero" opacity="1" stroke="none"/>
<path d="M124 310L155 310L155 310L155 341L155 341L124 341L124 341L124 310L124 310Z" fill="#000000" fill-rule="nonzero" opacity="1" stroke="none"/>
<path d="M217 310L248 310L248 310L248 341L248 341L217 341L217 341L217 310L217 310Z" fill="#000000" fill-rule="nonzero" opacity="1" stroke="none"/>
<path d="M248 310L279 310L279 310L279 341L279 341L248 341L248 341L248 310L248 310Z" fill="#000000" fill-rule="nonzero" opacity="1" stroke="none"/>
<path d="M279 310L310 310L310 310L310 341L310 341L279 341L279 341L279 310L279 310Z" fill="#000000" fill-rule="nonzero" opacity="1" stroke="none"/>
<path d="M310 310L341 310L341 310L341 341L341 341L310 341L310 341L310 310L310 310Z" fill="#000000" fill-rule="nonzero" opacity="1" stroke="none"/>
<path d="M403 310L434 310L434 310L434 341L434 341L403 341L403 341L403 310L403 310Z" fill="#000000" fill-rule="nonzero" opacity="1" stroke="none"/>
<path d="M434 310L465 310L465 310L465 341L465 341L434 341L434 341L434 310L434 310Z" fill="#000000" fill-rule="nonzero" opacity="1" stroke="none"/>
<path d="M465 310L496 310L496 310L496 341L496 341L465 341L465 341L465 310L465 310Z" fill="#000000" fill-rule="nonzero" opacity="1" stroke="none"/>
<path d="M496 310L527 310L527 310L527 341L527 341L496 341L496 341L496 310L496 310Z" fill="#000000" fill-rule="nonzero" opacity="1" stroke="none"/>
<path d="M558 310L589 310L589 310L589 341L589 341L558 341L558 341L558 310L558 310Z" fill="#000000" fill-rule="nonzero" opacity="1" stroke="none"/>
<path d="M620 310L651 310L651 310L651 341L651 341L620 341L620 341L620 310L620 310Z" fill="#000000" fill-rule="nonzero" opacity="1" stroke="none"/>
<path d="M651 310L682 310L682 310L682 341L682 341L651 341L651 341L651 310L651 310Z" fill="#000000" fill-rule="nonzero" opacity="1" stroke="none"/>
<path d="M806 310L837 310L837 310L837 341L837 341L806 341L806 341L806 310L806 310Z" fill="#000000" fill-rule="nonzero" opacity="1" stroke="none"/>
<path d="M837 310L868 310L868 310L868 341L868 341L837 341L837 341L837 310L837 310Z" fill="#000000" fill-rule="nonzero" opacity="1" stroke="none"/>
<path d="M899 310L930 310L930 310L930 341L930 341L899 341L899 341L899 310L899 310Z" fill="#000000" fill-rule="nonzero" opacity="1" stroke="none"/>
<path d="M930 310L961 310L961 310L961 341L961 341L930 341L930 341L930 310L930 310Z" fill="#000000" fill-rule="nonzero" opacity="1" stroke="none"/>
<path d="M961 310L992 310L992 310L992 341L992 341L961 341L961 341L961 310L961 310Z" fill="#000000" fill-rule="nonzero" opacity="1" stroke="none"/>
<path d="M992 310L1023 310L1023 310L1023 341L1023 341L992 341L992 341L992 310L992 310Z" fill="#000000" fill-rule="nonzero" opacity="1" stroke="none"/>
<path d="M1023 310L1054 310L1054 310L1054 341L1054 341L1023 341L1023 341L1023 310L1023 310Z" fill="#000000" fill-rule="nonzero" opacity="1" stroke="none"/>
<path d="M62 341L93 341L93 341L93 372L93 372L62 372L62 372L62 341L62 341Z" fill="#000000" fill-rule="nonzero" opacity="1" stroke="none"/>
<path d="M155 341L186 341L186 341L186 372L186 372L155 372L155 372L155 341L155 341Z" fill="#000000" fill-rule="nonzero" opacity="1" stroke="none"/>
<path d="M279 341L310 341L310 341L310 372L310 372L279 372L279 372L279 341L279 341Z" fill="#000000" fill-rule="nonzero" opacity="1" stroke="none"/>
<path d="M310 341L341 341L341 341L341 372L341 372L310 372L310 372L310 341L310 341Z" fill="#000000" fill-rule="nonzero" opacity="1" stroke="none"/>
<path d="M341 341L372 341L372 341L372 372L372 372L341 372L341 372L341 341L341 341Z" fill="#000000" fill-rule="nonzero" opacity="1" stroke="none"/>
<path d="M496 341L527 341L527 341L527 372L527 372L496 372L496 372L496 341L496 341Z" fill="#000000" fill-rule="nonzero" opacity="1" stroke="none"/>
<path d="M558 341L589 341L589 341L589 372L589 372L558 372L558 372L558 341L558 341Z" fill="#000000" fill-rule="nonzero" opacity="1" stroke="none"/>
<path d="M589 341L620 341L620 341L620 372L620 372L589 372L589 372L589 341L589 341Z" fill="#000000" fill-rule="nonzero" opacity="1" stroke="none"/>
<path d="M651 341L682 341L682 341L682 372L682 372L651 372L651 372L651 341L651 341Z" fill="#000000" fill-rule="nonzero" opacity="1" stroke="none"/>
<path d="M682 341L713 341L713 341L713 372L713 372L682 372L682 372L682 341L682 341Z" fill="#000000" fill-rule="nonzero" opacity="1" stroke="none"/>
<path d="M713 341L744 341L744 341L744 372L744 372L713 372L713 372L713 341L713 341Z" fill="#000000" fill-rule="nonzero" opacity="1" stroke="none"/>
<path d="M744 341L775 341L775 341L775 372L775 372L744 372L744 372L744 341L744 341Z" fill="#000000" fill-rule="nonzero" opacity="1" stroke="none"/>
<path d="M775 341L806 341L806 341L806 372L806 372L775 372L775 372L775 341L775 341Z" fill="#000000" fill-rule="nonzero" opacity="1" stroke="none"/>
<path d="M806 341L837 341L837 341L837 372L837 372L806 372L806 372L806 341L806 341Z" fill="#000000" fill-rule="nonzero" opacity="1" stroke="none"/>
<path d="M837 341L868 341L868 341L868 372L868 372L837 372L837 372L837 341L837 341Z" fill="#000000" fill-rule="nonzero" opacity="1" stroke="none"/>
<path d="M868 341L899 341L899 341L899 372L899 372L868 372L868 372L868 341L868 341Z" fill="#000000" fill-rule="nonzero" opacity="1" stroke="none"/>
<path d="M899 341L930 341L930 341L930 372L930 372L899 372L899 372L899 341L899 341Z" fill="#000000" fill-rule="nonzero" opacity="1" stroke="none"/>
<path d="M961 341L992 341L992 341L992 372L992 372L961 372L961 372L961 341L961 341Z" fill="#000000" fill-rule="nonzero" opacity="1" stroke="none"/>
<path d="M992 341L1023 341L1023 341L1023 372L1023 372L992 372L992 372L992 341L992 341Z" fill="#000000" fill-rule="nonzero" opacity="1" stroke="none"/>
<path d="M1054 341L1085 341L1085 341L1085 372L1085 372L1054 372L1054 372L1054 341L1054 341Z" fill="#000000" fill-rule="nonzero" opacity="1" stroke="none"/>
<path d="M62 372L93 372L93 372L93 403L93 403L62 403L62 403L62 372L62 372Z" fill="#000000" fill-rule="nonzero" opacity="1" stroke="none"/>
<path d="M93 372L124 372L124 372L124 403L124 403L93 403L93 403L93 372L93 372Z" fill="#000000" fill-rule="nonzero" opacity="1" stroke="none"/>
<path d="M124 372L155 372L155 372L155 403L155 403L124 403L124 403L124 372L124 372Z" fill="#000000" fill-rule="nonzero" opacity="1" stroke="none"/>
<path d="M155 372L186 372L186 372L186 403L186 403L155 403L155 403L155 372L155 372Z" fill="#000000" fill-rule="nonzero" opacity="1" stroke="none"/>
<path d="M186 372L217 372L217 372L217 403L217 403L186 403L186 403L186 372L186 372Z" fill="#000000" fill-rule="nonzero" opacity="1" stroke="none"/>
<path d="M217 372L248 372L248 372L248 403L248 403L217 403L217 403L217 372L217 372Z" fill="#000000" fill-rule="nonzero" opacity="1" stroke="none"/>
<path d="M248 372L279 372L279 372L279 403L279 403L248 403L248 403L248 372L248 372Z" fill="#000000" fill-rule="nonzero" opacity="1" stroke="none"/>
<path d="M341 372L372 372L372 372L372 403L372 403L341 403L341 403L341 372L341 372Z" fill="#000000" fill-rule="nonzero" opacity="1" stroke="none"/>
<path d="M372 372L403 372L403 372L403 403L403 403L372 403L372 403L372 372L372 372Z" fill="#000000" fill-rule="nonzero" opacity="1" stroke="none"/>
<path d="M465 372L496 372L496 372L496 403L496 403L465 403L465 403L465 372L465 372Z" fill="#000000" fill-rule="nonzero" opacity="1" stroke="none"/>
<path d="M496 372L527 372L527 372L527 403L527 403L496 403L496 403L496 372L496 372Z" fill="#000000" fill-rule="nonzero" opacity="1" stroke="none"/>
<path d="M620 372L651 372L651 372L651 403L651 403L620 403L620 403L620 372L620 372Z" fill="#000000" fill-rule="nonzero" opacity="1" stroke="none"/>
<path d="M651 372L682 372L682 372L682 403L682 403L651 403L651 403L651 372L651 372Z" fill="#000000" fill-rule="nonzero" opacity="1" stroke="none"/>
<path d="M775 372L806 372L806 372L806 403L806 403L775 403L775 403L775 372L775 372Z" fill="#000000" fill-rule="nonzero" opacity="1" stroke="none"/>
<path d="M868 372L899 372L899 372L899 403L899 403L868 403L868 403L868 372L868 372Z" fill="#000000" fill-rule="nonzero" opacity="1" stroke="none"/>
<path d="M899 372L930 372L930 372L930 403L930 403L899 403L899 403L899 372L899 372Z" fill="#000000" fill-rule="nonzero" opacity="1" stroke="none"/>
<path d="M930 372L961 372L961 372L961 403L961 403L930 403L930 403L930 372L930 372Z" fill="#000000" fill-rule="nonzero" opacity="1" stroke="none"/>
<path d="M1054 372L1085 372L1085 372L1085 403L1085 403L1054 403L1054 403L1054 372L1054 372Z" fill="#000000" fill-rule="nonzero" opacity="1" stroke="none"/>
<path d="M93 403L124 403L124 403L124 434L124 434L93 434L93 434L93 403L93 403Z" fill="#000000" fill-rule="nonzero" opacity="1" stroke="none"/>
<path d="M124 403L155 403L155 403L155 434L155 434L124 434L124 434L124 403L124 403Z" fill="#000000" fill-rule="nonzero" opacity="1" stroke="none"/>
<path d="M186 403L217 403L217 403L217 434L217 434L186 434L186 434L186 403L186 403Z" fill="#000000" fill-rule="nonzero" opacity="1" stroke="none"/>
<path d="M217 403L248 403L248 403L248 434L248 434L217 434L217 434L217 403L217 403Z" fill="#000000" fill-rule="nonzero" opacity="1" stroke="none"/>
<path d="M372 403L403 403L403 403L403 434L403 434L372 434L372 434L372 403L372 403Z" fill="#000000" fill-rule="nonzero" opacity="1" stroke="none"/>
<path d="M899 403L930 403L930 403L930 434L930 434L899 434L899 434L899 403L899 403Z" fill="#000000" fill-rule="nonzero" opacity="1" stroke="none"/>
<path d="M961 403L992 403L992 403L992 434L992 434L961 434L961 434L961 403L961 403Z" fill="#000000" fill-rule="nonzero" opacity="1" stroke="none"/>
<path d="M1023 403L1054 403L1054 403L1054 434L1054 434L1023 434L1023 434L1023 403L1023 403Z" fill="#000000" fill-rule="nonzero" opacity="1" stroke="none"/>
<path d="M62 434L93 434L93 434L93 465L93 465L62 465L62 465L62 434L62 434Z" fill="#000000" fill-rule="nonzero" opacity="1" stroke="none"/>
<path d="M124 434L155 434L155 434L155 465L155 465L124 465L124 465L124 434L124 434Z" fill="#000000" fill-rule="nonzero" opacity="1" stroke="none"/>
<path d="M155 434L186 434L186 434L186 465L186 465L155 465L155 465L155 434L155 434Z" fill="#000000" fill-rule="nonzero" opacity="1" stroke="none"/>
<path d="M186 434L217 434L217 434L217 465L217 465L186 465L186 465L186 434L186 434Z" fill="#000000" fill-rule="nonzero" opacity="1" stroke="none"/>
<path d="M248 434L279 434L279 434L279 465L279 465L248 465L248 465L248 434L248 434Z" fill="#000000" fill-rule="nonzero" opacity="1" stroke="none"/>
<path d="M279 434L310 434L310 434L310 465L310 465L279 465L279 465L279 434L279 434Z" fill="#000000" fill-rule="nonzero" opacity="1" stroke="none"/>
<path d="M372 434L403 434L403 434L403 465L403 465L372 465L372 465L372 434L372 434Z" fill="#000000" fill-rule="nonzero" opacity="1" stroke="none"/>
<path d="M775 434L806 434L806 434L806 465L806 465L775 465L775 465L775 434L775 434Z" fill="#000000" fill-rule="nonzero" opacity="1" stroke="none"/>
<path d="M806 434L837 434L837 434L837 465L837 465L806 465L806 465L806 434L806 434Z" fill="#000000" fill-rule="nonzero" opacity="1" stroke="none"/>
<path d="M868 434L899 434L899 434L899 465L899 465L868 465L868 465L868 434L868 434Z" fill="#000000" fill-rule="nonzero" opacity="1" stroke="none"/>
<path d="M899 434L930 434L930 434L930 465L930 465L899 465L899 465L899 434L899 434Z" fill="#000000" fill-rule="nonzero" opacity="1" stroke="none"/>
<path d="M961 434L992 434L992 434L992 465L992 465L961 465L961 465L961 434L961 434Z" fill="#000000" fill-rule="nonzero" opacity="1" stroke="none"/>
<path d="M1023 434L1054 434L1054 434L1054 465L1054 465L1023 465L1023 465L1023 434L1023 434Z" fill="#000000" fill-rule="nonzero" opacity="1" stroke="none"/>
<path d="M62 465L93 465L93 465L93 496L93 496L62 496L62 496L62 465L62 465Z" fill="#000000" fill-rule="nonzero" opacity="1" stroke="none"/>
<path d="M124 465L155 465L155 465L155 496L155 496L124 496L124 496L124 465L124 465Z" fill="#000000" fill-rule="nonzero" opacity="1" stroke="none"/>
<path d="M155 465L186 465L186 465L186 496L186 496L155 496L155 496L155 465L155 465Z" fill="#000000" fill-rule="nonzero" opacity="1" stroke="none"/>
<path d="M186 465L217 465L217 465L217 496L217 496L186 496L186 496L186 465L186 465Z" fill="#000000" fill-rule="nonzero" opacity="1" stroke="none"/>
<path d="M341 465L372 465L372 465L372 496L372 496L341 496L341 496L341 465L341 465Z" fill="#000000" fill-rule="nonzero" opacity="1" stroke="none"/>
<path d="M372 465L403 465L403 465L403 496L403 496L372 496L372 496L372 465L372 465Z" fill="#000000" fill-rule="nonzero" opacity="1" stroke="none"/>
<path d="M775 465L806 465L806 465L806 496L806 496L775 496L775 496L775 465L775 465Z" fill="#000000" fill-rule="nonzero" opacity="1" stroke="none"/>
<path d="M806 465L837 465L837 465L837 496L837 496L806 496L806 496L806 465L806 465Z" fill="#000000" fill-rule="nonzero" opacity="1" stroke="none"/>
<path d="M837 465L868 465L868 465L868 496L868 496L837 496L837 496L837 465L837 465Z" fill="#000000" fill-rule="nonzero" opacity="1" stroke="none"/>
<path d="M868 465L899 465L899 465L899 496L899 496L868 496L868 496L868 465L868 465Z" fill="#000000" fill-rule="nonzero" opacity="1" stroke="none"/>
<path d="M899 465L930 465L930 465L930 496L930 496L899 496L899 496L899 465L899 465Z" fill="#000000" fill-rule="nonzero" opacity="1" stroke="none"/>
<path d="M992 465L1023 465L1023 465L1023 496L1023 496L992 496L992 496L992 465L992 465Z" fill="#000000" fill-rule="nonzero" opacity="1" stroke="none"/>
<path d="M1054 465L1085 465L1085 465L1085 496L1085 496L1054 496L1054 496L1054 465L1054 465Z" fill="#000000" fill-rule="nonzero" opacity="1" stroke="none"/>
<path d="M62 496L93 496L93 496L93 527L93 527L62 527L62 527L62 496L62 496Z" fill="#000000" fill-rule="nonzero" opacity="1" stroke="none"/>
<path d="M124 496L155 496L155 496L155 527L155 527L124 527L124 527L124 496L124 496Z" fill="#000000" fill-rule="nonzero" opacity="1" stroke="none"/>
<path d="M155 496L186 496L186 496L186 527L186 527L155 527L155 527L155 496L155 496Z" fill="#000000" fill-rule="nonzero" opacity="1" stroke="none"/>
<path d="M248 496L279 496L279 496L279 527L279 527L248 527L248 527L248 496L248 496Z" fill="#000000" fill-rule="nonzero" opacity="1" stroke="none"/>
<path d="M279 496L310 496L310 496L310 527L310 527L279 527L279 527L279 496L279 496Z" fill="#000000" fill-rule="nonzero" opacity="1" stroke="none"/>
<path d="M310 496L341 496L341 496L341 527L341 527L310 527L310 527L310 496L310 496Z" fill="#000000" fill-rule="nonzero" opacity="1" stroke="none"/>
<path d="M372 496L403 496L403 496L403 527L403 527L372 527L372 527L372 496L372 496Z" fill="#000000" fill-rule="nonzero" opacity="1" stroke="none"/>
<path d="M775 496L806 496L806 496L806 527L806 527L775 527L775 527L775 496L775 496Z" fill="#000000" fill-rule="nonzero" opacity="1" stroke="none"/>
<path d="M806 496L837 496L837 496L837 527L837 527L806 527L806 527L806 496L806 496Z" fill="#000000" fill-rule="nonzero" opacity="1" stroke="none"/>
<path d="M837 496L868 496L868 496L868 527L868 527L837 527L837 527L837 496L837 496Z" fill="#000000" fill-rule="nonzero" opacity="1" stroke="none"/>
<path d="M868 496L899 496L899 496L899 527L899 527L868 527L868 527L868 496L868 496Z" fill="#000000" fill-rule="nonzero" opacity="1" stroke="none"/>
<path d="M961 496L992 496L992 496L992 527L992 527L961 527L961 527L961 496L961 496Z" fill="#000000" fill-rule="nonzero" opacity="1" stroke="none"/>
<path d="M992 496L1023 496L1023 496L1023 527L1023 527L992 527L992 527L992 496L992 496Z" fill="#000000" fill-rule="nonzero" opacity="1" stroke="none"/>
<path d="M1054 496L1085 496L1085 496L1085 527L1085 527L1054 527L1054 527L1054 496L1054 496Z" fill="#000000" fill-rule="nonzero" opacity="1" stroke="none"/>
<path d="M62 527L93 527L93 527L93 558L93 558L62 558L62 558L62 527L62 527Z" fill="#000000" fill-rule="nonzero" opacity="1" stroke="none"/>
<path d="M93 527L124 527L124 527L124 558L124 558L93 558L93 558L93 527L93 527Z" fill="#000000" fill-rule="nonzero" opacity="1" stroke="none"/>
<path d="M124 527L155 527L155 527L155 558L155 558L124 558L124 558L124 527L124 527Z" fill="#000000" fill-rule="nonzero" opacity="1" stroke="none"/>
<path d="M155 527L186 527L186 527L186 558L186 558L155 558L155 558L155 527L155 527Z" fill="#000000" fill-rule="nonzero" opacity="1" stroke="none"/>
<path d="M310 527L341 527L341 527L341 558L341 558L310 558L310 558L310 527L310 527Z" fill="#000000" fill-rule="nonzero" opacity="1" stroke="none"/>
<path d="M341 527L372 527L372 527L372 558L372 558L341 558L341 558L341 527L341 527Z" fill="#000000" fill-rule="nonzero" opacity="1" stroke="none"/>
<path d="M372 527L403 527L403 527L403 558L403 558L372 558L372 558L372 527L372 527Z" fill="#000000" fill-rule="nonzero" opacity="1" stroke="none"/>
<path d="M744 527L775 527L775 527L775 558L775 558L744 558L744 558L744 527L744 527Z" fill="#000000" fill-rule="nonzero" opacity="1" stroke="none"/>
<path d="M775 527L806 527L806 527L806 558L806 558L775 558L775 558L775 527L775 527Z" fill="#000000" fill-rule="nonzero" opacity="1" stroke="none"/>
<path d="M961 527L992 527L992 527L992 558L992 558L961 558L961 558L961 527L961 527Z" fill="#000000" fill-rule="nonzero" opacity="1" stroke="none"/>
<path d="M124 558L155 558L155 558L155 589L155 589L124 589L124 589L124 558L124 558Z" fill="#000000" fill-rule="nonzero" opacity="1" stroke="none"/>
<path d="M155 558L186 558L186 558L186 589L186 589L155 589L155 589L155 558L155 558Z" fill="#000000" fill-rule="nonzero" opacity="1" stroke="none"/>
<path d="M186 558L217 558L217 558L217 589L217 589L186 589L186 589L186 558L186 558Z" fill="#000000" fill-rule="nonzero" opacity="1" stroke="none"/>
<path d="M217 558L248 558L248 558L248 589L248 589L217 589L217 589L217 558L217 558Z" fill="#000000" fill-rule="nonzero" opacity="1" stroke="none"/>
<path d="M248 558L279 558L279 558L279 589L279 589L248 589L248 589L248 558L248 558Z" fill="#000000" fill-rule="nonzero" opacity="1" stroke="none"/>
<path d="M279 558L310 558L310 558L310 589L310 589L279 589L279 589L279 558L279 558Z" fill="#000000" fill-rule="nonzero" opacity="1" stroke="none"/>
<path d="M310 558L341 558L341 558L341 589L341 589L310 589L310 589L310 558L310 558Z" fill="#000000" fill-rule="nonzero" opacity="1" stroke="none"/>
<path d="M372 558L403 558L403 558L403 589L403 589L372 589L372 589L372 558L372 558Z" fill="#000000" fill-rule="nonzero" opacity="1" stroke="none"/>
<path d="M744 558L775 558L775 558L775 589L775 589L744 589L744 589L744 558L744 558Z" fill="#000000" fill-rule="nonzero" opacity="1" stroke="none"/>
<path d="M775 558L806 558L806 558L806 589L806 589L775 589L775 589L775 558L775 558Z" fill="#000000" fill-rule="nonzero" opacity="1" stroke="none"/>
<path d="M868 558L899 558L899 558L899 589L899 589L868 589L868 589L868 558L868 558Z" fill="#000000" fill-rule="nonzero" opacity="1" stroke="none"/>
<path d="M899 558L930 558L930 558L930 589L930 589L899 589L899 589L899 558L899 558Z" fill="#000000" fill-rule="nonzero" opacity="1" stroke="none"/>
<path d="M930 558L961 558L961 558L961 589L961 589L930 589L930 589L930 558L930 558Z" fill="#000000" fill-rule="nonzero" opacity="1" stroke="none"/>
<path d="M961 558L992 558L992 558L992 589L992 589L961 589L961 589L961 558L961 558Z" fill="#000000" fill-rule="nonzero" opacity="1" stroke="none"/>
<path d="M1023 558L1054 558L1054 558L1054 589L1054 589L1023 589L1023 589L1023 558L1023 558Z" fill="#000000" fill-rule="nonzero" opacity="1" stroke="none"/>
<path d="M1054 558L1085 558L1085 558L1085 589L1085 589L1054 589L1054 589L1054 558L1054 558Z" fill="#000000" fill-rule="nonzero" opacity="1" stroke="none"/>
<path d="M62 589L93 589L93 589L93 620L93 620L62 620L62 620L62 589L62 589Z" fill="#000000" fill-rule="nonzero" opacity="1" stroke="none"/>
<path d="M155 589L186 589L186 589L186 620L186 620L155 620L155 620L155 589L155 589Z" fill="#000000" fill-rule="nonzero" opacity="1" stroke="none"/>
<path d="M217 589L248 589L248 589L248 620L248 620L217 620L217 620L217 589L217 589Z" fill="#000000" fill-rule="nonzero" opacity="1" stroke="none"/>
<path d="M310 589L341 589L341 589L341 620L341 620L310 620L310 620L310 589L310 589Z" fill="#000000" fill-rule="nonzero" opacity="1" stroke="none"/>
<path d="M341 589L372 589L372 589L372 620L372 620L341 620L341 620L341 589L341 589Z" fill="#000000" fill-rule="nonzero" opacity="1" stroke="none"/>
<path d="M372 589L403 589L403 589L403 620L403 620L372 620L372 620L372 589L372 589Z" fill="#000000" fill-rule="nonzero" opacity="1" stroke="none"/>
<path d="M775 589L806 589L806 589L806 620L806 620L775 620L775 620L775 589L775 589Z" fill="#000000" fill-rule="nonzero" opacity="1" stroke="none"/>
<path d="M899 589L930 589L930 589L930 620L930 620L899 620L899 620L899 589L899 589Z" fill="#000000" fill-rule="nonzero" opacity="1" stroke="none"/>
<path d="M992 589L1023 589L1023 589L1023 620L1023 620L992 620L992 620L992 589L992 589Z" fill="#000000" fill-rule="nonzero" opacity="1" stroke="none"/>
<path d="M1054 589L1085 589L1085 589L1085 620L1085 620L1054 620L1054 620L1054 589L1054 589Z" fill="#000000" fill-rule="nonzero" opacity="1" stroke="none"/>
<path d="M93 620L124 620L124 620L124 651L124 651L93 651L93 651L93 620L93 620Z" fill="#000000" fill-rule="nonzero" opacity="1" stroke="none"/>
<path d="M217 620L248 620L248 620L248 651L248 651L217 651L217 651L217 620L217 620Z" fill="#000000" fill-rule="nonzero" opacity="1" stroke="none"/>
<path d="M248 620L279 620L279 620L279 651L279 651L248 651L248 651L248 620L248 620Z" fill="#000000" fill-rule="nonzero" opacity="1" stroke="none"/>
<path d="M310 620L341 620L341 620L341 651L341 651L310 651L310 651L310 620L310 620Z" fill="#000000" fill-rule="nonzero" opacity="1" stroke="none"/>
<path d="M341 620L372 620L372 620L372 651L372 651L341 651L341 651L341 620L341 620Z" fill="#000000" fill-rule="nonzero" opacity="1" stroke="none"/>
<path d="M775 620L806 620L806 620L806 651L806 651L775 651L775 651L775 620L775 620Z" fill="#000000" fill-rule="nonzero" opacity="1" stroke="none"/>
<path d="M837 620L868 620L868 620L868 651L868 651L837 651L837 651L837 620L837 620Z" fill="#000000" fill-rule="nonzero" opacity="1" stroke="none"/>
<path d="M961 620L992 620L992 620L992 651L992 651L961 651L961 651L961 620L961 620Z" fill="#000000" fill-rule="nonzero" opacity="1" stroke="none"/>
<path d="M992 620L1023 620L1023 620L1023 651L1023 651L992 651L992 651L992 620L992 620Z" fill="#000000" fill-rule="nonzero" opacity="1" stroke="none"/>
<path d="M1054 620L1085 620L1085 620L1085 651L1085 651L1054 651L1054 651L1054 620L1054 620Z" fill="#000000" fill-rule="nonzero" opacity="1" stroke="none"/>
<path d="M62 651L93 651L93 651L93 682L93 682L62 682L62 682L62 651L62 651Z" fill="#000000" fill-rule="nonzero" opacity="1" stroke="none"/>
<path d="M124 651L155 651L155 651L155 682L155 682L124 682L124 682L124 651L124 651Z" fill="#000000" fill-rule="nonzero" opacity="1" stroke="none"/>
<path d="M310 651L341 651L341 651L341 682L341 682L310 682L310 682L310 651L310 651Z" fill="#000000" fill-rule="nonzero" opacity="1" stroke="none"/>
<path d="M372 651L403 651L403 651L403 682L403 682L372 682L372 682L372 651L372 651Z" fill="#000000" fill-rule="nonzero" opacity="1" stroke="none"/>
<path d="M775 651L806 651L806 651L806 682L806 682L775 682L775 682L775 651L775 651Z" fill="#000000" fill-rule="nonzero" opacity="1" stroke="none"/>
<path d="M837 651L868 651L868 651L868 682L868 682L837 682L837 682L837 651L837 651Z" fill="#000000" fill-rule="nonzero" opacity="1" stroke="none"/>
<path d="M868 651L899 651L899 651L899 682L899 682L868 682L868 682L868 651L868 651Z" fill="#000000" fill-rule="nonzero" opacity="1" stroke="none"/>
<path d="M899 651L930 651L930 651L930 682L930 682L899 682L899 682L899 651L899 651Z" fill="#000000" fill-rule="nonzero" opacity="1" stroke="none"/>
<path d="M930 651L961 651L961 651L961 682L961 682L930 682L930 682L930 651L930 651Z" fill="#000000" fill-rule="nonzero" opacity="1" stroke="none"/>
<path d="M961 651L992 651L992 651L992 682L992 682L961 682L961 682L961 651L961 651Z" fill="#000000" fill-rule="nonzero" opacity="1" stroke="none"/>
<path d="M1023 651L1054 651L1054 651L1054 682L1054 682L1023 682L1023 682L1023 651L1023 651Z" fill="#000000" fill-rule="nonzero" opacity="1" stroke="none"/>
<path d="M1054 651L1085 651L1085 651L1085 682L1085 682L1054 682L1054 682L1054 651L1054 651Z" fill="#000000" fill-rule="nonzero" opacity="1" stroke="none"/>
<path d="M93 682L124 682L124 682L124 713L124 713L93 713L93 713L93 682L93 682Z" fill="#000000" fill-rule="nonzero" opacity="1" stroke="none"/>
<path d="M124 682L155 682L155 682L155 713L155 713L124 713L124 713L124 682L124 682Z" fill="#000000" fill-rule="nonzero" opacity="1" stroke="none"/>
<path d="M217 682L248 682L248 682L248 713L248 713L217 713L217 713L217 682L217 682Z" fill="#000000" fill-rule="nonzero" opacity="1" stroke="none"/>
<path d="M248 682L279 682L279 682L279 713L279 713L248 713L248 713L248 682L248 682Z" fill="#000000" fill-rule="nonzero" opacity="1" stroke="none"/>
<path d="M775 682L806 682L806 682L806 713L806 713L775 713L775 713L775 682L775 682Z" fill="#000000" fill-rule="nonzero" opacity="1" stroke="none"/>
<path d="M868 682L899 682L899 682L899 713L899 713L868 713L868 713L868 682L868 682Z" fill="#000000" fill-rule="nonzero" opacity="1" stroke="none"/>
<path d="M1054 682L1085 682L1085 682L1085 713L1085 713L1054 713L1054 713L1054 682L1054 682Z" fill="#000000" fill-rule="nonzero" opacity="1" stroke="none"/>
<path d="M124 713L155 713L155 713L155 744L155 744L124 744L124 744L124 713L124 713Z" fill="#000000" fill-rule="nonzero" opacity="1" stroke="none"/>
<path d="M155 713L186 713L186 713L186 744L186 744L155 744L155 744L155 713L155 713Z" fill="#000000" fill-rule="nonzero" opacity="1" stroke="none"/>
<path d="M186 713L217 713L217 713L217 744L217 744L186 744L186 744L186 713L186 713Z" fill="#000000" fill-rule="nonzero" opacity="1" stroke="none"/>
<path d="M279 713L310 713L310 713L310 744L310 744L279 744L279 744L279 713L279 713Z" fill="#000000" fill-rule="nonzero" opacity="1" stroke="none"/>
<path d="M341 713L372 713L372 713L372 744L372 744L341 744L341 744L341 713L341 713Z" fill="#000000" fill-rule="nonzero" opacity="1" stroke="none"/>
<path d="M775 713L806 713L806 713L806 744L806 744L775 744L775 744L775 713L775 713Z" fill="#000000" fill-rule="nonzero" opacity="1" stroke="none"/>
<path d="M806 713L837 713L837 713L837 744L837 744L806 744L806 744L806 713L806 713Z" fill="#000000" fill-rule="nonzero" opacity="1" stroke="none"/>
<path d="M868 713L899 713L899 713L899 744L899 744L868 744L868 744L868 713L868 713Z" fill="#000000" fill-rule="nonzero" opacity="1" stroke="none"/>
<path d="M899 713L930 713L930 713L930 744L930 744L899 744L899 744L899 713L899 713Z" fill="#000000" fill-rule="nonzero" opacity="1" stroke="none"/>
<path d="M961 713L992 713L992 713L992 744L992 744L961 744L961 744L961 713L961 713Z" fill="#000000" fill-rule="nonzero" opacity="1" stroke="none"/>
<path d="M992 713L1023 713L1023 713L1023 744L1023 744L992 744L992 744L992 713L992 713Z" fill="#000000" fill-rule="nonzero" opacity="1" stroke="none"/>
<path d="M1054 713L1085 713L1085 713L1085 744L1085 744L1054 744L1054 744L1054 713L1054 713Z" fill="#000000" fill-rule="nonzero" opacity="1" stroke="none"/>
<path d="M62 744L93 744L93 744L93 775L93 775L62 775L62 775L62 744L62 744Z" fill="#000000" fill-rule="nonzero" opacity="1" stroke="none"/>
<path d="M93 744L124 744L124 744L124 775L124 775L93 775L93 775L93 744L93 744Z" fill="#000000" fill-rule="nonzero" opacity="1" stroke="none"/>
<path d="M124 744L155 744L155 744L155 775L155 775L124 775L124 775L124 744L124 744Z" fill="#000000" fill-rule="nonzero" opacity="1" stroke="none"/>
<path d="M248 744L279 744L279 744L279 775L279 775L248 775L248 775L248 744L248 744Z" fill="#000000" fill-rule="nonzero" opacity="1" stroke="none"/>
<path d="M279 744L310 744L310 744L310 775L310 775L279 775L279 775L279 744L279 744Z" fill="#000000" fill-rule="nonzero" opacity="1" stroke="none"/>
<path d="M310 744L341 744L341 744L341 775L341 775L310 775L310 775L310 744L310 744Z" fill="#000000" fill-rule="nonzero" opacity="1" stroke="none"/>
<path d="M341 744L372 744L372 744L372 775L372 775L341 775L341 775L341 744L341 744Z" fill="#000000" fill-rule="nonzero" opacity="1" stroke="none"/>
<path d="M372 744L403 744L403 744L403 775L403 775L372 775L372 775L372 744L372 744Z" fill="#000000" fill-rule="nonzero" opacity="1" stroke="none"/>
<path d="M434 744L465 744L465 744L465 775L465 775L434 775L434 775L434 744L434 744Z" fill="#000000" fill-rule="nonzero" opacity="1" stroke="none"/>
<path d="M496 744L527 744L527 744L527 775L527 775L496 775L496 775L496 744L496 744Z" fill="#000000" fill-rule="nonzero" opacity="1" stroke="none"/>
<path d="M527 744L558 744L558 744L558 775L558 775L527 775L527 775L527 744L527 744Z" fill="#000000" fill-rule="nonzero" opacity="1" stroke="none"/>
<path d="M589 744L620 744L620 744L620 775L620 775L589 775L589 775L589 744L589 744Z" fill="#000000" fill-rule="nonzero" opacity="1" stroke="none"/>
<path d="M620 744L651 744L651 744L651 775L651 775L620 775L620 775L620 744L620 744Z" fill="#000000" fill-rule="nonzero" opacity="1" stroke="none"/>
<path d="M651 744L682 744L682 744L682 775L682 775L651 775L651 775L651 744L651 744Z" fill="#000000" fill-rule="nonzero" opacity="1" stroke="none"/>
<path d="M713 744L744 744L744 744L744 775L744 775L713 775L713 775L713 744L713 744Z" fill="#000000" fill-rule="nonzero" opacity="1" stroke="none"/>
<path d="M775 744L806 744L806 744L806 775L806 775L775 775L775 775L775 744L775 744Z" fill="#000000" fill-rule="nonzero" opacity="1" stroke="none"/>
<path d="M837 744L868 744L868 744L868 775L868 775L837 775L837 775L837 744L837 744Z" fill="#000000" fill-rule="nonzero" opacity="1" stroke="none"/>
<path d="M868 744L899 744L899 744L899 775L899 775L868 775L868 775L868 744L868 744Z" fill="#000000" fill-rule="nonzero" opacity="1" stroke="none"/>
<path d="M930 744L961 744L961 744L961 775L961 775L930 775L930 775L930 744L930 744Z" fill="#000000" fill-rule="nonzero" opacity="1" stroke="none"/>
<path d="M1054 744L1085 744L1085 744L1085 775L1085 775L1054 775L1054 775L1054 744L1054 744Z" fill="#000000" fill-rule="nonzero" opacity="1" stroke="none"/>
<path d="M217 775L248 775L248 775L248 806L248 806L217 806L217 806L217 775L217 775Z" fill="#000000" fill-rule="nonzero" opacity="1" stroke="none"/>
<path d="M310 775L341 775L341 775L341 806L341 806L310 806L310 806L310 775L310 775Z" fill="#000000" fill-rule="nonzero" opacity="1" stroke="none"/>
<path d="M403 775L434 775L434 775L434 806L434 806L403 806L403 806L403 775L403 775Z" fill="#000000" fill-rule="nonzero" opacity="1" stroke="none"/>
<path d="M434 775L465 775L465 775L465 806L465 806L434 806L434 806L434 775L434 775Z" fill="#000000" fill-rule="nonzero" opacity="1" stroke="none"/>
<path d="M589 775L620 775L620 775L620 806L620 806L589 806L589 806L589 775L589 775Z" fill="#000000" fill-rule="nonzero" opacity="1" stroke="none"/>
<path d="M651 775L682 775L682 775L682 806L682 806L651 806L651 806L651 775L651 775Z" fill="#000000" fill-rule="nonzero" opacity="1" stroke="none"/>
<path d="M682 775L713 775L713 775L713 806L713 806L682 806L682 806L682 775L682 775Z" fill="#000000" fill-rule="nonzero" opacity="1" stroke="none"/>
<path d="M806 775L837 775L837 775L837 806L837 806L806 806L806 806L806 775L806 775Z" fill="#000000" fill-rule="nonzero" opacity="1" stroke="none"/>
<path d="M899 775L930 775L930 775L930 806L930 806L899 806L899 806L899 775L899 775Z" fill="#000000" fill-rule="nonzero" opacity="1" stroke="none"/>
<path d="M961 775L992 775L992 775L992 806L992 806L961 806L961 806L961 775L961 775Z" fill="#000000" fill-rule="nonzero" opacity="1" stroke="none"/>
<path d="M1023 775L1054 775L1054 775L1054 806L1054 806L1023 806L1023 806L1023 775L1023 775Z" fill="#000000" fill-rule="nonzero" opacity="1" stroke="none"/>
<path d="M1054 775L1085 775L1085 775L1085 806L1085 806L1054 806L1054 806L1054 775L1054 775Z" fill="#000000" fill-rule="nonzero" opacity="1" stroke="none"/>
<path d="M62 806L93 806L93 806L93 837L93 837L62 837L62 837L62 806L62 806Z" fill="#000000" fill-rule="nonzero" opacity="1" stroke="none"/>
<path d="M93 806L124 806L124 806L124 837L124 837L93 837L93 837L93 806L93 806Z" fill="#000000" fill-rule="nonzero" opacity="1" stroke="none"/>
<path d="M124 806L155 806L155 806L155 837L155 837L124 837L124 837L124 806L124 806Z" fill="#000000" fill-rule="nonzero" opacity="1" stroke="none"/>
<path d="M155 806L186 806L186 806L186 837L186 837L155 837L155 837L155 806L155 806Z" fill="#000000" fill-rule="nonzero" opacity="1" stroke="none"/>
<path d="M186 806L217 806L217 806L217 837L217 837L186 837L186 837L186 806L186 806Z" fill="#000000" fill-rule="nonzero" opacity="1" stroke="none"/>
<path d="M248 806L279 806L279 806L279 837L279 837L248 837L248 837L248 806L248 806Z" fill="#000000" fill-rule="nonzero" opacity="1" stroke="none"/>
<path d="M279 806L310 806L310 806L310 837L310 837L279 837L279 837L279 806L279 806Z" fill="#000000" fill-rule="nonzero" opacity="1" stroke="none"/>
<path d="M310 806L341 806L341 806L341 837L341 837L310 837L310 837L310 806L310 806Z" fill="#000000" fill-rule="nonzero" opacity="1" stroke="none"/>
<path d="M527 806L558 806L558 806L558 837L558 837L527 837L527 837L527 806L527 806Z" fill="#000000" fill-rule="nonzero" opacity="1" stroke="none"/>
<path d="M558 806L589 806L589 806L589 837L589 837L558 837L558 837L558 806L558 806Z" fill="#000000" fill-rule="nonzero" opacity="1" stroke="none"/>
<path d="M651 806L682 806L682 806L682 837L682 837L651 837L651 837L651 806L651 806Z" fill="#000000" fill-rule="nonzero" opacity="1" stroke="none"/>
<path d="M713 806L744 806L744 806L744 837L744 837L713 837L713 837L713 806L713 806Z" fill="#000000" fill-rule="nonzero" opacity="1" stroke="none"/>
<path d="M775 806L806 806L806 806L806 837L806 837L775 837L775 837L775 806L775 806Z" fill="#000000" fill-rule="nonzero" opacity="1" stroke="none"/>
<path d="M806 806L837 806L837 806L837 837L837 837L806 837L806 837L806 806L806 806Z" fill="#000000" fill-rule="nonzero" opacity="1" stroke="none"/>
<path d="M837 806L868 806L868 806L868 837L868 837L837 837L837 837L837 806L837 806Z" fill="#000000" fill-rule="nonzero" opacity="1" stroke="none"/>
<path d="M868 806L899 806L899 806L899 837L899 837L868 837L868 837L868 806L868 806Z" fill="#000000" fill-rule="nonzero" opacity="1" stroke="none"/>
<path d="M899 806L930 806L930 806L930 837L930 837L899 837L899 837L899 806L899 806Z" fill="#000000" fill-rule="nonzero" opacity="1" stroke="none"/>
<path d="M930 806L961 806L961 806L961 837L961 837L930 837L930 837L930 806L930 806Z" fill="#000000" fill-rule="nonzero" opacity="1" stroke="none"/>
<path d="M1023 806L1054 806L1054 806L1054 837L1054 837L1023 837L1023 837L1023 806L1023 806Z" fill="#000000" fill-rule="nonzero" opacity="1" stroke="none"/>
<path d="M1054 806L1085 806L1085 806L1085 837L1085 837L1054 837L1054 837L1054 806L1054 806Z" fill="#000000" fill-rule="nonzero" opacity="1" stroke="none"/>
<path d="M310 837L341 837L341 837L341 868L341 868L310 868L310 868L310 837L310 837Z" fill="#000000" fill-rule="nonzero" opacity="1" stroke="none"/>
<path d="M341 837L372 837L372 837L372 868L372 868L341 868L341 868L341 837L341 837Z" fill="#000000" fill-rule="nonzero" opacity="1" stroke="none"/>
<path d="M403 837L434 837L434 837L434 868L434 868L403 868L403 868L403 837L403 837Z" fill="#000000" fill-rule="nonzero" opacity="1" stroke="none"/>
<path d="M434 837L465 837L465 837L465 868L465 868L434 868L434 868L434 837L434 837Z" fill="#000000" fill-rule="nonzero" opacity="1" stroke="none"/>
<path d="M465 837L496 837L496 837L496 868L496 868L465 868L465 868L465 837L465 837Z" fill="#000000" fill-rule="nonzero" opacity="1" stroke="none"/>
<path d="M496 837L527 837L527 837L527 868L527 868L496 868L496 868L496 837L496 837Z" fill="#000000" fill-rule="nonzero" opacity="1" stroke="none"/>
<path d="M744 837L775 837L775 837L775 868L775 868L744 868L744 868L744 837L744 837Z" fill="#000000" fill-rule="nonzero" opacity="1" stroke="none"/>
<path d="M806 837L837 837L837 837L837 868L837 868L806 868L806 868L806 837L806 837Z" fill="#000000" fill-rule="nonzero" opacity="1" stroke="none"/>
<path d="M930 837L961 837L961 837L961 868L961 868L930 868L930 868L930 837L930 837Z" fill="#000000" fill-rule="nonzero" opacity="1" stroke="none"/>
<path d="M961 837L992 837L992 837L992 868L992 868L961 868L961 868L961 837L961 837Z" fill="#000000" fill-rule="nonzero" opacity="1" stroke="none"/>
<path d="M992 837L1023 837L1023 837L1023 868L1023 868L992 868L992 868L992 837L992 837Z" fill="#000000" fill-rule="nonzero" opacity="1" stroke="none"/>
<path d="M1023 837L1054 837L1054 837L1054 868L1054 868L1023 868L1023 868L1023 837L1023 837Z" fill="#000000" fill-rule="nonzero" opacity="1" stroke="none"/>
<path d="M1054 837L1085 837L1085 837L1085 868L1085 868L1054 868L1054 868L1054 837L1054 837Z" fill="#000000" fill-rule="nonzero" opacity="1" stroke="none"/>
<path d="M310 868L341 868L341 868L341 899L341 899L310 899L310 899L310 868L310 868Z" fill="#000000" fill-rule="nonzero" opacity="1" stroke="none"/>
<path d="M341 868L372 868L372 868L372 899L372 899L341 899L341 899L341 868L341 868Z" fill="#000000" fill-rule="nonzero" opacity="1" stroke="none"/>
<path d="M372 868L403 868L403 868L403 899L403 899L372 899L372 899L372 868L372 868Z" fill="#000000" fill-rule="nonzero" opacity="1" stroke="none"/>
<path d="M434 868L465 868L465 868L465 899L465 899L434 899L434 899L434 868L434 868Z" fill="#000000" fill-rule="nonzero" opacity="1" stroke="none"/>
<path d="M465 868L496 868L496 868L496 899L496 899L465 899L465 899L465 868L465 868Z" fill="#000000" fill-rule="nonzero" opacity="1" stroke="none"/>
<path d="M713 868L744 868L744 868L744 899L744 899L713 899L713 899L713 868L713 868Z" fill="#000000" fill-rule="nonzero" opacity="1" stroke="none"/>
<path d="M744 868L775 868L775 868L775 899L775 899L744 899L744 899L744 868L744 868Z" fill="#000000" fill-rule="nonzero" opacity="1" stroke="none"/>
<path d="M806 868L837 868L837 868L837 899L837 899L806 899L806 899L806 868L806 868Z" fill="#000000" fill-rule="nonzero" opacity="1" stroke="none"/>
<path d="M868 868L899 868L899 868L899 899L899 899L868 899L868 899L868 868L868 868Z" fill="#000000" fill-rule="nonzero" opacity="1" stroke="none"/>
<path d="M930 868L961 868L961 868L961 899L961 899L930 899L930 899L930 868L930 868Z" fill="#000000" fill-rule="nonzero" opacity="1" stroke="none"/>
<path d="M992 868L1023 868L1023 868L1023 899L1023 899L992 899L992 899L992 868L992 868Z" fill="#000000" fill-rule="nonzero" opacity="1" stroke="none"/>
<path d="M1054 868L1085 868L1085 868L1085 899L1085 899L1054 899L1054 899L1054 868L1054 868Z" fill="#000000" fill-rule="nonzero" opacity="1" stroke="none"/>
<path d="M310 899L341 899L341 899L341 930L341 930L310 930L310 930L310 899L310 899Z" fill="#000000" fill-rule="nonzero" opacity="1" stroke="none"/>
<path d="M341 899L372 899L372 899L372 930L372 930L341 930L341 930L341 899L341 899Z" fill="#000000" fill-rule="nonzero" opacity="1" stroke="none"/>
<path d="M434 899L465 899L465 899L465 930L465 930L434 930L434 930L434 899L434 899Z" fill="#000000" fill-rule="nonzero" opacity="1" stroke="none"/>
<path d="M465 899L496 899L496 899L496 930L496 930L465 930L465 930L465 899L465 899Z" fill="#000000" fill-rule="nonzero" opacity="1" stroke="none"/>
<path d="M496 899L527 899L527 899L527 930L527 930L496 930L496 930L496 899L496 899Z" fill="#000000" fill-rule="nonzero" opacity="1" stroke="none"/>
<path d="M527 899L558 899L558 899L558 930L558 930L527 930L527 930L527 899L527 899Z" fill="#000000" fill-rule="nonzero" opacity="1" stroke="none"/>
<path d="M620 899L651 899L651 899L651 930L651 930L620 930L620 930L620 899L620 899Z" fill="#000000" fill-rule="nonzero" opacity="1" stroke="none"/>
<path d="M651 899L682 899L682 899L682 930L682 930L651 930L651 930L651 899L651 899Z" fill="#000000" fill-rule="nonzero" opacity="1" stroke="none"/>
<path d="M682 899L713 899L713 899L713 930L713 930L682 930L682 930L682 899L682 899Z" fill="#000000" fill-rule="nonzero" opacity="1" stroke="none"/>
<path d="M744 899L775 899L775 899L775 930L775 930L744 930L744 930L744 899L744 899Z" fill="#000000" fill-rule="nonzero" opacity="1" stroke="none"/>
<path d="M775 899L806 899L806 899L806 930L806 930L775 930L775 930L775 899L775 899Z" fill="#000000" fill-rule="nonzero" opacity="1" stroke="none"/>
<path d="M806 899L837 899L837 899L837 930L837 930L806 930L806 930L806 899L806 899Z" fill="#000000" fill-rule="nonzero" opacity="1" stroke="none"/>
<path d="M930 899L961 899L961 899L961 930L961 930L930 930L930 930L930 899L930 899Z" fill="#000000" fill-rule="nonzero" opacity="1" stroke="none"/>
<path d="M1023 899L1054 899L1054 899L1054 930L1054 930L1023 930L1023 930L1023 899L1023 899Z" fill="#000000" fill-rule="nonzero" opacity="1" stroke="none"/>
<path d="M1054 899L1085 899L1085 899L1085 930L1085 930L1054 930L1054 930L1054 899L1054 899Z" fill="#000000" fill-rule="nonzero" opacity="1" stroke="none"/>
<path d="M341 930L372 930L372 930L372 961L372 961L341 961L341 961L341 930L341 930Z" fill="#000000" fill-rule="nonzero" opacity="1" stroke="none"/>
<path d="M403 930L434 930L434 930L434 961L434 961L403 961L403 961L403 930L403 930Z" fill="#000000" fill-rule="nonzero" opacity="1" stroke="none"/>
<path d="M527 930L558 930L558 930L558 961L558 961L527 961L527 961L527 930L527 930Z" fill="#000000" fill-rule="nonzero" opacity="1" stroke="none"/>
<path d="M558 930L589 930L589 930L589 961L589 961L558 961L558 961L558 930L558 930Z" fill="#000000" fill-rule="nonzero" opacity="1" stroke="none"/>
<path d="M651 930L682 930L682 930L682 961L682 961L651 961L651 961L651 930L651 930Z" fill="#000000" fill-rule="nonzero" opacity="1" stroke="none"/>
<path d="M682 930L713 930L713 930L713 961L713 961L682 961L682 961L682 930L682 930Z" fill="#000000" fill-rule="nonzero" opacity="1" stroke="none"/>
<path d="M713 930L744 930L744 930L744 961L744 961L713 961L713 961L713 930L713 930Z" fill="#000000" fill-rule="nonzero" opacity="1" stroke="none"/>
<path d="M744 930L775 930L775 930L775 961L775 961L744 961L744 961L744 930L744 930Z" fill="#000000" fill-rule="nonzero" opacity="1" stroke="none"/>
<path d="M775 930L806 930L806 930L806 961L806 961L775 961L775 961L775 930L775 930Z" fill="#000000" fill-rule="nonzero" opacity="1" stroke="none"/>
<path d="M806 930L837 930L837 930L837 961L837 961L806 961L806 961L806 930L806 930Z" fill="#000000" fill-rule="nonzero" opacity="1" stroke="none"/>
<path d="M837 930L868 930L868 930L868 961L868 961L837 961L837 961L837 930L837 930Z" fill="#000000" fill-rule="nonzero" opacity="1" stroke="none"/>
<path d="M868 930L899 930L899 930L899 961L899 961L868 961L868 961L868 930L868 930Z" fill="#000000" fill-rule="nonzero" opacity="1" stroke="none"/>
<path d="M899 930L930 930L930 930L930 961L930 961L899 961L899 961L899 930L899 930Z" fill="#000000" fill-rule="nonzero" opacity="1" stroke="none"/>
<path d="M930 930L961 930L961 930L961 961L961 961L930 961L930 961L930 930L930 930Z" fill="#000000" fill-rule="nonzero" opacity="1" stroke="none"/>
<path d="M961 930L992 930L992 930L992 961L992 961L961 961L961 961L961 930L961 930Z" fill="#000000" fill-rule="nonzero" opacity="1" stroke="none"/>
<path d="M341 961L372 961L372 961L372 992L372 992L341 992L341 992L341 961L341 961Z" fill="#000000" fill-rule="nonzero" opacity="1" stroke="none"/>
<path d="M372 961L403 961L403 961L403 992L403 992L372 992L372 992L372 961L372 961Z" fill="#000000" fill-rule="nonzero" opacity="1" stroke="none"/>
<path d="M403 961L434 961L434 961L434 992L434 992L403 992L403 992L403 961L403 961Z" fill="#000000" fill-rule="nonzero" opacity="1" stroke="none"/>
<path d="M527 961L558 961L558 961L558 992L558 992L527 992L527 992L527 961L527 961Z" fill="#000000" fill-rule="nonzero" opacity="1" stroke="none"/>
<path d="M589 961L620 961L620 961L620 992L620 992L589 992L589 992L589 961L589 961Z" fill="#000000" fill-rule="nonzero" opacity="1" stroke="none"/>
<path d="M682 961L713 961L713 961L713 992L713 992L682 992L682 992L682 961L682 961Z" fill="#000000" fill-rule="nonzero" opacity="1" stroke="none"/>
<path d="M744 961L775 961L775 961L775 992L775 992L744 992L744 992L744 961L744 961Z" fill="#000000" fill-rule="nonzero" opacity="1" stroke="none"/>
<path d="M775 961L806 961L806 961L806 992L806 992L775 992L775 992L775 961L775 961Z" fill="#000000" fill-rule="nonzero" opacity="1" stroke="none"/>
<path d="M837 961L868 961L868 961L868 992L868 992L837 992L837 992L837 961L837 961Z" fill="#000000" fill-rule="nonzero" opacity="1" stroke="none"/>
<path d="M899 961L930 961L930 961L930 992L930 992L899 992L899 992L899 961L899 961Z" fill="#000000" fill-rule="nonzero" opacity="1" stroke="none"/>
<path d="M930 961L961 961L961 961L961 992L961 992L930 992L930 992L930 961L930 961Z" fill="#000000" fill-rule="nonzero" opacity="1" stroke="none"/>
<path d="M992 961L1023 961L1023 961L1023 992L1023 992L992 992L992 992L992 961L992 961Z" fill="#000000" fill-rule="nonzero" opacity="1" stroke="none"/>
<path d="M1054 961L1085 961L1085 961L1085 992L1085 992L1054 992L1054 992L1054 961L1054 961Z" fill="#000000" fill-rule="nonzero" opacity="1" stroke="none"/>
<path d="M310 992L341 992L341 992L341 1023L341 1023L310 1023L310 1023L310 992L310 992Z" fill="#000000" fill-rule="nonzero" opacity="1" stroke="none"/>
<path d="M341 992L372 992L372 992L372 1023L372 1023L341 1023L341 1023L341 992L341 992Z" fill="#000000" fill-rule="nonzero" opacity="1" stroke="none"/>
<path d="M527 992L558 992L558 992L558 1023L558 1023L527 1023L527 1023L527 992L527 992Z" fill="#000000" fill-rule="nonzero" opacity="1" stroke="none"/>
<path d="M589 992L620 992L620 992L620 1023L620 1023L589 1023L589 1023L589 992L589 992Z" fill="#000000" fill-rule="nonzero" opacity="1" stroke="none"/>
<path d="M651 992L682 992L682 992L682 1023L682 1023L651 1023L651 1023L651 992L651 992Z" fill="#000000" fill-rule="nonzero" opacity="1" stroke="none"/>
<path d="M713 992L744 992L744 992L744 1023L744 1023L713 1023L713 1023L713 992L713 992Z" fill="#000000" fill-rule="nonzero" opacity="1" stroke="none"/>
<path d="M930 992L961 992L961 992L961 1023L961 1023L930 1023L930 1023L930 992L930 992Z" fill="#000000" fill-rule="nonzero" opacity="1" stroke="none"/>
<path d="M992 992L1023 992L1023 992L1023 1023L1023 1023L992 1023L992 1023L992 992L992 992Z" fill="#000000" fill-rule="nonzero" opacity="1" stroke="none"/>
<path d="M1023 992L1054 992L1054 992L1054 1023L1054 1023L1023 1023L1023 1023L1023 992L1023 992Z" fill="#000000" fill-rule="nonzero" opacity="1" stroke="none"/>
<path d="M1054 992L1085 992L1085 992L1085 1023L1085 1023L1054 1023L1054 1023L1054 992L1054 992Z" fill="#000000" fill-rule="nonzero" opacity="1" stroke="none"/>
<path d="M341 1023L372 1023L372 1023L372 1054L372 1054L341 1054L341 1054L341 1023L341 1023Z" fill="#000000" fill-rule="nonzero" opacity="1" stroke="none"/>
<path d="M403 1023L434 1023L434 1023L434 1054L434 1054L403 1054L403 1054L403 1023L403 1023Z" fill="#000000" fill-rule="nonzero" opacity="1" stroke="none"/>
<path d="M527 1023L558 1023L558 1023L558 1054L558 1054L527 1054L527 1054L527 1023L527 1023Z" fill="#000000" fill-rule="nonzero" opacity="1" stroke="none"/>
<path d="M589 1023L620 1023L620 1023L620 1054L620 1054L589 1054L589 1054L589 1023L589 1023Z" fill="#000000" fill-rule="nonzero" opacity="1" stroke="none"/>
<path d="M620 1023L651 1023L651 1023L651 1054L651 1054L620 1054L620 1054L620 1023L620 1023Z" fill="#000000" fill-rule="nonzero" opacity="1" stroke="none"/>
<path d="M682 1023L713 1023L713 1023L713 1054L713 1054L682 1054L682 1054L682 1023L682 1023Z" fill="#000000" fill-rule="nonzero" opacity="1" stroke="none"/>
<path d="M744 1023L775 1023L775 1023L775 1054L775 1054L744 1054L744 1054L744 1023L744 1023Z" fill="#000000" fill-rule="nonzero" opacity="1" stroke="none"/>
<path d="M806 1023L837 1023L837 1023L837 1054L837 1054L806 1054L806 1054L806 1023L806 1023Z" fill="#000000" fill-rule="nonzero" opacity="1" stroke="none"/>
<path d="M837 1023L868 1023L868 1023L868 1054L868 1054L837 1054L837 1054L837 1023L837 1023Z" fill="#000000" fill-rule="nonzero" opacity="1" stroke="none"/>
<path d="M961 1023L992 1023L992 1023L992 1054L992 1054L961 1054L961 1054L961 1023L961 1023Z" fill="#000000" fill-rule="nonzero" opacity="1" stroke="none"/>
<path d="M341 1054L372 1054L372 1054L372 1085L372 1085L341 1085L341 1085L341 1054L341 1054Z" fill="#000000" fill-rule="nonzero" opacity="1" stroke="none"/>
<path d="M496 1054L527 1054L527 1054L527 1085L527 1085L496 1085L496 1085L496 1054L496 1054Z" fill="#000000" fill-rule="nonzero" opacity="1" stroke="none"/>
<path d="M651 1054L682 1054L682 1054L682 1085L682 1085L651 1085L651 1085L651 1054L651 1054Z" fill="#000000" fill-rule="nonzero" opacity="1" stroke="none"/>
<path d="M682 1054L713 1054L713 1054L713 1085L713 1085L682 1085L682 1085L682 1054L682 1054Z" fill="#000000" fill-rule="nonzero" opacity="1" stroke="none"/>
<path d="M713 1054L744 1054L744 1054L744 1085L744 1085L713 1085L713 1085L713 1054L713 1054Z" fill="#000000" fill-rule="nonzero" opacity="1" stroke="none"/>
<path d="M744 1054L775 1054L775 1054L775 1085L775 1085L744 1085L744 1085L744 1054L744 1054Z" fill="#000000" fill-rule="nonzero" opacity="1" stroke="none"/>
<path d="M806 1054L837 1054L837 1054L837 1085L837 1085L806 1085L806 1085L806 1054L806 1054Z" fill="#000000" fill-rule="nonzero" opacity="1" stroke="none"/>
<path d="M868 1054L899 1054L899 1054L899 1085L899 1085L868 1085L868 1085L868 1054L868 1054Z" fill="#000000" fill-rule="nonzero" opacity="1" stroke="none"/>
<path d="M930 1054L961 1054L961 1054L961 1085L961 1085L930 1085L930 1085L930 1054L930 1054Z" fill="#000000" fill-rule="nonzero" opacity="1" stroke="none"/>
<path d="M1054 1054L1085 1054L1085 1054L1085 1085L1085 1085L1054 1085L1054 1085L1054 1054L1054 1054Z" fill="#000000" fill-rule="nonzero" opacity="1" stroke="none"/>
<g opacity="1">
<path d="M246.45 62L94.55 62L62 62L62 94.55L62 246.45L62 279L94.55 279L246.45 279L279 279L279 246.45L279 94.55L279 62L246.45 62ZM246.45 246.45L94.55 246.45L94.55 94.55L246.45 94.55L246.45 246.45Z" fill="#000000" fill-rule="nonzero" opacity="1" stroke="none"/>
</g>
<g opacity="1">
<path d="M1052.45 62L900.55 62L868 62L868 94.55L868 246.45L868 279L900.55 279L1052.45 279L1085 279L1085 246.45L1085 94.55L1085 62L1052.45 62ZM1052.45 246.45L900.55 246.45L900.55 94.55L1052.45 94.55L1052.45 246.45Z" fill="#000000" fill-rule="nonzero" opacity="1" stroke="none"/>
</g>
<g opacity="1">
<path d="M246.45 868L94.55 868L62 868L62 900.55L62 1052.45L62 1085L94.55 1085L246.45 1085L279 1085L279 1052.45L279 900.55L279 868L246.45 868ZM246.45 1052.45L94.55 1052.45L94.55 900.55L246.45 900.55L246.45 1052.45Z" fill="#000000" fill-rule="nonzero" opacity="1" stroke="none"/>
</g>
<path d="M124 124L217 124L217 124L217 217L217 217L124 217L124 217L124 124L124 124Z" fill="#000000" fill-rule="nonzero" opacity="1" stroke="none"/>
<path d="M930 124L1023 124L1023 124L1023 217L1023 217L930 217L930 217L930 124L930 124Z" fill="#000000" fill-rule="nonzero" opacity="1" stroke="none"/>
<path d="M124 930L217 930L217 930L217 1023L217 1023L124 1023L124 1023L124 930L124 930Z" fill="#000000" fill-rule="nonzero" opacity="1" stroke="none"/>
<g opacity="1">
<path d="M403 573.501C403 479.337 479.337 403.003 573.501 403.003C667.666 403.003 744 479.337 744 573.501C744 667.665 667.666 744 573.501 744C479.337 744 403 667.665 403 573.501" fill="#000000" fill-rule="nonzero" opacity="1" stroke="none"/>
<path d="M553.119 607.979L553.119 531.225L611.331 569.596C611.331 569.596 553.119 607.979 553.119 607.979ZM675.414 532.64C675.414 515.805 661.783 502.167 644.951 502.167L502.052 502.167C485.221 502.167 471.589 515.805 471.589 532.64L471.589 614.363C471.589 631.191 485.221 644.836 502.052 644.836L644.951 644.836C661.783 644.836 675.414 631.191 675.414 614.363L675.414 532.64" fill="#f1f2f2" fill-rule="evenodd" opacity="1" stroke="none"/>
</g>
</g>
</g>
</svg>
