<?xml version="1.0" encoding="UTF-8" standalone="no"?>
<!DOCTYPE svg PUBLIC "-//W3C//DTD SVG 1.1//EN" "http://www.w3.org/Graphics/SVG/1.1/DTD/svg11.dtd">
<!-- Created with Vectornator (http://vectornator.io/) -->
<svg height="100%" stroke-miterlimit="10" style="fill-rule:nonzero;clip-rule:evenodd;stroke-linecap:round;stroke-linejoin:round;" version="1.1" viewBox="0 0 945 250" width="100%" xml:space="preserve" xmlns="http://www.w3.org/2000/svg" xmlns:vectornator="http://vectornator.io" xmlns:xlink="http://www.w3.org/1999/xlink">
<defs/>
<g id="Layer-1" vectornator:layerName="Layer 1">
<path d="M456.85 29.4469C442.501 28.0709 426.524 47.3155 419.6 56.5719C402.155 79.8922 391.879 110.616 394.193 139.916C395.427 155.536 406.374 174.069 423.662 175.259C431.088 175.771 438.705 171.527 445.912 173.384C450.048 174.45 451.102 180.22 454.225 183.134C459.315 187.885 464.419 191.769 471.412 192.509C488.423 194.31 505.155 185.996 518.631 176.353C563.664 144.129 559.067 76.7287 534.006 34.7281C526.953 22.9079 517.519 14.1653 504.287 10.8844C535.544 47.3507 539.249 94.6953 520.725 138.634C512.172 158.921 496.182 175.739 472.287 172.884C469.585 172.562 463.807 167.168 463.287 164.384C462.999 162.84 464.069 161.246 465.037 160.009C471.946 151.19 480.142 143.404 486.787 134.384C496.899 120.66 502.838 88.5557 486.662 76.5094C472.117 65.6772 454.819 83.5005 447.787 93.8844C434.114 114.076 439.743 131.315 441.006 154.947C441.149 157.631 441.905 160.863 440.242 162.974C429.954 176.041 415.453 155.837 413.693 147.478C409.686 128.441 414.202 107.185 421.631 89.5406C432.08 64.7205 442.472 54.3831 457.318 32.9781C457.995 32.0024 457.006 30.6239 456.85 29.4469ZM59.2872 203.884C57.2357 195.678 48.7949 190.586 44.1622 183.509C41.0415 178.742 38.7244 173.458 36.6934 168.134C22.483 130.888 30.7772 81.0094 58.7872 52.1656C63.7216 47.0843 72.0705 41.7497 79.5059 41.1031C86.1404 40.5262 95.7049 40.9077 98.7572 48.7494C102.361 58.0083 88.002 65.4711 82.1622 73.5094C71.9082 87.6234 66.0523 104.595 67.8809 122.166C68.7452 130.47 76.0672 141.382 85.5059 141.416C99.0779 141.464 109.032 129.479 116.193 119.791C129.334 102.013 122.428 78.0034 122.443 58.1031C122.45 49.7251 131.726 47.93 138.162 50.2594C149.124 54.2264 148.776 67.5523 149.287 76.8844C150.795 104.421 141.201 130.282 127.912 153.884C121.256 165.706 109.662 173.246 105.287 185.884C143.635 180.094 165.995 122.248 168.787 88.3844C169.799 76.1079 168.702 62.088 160.6 52.1031C156.558 47.1231 150.081 41.1643 143.193 40.4156C134.614 39.4831 125.544 43.3379 117.307 40.7644C112.152 39.1535 110.321 32.4762 106.287 28.8844C100.33 23.5801 92.2268 20.4048 84.1309 21.4469C22.4337 29.3881-1.25693 102.564 17.2247 154.947C23.1202 171.657 37.7837 203.884 59.2872 203.884ZM635.787 41.8844C613.979 51.6229 609.397 62.0901 615.662 83.1344C616.893 87.2689 615.884 95.9164 622.256 97.4156C625.171 98.1014 626.221 94.173 628.037 93.3531C636.172 89.6802 646.752 93.8799 655.787 90.3844C661.579 88.1436 667.48 84.222 672.287 80.3844C710.701 49.7176 663.75 29.3971 635.787 41.8844ZM641.287 53.8844C631.787 62.3844 631.787 62.3844 622.287 70.8844C624.695 63.6612 631.96 51.5526 641.287 53.8844ZM670.381 69.8844C660.984 78.0114 648.163 79.8844 636.287 79.8844C640.684 70.3449 649.163 64.0231 657.787 58.3844C672.195 53.2204 681.229 60.5024 670.381 69.8844ZM103.287 68.8844C106.162 73.0056 103.788 78.9232 103.912 83.9469C104.204 95.7811 102.263 108.725 98.2872 119.884C96.6738 124.413 94.8918 133.266 90.2872 131.884C87.1882 130.955 86.4088 124.473 86.1934 122.634C84.2866 106.353 89.3016 89.3207 98.2872 75.8844C99.8812 73.5008 101.646 66.5327 103.287 68.8844ZM477.006 104.197C475.514 119.776 469.087 133.907 459.287 145.884C459.608 126.503 460.147 111.077 466.287 92.8844C477.463 74.9173 477.219 101.976 477.006 104.197ZM263.287 97.8844C255.312 118.909 276.361 115.93 281.107 127.304C287.046 141.537 259.952 203.024 295.881 202.291C301.963 182.359 291.316 153.384 303.412 134.884C308.508 127.09 321.904 131.609 327.756 123.384C332.501 116.715 329.631 104.575 322.537 100.634C306.664 91.816 301.313 112.97 287.787 110.884C284.069 110.311 277.01 107.72 273.6 105.322C270.026 102.809 269.558 94.7449 263.287 97.8844ZM194.787 97.8844C190.199 104.55 184.444 110.233 180.412 117.259C176.119 124.741 173.157 133.2 167.412 139.634C164.218 143.211 156.543 141.804 155.287 145.884C154.438 148.645 162.631 147.486 160.506 156.978C159.175 162.922 150.572 181.282 160.912 185.259C178.765 192.126 168.777 161.519 183.412 160.259C207.717 158.167 195.894 166.693 205.787 179.884C207.484 182.147 213.284 184.972 214.537 180.634C220.269 160.794 214.346 134.869 209.475 115.384C207.574 107.781 201.222 88.5346 194.787 97.8844ZM237.787 106.384C225.978 121.534 218.322 149.547 223.787 168.884C229.921 190.589 256.671 179.357 265.287 165.384C277.527 145.536 247.353 160.504 240.912 161.041C240.37 161.086 239.622 161.314 239.287 160.884C236.458 157.252 239.146 146.364 239.693 143.947C241.957 133.945 244.941 124.117 247.287 114.134C249.786 103.502 244.71 97.5029 237.787 106.384ZM597.287 142.884C574.197 140.854 581.119 134.335 579.537 112.759C579.423 111.198 579.076 109.574 578.257 108.239C575.961 104.494 565.849 108.273 564.662 112.009C561.854 120.849 562.779 124.914 562.287 135.884C556.787 133.884 556.787 133.884 551.287 131.884C552.097 143.22 557.61 146.203 559.412 155.134C560.643 161.236 560.982 167.506 562.381 173.572C564.21 181.506 573.432 179.741 579.287 179.884C579.287 169.384 579.287 169.384 579.287 158.884C583.812 158.884 594.37 157.193 597.867 162.304C602.471 169.033 597.874 185.365 612.1 181.072C618.493 179.142 617.276 168.2 616.787 163.134C615.072 145.35 616.5 124.261 610.107 107.384C608.442 102.989 604.98 102.849 600.412 103.634C594.423 104.664 595.897 114.176 595.975 117.572C596.169 126.018 596.85 134.447 597.287 142.884ZM756.287 156.884C765.781 166.754 774.576 178.047 788.693 180.978C795.462 182.383 806.38 176.597 799.273 168.507C795.509 164.221 784.297 159.878 781.412 158.259C777.07 155.823 771.379 148.237 769.287 145.884C777.647 140.605 813.524 116.264 792.631 105.072C792.016 104.743 791.081 105.067 790.6 105.572C785.956 110.446 781.985 115.922 777.506 120.947C771.094 128.14 764.181 130.634 755.287 134.884C754.882 126.9 755.072 117.381 752.787 109.384C750.86 102.638 742.479 102.182 740.287 108.728C738.244 114.831 738.832 121.542 738.787 127.978C738.687 142.365 739.004 156.753 739.412 171.134C739.712 181.7 738.985 182.358 748.631 181.791C749.306 181.751 753.398 181.183 754.262 179.989C757.914 174.946 756.262 159.424 756.287 156.884ZM308.287 113.884C309.049 110.18 309.105 108.382 312.287 106.384C327.964 103.176 312.309 112.486 308.287 113.884ZM709.35 153.853C701.19 139.771 651.525 138.931 662.756 163.041C671.249 181.272 709.968 184.204 723.037 171.134C733.703 160.468 732.305 142.525 718.037 135.822C712.841 133.381 705.87 132.354 700.318 131.759C689.907 130.643 679.469 129.325 669.287 126.884C686.036 121.65 699.734 121.602 718.037 119.759C753.889 116.151 718.301 107.09 706.693 106.197C692.655 105.117 666.446 105.981 658.975 120.978C643.817 151.403 708.509 133.411 718.787 150.884C720.842 154.378 712.822 157.403 711.287 157.884C706.67 159.334 666.812 168.589 667.35 157.322C667.567 152.761 676.969 154.339 678.475 154.478C687.124 155.278 701.63 160.608 709.35 153.853ZM884.787 113.384C876.554 125.694 866.551 139.258 866.693 154.978C866.737 159.792 870.007 168.553 868.537 174.134C864.362 189.993 857.613 205.263 855.162 221.478C853.412 233.058 855.768 241.087 867.287 245.634C868.066 245.942 869.12 245.891 869.787 245.384C870.515 244.832 870.656 243.761 870.912 242.884C874.95 229.086 878.087 215.014 882.662 201.384C884.264 196.613 886.538 192.016 889.382 187.864C893.286 182.166 899.01 183.125 904.912 181.134C916.296 177.296 927.968 168.979 933.912 158.291C940.537 146.379 942.576 132.249 935.412 119.791C933.809 117.003 928.648 110.793 924.1 112.447C905.277 119.291 891.737 139.516 879.287 152.884C882.529 136.677 889.742 129.561 896.818 113.072C898.437 109.301 897.176 104.907 884.787 113.384ZM631.287 120.884C630.305 128.825 629.649 136.806 629.131 144.791C628.669 151.912 625.768 170.137 630.787 177.416C633.917 181.954 643.514 183.68 645.1 176.978C649.266 159.363 645.724 137.967 644.037 120.259C642.792 107.182 634.696 93.3132 631.287 120.884ZM819.662 124.134C818.829 127.249 818.223 130.433 817.162 133.478C815.97 136.901 811.05 137.232 809.537 140.509C808.361 143.057 809.795 147.101 809.412 149.134C807.898 157.178 800.632 168.552 806.756 176.853C815.408 188.581 830.303 185.86 841.881 180.009C850.442 175.683 872.27 160.432 846.1 161.853C838.145 162.285 830.225 163.207 822.287 163.884C829.625 145.1 833.596 151.64 854.006 148.072C859.08 147.185 854.898 138.691 851.912 137.134C846.395 134.258 839.508 136.013 833.287 135.884C836.292 119.358 856.053 125.399 869.287 119.884C859.134 102.478 841.422 106.685 822.787 109.384C806.352 111.765 804.881 118.142 819.662 124.134ZM195.287 124.884C199.058 130.595 198.801 136.073 199.287 142.884C193.287 142.884 193.287 142.884 187.287 142.884C191.287 133.884 191.287 133.884 195.287 124.884ZM928.287 127.884C928.007 151.061 919.307 157.212 898.287 164.884C902.166 157.621 916.054 127.884 928.287 127.884Z" fill="#000000" fill-rule="nonzero" opacity="1" stroke="none"/>
</g>
</svg>
