999
Generated by Autodesk CAM - http://cam.autodesk.com
0
SECTION
2
HEADER
9
$ACADVER
1
AC1006
9
$ANGBASE
50
0
9
$ANGDIR
70
0
0
ENDSEC
0
SECTION
2
BLOCKS
0
ENDSEC
9
$EXTMIN
10
0
20
-84.063
30
0
9
$EXTMAX
10
419.064
20
144.064
30
21
0
SECTION
2
ENTITIES
0
CIRCLE
8
1
62
1
10
299
20
128
30
6
40
0.436
0
CIRCLE
8
1
62
1
10
315
20
128
30
6
40
0.436
0
CIRCLE
8
1
62
1
10
331
20
128
30
6
40
0.436
0
CIRCLE
8
1
62
1
10
347
20
128
30
6
40
0.436
0
CIRCLE
8
1
62
1
10
363
20
128
30
6
40
0.436
0
CIRCLE
8
1
62
1
10
379
20
128
30
6
40
0.436
0
CIRCLE
8
1
62
1
10
395
20
128
30
6
40
0.436
0
CIRCLE
8
1
62
1
10
411
20
128
30
6
40
0.436
0
CIRCLE
8
1
62
1
10
411
20
96
30
6
40
0.436
0
CIRCLE
8
1
62
1
10
395
20
96
30
6
40
0.436
0
CIRCLE
8
1
62
1
10
379
20
96
30
6
40
0.436
0
CIRCLE
8
1
62
1
10
363
20
96
30
6
40
0.436
0
CIRCLE
8
1
62
1
10
347
20
96
30
6
40
0.436
0
CIRCLE
8
1
62
1
10
331
20
96
30
6
40
0.436
0
CIRCLE
8
1
62
1
10
315
20
96
30
6
40
0.436
0
CIRCLE
8
1
62
1
10
299
20
96
30
6
40
0.436
0
CIRCLE
8
1
62
1
10
299
20
64
30
6
40
0.436
0
CIRCLE
8
1
62
1
10
315
20
64
30
6
40
0.436
0
CIRCLE
8
1
62
1
10
331
20
64
30
6
40
0.436
0
CIRCLE
8
1
62
1
10
347
20
64
30
6
40
0.436
0
CIRCLE
8
1
62
1
10
363
20
64
30
6
40
0.436
0
CIRCLE
8
1
62
1
10
379
20
64
30
6
40
0.436
0
CIRCLE
8
1
62
1
10
395
20
64
30
6
40
0.436
0
CIRCLE
8
1
62
1
10
411
20
64
30
6
40
0.436
0
CIRCLE
8
1
62
1
10
411
20
32
30
6
40
0.436
0
CIRCLE
8
1
62
1
10
395
20
32
30
6
40
0.436
0
CIRCLE
8
1
62
1
10
379
20
32
30
6
40
0.436
0
CIRCLE
8
1
62
1
10
363
20
32
30
6
40
0.436
0
CIRCLE
8
1
62
1
10
347
20
32
30
6
40
0.436
0
CIRCLE
8
1
62
1
10
331
20
32
30
6
40
0.436
0
CIRCLE
8
1
62
1
10
315
20
32
30
6
40
0.437
0
CIRCLE
8
1
62
1
10
307
20
37.5
30
6
40
0.437
0
CIRCLE
8
1
62
1
10
299
20
32
30
6
40
0.437
0
POLYLINE
8
1
62
1
66
1
70
1
0
VERTEX
8
1
10
290.936
20
23.563
0
VERTEX
8
1
10
290.936
20
16
42
0.414
0
VERTEX
8
1
10
291
20
15.936
0
VERTEX
8
1
10
299
20
15.936
42
0.414
0
VERTEX
8
1
10
299.064
20
16
0
VERTEX
8
1
10
299.064
20
18.937
0
VERTEX
8
1
10
314.936
20
18.937
0
VERTEX
8
1
10
314.936
20
16
42
0.414
0
VERTEX
8
1
10
315
20
15.936
0
VERTEX
8
1
10
331
20
15.936
42
0.414
0
VERTEX
8
1
10
331.064
20
16
0
VERTEX
8
1
10
331.064
20
18.937
0
VERTEX
8
1
10
346.936
20
18.937
0
VERTEX
8
1
10
346.936
20
16
42
0.414
0
VERTEX
8
1
10
347
20
15.936
0
VERTEX
8
1
10
363
20
15.936
42
0.414
0
VERTEX
8
1
10
363.064
20
16
0
VERTEX
8
1
10
363.064
20
18.937
0
VERTEX
8
1
10
378.936
20
18.937
0
VERTEX
8
1
10
378.936
20
16
42
0.414
0
VERTEX
8
1
10
379
20
15.936
0
VERTEX
8
1
10
395
20
15.936
42
0.414
0
VERTEX
8
1
10
395.064
20
16
0
VERTEX
8
1
10
395.064
20
18.937
0
VERTEX
8
1
10
410.936
20
18.937
0
VERTEX
8
1
10
410.936
20
16
42
0.414
0
VERTEX
8
1
10
411
20
15.936
0
VERTEX
8
1
10
419
20
15.936
42
0.414
0
VERTEX
8
1
10
419.064
20
16
0
VERTEX
8
1
10
419.064
20
24
42
0.414
0
VERTEX
8
1
10
419
20
24.063
0
VERTEX
8
1
10
416.064
20
24.063
0
VERTEX
8
1
10
416.064
20
39.937
0
VERTEX
8
1
10
419
20
39.937
42
0.414
0
VERTEX
8
1
10
419.064
20
40
0
VERTEX
8
1
10
419.064
20
56
42
0.414
0
VERTEX
8
1
10
419
20
56.063
0
VERTEX
8
1
10
416.064
20
56.063
0
VERTEX
8
1
10
416.064
20
71.937
0
VERTEX
8
1
10
419
20
71.937
42
0.414
0
VERTEX
8
1
10
419.064
20
72
0
VERTEX
8
1
10
419.064
20
88
42
0.414
0
VERTEX
8
1
10
419
20
88.063
0
VERTEX
8
1
10
416.064
20
88.063
0
VERTEX
8
1
10
416.064
20
103.937
0
VERTEX
8
1
10
419
20
103.937
42
0.414
0
VERTEX
8
1
10
419.064
20
104
0
VERTEX
8
1
10
419.064
20
120
42
0.414
0
VERTEX
8
1
10
419
20
120.063
0
VERTEX
8
1
10
416.064
20
120.063
0
VERTEX
8
1
10
416.064
20
135.936
0
VERTEX
8
1
10
419
20
135.936
42
0.414
0
VERTEX
8
1
10
419.064
20
136
0
VERTEX
8
1
10
419.064
20
144
42
0.414
0
VERTEX
8
1
10
419
20
144.064
0
VERTEX
8
1
10
411
20
144.064
42
0.414
0
VERTEX
8
1
10
410.936
20
144
0
VERTEX
8
1
10
410.936
20
141.064
0
VERTEX
8
1
10
395.064
20
141.064
0
VERTEX
8
1
10
395.064
20
144
42
0.414
0
VERTEX
8
1
10
395
20
144.064
0
VERTEX
8
1
10
379
20
144.064
42
0.414
0
VERTEX
8
1
10
378.936
20
144
0
VERTEX
8
1
10
378.936
20
141.064
0
VERTEX
8
1
10
363.064
20
141.064
0
VERTEX
8
1
10
363.064
20
144
42
0.414
0
VERTEX
8
1
10
363
20
144.064
0
VERTEX
8
1
10
347
20
144.064
42
0.414
0
VERTEX
8
1
10
346.936
20
144
0
VERTEX
8
1
10
346.936
20
141.064
0
VERTEX
8
1
10
331.064
20
141.064
0
VERTEX
8
1
10
331.064
20
144
42
0.414
0
VERTEX
8
1
10
331
20
144.064
0
VERTEX
8
1
10
315
20
144.064
42
0.414
0
VERTEX
8
1
10
314.936
20
144
0
VERTEX
8
1
10
314.936
20
141.064
0
VERTEX
8
1
10
299.064
20
141.064
0
VERTEX
8
1
10
299.064
20
144
42
0.414
0
VERTEX
8
1
10
299
20
144.064
0
VERTEX
8
1
10
291
20
144.064
42
0.414
0
VERTEX
8
1
10
290.936
20
144
0
VERTEX
8
1
10
290.936
20
136
42
0.414
0
VERTEX
8
1
10
291
20
135.936
0
VERTEX
8
1
10
293.936
20
135.936
0
VERTEX
8
1
10
293.936
20
120.063
0
VERTEX
8
1
10
291
20
120.063
42
0.414
0
VERTEX
8
1
10
290.936
20
120
0
VERTEX
8
1
10
290.936
20
104
42
0.414
0
VERTEX
8
1
10
291
20
103.937
0
VERTEX
8
1
10
293.936
20
103.937
0
VERTEX
8
1
10
293.936
20
88.063
0
VERTEX
8
1
10
291
20
88.063
42
0.414
0
VERTEX
8
1
10
290.936
20
88
0
VERTEX
8
1
10
290.936
20
72
42
0.414
0
VERTEX
8
1
10
291
20
71.937
0
VERTEX
8
1
10
293.936
20
71.937
0
VERTEX
8
1
10
293.936
20
56.063
0
VERTEX
8
1
10
291
20
56.063
42
0.414
0
VERTEX
8
1
10
290.936
20
56
0
VERTEX
8
1
10
290.936
20
40
42
0.414
0
VERTEX
8
1
10
291
20
39.937
0
VERTEX
8
1
10
293.936
20
39.937
0
VERTEX
8
1
10
293.936
20
24.063
0
VERTEX
8
1
10
291
20
24.063
42
0.414
0
VERTEX
8
1
10
290.936
20
24
0
VERTEX
8
1
10
290.936
20
23.563
0
SEQEND
8
1
0
POLYLINE
8
1
62
1
66
1
70
1
0
VERTEX
8
1
10
284.064
20
16
0
VERTEX
8
1
10
284.064
20
24
42
0.414
0
VERTEX
8
1
10
284
20
24.063
0
VERTEX
8
1
10
281.064
20
24.063
0
VERTEX
8
1
10
281.064
20
39.937
0
VERTEX
8
1
10
284
20
39.937
42
0.414
0
VERTEX
8
1
10
284.064
20
40
0
VERTEX
8
1
10
284.064
20
56
42
0.414
0
VERTEX
8
1
10
284
20
56.063
0
VERTEX
8
1
10
281.064
20
56.063
0
VERTEX
8
1
10
281.064
20
71.937
0
VERTEX
8
1
10
284
20
71.937
42
0.414
0
VERTEX
8
1
10
284.064
20
72
0
VERTEX
8
1
10
284.064
20
88
42
0.414
0
VERTEX
8
1
10
284
20
88.063
0
VERTEX
8
1
10
281.064
20
88.063
0
VERTEX
8
1
10
281.064
20
103.937
0
VERTEX
8
1
10
284
20
103.937
42
0.414
0
VERTEX
8
1
10
284.064
20
104
0
VERTEX
8
1
10
284.064
20
120
42
0.414
0
VERTEX
8
1
10
284
20
120.063
0
VERTEX
8
1
10
281.064
20
120.063
0
VERTEX
8
1
10
281.064
20
135.936
0
VERTEX
8
1
10
284
20
135.936
42
0.414
0
VERTEX
8
1
10
284.064
20
136
0
VERTEX
8
1
10
284.064
20
144
42
0.414
0
VERTEX
8
1
10
284
20
144.064
0
VERTEX
8
1
10
276
20
144.064
42
0.414
0
VERTEX
8
1
10
275.936
20
144
0
VERTEX
8
1
10
275.936
20
141.064
0
VERTEX
8
1
10
260.064
20
141.064
0
VERTEX
8
1
10
260.064
20
144
42
0.414
0
VERTEX
8
1
10
260
20
144.064
0
VERTEX
8
1
10
244
20
144.064
42
0.414
0
VERTEX
8
1
10
243.936
20
144
0
VERTEX
8
1
10
243.936
20
141.064
0
VERTEX
8
1
10
228.064
20
141.064
0
VERTEX
8
1
10
228.064
20
144
42
0.414
0
VERTEX
8
1
10
228
20
144.064
0
VERTEX
8
1
10
212
20
144.064
42
0.414
0
VERTEX
8
1
10
211.936
20
144
0
VERTEX
8
1
10
211.936
20
141.064
0
VERTEX
8
1
10
196.064
20
141.064
0
VERTEX
8
1
10
196.064
20
144
42
0.414
0
VERTEX
8
1
10
196
20
144.064
0
VERTEX
8
1
10
180
20
144.064
42
0.414
0
VERTEX
8
1
10
179.936
20
144
0
VERTEX
8
1
10
179.936
20
141.064
0
VERTEX
8
1
10
164.064
20
141.064
0
VERTEX
8
1
10
164.064
20
144
42
0.414
0
VERTEX
8
1
10
164
20
144.064
0
VERTEX
8
1
10
156
20
144.064
42
0.414
0
VERTEX
8
1
10
155.936
20
144
0
VERTEX
8
1
10
155.936
20
136
42
0.414
0
VERTEX
8
1
10
156
20
135.936
0
VERTEX
8
1
10
158.936
20
135.936
0
VERTEX
8
1
10
158.936
20
120.063
0
VERTEX
8
1
10
156
20
120.063
42
0.414
0
VERTEX
8
1
10
155.936
20
120
0
VERTEX
8
1
10
155.936
20
104
42
0.414
0
VERTEX
8
1
10
156
20
103.937
0
VERTEX
8
1
10
158.936
20
103.937
0
VERTEX
8
1
10
158.936
20
88.063
0
VERTEX
8
1
10
156
20
88.063
42
0.414
0
VERTEX
8
1
10
155.936
20
88
0
VERTEX
8
1
10
155.936
20
72
42
0.414
0
VERTEX
8
1
10
156
20
71.937
0
VERTEX
8
1
10
158.936
20
71.937
0
VERTEX
8
1
10
158.936
20
56.063
0
VERTEX
8
1
10
156
20
56.063
42
0.414
0
VERTEX
8
1
10
155.936
20
56
0
VERTEX
8
1
10
155.936
20
40
42
0.414
0
VERTEX
8
1
10
156
20
39.937
0
VERTEX
8
1
10
158.936
20
39.937
0
VERTEX
8
1
10
158.936
20
24.063
0
VERTEX
8
1
10
156
20
24.063
42
0.414
0
VERTEX
8
1
10
155.936
20
24
0
VERTEX
8
1
10
155.936
20
16
42
0.414
0
VERTEX
8
1
10
156
20
15.936
0
VERTEX
8
1
10
164
20
15.936
42
0.414
0
VERTEX
8
1
10
164.064
20
16
0
VERTEX
8
1
10
164.064
20
18.937
0
VERTEX
8
1
10
179.936
20
18.937
0
VERTEX
8
1
10
179.936
20
16
42
0.414
0
VERTEX
8
1
10
180
20
15.936
0
VERTEX
8
1
10
196
20
15.936
42
0.414
0
VERTEX
8
1
10
196.064
20
16
0
VERTEX
8
1
10
196.064
20
18.937
0
VERTEX
8
1
10
211.936
20
18.937
0
VERTEX
8
1
10
211.936
20
16
42
0.414
0
VERTEX
8
1
10
212
20
15.936
0
VERTEX
8
1
10
228
20
15.936
42
0.414
0
VERTEX
8
1
10
228.064
20
16
0
VERTEX
8
1
10
228.064
20
18.937
0
VERTEX
8
1
10
243.936
20
18.937
0
VERTEX
8
1
10
243.936
20
16
42
0.414
0
VERTEX
8
1
10
244
20
15.936
0
VERTEX
8
1
10
260
20
15.936
42
0.414
0
VERTEX
8
1
10
260.064
20
16
0
VERTEX
8
1
10
260.064
20
18.937
0
VERTEX
8
1
10
275.936
20
18.937
0
VERTEX
8
1
10
275.936
20
16
42
0.414
0
VERTEX
8
1
10
276
20
15.936
0
VERTEX
8
1
10
284
20
15.936
42
0.414
0
VERTEX
8
1
10
284.064
20
16
0
SEQEND
8
1
0
POLYLINE
8
1
62
1
66
1
70
1
0
VERTEX
8
1
10
278.064
20
-6.063
0
VERTEX
8
1
10
284
20
-6.063
42
0.414
0
VERTEX
8
1
10
284.064
20
-6
0
VERTEX
8
1
10
284.064
20
-2
42
0.414
0
VERTEX
8
1
10
284
20
-1.936
0
VERTEX
8
1
10
281.064
20
-1.936
0
VERTEX
8
1
10
281.064
20
1.936
0
VERTEX
8
1
10
284
20
1.936
42
0.414
0
VERTEX
8
1
10
284.064
20
2
0
VERTEX
8
1
10
284.064
20
6
42
0.414
0
VERTEX
8
1
10
284
20
6.063
0
VERTEX
8
1
10
276.064
20
6.063
0
VERTEX
8
1
10
276.064
20
9
42
0.414
0
VERTEX
8
1
10
276
20
9.064
0
VERTEX
8
1
10
260
20
9.064
42
0.414
0
VERTEX
8
1
10
259.936
20
9
0
VERTEX
8
1
10
259.936
20
6.063
0
VERTEX
8
1
10
244.064
20
6.063
0
VERTEX
8
1
10
244.064
20
9
42
0.414
0
VERTEX
8
1
10
244
20
9.064
0
VERTEX
8
1
10
228
20
9.064
42
0.414
0
VERTEX
8
1
10
227.936
20
9
0
VERTEX
8
1
10
227.936
20
6.063
0
VERTEX
8
1
10
212.064
20
6.063
0
VERTEX
8
1
10
212.064
20
9
42
0.414
0
VERTEX
8
1
10
212
20
9.064
0
VERTEX
8
1
10
196
20
9.064
42
0.414
0
VERTEX
8
1
10
195.936
20
9
0
VERTEX
8
1
10
195.936
20
6.063
0
VERTEX
8
1
10
180.064
20
6.063
0
VERTEX
8
1
10
180.064
20
9
42
0.414
0
VERTEX
8
1
10
180
20
9.064
0
VERTEX
8
1
10
164
20
9.064
42
0.414
0
VERTEX
8
1
10
163.936
20
9
0
VERTEX
8
1
10
163.936
20
6.063
0
VERTEX
8
1
10
156
20
6.063
42
0.414
0
VERTEX
8
1
10
155.936
20
6
0
VERTEX
8
1
10
155.936
20
2
42
0.414
0
VERTEX
8
1
10
156
20
1.936
0
VERTEX
8
1
10
158.936
20
1.936
0
VERTEX
8
1
10
158.936
20
-1.936
0
VERTEX
8
1
10
156
20
-1.936
42
0.414
0
VERTEX
8
1
10
155.936
20
-2
0
VERTEX
8
1
10
155.936
20
-6
42
0.414
0
VERTEX
8
1
10
156
20
-6.063
0
VERTEX
8
1
10
163.936
20
-6.063
0
VERTEX
8
1
10
163.936
20
-9
42
0.414
0
VERTEX
8
1
10
164
20
-9.064
0
VERTEX
8
1
10
180
20
-9.064
42
0.414
0
VERTEX
8
1
10
180.064
20
-9
0
VERTEX
8
1
10
180.064
20
-6.063
0
VERTEX
8
1
10
195.936
20
-6.063
0
VERTEX
8
1
10
195.936
20
-9
42
0.414
0
VERTEX
8
1
10
196
20
-9.064
0
VERTEX
8
1
10
212
20
-9.064
42
0.414
0
VERTEX
8
1
10
212.064
20
-9
0
VERTEX
8
1
10
212.064
20
-6.063
0
VERTEX
8
1
10
227.936
20
-6.063
0
VERTEX
8
1
10
227.936
20
-9
42
0.414
0
VERTEX
8
1
10
228
20
-9.064
0
VERTEX
8
1
10
244
20
-9.064
42
0.414
0
VERTEX
8
1
10
244.064
20
-9
0
VERTEX
8
1
10
244.064
20
-6.063
0
VERTEX
8
1
10
259.936
20
-6.063
0
VERTEX
8
1
10
259.936
20
-9
42
0.414
0
VERTEX
8
1
10
260
20
-9.064
0
VERTEX
8
1
10
276
20
-9.064
42
0.414
0
VERTEX
8
1
10
276.064
20
-9
0
VERTEX
8
1
10
276.064
20
-6.063
0
VERTEX
8
1
10
278.064
20
-6.063
0
SEQEND
8
1
0
POLYLINE
8
1
62
1
66
1
70
1
0
VERTEX
8
1
10
277
20
-18.937
0
VERTEX
8
1
10
276.064
20
-18.937
0
VERTEX
8
1
10
276.064
20
-16
42
0.414
0
VERTEX
8
1
10
276
20
-15.936
0
VERTEX
8
1
10
260
20
-15.936
42
0.414
0
VERTEX
8
1
10
259.936
20
-16
0
VERTEX
8
1
10
259.936
20
-18.937
0
VERTEX
8
1
10
244.064
20
-18.937
0
VERTEX
8
1
10
244.064
20
-16
42
0.414
0
VERTEX
8
1
10
244
20
-15.936
0
VERTEX
8
1
10
228
20
-15.936
42
0.414
0
VERTEX
8
1
10
227.936
20
-16
0
VERTEX
8
1
10
227.936
20
-18.937
0
VERTEX
8
1
10
212.064
20
-18.937
0
VERTEX
8
1
10
212.064
20
-16
42
0.414
0
VERTEX
8
1
10
212
20
-15.936
0
VERTEX
8
1
10
196
20
-15.936
42
0.414
0
VERTEX
8
1
10
195.936
20
-16
0
VERTEX
8
1
10
195.936
20
-18.937
0
VERTEX
8
1
10
180.064
20
-18.937
0
VERTEX
8
1
10
180.064
20
-16
42
0.414
0
VERTEX
8
1
10
180
20
-15.936
0
VERTEX
8
1
10
164
20
-15.936
42
0.414
0
VERTEX
8
1
10
163.936
20
-16
0
VERTEX
8
1
10
163.936
20
-18.937
0
VERTEX
8
1
10
156
20
-18.937
42
0.414
0
VERTEX
8
1
10
155.936
20
-19
0
VERTEX
8
1
10
155.936
20
-23
42
0.414
0
VERTEX
8
1
10
156
20
-23.063
0
VERTEX
8
1
10
158.936
20
-23.063
0
VERTEX
8
1
10
158.936
20
-26.937
0
VERTEX
8
1
10
156
20
-26.937
42
0.414
0
VERTEX
8
1
10
155.936
20
-27
0
VERTEX
8
1
10
155.936
20
-31
42
0.414
0
VERTEX
8
1
10
156
20
-31.063
0
VERTEX
8
1
10
163.936
20
-31.063
0
VERTEX
8
1
10
163.936
20
-34
42
0.414
0
VERTEX
8
1
10
164
20
-34.063
0
VERTEX
8
1
10
180
20
-34.063
42
0.414
0
VERTEX
8
1
10
180.064
20
-34
0
VERTEX
8
1
10
180.064
20
-31.063
0
VERTEX
8
1
10
195.936
20
-31.063
0
VERTEX
8
1
10
195.936
20
-34
42
0.414
0
VERTEX
8
1
10
196
20
-34.063
0
VERTEX
8
1
10
212
20
-34.063
42
0.414
0
VERTEX
8
1
10
212.064
20
-34
0
VERTEX
8
1
10
212.064
20
-31.063
0
VERTEX
8
1
10
227.936
20
-31.063
0
VERTEX
8
1
10
227.936
20
-34
42
0.414
0
VERTEX
8
1
10
228
20
-34.063
0
VERTEX
8
1
10
244
20
-34.063
42
0.414
0
VERTEX
8
1
10
244.064
20
-34
0
VERTEX
8
1
10
244.064
20
-31.063
0
VERTEX
8
1
10
259.936
20
-31.063
0
VERTEX
8
1
10
259.936
20
-34
42
0.414
0
VERTEX
8
1
10
260
20
-34.063
0
VERTEX
8
1
10
276
20
-34.063
42
0.414
0
VERTEX
8
1
10
276.064
20
-34
0
VERTEX
8
1
10
276.064
20
-31.063
0
VERTEX
8
1
10
284
20
-31.063
42
0.414
0
VERTEX
8
1
10
284.064
20
-31
0
VERTEX
8
1
10
284.064
20
-27
42
0.414
0
VERTEX
8
1
10
284
20
-26.937
0
VERTEX
8
1
10
281.064
20
-26.937
0
VERTEX
8
1
10
281.064
20
-23.063
0
VERTEX
8
1
10
284
20
-23.063
42
0.414
0
VERTEX
8
1
10
284.064
20
-23
0
VERTEX
8
1
10
284.064
20
-19
42
0.414
0
VERTEX
8
1
10
284
20
-18.937
0
VERTEX
8
1
10
277
20
-18.937
0
SEQEND
8
1
0
POLYLINE
8
1
62
1
66
1
70
1
0
VERTEX
8
1
10
276.064
20
-59
0
VERTEX
8
1
10
276.064
20
-56.063
0
VERTEX
8
1
10
281
20
-56.063
42
0.414
0
VERTEX
8
1
10
281.064
20
-56
0
VERTEX
8
1
10
281.064
20
-52.063
0
VERTEX
8
1
10
284
20
-52.063
42
0.414
0
VERTEX
8
1
10
284.064
20
-52
0
VERTEX
8
1
10
284.064
20
-48
42
0.414
0
VERTEX
8
1
10
284
20
-47.937
0
VERTEX
8
1
10
281.064
20
-47.937
0
VERTEX
8
1
10
281.064
20
-44
42
0.414
0
VERTEX
8
1
10
281
20
-43.937
0
VERTEX
8
1
10
276.064
20
-43.937
0
VERTEX
8
1
10
276.064
20
-41
42
0.414
0
VERTEX
8
1
10
276
20
-40.937
0
VERTEX
8
1
10
260
20
-40.937
42
0.414
0
VERTEX
8
1
10
259.936
20
-41
0
VERTEX
8
1
10
259.936
20
-43.937
0
VERTEX
8
1
10
244.064
20
-43.937
0
VERTEX
8
1
10
244.064
20
-41
42
0.414
0
VERTEX
8
1
10
244
20
-40.937
0
VERTEX
8
1
10
228
20
-40.937
42
0.414
0
VERTEX
8
1
10
227.936
20
-41
0
VERTEX
8
1
10
227.936
20
-43.937
0
VERTEX
8
1
10
212.064
20
-43.937
0
VERTEX
8
1
10
212.064
20
-41
42
0.414
0
VERTEX
8
1
10
212
20
-40.937
0
VERTEX
8
1
10
196
20
-40.937
42
0.414
0
VERTEX
8
1
10
195.936
20
-41
0
VERTEX
8
1
10
195.936
20
-43.937
0
VERTEX
8
1
10
180.064
20
-43.937
0
VERTEX
8
1
10
180.064
20
-41
42
0.414
0
VERTEX
8
1
10
180
20
-40.937
0
VERTEX
8
1
10
164
20
-40.937
42
0.414
0
VERTEX
8
1
10
163.936
20
-41
0
VERTEX
8
1
10
163.936
20
-43.937
0
VERTEX
8
1
10
159
20
-43.937
42
0.414
0
VERTEX
8
1
10
158.936
20
-44
0
VERTEX
8
1
10
158.936
20
-47.937
0
VERTEX
8
1
10
156
20
-47.937
42
0.414
0
VERTEX
8
1
10
155.936
20
-48
0
VERTEX
8
1
10
155.936
20
-52
42
0.414
0
VERTEX
8
1
10
156
20
-52.063
0
VERTEX
8
1
10
158.936
20
-52.063
0
VERTEX
8
1
10
158.936
20
-56
42
0.414
0
VERTEX
8
1
10
159
20
-56.063
0
VERTEX
8
1
10
163.936
20
-56.063
0
VERTEX
8
1
10
163.936
20
-59
42
0.414
0
VERTEX
8
1
10
164
20
-59.063
0
VERTEX
8
1
10
180
20
-59.063
42
0.414
0
VERTEX
8
1
10
180.064
20
-59
0
VERTEX
8
1
10
180.064
20
-56.063
0
VERTEX
8
1
10
195.936
20
-56.063
0
VERTEX
8
1
10
195.936
20
-59
42
0.414
0
VERTEX
8
1
10
196
20
-59.063
0
VERTEX
8
1
10
212
20
-59.063
42
0.414
0
VERTEX
8
1
10
212.064
20
-59
0
VERTEX
8
1
10
212.064
20
-56.063
0
VERTEX
8
1
10
227.936
20
-56.063
0
VERTEX
8
1
10
227.936
20
-59
42
0.414
0
VERTEX
8
1
10
228
20
-59.063
0
VERTEX
8
1
10
244
20
-59.063
42
0.414
0
VERTEX
8
1
10
244.064
20
-59
0
VERTEX
8
1
10
244.064
20
-56.063
0
VERTEX
8
1
10
259.936
20
-56.063
0
VERTEX
8
1
10
259.936
20
-59
42
0.414
0
VERTEX
8
1
10
260
20
-59.063
0
VERTEX
8
1
10
276
20
-59.063
42
0.414
0
VERTEX
8
1
10
276.064
20
-59
0
SEQEND
8
1
0
POLYLINE
8
1
62
1
66
1
70
1
0
VERTEX
8
1
10
276.001
20
-65.937
0
VERTEX
8
1
10
276
20
-65.937
0
VERTEX
8
1
10
276
20
-65.937
0
VERTEX
8
1
10
260
20
-65.937
42
0.414
0
VERTEX
8
1
10
259.936
20
-66
0
VERTEX
8
1
10
259.936
20
-68.937
0
VERTEX
8
1
10
244.064
20
-68.937
0
VERTEX
8
1
10
244.064
20
-66
42
0.414
0
VERTEX
8
1
10
244
20
-65.937
0
VERTEX
8
1
10
228
20
-65.937
42
0.414
0
VERTEX
8
1
10
227.936
20
-66
0
VERTEX
8
1
10
227.936
20
-68.937
0
VERTEX
8
1
10
212.064
20
-68.937
0
VERTEX
8
1
10
212.064
20
-66
42
0.414
0
VERTEX
8
1
10
212
20
-65.937
0
VERTEX
8
1
10
196
20
-65.937
42
0.414
0
VERTEX
8
1
10
195.936
20
-66
0
VERTEX
8
1
10
195.936
20
-68.937
0
VERTEX
8
1
10
180.064
20
-68.937
0
VERTEX
8
1
10
180.064
20
-66
42
0.414
0
VERTEX
8
1
10
180
20
-65.937
0
VERTEX
8
1
10
164
20
-65.937
42
0.414
0
VERTEX
8
1
10
163.936
20
-66
0
VERTEX
8
1
10
163.936
20
-68.937
0
VERTEX
8
1
10
159
20
-68.937
42
0.414
0
VERTEX
8
1
10
158.936
20
-69
0
VERTEX
8
1
10
158.936
20
-72.937
0
VERTEX
8
1
10
156
20
-72.937
42
0.414
0
VERTEX
8
1
10
155.936
20
-73
0
VERTEX
8
1
10
155.936
20
-77
42
0.414
0
VERTEX
8
1
10
156
20
-77.063
0
VERTEX
8
1
10
158.936
20
-77.063
0
VERTEX
8
1
10
158.936
20
-81
42
0.414
0
VERTEX
8
1
10
159
20
-81.063
0
VERTEX
8
1
10
163.936
20
-81.063
0
VERTEX
8
1
10
163.936
20
-84
42
0.414
0
VERTEX
8
1
10
164
20
-84.063
0
VERTEX
8
1
10
180
20
-84.063
42
0.414
0
VERTEX
8
1
10
180.064
20
-84
0
VERTEX
8
1
10
180.064
20
-81.063
0
VERTEX
8
1
10
195.936
20
-81.063
0
VERTEX
8
1
10
195.936
20
-84
42
0.414
0
VERTEX
8
1
10
196
20
-84.063
0
VERTEX
8
1
10
212
20
-84.063
42
0.414
0
VERTEX
8
1
10
212.064
20
-84
0
VERTEX
8
1
10
212.064
20
-81.063
0
VERTEX
8
1
10
227.936
20
-81.063
0
VERTEX
8
1
10
227.936
20
-84
42
0.414
0
VERTEX
8
1
10
228
20
-84.063
0
VERTEX
8
1
10
244
20
-84.063
42
0.414
0
VERTEX
8
1
10
244.064
20
-84
0
VERTEX
8
1
10
244.064
20
-81.063
0
VERTEX
8
1
10
259.936
20
-81.063
0
VERTEX
8
1
10
259.936
20
-84
42
0.414
0
VERTEX
8
1
10
260
20
-84.063
0
VERTEX
8
1
10
276
20
-84.063
42
0.414
0
VERTEX
8
1
10
276.064
20
-84
0
VERTEX
8
1
10
276.064
20
-81.063
0
VERTEX
8
1
10
281
20
-81.063
42
0.414
0
VERTEX
8
1
10
281.064
20
-81
0
VERTEX
8
1
10
281.064
20
-77.063
0
VERTEX
8
1
10
284
20
-77.063
42
0.414
0
VERTEX
8
1
10
284.064
20
-77
0
VERTEX
8
1
10
284.064
20
-73
42
0.414
0
VERTEX
8
1
10
284
20
-72.937
0
VERTEX
8
1
10
281.064
20
-72.937
0
VERTEX
8
1
10
281.064
20
-69
42
0.414
0
VERTEX
8
1
10
281
20
-68.937
0
VERTEX
8
1
10
276.064
20
-68.937
0
VERTEX
8
1
10
276.064
20
-66
42
0.412
0
VERTEX
8
1
10
276.001
20
-65.937
0
SEQEND
8
1
0
ENDSEC
0
EOF
