999
Generated by Autodesk CAM - http://cam.autodesk.com
0
SECTION
2
HEADER
9
$ACADVER
1
AC1006
9
$ANGBASE
50
0
9
$ANGDIR
70
0
0
ENDSEC
0
SECTION
2
BLOCKS
0
ENDSEC
9
$EXTMIN
10
0
20
0
30
0
9
$EXTMAX
10
419
20
144
30
21
0
SECTION
2
ENTITIES
0
CIRCLE
8
1
62
1
10
411
20
128
30
6
40
0.5
0
POLYLINE
8
1
62
1
66
1
70
1
0
VERTEX
8
1
10
407
20
83
0
VERTEX
8
1
10
407
20
132
0
VERTEX
8
1
10
379
20
132
0
VERTEX
8
1
10
379
20
144
0
VERTEX
8
1
10
395
20
144
0
VERTEX
8
1
10
395
20
141
0
VERTEX
8
1
10
411
20
141
0
VERTEX
8
1
10
411
20
144
0
VERTEX
8
1
10
419
20
144
0
VERTEX
8
1
10
419
20
136
0
VERTEX
8
1
10
416
20
136
0
VERTEX
8
1
10
416
20
120
0
VERTEX
8
1
10
419
20
120
0
VERTEX
8
1
10
419
20
104
0
VERTEX
8
1
10
416
20
104
0
VERTEX
8
1
10
416
20
88
0
VERTEX
8
1
10
419
20
88
0
VERTEX
8
1
10
419
20
72
0
VERTEX
8
1
10
416
20
72
0
VERTEX
8
1
10
416
20
56
0
VERTEX
8
1
10
419
20
56
0
VERTEX
8
1
10
419
20
40
0
VERTEX
8
1
10
416
20
40
0
VERTEX
8
1
10
416
20
24
0
VERTEX
8
1
10
419
20
24
0
VERTEX
8
1
10
419
20
16
0
VERTEX
8
1
10
411
20
16
0
VERTEX
8
1
10
411
20
19
0
VERTEX
8
1
10
395
20
19
0
VERTEX
8
1
10
395
20
16
0
VERTEX
8
1
10
379
20
16
0
VERTEX
8
1
10
379
20
28
0
VERTEX
8
1
10
407
20
28
0
VERTEX
8
1
10
407
20
83
0
SEQEND
8
1
0
CIRCLE
8
1
62
1
10
411
20
32
30
6
40
0.5
0
CIRCLE
8
1
62
1
10
411
20
64
30
6
40
0.5
0
CIRCLE
8
1
62
1
10
411
20
96
30
6
40
0.5
0
POLYLINE
8
1
62
1
66
1
70
1
0
VERTEX
8
1
10
365
20
96
0
VERTEX
8
1
10
365
20
28
0
VERTEX
8
1
10
355
20
28
0
VERTEX
8
1
10
355
20
16
0
VERTEX
8
1
10
347
20
16
0
VERTEX
8
1
10
347
20
19
0
VERTEX
8
1
10
331
20
19
0
VERTEX
8
1
10
331
20
28
0
VERTEX
8
1
10
303
20
28
0
VERTEX
8
1
10
303
20
132
0
VERTEX
8
1
10
331
20
132
0
VERTEX
8
1
10
331
20
141
0
VERTEX
8
1
10
347
20
141
0
VERTEX
8
1
10
347
20
144
0
VERTEX
8
1
10
355
20
144
0
VERTEX
8
1
10
355
20
120
0
VERTEX
8
1
10
395
20
120
0
VERTEX
8
1
10
395
20
98
0
VERTEX
8
1
10
365
20
98
0
VERTEX
8
1
10
365
20
96
0
SEQEND
8
1
0
POLYLINE
8
1
62
1
66
1
70
1
0
VERTEX
8
1
10
345
20
96
0
VERTEX
8
1
10
345
20
28
0
VERTEX
8
1
10
355
20
28
0
VERTEX
8
1
10
355
20
120
0
VERTEX
8
1
10
315
20
120
0
VERTEX
8
1
10
315
20
98
0
VERTEX
8
1
10
345
20
98
0
VERTEX
8
1
10
345
20
96
0
SEQEND
8
1
0
CIRCLE
8
1
62
1
10
315
20
96
30
6
40
0.5
0
CIRCLE
8
1
62
1
10
331
20
96
30
6
40
0.5
0
CIRCLE
8
1
62
1
10
331
20
64
30
6
40
0.5
0
CIRCLE
8
1
62
1
10
315
20
64
30
6
40
0.5
0
CIRCLE
8
1
62
1
10
307
20
37.5
30
6
40
0.5
0
CIRCLE
8
1
62
1
10
315
20
32
30
6
40
0.5
0
CIRCLE
8
1
62
1
10
331
20
32
30
6
40
0.5
0
CIRCLE
8
1
62
1
10
363
20
32
30
6
40
0.5
0
CIRCLE
8
1
62
1
10
363
20
64
30
6
40
0.5
0
CIRCLE
8
1
62
1
10
363
20
96
30
6
40
0.5
0
CIRCLE
8
1
62
1
10
347
20
128
30
6
40
0.5
0
CIRCLE
8
1
62
1
10
331
20
128
30
6
40
0.5
0
CIRCLE
8
1
62
1
10
315
20
128
30
6
40
0.5
0
ENDSEC
0
EOF
