<?xml version="1.0" encoding="UTF-8" standalone="no"?>
<svg
   id="Laag_1"
   data-name="Laag 1"
   width="391.35"
   height="166.18"
   viewBox="0 0 391.35 166.18"
   version="1.1"
   sodipodi:docname="DLBlogo fixed.svg"
   inkscape:export-filename="C:\Users\personeel\Documents\DLBlogo.png"
   inkscape:export-xdpi="96"
   inkscape:export-ydpi="96"
   inkscape:version="1.1.1 (3bf5ae0d25, 2021-09-20)"
   xmlns:inkscape="http://www.inkscape.org/namespaces/inkscape"
   xmlns:sodipodi="http://sodipodi.sourceforge.net/DTD/sodipodi-0.dtd"
   xmlns="http://www.w3.org/2000/svg"
   xmlns:svg="http://www.w3.org/2000/svg">
  <sodipodi:namedview
     id="namedview129"
     pagecolor="#888888"
     bordercolor="#666666"
     borderopacity="1.0"
     inkscape:pageshadow="2"
     inkscape:pageopacity="0"
     inkscape:pagecheckerboard="0"
     showgrid="false"
     inkscape:zoom="2.938546"
     inkscape:cx="194.82424"
     inkscape:cy="33.860283"
     inkscape:window-width="1920"
     inkscape:window-height="1017"
     inkscape:window-x="-8"
     inkscape:window-y="-8"
     inkscape:window-maximized="1"
     inkscape:current-layer="Laag_1"
     inkscape:lockguides="true" />
  <defs
     id="defs4">
    <style
       id="style2">
      .cls-1 {
        fill: #fff;
      }

      .cls-2 {
        fill: #d37612;
      }

      .cls-3 {
        fill: #5a7586;
      }

      .cls-4 {
        fill: #e2a35c;
      }

      .cls-5 {
        fill: #d47713;
      }

      .cls-6 {
        fill: #8295a1;
      }

      .cls-7 {
        fill: #fefaf6;
      }

      .cls-8 {
        fill: #d47815;
      }

      .cls-9 {
        fill: #19364d;
      }

      .cls-10 {
        fill: #fefbf7;
      }

      .cls-11 {
        fill: #d37815;
      }

      .cls-12 {
        fill: #19354c;
      }

      .cls-13 {
        fill: #d37713;
      }

      .cls-14 {
        fill: #123047;
      }

      .cls-15 {
        fill: #112f46;
      }

      .cls-16 {
        fill: #112e46;
      }

      .cls-17 {
        fill: #d37712;
      }

      .cls-18 {
        fill: #102e45;
      }

      .cls-19 {
        fill: #122f46;
      }

      .cls-20 {
        fill: #fefdfc;
      }

      .cls-21 {
        fill: #122f47;
      }

      .cls-22 {
        fill: #143148;
      }

      .cls-23 {
        fill: #133047;
      }

      .cls-24 {
        fill: #17344b;
      }

      .cls-25 {
        fill: #324c61;
      }

      .cls-26 {
        fill: #1f3a51;
      }

      .cls-27 {
        fill: #d47714;
      }

      .cls-28 {
        fill: #fffefe;
      }

      .cls-29 {
        fill: #1d3950;
      }
    </style>
    <clipPath
       clipPathUnits="userSpaceOnUse"
       id="clipPath1281">
      <g
         inkscape:label="Clip"
         id="use1283">
        <path
           class="cls-18"
           d="m 209.15,85.45 c 0.29,-0.61 -0.29,-1.44 0.49,-1.68 0.89,-0.28 1.86,-0.27 2.77,0.03 0.43,0.14 0.34,0.64 0.34,1.02 0,4.75 0,9.5 0.01,14.25 0,0.84 -0.28,1.31 -1.2,1.21 -0.17,-0.02 -0.34,0 -0.51,0 q -1.97,0 -2.07,-2.05 c -1.61,1.81 -3.55,2.49 -5.85,2.41 -3.04,-0.11 -5.39,-1.71 -6.44,-4.61 -0.82,-2.27 -0.83,-4.59 -0.37,-6.93 1.3,-6.62 9.47,-7.59 12.83,-3.63 z"
           id="path1394" />
        <path
           class="cls-1"
           d="m 209.12,91.66 c 0.21,3.29 -1.36,5.54 -4.12,5.94 -1.97,0.28 -3.68,-0.57 -4.51,-2.4 -0.98,-2.17 -0.96,-4.41 0.04,-6.57 0.9,-1.94 2.74,-2.8 4.88,-2.42 1.84,0.33 3.3,2.02 3.6,4.17 0.06,0.42 0.07,0.85 0.1,1.28 z"
           id="path1396" />
      </g>
    </clipPath>
  </defs>
  <path
     class="cls-2"
     d="M90.44,75.67c.35-5.23-3.69-9.56-8.79-9.81-6.98-.35-12.57,4.56-13.53,11.87-1.3,9.87,5.87,19.47,15.9,21.28,12.09,2.19,23.53-4.52,27.8-16.58,4.69-13.25,1.34-24.79-8.04-34.86-.82-.88-1.7-1.69-2.59-2.49-.88-.8-1.81-1.54-2.89-2.45,2.95-1.16,5.75-2.27,8.55-3.35,5.82-2.24,11.71-4.28,17.63-6.24,.67-.22,1.11-.23,1.59,.47,7.24,10.48,11.48,21.99,11.33,34.8-.23,19.32-8.97,33.75-25.74,43.31-3.69,2.1-7.67,3.55-11.8,4.56-.61,.15-1.14,.11-1.71-.21-14.17-8.01-27.3-17.48-39.69-28.02-.57-.49-.66-1.04-.66-1.69,.05-9.95,3.66-18.07,12.16-23.68,.07-.04,.11-.12,.17-.18-2.74,.08-8.47,4.17-11.37,7.63-3.05,3.64-5.13,7.75-6.36,12.56-2.45-2.36-4.76-4.57-7.05-6.81-1.79-1.75-1.78-1.78,.1-3.33,9.89-8.16,20.83-14.65,32.24-20.41,2.71-1.37,5.46-2.63,8.19-3.96,.48-.23,.9-.39,1.44-.15,7.76,3.49,13.51,8.89,15.86,17.26,2.51,8.93,.04,16.52-7,22.47-3.9,3.3-8.61,3.46-13.4,2.51-1.77-.35-3.43-1.04-4.97-2-5.61-3.5-7.24-11.12-3.4-16.12,2.23-2.9,5.37-3.81,8.82-3.27,3.42,.54,5.8,2.59,6.93,5.95,.07,.2,.11,.4,.27,.97Z"
     id="path6" />
  <path
     class="cls-17"
     d="M42.91,43.45c-6.64,4.48-12.37,9.87-16.66,16.69-5.88,9.34-8.63,19.57-8.54,30.57,.14,17.33,5.87,32.63,17.25,45.67,10.09,11.56,22.95,18.72,37.65,22.78,7.68,2.12,15.51,3.15,23.47,3.04,10.13-.13,19.98-1.96,29.54-5.32,.89-.31,1.7-.38,2.6-.07,1.41,.48,2.87,.84,4.3,1.26,.12,.03,.22,.12,.39,.22-6.19,2.66-12.54,4.66-19.09,5.96-16.69,3.32-33.13,2.46-49.15-3.49-17.92-6.66-32.06-17.9-40.86-35.1-8.43-16.49-10.79-33.77-5.26-51.72,3.75-12.17,11.23-21.69,21.59-28.99,.84-.59,1.7-1.15,2.55-1.72,.27-.14,.28,0,.23,.21Z"
     id="path8" />
  <path
     class="cls-2"
     d="M149.51,78.93c1.58-18.16-3.78-34.32-14-49.22,1.01-.54,2.14-.73,3.21-1.04,3.86-1.08,7.76-2.05,11.61-3.18,1.27-.37,1.49,.11,1.58,1.17,.35,3.87,.7,7.74,.87,11.63,.58,13.09-.56,26.05-2.91,38.92-.1,.57-.24,1.14-.37,1.71Z"
     id="path10" />
  <path
     class="cls-2"
     d="M115.67,124.63c7.39-3.28,13.64-7.75,18.94-13.54,5.25-5.74,9.15-12.31,12.02-19.55-.46,1.67-.88,3.36-1.38,5.02-3.35,11.19-7.47,22.07-12.8,32.48-.62,1.21-1.15,1.52-2.5,1.06-4.75-1.66-9.49-3.35-14.28-5.47Z"
     id="path12" />
  <path
     class="cls-18"
     d="M370.37,85.62c4.04-3.43,7.48-3.33,10.05,.23,1.18-1.41,2.61-2.38,4.48-2.67,3.73-.58,6.42,1.66,6.43,5.43,0,3.43-.05,6.85,.03,10.28,.02,1.07-.42,1.37-1.33,1.37-.3,0-.6-.01-.9,0-1.11,.06-1.59-.38-1.55-1.57,.08-2.7,.03-5.4,.03-8.09,0-.39,.02-.77,0-1.16-.16-2.25-.97-3.12-2.88-3.15-2.07-.03-3.47,1.13-3.67,3.16-.29,2.99-.07,5.99-.15,8.99-.01,.56,.28,1.35-.38,1.62-.96,.39-2.03,.37-3.01-.02-.5-.19-.31-.75-.31-1.15-.01-2.78,0-5.57,0-8.35,0-.3,0-.6,0-.9-.06-2.22-.74-3.17-2.39-3.33-2.08-.19-3.61,.91-4.05,2.91-.35,1.57-.17,3.16-.19,4.74-.03,1.67-.04,3.34,0,5.01,.03,.86-.27,1.29-1.14,1.28-.51,0-1.03,0-1.54,0-.74,0-1.08-.36-1.08-1.1,0-4.8,0-9.59,0-14.39,0-.79,.34-1.19,1.17-1.12,.34,.03,.69,.04,1.03,0,1.55-.21,1.41,.92,1.38,1.99Z"
     id="path14" />
  <path
     id="path16"
     class="cls-18"
     d="M 189.97266 77.357422 C 189.05063 77.414023 188.79508 77.920703 188.83008 78.970703 C 188.91008 81.050703 188.84961 83.129844 188.84961 85.339844 L 188.83984 85.339844 C 188.59984 85.179844 188.48016 85.140547 188.41016 85.060547 C 186.23016 82.370547 180.48953 82.509141 178.01953 85.369141 C 176.00953 87.699141 175.61969 90.450312 175.92969 93.320312 C 176.25969 96.370313 177.47938 99.009844 180.60938 100.08984 C 183.59938 101.11984 186.50914 100.98969 188.86914 98.429688 C 189.17914 100.22969 189.43055 100.3393 191.31055 100.2793 C 192.90055 100.2293 192.60938 99.150937 192.60938 98.210938 L 192.60938 79.570312 C 192.60938 76.870312 192.67016 77.509375 190.41016 77.359375 C 190.25016 77.349375 190.10437 77.349336 189.97266 77.357422 z M 184.30469 86.080078 C 186.20366 86.116226 188.05805 87.404219 188.66992 89.480469 C 189.14992 91.110469 189.12039 92.780156 188.65039 94.410156 C 188.07039 96.410156 186.5993 97.540156 184.5293 97.660156 C 182.6593 97.770156 181.03023 96.690313 180.24023 94.820312 C 179.84023 93.870312 179.67945 93.030313 179.68945 91.820312 L 179.67969 91.830078 C 179.71969 89.890078 180.09078 88.059609 181.80078 86.849609 C 182.56953 86.305859 183.44152 86.063647 184.30469 86.080078 z " />
  <path
     id="path20"
     class="cls-18"
     d="M 336.40625 83.115234 C 335.56533 83.130519 334.69687 83.274609 333.82031 83.560547 C 329.56031 84.950547 327.25047 90.079531 328.73047 95.019531 C 330.04047 99.419531 333.88031 101.32016 338.82031 100.41016 C 341.11031 99.990156 342.71906 98.569297 343.78906 96.529297 C 344.02906 96.069297 344.30977 95.580156 343.75977 95.160156 C 343.00977 94.580156 340.82031 95.000781 340.32031 95.800781 C 339.14031 97.690781 337.61 98.270469 335.25 97.730469 C 333.53 97.340469 332.37016 95.799531 332.16016 93.769531 C 332.09016 93.049531 332.22023 92.800078 332.99023 92.830078 C 334.69634 92.889941 336.41299 92.849791 338.11914 92.849609 C 339.87914 92.849609 341.63063 92.839609 343.39062 92.849609 C 344.20062 92.859609 344.51906 92.509453 344.53906 91.689453 C 344.6825 86.677578 340.94721 83.032697 336.40625 83.115234 z M 336.49023 85.910156 C 338.57023 85.910156 340.29992 87.429531 340.66992 89.519531 C 340.77992 90.129531 340.6307 90.359844 339.9707 90.339844 C 338.7807 90.299844 337.58062 90.330078 336.39062 90.330078 L 336.38086 90.320312 C 335.23086 90.320312 334.07969 90.290078 332.92969 90.330078 C 332.29969 90.350078 332.11094 90.159297 332.21094 89.529297 C 332.58094 87.329297 334.25023 85.900156 336.49023 85.910156 z " />
  <path
     id="path22"
     class="cls-18"
     d="M 245.15039 83.130859 C 239.91039 83.130859 236.56984 86.609062 236.58984 92.039062 C 236.59984 97.279062 239.94016 100.60938 245.16016 100.60938 C 250.54016 100.59938 253.64062 97.410391 253.64062 91.900391 C 253.64063 86.450391 250.42039 83.130859 245.15039 83.130859 z M 245.11719 86.107422 C 247.07326 86.064766 248.77539 87.251953 249.4707 89.330078 C 250.0207 90.990078 250.03977 92.679375 249.50977 94.359375 C 248.83977 96.479375 247.24969 97.699687 245.17969 97.679688 C 242.97969 97.659688 241.27094 96.349922 240.71094 94.169922 C 240.52094 93.429922 240.45961 92.660391 240.34961 91.900391 L 240.33984 91.910156 C 240.39984 89.210156 241.54969 87.139453 243.42969 86.439453 C 244.00063 86.227266 244.56949 86.119366 245.11719 86.107422 z " />
  <path
     class="cls-18"
     d="M260.59,85.82c2-2.25,4.29-3.06,7.05-2.52,2.37,.46,3.9,2.01,4.1,4.43,.32,3.8,.1,7.61,.14,11.42,0,.76-.36,1.08-1.08,1.08-.43,0-.86,.01-1.28,.03-1,.04-1.43-.37-1.41-1.44,.06-2.74,.02-5.48,.02-8.22,0-.3,.01-.6,0-.9-.13-2.22-.91-3.19-2.72-3.4-2.21-.25-3.89,.83-4.42,2.82-.32,1.22-.27,2.46-.27,3.7,0,2.01-.04,4.03,.02,6.04,.03,1.02-.4,1.41-1.34,1.4-.47,0-.94-.02-1.41-.03-.74-.01-1.07-.41-1.07-1.13,0-4.8,0-9.59,0-14.39,0-.72,.35-1.12,1.11-1.08,.13,0,.26,0,.39,0q2-.03,2.19,2.18Z"
     id="path24" />
  <path
     class="cls-18"
     d="M362.57,89.81c0,1.33-.07,2.66,.01,3.98,.25,3.81-2.24,6.08-5.54,6.69-1.68,.31-3.42,.26-5.09-.23-2.7-.79-4.22-2.76-4.28-5.7-.06-3.21,0-6.42-.02-9.63,0-.91,.31-1.39,1.27-1.29,.08,0,.17,0,.26,0q2.25-.02,2.26,2.19c0,2.82,0,5.65,.05,8.47,.03,1.81,.63,2.53,2.36,3.01,1.84,.51,3.13,.11,4.06-1.27,.84-1.23,.95-2.64,.98-4.05,.03-2.35,.04-4.71,0-7.06-.02-.9,.22-1.33,1.21-1.32,3.06,.04,2.43-.1,2.47,2.46,.02,1.24,0,2.48,0,3.72Z"
     id="path26" />
  <path
     class="cls-18"
     d="M300.97,96.06c1.28-3.7,2.48-7.16,3.67-10.62,.59-1.72,1.85-2.34,3.61-1.75,.92,.31,.61,.97,.37,1.57-.97,2.37-1.95,4.73-2.93,7.09-1.8,4.33-3.59,8.66-5.4,12.99-.22,.52-.28,1.22-1.12,1.18-.96-.04-1.87-.26-2.64-.83-.34-.25-.07-.61,.08-.92,.6-1.27,1.16-2.56,1.78-3.82,.41-.82,.4-1.57,.04-2.43-1.8-4.33-3.54-8.68-5.3-13.02-.65-1.59-.48-1.84,1.27-1.83,2.55,0,2.05-.28,2.93,2.08,1.25,3.36,2.57,6.69,3.64,10.34Z"
     id="path28" />
  <path
     class="cls-18"
     d="M318.42,100.61c-4.45,.22-8.36-2.9-8.19-8.85,.04-1.41,.26-2.81,.88-4.1,1.39-2.9,3.76-4.38,6.92-4.5,2.89-.11,5.56,.51,7.23,3.2,.49,.79,1.26,1.77,.58,2.56-.69,.8-1.94,.3-2.94,.28-.35,0-.58-.34-.72-.67-.78-1.91-2.25-2.61-4.22-2.33-2.03,.29-3.13,1.62-3.63,3.5-.44,1.64-.4,3.31,.11,4.93,.6,1.92,2.06,3.02,3.97,3.06,1.93,.04,3.21-.87,3.97-2.81,.34-.89,2.04-1.36,3.2-.82,1.05,.48,.52,1.33,.27,1.98-1.12,2.97-3.79,4.58-7.44,4.58Z"
     id="path30" />
  <path
     class="cls-5"
     d="M197.15,65.81c0-3.1,.26-6.25,.4-9.41,.32-7.46-.06-14.89-.76-22.31-.64-6.69-1.7-13.32-3.04-19.9-.14-.7,.02-.89,.65-1.03,2.45-.52,2.45-.54,2.77,1.66,1.36,9.24,2.17,18.53,2.05,27.88-.09,7.45-.6,14.87-1.98,22.22-.05,.29-.06,.59-.09,.88Z"
     id="path32" />
  <path
     class="cls-18"
     d="M227.84,93.17c0-1.88-.05-3.77,.02-5.65,.04-.92-.24-1.21-1.13-1.1-1.02,.13-1.72-.07-1.67-1.4,.04-1.08,.41-1.54,1.44-1.36,1.2,.21,1.45-.33,1.35-1.4-.08-.89,0-1.79,.03-2.69,.02-.62,.34-.85,.98-.9,2.78-.19,2.78-.21,2.78,2.58,0,2.3,0,2.34,2.24,2.39,.9,.02,1.21,.37,1.16,1.24-.04,.78,.12,1.58-1.09,1.58-.75,0-1.77-.36-2.18,.2-.37,.51-.13,1.48-.13,2.24,0,3.42-.03,6.85,.02,10.27,.01,.81-.32,1.04-1,1.12-2.66,.31-2.83,.17-2.83-2.48,0-1.54,0-3.08,0-4.62Z"
     id="path34" />
  <path
     class="cls-16"
     d="M217.04,87c0-2.83,.04-5.66-.02-8.48-.02-1.04,.27-1.46,1.37-1.4,2.51,.12,2.42-.48,2.42,2.4,0,5.18,0,10.37,0,15.55,0,1.74,.2,1.99,1.96,2.14,.88,.07,.94,.59,.91,1.23-.04,.72,.28,1.72-.88,1.81-3.15,.22-5.68-.65-5.74-4.63-.05-2.87,0-5.74,0-8.61Z"
     id="path36" />
  <path
     class="cls-18"
     d="M284.84,87.07c0-2.82,.04-5.65-.02-8.47-.02-1.08,.23-1.53,1.41-1.49,2.28,.07,2.28,0,2.28,2.35,0,4.84,0,9.67,0,14.51,0,.55,.07,1.11,.08,1.66,.03,1.05,.6,1.64,1.6,1.58,1.41-.09,1.2,.82,1.23,1.68,.03,.93-.26,1.39-1.31,1.41-3.62,.06-5.23-1.39-5.28-5-.04-2.74,0-5.48,0-8.22Z"
     id="path38" />
  <path
     id="path40"
     class="cls-13"
     d="M 347.77148 113.09375 C 347.60613 113.09136 347.425 113.11836 347.25 113.13086 C 346.69 113.17086 345.87992 112.78969 345.91992 113.92969 C 345.96992 115.24969 345.92969 116.56992 345.92969 118.16992 L 345.93945 118.17969 C 345.59945 117.95969 345.46008 117.86906 345.33008 117.78906 C 342.76008 116.17906 339.92039 117.44969 339.40039 120.42969 C 339.24039 121.36969 339.19961 122.29023 339.34961 123.24023 C 339.87961 126.57023 342.54023 127.86016 345.49023 126.16016 C 345.92023 125.91016 345.85961 125.99914 346.09961 126.36914 C 346.51961 127.03914 347.3307 126.65039 347.9707 126.65039 C 348.5807 126.65039 348.38086 126.09977 348.38086 125.75977 C 348.39086 121.81977 348.36016 117.87945 348.41016 113.93945 C 348.42391 113.2382 348.13527 113.09901 347.77148 113.09375 z M 343.80469 119.08008 C 344.7041 119.07169 345.25195 119.62344 345.58008 120.42969 C 346.01008 121.45969 345.98961 122.52055 345.59961 123.56055 C 345.28961 124.39055 344.71906 124.94945 343.78906 124.93945 C 342.83906 124.93945 342.32031 124.3207 342.07031 123.4707 C 341.92031 122.9407 341.87078 122.38047 341.80078 121.98047 L 341.81055 121.9707 C 341.88055 121.4407 341.88023 121.03969 341.99023 120.67969 C 342.24023 119.86969 342.65914 119.17984 343.61914 119.08984 C 343.68227 119.08422 343.74473 119.08064 343.80469 119.08008 z " />
  <path
     id="path42"
     class="cls-13"
     d="M 293.5957 113.10742 C 293.50779 113.10658 293.41531 113.10813 293.32031 113.10938 C 292.61031 113.11938 292.04055 113.01937 292.06055 114.10938 C 292.13055 117.95938 292.07961 121.81016 292.09961 125.66016 C 292.09961 126.03016 291.8393 126.65039 292.5293 126.65039 C 293.1493 126.65039 294.06937 127.07961 294.35938 126.34961 C 294.64937 125.62961 294.78008 126.03094 295.08008 126.21094 C 297.64008 127.77094 300.37906 126.64977 301.03906 123.75977 C 301.31906 122.52977 301.29977 121.29031 301.00977 120.07031 C 300.46977 117.83031 298.53055 116.70023 296.31055 117.24023 C 295.67416 117.38939 295.24381 117.88475 294.55078 118.22461 C 294.55028 116.77089 294.48064 115.45566 294.57031 114.15039 C 294.63156 113.22289 294.21107 113.1133 293.5957 113.10742 z M 296.64062 119.08008 C 297.72062 119.07008 298.39031 119.85961 298.57031 121.34961 C 298.60018 121.55868 298.60918 121.76666 298.61914 121.86719 C 298.61914 121.86719 298.61914 121.86914 298.61914 121.86914 C 298.61644 123.76321 297.84785 124.91949 296.66992 124.93945 C 295.42992 124.95945 294.55031 123.73094 294.57031 121.96094 C 294.57031 121.75094 294.60086 121.54008 294.63086 121.33008 C 294.81086 119.97008 295.60063 119.09008 296.64062 119.08008 z " />
  <path
     class="cls-13"
     d="M377.23,118.3c.71-.34,1.14-.83,1.76-1.01,2.39-.69,4.26,.58,4.35,3.05,.07,1.84-.03,3.68,.03,5.52,.04,1.02-.6,.84-1.17,.82-.58-.02-1.34,.28-1.32-.83,.03-1.62-.03-3.25-.05-4.87-.01-.93-.23-1.75-1.32-1.88-1.14-.13-1.75,.58-2.04,1.57-.44,1.5-.21,3.06-.24,4.59-.03,1.36-.65,1.8-1.99,1.42-.49-.14-.42-.47-.42-.8,0-3.98,.03-7.95-.02-11.93-.01-1.14,.73-.79,1.29-.82,.58-.03,1.2-.16,1.15,.84-.08,1.39-.02,2.79-.02,4.33Z"
     id="path44" />
  <path
     id="path46"
     class="cls-5"
     d="M 323 117.0625 C 321.28185 117.0809 319.6707 118.05117 319.00977 119.68945 C 317.79977 122.69945 318.93984 125.83914 321.58984 126.61914 C 323.00984 127.02914 324.46062 126.92953 325.89062 126.51953 C 327.01063 126.19953 326.79937 125.26086 326.60938 124.63086 C 326.37937 123.83086 325.81922 124.60094 325.44922 124.71094 C 324.65922 124.95094 323.87078 125.09 323.05078 125 C 322.28078 124.91 321.68078 124.50961 321.30078 123.84961 C 320.96078 123.25961 320.92937 122.79031 321.85938 122.82031 C 322.62612 122.84023 323.39341 122.82048 324.16016 122.82031 L 324.16992 122.82031 L 326.59961 122.82031 C 326.93961 122.82031 327.23984 122.82984 327.33984 122.33984 C 327.65984 120.75984 326.55992 118.28031 325.16992 117.57031 C 324.4693 117.21703 323.72544 117.05473 323 117.0625 z M 323.07031 118.93945 C 323.36024 118.94395 323.64969 119.01375 323.92969 119.14062 C 324.59969 119.45063 325.05039 120.13078 324.90039 120.80078 C 324.77039 121.39078 324.03031 120.99008 323.57031 121.08008 C 323.36031 121.12008 323.13969 121.08008 322.92969 121.08008 L 322.92969 121.08984 C 322.75969 121.08984 322.57992 121.12984 322.41992 121.08984 C 321.97992 120.95984 321.26914 121.45047 321.11914 120.73047 C 320.98914 120.11047 321.4307 119.59977 321.9707 119.25977 C 322.32508 119.03477 322.69755 118.93367 323.07031 118.93945 z " />
  <path
     id="path48"
     class="cls-5"
     d="M 360.92969 117.0625 C 359.11656 117.07 357.50563 118.13492 356.89062 119.91992 C 355.83062 122.98992 357.01992 125.88016 359.66992 126.66016 C 360.63992 126.94016 361.62961 126.86906 362.59961 126.78906 C 364.57831 126.61917 364.80887 126.30051 364.50977 124.24414 C 363.91327 124.46348 363.33713 124.73132 362.73047 124.90039 C 361.19047 125.33039 359.80047 124.85906 359.23047 123.78906 C 358.89047 123.14906 358.89078 122.78055 359.80078 122.81055 C 361.38078 122.85055 362.95906 122.83055 364.53906 122.81055 C 364.83906 122.81055 365.20961 122.95945 365.34961 122.43945 C 365.78961 120.82945 364.3893 118.04992 362.7793 117.41992 C 362.1593 117.17492 361.53406 117.06 360.92969 117.0625 z M 364.50977 124.24414 C 364.51305 124.24293 364.51624 124.24144 364.51953 124.24023 L 364.50977 124.24023 C 364.50996 124.24159 364.50957 124.24279 364.50977 124.24414 z M 361.11719 118.96875 C 361.93838 118.98409 362.51719 119.39609 362.78906 120.23047 C 362.95906 120.73047 363.01023 121.12961 362.24023 121.09961 C 361.18023 121.04961 360.11922 121.08984 358.94922 121.08984 C 359.13922 119.74984 359.72922 119.0307 360.94922 118.9707 C 361.00609 118.9682 361.06244 118.96773 361.11719 118.96875 z " />
  <path
     id="path50"
     class="cls-5"
     d="M 306.625 117.14258 C 306.14688 117.14867 305.66195 117.19453 305.18945 117.26953 C 303.16945 117.56953 303.06977 117.7393 303.50977 119.7793 C 305.04977 119.0993 305.77055 118.91047 306.56055 118.98047 C 307.18055 119.04047 307.76055 119.17078 308.06055 119.80078 C 308.37055 120.43078 308.5107 120.96062 307.4707 120.89062 C 306.4007 120.82062 305.32078 120.89023 304.30078 121.24023 C 302.81078 121.75023 302.13008 122.92055 302.33008 124.56055 C 302.48008 125.78055 303.61078 126.71008 305.05078 126.83008 C 306.26704 126.92977 307.32244 126.62111 308.35938 125.5293 C 308.40342 127.08748 309.41066 126.67035 310.11914 126.65039 C 311.00914 126.63039 310.59961 125.8907 310.59961 125.4707 C 310.61961 123.8507 310.60906 122.21961 310.53906 120.59961 C 310.43906 118.31961 309.37961 117.28039 307.09961 117.15039 C 306.94211 117.14289 306.78438 117.14055 306.625 117.14258 z M 307.89453 122.37109 C 308.09453 122.37734 308.25953 122.47539 308.26953 122.90039 C 308.29953 124.00039 307.32016 125.0193 306.16016 125.0293 C 305.38016 125.0293 304.66992 124.88086 304.66992 123.88086 C 304.66992 122.94086 305.55055 122.44039 307.31055 122.40039 L 307.31055 122.39062 C 307.46055 122.45063 307.69453 122.36484 307.89453 122.37109 z " />
  <path
     class="cls-13"
     d="M331.45,118.39c.82-.83,1.61-1.18,2.54-1.25,2.07-.15,3.43,.89,3.55,2.96,.11,1.96,.03,3.93,.05,5.9,0,1.09-.81,.61-1.3,.67-.59,.07-1.2,.14-1.18-.84,.04-1.62-.03-3.25-.05-4.87-.01-.93-.24-1.75-1.33-1.87-1.14-.12-1.75,.6-2.02,1.58-.45,1.59-.27,3.23-.22,4.85,.03,1.02-.34,1.18-1.25,1.2-.97,.02-1.24-.27-1.21-1.23,.07-2.35,0-4.7,.04-7.06,0-.43-.29-1.18,.6-1.09,.68,.07,1.75-.55,1.78,1.05Z"
     id="path52" />
  <path
     class="cls-27"
     d="M386.4,122c0-.51-.03-1.03,0-1.54,.06-.86,0-1.55-1.17-1.36-.69,.12-.6-.42-.59-.84,.01-.43-.17-1.06,.62-.95,1.05,.16,1.22-.36,1.15-1.25-.04-.47,1.92-1.53,2.3-1.26,.37,.26,.21,.72,.17,1.07-.1,1.02,.09,1.68,1.34,1.44,.74-.14,.8,.33,.82,.92,.02,.66-.18,.99-.86,.87-1.14-.19-1.37,.37-1.3,1.37,.08,1.06,0,2.14,.03,3.21,.02,.88,.48,1.36,1.4,1.22,.43-.06,.9-.28,.79,.47-.08,.54,.4,1.3-.71,1.44-2.72,.34-3.98-.7-4-3.41,0-.47,0-.94,0-1.41Z"
     id="path54" />
  <path
     class="cls-5"
     d="M373.26,124.59c.24,2.22,.24,2.19-1.82,2.25-1.82,.06-3.44-.29-4.37-2.03-.99-1.86-.99-3.78,.02-5.64,.95-1.75,3.99-2.7,5.78-1.85,.82,.39,.16,1.05,.22,1.58,.05,.45-.26,.42-.6,.32-1.21-.35-2.3-.22-3.04,.93-.7,1.09-.64,2.9,.13,3.89,.85,1.09,1.98,1.02,3.15,.67,.16-.05,.33-.08,.54-.13Z"
     id="path56" />
  <path
     class="cls-11"
     d="M315.03,118.68c.67-.86,1.34-1.51,2.44-1.56,.89-.04,.89,.54,.77,1.09-.11,.48,.57,1.47-.68,1.33-1.45-.16-2.01,.67-2.23,1.89-.25,1.44-.15,2.9-.09,4.35,.04,1.08-.61,.91-1.23,.9-.64-.01-1.39,.24-1.35-.93,.07-2.35,.02-4.7,.02-7.05,0-.68-.26-1.45,.99-1.42,1.03,.02,1.55,.23,1.36,1.41Z"
     id="path58" />
  <path
     class="cls-8"
     d="M352.94,118.83c.8-1.04,1.48-1.72,2.58-1.71,1.05,0,.71,.78,.7,1.29-.01,.44,.4,1.16-.64,1.16-1.65,0-2.25,.63-2.32,2.32-.05,1.24-.1,2.49,0,3.72,.09,1.16-.59,1.06-1.35,1.08-.76,.02-1.28,.01-1.24-1.04,.09-2.31,0-4.62,.05-6.92,.01-.49-.53-1.37,.65-1.43,.9-.04,1.73-.07,1.56,1.53Z"
     id="path60" />
  <path
     class="cls-15"
     d="M4.88,29.84c.02,1.2-1.69,2.88-2.94,2.89C.79,32.75,0,31.99,0,30.85c0-1.25,1.63-2.89,2.91-2.91,1.09-.02,1.96,.82,1.97,1.9Z"
     id="path62" />
  <path
     class="cls-19"
     d="M8.71,22.71c1.08,0,1.95,.88,1.95,1.94,0,1.21-1.73,2.86-2.99,2.86-1.06,0-1.98-.91-1.97-1.94,.02-1.18,1.8-2.87,3.01-2.86Z"
     id="path64" />
  <path
     class="cls-15"
     d="M14.86,18.01c1.15-.02,1.95,.74,1.97,1.87,.02,1.15-1.73,2.77-3.02,2.79-1.09,.02-1.96-.82-1.98-1.9-.03-1.22,1.64-2.73,3.04-2.76Z"
     id="path66" />
  <path
     class="cls-15"
     d="M23.43,15.73c-.02,1.11-1.87,2.64-3.16,2.61-1.11-.03-1.91-.86-1.89-1.97,.02-1.13,1.87-2.67,3.17-2.64,1.07,.02,1.9,.91,1.88,2Z"
     id="path68" />
  <path
     class="cls-15"
     d="M116.58,126.98c.04,1.58-1.65,2.26-3.27,2.4-1.1,.1-1.95-.85-1.94-1.94,.01-1.02,2.05-2.42,3.5-2.39,.86,.02,1.7,.96,1.71,1.93Z"
     id="path70" />
  <path
     class="cls-15"
     d="M30.29,12.06c-.26,1.39-1.92,1.43-2.93,2.2-.63,.49-1.23,.13-1.7-.34-.65-.65-.67-1.46-.31-2.25,.4-.91,2.4-1.8,3.41-1.6,.8,.16,1.42,.87,1.53,1.99Z"
     id="path72" />
  <path
     class="cls-19"
     d="M109.14,129.09c-.07,1.28-.83,1.85-2.01,2.09-1.7,.34-2.61,.1-3.08-.95-.48-1.06-.06-1.91,1.09-2.17,.66-.16,1.32-.33,1.98-.49,1.17-.28,1.99,.34,2.02,1.52Z"
     id="path74" />
  <path
     class="cls-21"
     d="M98.47,132.42c-.97,.07-1.67-.24-2.11-1.04-.63-1.15-.21-2,1.07-2.14,.72-.08,1.45-.09,2.17-.2,.69-.11,1.38-.36,1.67,.59,.27,.9,.13,1.69-.66,2.29-.66,.5-1.46,.39-2.14,.5Z"
     id="path76" />
  <path
     class="cls-19"
     d="M32.27,9.22c.05-.92,.56-1.47,1.38-1.82,.98-.41,1.95-.97,3-.19,1.05,.78,.94,1.85-.24,2.4-.7,.32-1.39,.65-2.08,.98-1.27,.61-2.14,.04-2.07-1.37Z"
     id="path78" />
  <path
     class="cls-15"
     d="M91.07,132.19c-1.85-.08-2.74-.72-2.74-1.99,0-.67,.13-1.14,1.04-1,.97,.16,1.96,.13,2.94,.18,1.29,.07,1.67,.8,1,1.91-.42,.7-1.04,.94-2.24,.9Z"
     id="path80" />
  <path
     class="cls-14"
     d="M42.64,4.19c.88,.1,1.51,.37,1.9,1.08,.33,.61,.29,1-.47,1.24-1.09,.35-2.17,.76-3.22,1.23-.79,.35-1.12,.02-1.24-.67-.17-.92,.09-1.73,.97-2.16,.68-.33,1.43-.51,2.06-.73Z"
     id="path82" />
  <path
     class="cls-15"
     d="M84.03,130.95c-1.96-.3-3.2-.65-3.33-2.14-.07-.85,.19-1.2,1.09-.93,.94,.27,1.9,.47,2.86,.7,.46,.11,1.13-.08,1.21,.59,.09,.7-.38,1.2-.97,1.52-.29,.15-.64,.2-.86,.26Z"
     id="path84" />
  <path
     class="cls-23"
     d="M47.1,4.33c.04-.12,.08-.38,.18-.61,.6-1.43,3.44-2.01,4.53-.92,.68,.68,.59,1.11-.3,1.38-1.14,.34-2.29,.64-3.41,1.02-.76,.26-1-.04-1-.87Z"
     id="path86" />
  <path
     class="cls-23"
     d="M76.72,128.19c-1.5,0-3.2-1.23-3.28-2.33-.05-.63-.02-1.15,.89-.69,.98,.5,2.03,.88,3.05,1.33,.35,.16,.98,.07,.94,.61-.04,.47-.51,.77-.96,.94-.24,.09-.5,.11-.63,.14Z"
     id="path88" />
  <path
     class="cls-22"
     d="M59.89,2.32c-1.49,.3-2.95,.59-4.4,.87-.23,.04-.51,.31-.68,.01-.18-.3-.08-.67,.07-.98,.6-1.3,1.87-1.21,2.98-1.34,.99-.11,1.7,.39,2.04,1.43Z"
     id="path90" />
  <path
     class="cls-24"
     d="M70.02,124.25c-1.11,.03-2.77-1.28-3.04-2.38-.07-.3-.18-.65,.06-.85,.31-.26,.52,.14,.74,.28,.89,.58,1.79,1.16,2.66,1.78,.28,.2,.9,.24,.71,.72-.15,.38-.68,.44-1.12,.45Z"
     id="path92" />
  <path
     class="cls-12"
     d="M62.51,1.91c.47-1.83,1.87-1.66,3.05-1.79,.85-.1,1.58,.24,1.96,1.2-1.67,.2-3.28,.39-5,.59Z"
     id="path94" />
  <path
     class="cls-9"
     d="M64.36,118.99c-1.49,.14-2.97-1.31-2.98-3.04,.98,1,2.03,2.08,2.98,3.04Z"
     id="path96" />
  <path
     class="cls-26"
     d="M70.68,1.07c.99-1.34,3.01-1.44,4.54-.18-1.59,.26-3.03,.16-4.54,.18Z"
     id="path98" />
  <path
     class="cls-4"
     d="M42.91,43.45c-.08-.07-.15-.14-.23-.21,1.96-1.44,4.11-2.56,6.28-3.66,.9-.46,1.82-.86,2.8-1.17-3.04,1.53-5.94,3.28-8.84,5.04Z"
     id="path100" />
  <path
     class="cls-25"
     d="M59.2,112.77c-1.46-.62-2.17-1.69-2.35-3.53,.84,1.26,1.52,2.28,2.35,3.53Z"
     id="path102" />
  <path
     class="cls-29"
     d="M82.64,1.08h-3.86c.9-.84,2.2-.85,3.86,0Z"
     id="path104" />
  <path
     class="cls-6"
     d="M87.42,1.44c.91-.04,1.81-.03,2.72,.47-1.19,.09-1.97-.02-2.72-.47Z"
     id="path106" />
  <path
     class="cls-3"
     d="M53.91,102.45c.3,.79,.59,1.57,.89,2.36-.65-.66-1.01-1.42-.89-2.36Z"
     id="path108" />
  <g
     inkscape:groupmode="layer"
     id="layer1"
     inkscape:label="Layer 1" />
  <path
     id="path1296"
     class="cls-18"
     d="m 203.11673,83.132813 c -3.1709,0.0976 -6.36484,2.03617 -7.13672,5.9668 -0.46,2.34 -0.45086,4.65968 0.36914,6.92968 1.05,2.9 3.40141,4.501347 6.44141,4.611337 2.3,0.08 4.23961,-0.60015 5.84961,-2.410157 0.0667,1.36666 0.75698,2.048837 2.07031,2.048837 0.17,0 0.33977,-0.02 0.50977,0 0.92,0.1 1.19922,-0.368994 1.19922,-1.208997 -0.01,-4.75 -0.01,-9.5 -0.01,-14.25 0,-0.38 0.0902,-0.87953 -0.33984,-1.01953 -0.91,-0.3 -1.87954,-0.31125 -2.76954,-0.0312 -0.78,0.24 -0.20023,1.06969 -0.49023,1.67969 v 0.0215 c -1.365,-1.60875 -3.52379,-2.4047 -5.69336,-2.33789 z m 0.78516,2.99219 c 0.37593,-0.0149 0.76672,0.0147 1.16797,0.0859 1.84,0.33 3.29961,2.01992 3.59961,4.16992 0.06,0.42 0.0696,0.84929 0.0996,1.27929 h 0.01 c 0.21,3.29 -1.35914,5.53946 -4.11914,5.93946 -1.97,0.28 -3.67977,-0.57039 -4.50977,-2.40039 -0.98,-2.17 -0.96093,-4.40836 0.0391,-6.56836 0.73125,-1.57625 2.08382,-2.44137 3.71289,-2.50586 z" />
</svg>
