<?xml version="1.0" encoding="UTF-8" standalone="no"?>
<!DOCTYPE svg PUBLIC "-//W3C//DTD SVG 1.1//EN" "http://www.w3.org/Graphics/SVG/1.1/DTD/svg11.dtd">
<!-- Created with Vectornator (http://vectornator.io/) -->
<svg height="100%" stroke-miterlimit="10" style="fill-rule:nonzero;clip-rule:evenodd;stroke-linecap:round;stroke-linejoin:round;" version="1.1" viewBox="0 0 317.52 34.02" width="100%" xml:space="preserve" xmlns="http://www.w3.org/2000/svg" xmlns:vectornator="http://vectornator.io" xmlns:xlink="http://www.w3.org/1999/xlink">
<defs/>
<g id="layer1" vectornator:layerName="layer1">
<g opacity="1">
<path d="M73.05 7.71548C75.3191 7.71064 75.9132 7.82903 77.4341 8.50578C78.4026 8.9368 79.544 9.66774 79.9849 10.1417C80.4258 10.6157 81.1157 11.5759 81.5082 12.2816C81.9006 12.9872 82.4594 14.5037 82.7464 15.6514C83.0333 16.799 83.3445 19.3976 83.4348 21.4087L83.5857 25.0651L82.779 25.7688C82.2173 26.2712 81.6621 26.4897 80.9058 26.4876C80.1409 26.4855 79.498 26.2391 78.7552 25.6491C78.1756 25.1888 77.3683 24.8128 76.9466 24.8116C76.525 24.8105 75.6558 25.1819 75.0128 25.6389C74.3043 26.1423 73.4762 26.4672 72.918 26.4656C72.3352 26.4641 71.5951 26.1572 70.9284 25.6276C70.3392 25.1597 69.526 24.7912 69.0796 24.79C68.6332 24.7888 67.818 25.1527 67.2262 25.6175C66.5157 26.1755 65.8446 26.4462 65.1717 26.4444C64.6205 26.4429 63.8506 26.2512 63.4626 26.0053C63.0747 25.7594 62.6281 25.2703 62.4797 24.9167C62.3229 24.5427 62.3516 22.7876 62.5315 20.7178C62.7017 18.7606 63.0542 16.3469 63.3108 15.3627C63.5674 14.3785 64.0261 13.0415 64.3451 12.3973C64.6641 11.7531 65.4242 10.7327 66.0415 10.1215C66.6587 9.51025 67.9107 8.72633 68.8028 8.37347C70.0724 7.87134 70.9933 7.71972 73.05 7.71548ZM73.1487 8.40351C71.9376 8.39681 70.3715 8.57061 69.6668 8.79212C68.9621 9.01366 67.9017 9.53999 67.3095 9.94398C66.6911 10.3658 65.8448 11.4034 65.3109 12.3819C64.7997 13.3189 64.1561 15.0105 63.8921 16.1425C63.6283 17.2745 63.3783 19.6874 63.3341 21.5164L63.2646 24.8464L64.1081 25.4279C64.9196 25.9822 64.9979 25.9851 66.0393 25.5418C66.6364 25.2876 66.659 25.1536 67.1278 24.8389C67.5965 24.5243 67.4806 24.4563 67.914 24.28C68.3474 24.1037 68.9771 23.9572 69.3032 23.9581C69.6293 23.959 70.3442 24.327 70.9106 24.7769C71.477 25.2268 72.29 25.6793 72.7187 25.7773C73.326 25.9162 73.8037 25.7383 74.8336 24.9687C75.5605 24.4255 76.4726 23.9778 76.8684 23.9788C77.2643 23.9799 77.9767 24.2739 78.4562 24.6348C78.9357 24.9957 79.632 25.4397 80.0027 25.6164C80.3736 25.7931 80.816 25.9444 80.9877 25.9448C81.1595 25.9453 81.6896 25.6377 82.1566 25.2784L83.0034 24.6292L82.6521 20.6645C82.4605 18.4796 82.5442 18.3779 82.1604 16.5547C81.7766 14.7315 81.6189 14.6213 81.1229 13.3664C80.6269 12.1115 80.4065 11.9434 80.1621 11.5358C80.1029 11.437 79.9855 11.2973 79.8413 11.1367C79.6102 10.8794 79.3149 10.5743 79.0186 10.32C78.5377 9.9072 77.5128 9.30616 76.7486 8.99257C75.7756 8.5932 74.691 8.41268 73.1487 8.40351Z" fill="#000000" fill-rule="nonzero" opacity="1" stroke="#1f1d1d" stroke-linecap="butt" stroke-linejoin="round" stroke-width="0.3"/>
<path d="M67.0818 15.6935C67.0707 16.2866 67.1928 16.8471 67.4176 17.3397C67.9222 18.4458 68.9442 19.209 70.1363 19.2277C71.8593 19.2547 73.2853 17.7162 73.3213 15.7914C73.3574 13.8665 71.9899 12.2842 70.2669 12.2572C68.5439 12.2302 67.1179 13.7687 67.0818 15.6935Z" fill="#000000" fill-opacity="0.00675676" fill-rule="nonzero" opacity="1" stroke="#1f1d1d" stroke-linecap="butt" stroke-linejoin="round" stroke-width="0.8"/>
<path d="M70.2015 15.8467C70.1859 16.6799 70.8566 17.3661 71.6996 17.3794C72.5425 17.3926 73.2385 16.7278 73.2542 15.8945C73.2698 15.0613 72.5991 14.3751 71.7561 14.3618C70.9131 14.3486 70.2171 15.0134 70.2015 15.8467Z" fill="#000000" fill-rule="nonzero" opacity="1" stroke="#1f1d1d" stroke-linecap="butt" stroke-linejoin="round" stroke-width="0.8"/>
<path d="M75.6512 15.841C75.6401 16.4341 75.7622 16.9946 75.9869 17.4872C76.4916 18.5933 77.5135 19.3565 78.7056 19.3752C80.4286 19.4022 81.8546 17.8637 81.8907 15.9389C81.9267 14.014 80.5592 12.4317 78.8362 12.4047C77.1132 12.3777 75.6872 13.9162 75.6512 15.841Z" fill="#000000" fill-opacity="0.00675676" fill-rule="nonzero" opacity="1" stroke="#1f1d1d" stroke-linecap="butt" stroke-linejoin="round" stroke-width="0.8"/>
<path d="M78.8384 15.8704C78.8228 16.7037 79.4935 17.3899 80.3365 17.4031C81.1794 17.4163 81.8754 16.7515 81.8911 15.9183C81.9067 15.085 81.236 14.3988 80.393 14.3856C79.55 14.3723 78.854 15.0371 78.8384 15.8704Z" fill="#000000" fill-rule="nonzero" opacity="1" stroke="#1f1d1d" stroke-linecap="butt" stroke-linejoin="round" stroke-width="0.8"/>
</g>
<g fill="#1f1d1d" opacity="1" stroke="none">
<path d="M95.0452 17.8413L95.0452 16.0113L98.9752 16.0113L98.9752 17.8413L95.0452 17.8413Z"/>
<path d="M110.883 17.2895L108.59 17.2895L108.59 21.1713L106.349 21.1713L106.349 10.3754L111.051 10.3754C112.135 10.3754 112.999 10.6537 113.644 11.2104C114.289 11.767 114.611 12.6288 114.611 13.7958C114.611 15.0702 114.289 15.9711 113.644 16.4984C112.999 17.0258 112.079 17.2895 110.883 17.2895ZM112.377 13.8105C112.377 13.2489 112.229 12.8485 111.934 12.6093C111.638 12.37 111.225 12.2504 110.692 12.2504L108.59 12.2504L108.59 15.4291L110.692 15.4291C111.225 15.4291 111.638 15.2997 111.934 15.0409C112.229 14.7821 112.377 14.372 112.377 13.8105Z"/>
<path d="M123.616 11.3056C124.705 12.2968 125.249 13.7812 125.249 15.7587C125.249 17.6972 124.705 19.1815 123.616 20.2118C122.8 21.0517 121.621 21.4716 120.078 21.4716C118.535 21.4716 117.356 21.0517 116.54 20.2118C115.447 19.1815 114.9 17.6972 114.9 15.7587C114.9 13.7812 115.447 12.2968 116.54 11.3056C117.356 10.4657 118.535 10.0458 120.078 10.0458C121.621 10.0458 122.8 10.4657 123.616 11.3056ZM120.078 11.9574C119.185 11.9574 118.472 12.287 117.939 12.9462C117.407 13.6054 117.141 14.5429 117.141 15.7587C117.141 16.9745 117.407 17.912 117.939 18.5712C118.472 19.2304 119.185 19.56 120.078 19.56C120.972 19.56 121.681 19.2304 122.206 18.5712C122.731 17.912 122.993 16.9745 122.993 15.7587C122.993 14.5478 122.731 13.6115 122.206 12.9499C121.681 12.2882 120.972 11.9574 120.078 11.9574Z"/>
<path d="M132.394 10.3754L135.309 10.3754L130.885 14.8212L135.536 21.1713L132.635 21.1713L129.303 16.4545L128.226 17.5605L128.226 21.1713L126.007 21.1713L126.007 10.3754L128.226 10.3754L128.226 14.8212L132.394 10.3754Z"/>
<path d="M144.05 19.2304L144.05 21.1713L135.869 21.1713L135.869 10.3754L143.786 10.3754L143.786 12.287L138.073 12.287L138.073 14.5795L143.317 14.5795L143.317 16.4545L138.073 16.4545L138.073 19.2304L144.05 19.2304Z"/>
<path d="M149.913 21.1713L147.657 21.1713L147.657 17.1137L143.921 10.3754L146.58 10.3754L148.821 15.0775L150.967 10.3754L153.523 10.3754L149.913 17.1137L149.913 21.1713Z"/>
<path d="M190.04 12.9363L189.935 12.7713C190.075 12.2413 190.262 11.6613 190.497 11.0313C190.732 10.4013 190.975 9.81629 191.225 9.27629L192.83 9.27629C192.69 9.86629 192.552 10.4938 192.417 11.1588C192.282 11.8238 192.175 12.4163 192.095 12.9363L190.04 12.9363ZM186.62 12.9363L186.515 12.7713C186.655 12.2413 186.842 11.6613 187.077 11.0313C187.312 10.4013 187.555 9.81629 187.805 9.27629L189.41 9.27629C189.27 9.86629 189.132 10.4938 188.997 11.1588C188.862 11.8238 188.755 12.4163 188.675 12.9363L186.62 12.9363Z"/>
<path d="M198.144 21.4716C196.591 21.4716 195.37 20.9735 194.482 19.9774C193.593 18.9765 193.149 17.6044 193.149 15.8612C193.149 13.9765 193.654 12.5238 194.665 11.5033C195.544 10.6147 196.662 10.1703 198.019 10.1703C199.836 10.1703 201.164 10.766 202.004 11.9574C202.468 12.6264 202.717 13.2978 202.751 13.9716L200.495 13.9716C200.348 13.454 200.16 13.0634 199.931 12.7997C199.521 12.331 198.913 12.0966 198.107 12.0966C197.287 12.0966 196.64 12.4274 196.166 13.089C195.693 13.7506 195.456 14.6869 195.456 15.8979C195.456 17.1088 195.706 18.0158 196.207 18.6188C196.707 19.2218 197.343 19.5233 198.115 19.5233C198.906 19.5233 199.509 19.2646 199.924 18.747C200.153 18.4687 200.344 18.0512 200.495 17.4945L202.729 17.4945C202.533 18.6713 202.034 19.6283 201.231 20.3656C200.428 21.1029 199.399 21.4716 198.144 21.4716Z"/>
<path d="M205.706 10.3754L205.706 19.2304L211.053 19.2304L211.053 21.1713L203.45 21.1713L203.45 10.3754L205.706 10.3754Z"/>
<path d="M215.341 21.1713L213.085 21.1713L213.085 17.1137L209.349 10.3754L212.008 10.3754L214.249 15.0775L216.395 10.3754L218.951 10.3754L215.341 17.1137L215.341 21.1713Z"/>
<path d="M227.4 11.9794C227.776 12.5165 228.032 13.0976 228.169 13.7226C228.305 14.3476 228.374 14.9433 228.374 15.5097C228.374 16.9452 228.086 18.161 227.51 19.1571C226.728 20.4999 225.522 21.1713 223.891 21.1713L219.241 21.1713L219.241 10.3754L223.891 10.3754C224.56 10.3852 225.117 10.4633 225.561 10.6098C226.318 10.8588 226.931 11.3153 227.4 11.9794ZM225.569 13.1293C225.222 12.5434 224.536 12.2504 223.511 12.2504L221.43 12.2504L221.43 19.2963L223.511 19.2963C224.575 19.2963 225.317 18.7714 225.737 17.7216C225.967 17.1454 226.081 16.4594 226.081 15.6635C226.081 14.5648 225.91 13.7201 225.569 13.1293Z"/>
<path d="M237.32 19.2304L237.32 21.1713L229.139 21.1713L229.139 10.3754L237.056 10.3754L237.056 12.287L231.344 12.287L231.344 14.5795L236.588 14.5795L236.588 16.4545L231.344 16.4545L231.344 19.2304L237.32 19.2304Z"/>
<path d="M243.79 9.27629L243.895 9.42629C243.765 9.96629 243.58 10.5488 243.34 11.1738C243.1 11.7988 242.855 12.3863 242.605 12.9363L241 12.9363C241.14 12.3463 241.28 11.7163 241.42 11.0463C241.56 10.3763 241.665 9.78629 241.735 9.27629L243.79 9.27629ZM240.37 9.27629L240.475 9.42629C240.345 9.96629 240.16 10.5488 239.92 11.1738C239.68 11.7988 239.435 12.3863 239.185 12.9363L237.58 12.9363C237.72 12.3463 237.86 11.7163 238 11.0463C238.14 10.3763 238.245 9.78629 238.315 9.27629L240.37 9.27629Z"/>
</g>
</g>
</svg>
