<?xml version="1.0" encoding="UTF-8" standalone="no"?>
<!DOCTYPE svg PUBLIC "-//W3C//DTD SVG 1.1//EN" "http://www.w3.org/Graphics/SVG/1.1/DTD/svg11.dtd">
<!-- Created with Vectornator (http://vectornator.io/) -->
<svg height="100%" stroke-miterlimit="10" style="fill-rule:nonzero;clip-rule:evenodd;stroke-linecap:round;stroke-linejoin:round;" version="1.1" viewBox="0 0 317.52 34.02" width="100%" xml:space="preserve" xmlns="http://www.w3.org/2000/svg" xmlns:vectornator="http://vectornator.io" xmlns:xlink="http://www.w3.org/1999/xlink">
<defs/>
<g id="layer1" vectornator:layerName="layer1">
<g opacity="1">
<path d="M73.05 7.71548C75.3191 7.71064 75.9132 7.82903 77.4341 8.50578C78.4026 8.9368 79.544 9.66774 79.9849 10.1417C80.4258 10.6157 81.1157 11.5759 81.5082 12.2816C81.9006 12.9872 82.4594 14.5037 82.7464 15.6514C83.0333 16.799 83.3445 19.3976 83.4348 21.4087L83.5857 25.0651L82.779 25.7688C82.2173 26.2712 81.6621 26.4897 80.9058 26.4876C80.1409 26.4855 79.498 26.2391 78.7552 25.6491C78.1756 25.1888 77.3683 24.8128 76.9466 24.8116C76.525 24.8105 75.6558 25.1819 75.0128 25.6389C74.3043 26.1423 73.4762 26.4672 72.918 26.4656C72.3352 26.4641 71.5951 26.1572 70.9284 25.6276C70.3392 25.1597 69.526 24.7912 69.0796 24.79C68.6332 24.7888 67.818 25.1527 67.2262 25.6175C66.5157 26.1755 65.8446 26.4462 65.1717 26.4444C64.6205 26.4429 63.8506 26.2512 63.4626 26.0053C63.0747 25.7594 62.6281 25.2703 62.4797 24.9167C62.3229 24.5427 62.3516 22.7876 62.5315 20.7178C62.7017 18.7606 63.0542 16.3469 63.3108 15.3627C63.5674 14.3785 64.0261 13.0415 64.3451 12.3973C64.6641 11.7531 65.4242 10.7327 66.0415 10.1215C66.6587 9.51025 67.9107 8.72633 68.8028 8.37347C70.0724 7.87134 70.9933 7.71972 73.05 7.71548ZM73.1487 8.40351C71.9376 8.39681 70.3715 8.57061 69.6668 8.79212C68.9621 9.01366 67.9017 9.53999 67.3095 9.94398C66.6911 10.3658 65.8448 11.4034 65.3109 12.3819C64.7997 13.3189 64.1561 15.0105 63.8921 16.1425C63.6283 17.2745 63.3783 19.6874 63.3341 21.5164L63.2646 24.8464L64.1081 25.4279C64.9196 25.9822 64.9979 25.9851 66.0393 25.5418C66.6364 25.2876 66.659 25.1536 67.1278 24.8389C67.5965 24.5243 67.4806 24.4563 67.914 24.28C68.3474 24.1037 68.9771 23.9572 69.3032 23.9581C69.6293 23.959 70.3442 24.327 70.9106 24.7769C71.477 25.2268 72.29 25.6793 72.7187 25.7773C73.326 25.9162 73.8037 25.7383 74.8336 24.9687C75.5605 24.4255 76.4726 23.9778 76.8684 23.9788C77.2643 23.9799 77.9767 24.2739 78.4562 24.6348C78.9357 24.9957 79.632 25.4397 80.0027 25.6164C80.3736 25.7931 80.816 25.9444 80.9877 25.9448C81.1595 25.9453 81.6896 25.6377 82.1566 25.2784L83.0034 24.6292L82.6521 20.6645C82.4605 18.4796 82.5442 18.3779 82.1604 16.5547C81.7766 14.7315 81.6189 14.6213 81.1229 13.3664C80.6269 12.1115 80.4065 11.9434 80.1621 11.5358C80.1029 11.437 79.9855 11.2973 79.8413 11.1367C79.6102 10.8794 79.3149 10.5743 79.0186 10.32C78.5377 9.9072 77.5128 9.30616 76.7486 8.99257C75.7756 8.5932 74.691 8.41268 73.1487 8.40351Z" fill="#000000" fill-rule="nonzero" opacity="1" stroke="#1f1d1d" stroke-linecap="butt" stroke-linejoin="round" stroke-width="0.3"/>
<path d="M67.0818 15.6935C67.0707 16.2866 67.1928 16.8471 67.4176 17.3397C67.9222 18.4458 68.9442 19.209 70.1363 19.2277C71.8593 19.2547 73.2853 17.7162 73.3213 15.7914C73.3574 13.8665 71.9899 12.2842 70.2669 12.2572C68.5439 12.2302 67.1179 13.7687 67.0818 15.6935Z" fill="#000000" fill-opacity="0.00675676" fill-rule="nonzero" opacity="1" stroke="#1f1d1d" stroke-linecap="butt" stroke-linejoin="round" stroke-width="0.8"/>
<path d="M70.2015 15.8467C70.1859 16.6799 70.8566 17.3661 71.6996 17.3794C72.5425 17.3926 73.2385 16.7278 73.2542 15.8945C73.2698 15.0613 72.5991 14.3751 71.7561 14.3618C70.9131 14.3486 70.2171 15.0134 70.2015 15.8467Z" fill="#000000" fill-rule="nonzero" opacity="1" stroke="#1f1d1d" stroke-linecap="butt" stroke-linejoin="round" stroke-width="0.8"/>
<path d="M75.6512 15.841C75.6401 16.4341 75.7622 16.9946 75.9869 17.4872C76.4916 18.5933 77.5135 19.3565 78.7056 19.3752C80.4286 19.4022 81.8546 17.8637 81.8907 15.9389C81.9267 14.014 80.5592 12.4317 78.8362 12.4047C77.1132 12.3777 75.6872 13.9162 75.6512 15.841Z" fill="#000000" fill-opacity="0.00675676" fill-rule="nonzero" opacity="1" stroke="#1f1d1d" stroke-linecap="butt" stroke-linejoin="round" stroke-width="0.8"/>
<path d="M78.8384 15.8704C78.8228 16.7037 79.4935 17.3899 80.3365 17.4031C81.1794 17.4163 81.8754 16.7515 81.8911 15.9183C81.9067 15.085 81.236 14.3988 80.393 14.3856C79.55 14.3723 78.854 15.0371 78.8384 15.8704Z" fill="#000000" fill-rule="nonzero" opacity="1" stroke="#1f1d1d" stroke-linecap="butt" stroke-linejoin="round" stroke-width="0.8"/>
</g>
<g fill="#1f1d1d" opacity="1" stroke="none">
<path d="M95.0452 17.8413L95.0452 16.0113L98.9752 16.0113L98.9752 17.8413L95.0452 17.8413Z"/>
<path d="M109.96 14.5795L111.82 15.0263C112.636 15.2216 113.251 15.4828 113.666 15.81C114.311 16.3178 114.633 17.0526 114.633 18.0146C114.633 19.0009 114.256 19.82 113.501 20.4718C112.747 21.1237 111.681 21.4496 110.304 21.4496C108.898 21.4496 107.792 21.1286 106.986 20.4865C106.181 19.8444 105.778 18.9618 105.778 17.8388L107.931 17.8388C107.999 18.3319 108.134 18.7006 108.334 18.9447C108.7 19.3891 109.328 19.6112 110.216 19.6112C110.748 19.6112 111.181 19.5526 111.513 19.4355C112.143 19.2108 112.457 18.7934 112.457 18.183C112.457 17.8266 112.301 17.5507 111.989 17.3554C111.676 17.1649 111.186 16.9965 110.517 16.85L109.374 16.5937C108.251 16.3397 107.475 16.0639 107.045 15.766C106.317 15.268 105.954 14.4892 105.954 13.4296C105.954 12.4628 106.305 11.6596 107.008 11.0199C107.711 10.3803 108.744 10.0605 110.106 10.0605C111.244 10.0605 112.215 10.362 113.018 10.965C113.821 11.568 114.242 12.4433 114.281 13.5907L112.113 13.5907C112.074 12.9413 111.791 12.4799 111.264 12.2064C110.912 12.0258 110.475 11.9355 109.953 11.9355C109.372 11.9355 108.908 12.0526 108.561 12.287C108.214 12.5214 108.041 12.8485 108.041 13.2685C108.041 13.6542 108.212 13.9423 108.554 14.1327C108.773 14.2597 109.242 14.4086 109.96 14.5795Z"/>
<path d="M119.888 17.2895L117.595 17.2895L117.595 21.1713L115.354 21.1713L115.354 10.3754L120.056 10.3754C121.14 10.3754 122.004 10.6537 122.649 11.2104C123.293 11.767 123.616 12.6288 123.616 13.7958C123.616 15.0702 123.293 15.9711 122.649 16.4984C122.004 17.0258 121.084 17.2895 119.888 17.2895ZM121.382 13.8105C121.382 13.2489 121.234 12.8485 120.939 12.6093C120.643 12.37 120.229 12.2504 119.697 12.2504L117.595 12.2504L117.595 15.4291L119.697 15.4291C120.229 15.4291 120.643 15.2997 120.939 15.0409C121.234 14.7821 121.382 14.372 121.382 13.8105Z"/>
<path d="M132.555 19.2304L132.555 21.1713L124.373 21.1713L124.373 10.3754L132.291 10.3754L132.291 12.287L126.578 12.287L126.578 14.5795L131.822 14.5795L131.822 16.4545L126.578 16.4545L126.578 19.2304L132.555 19.2304Z"/>
<path d="M141.56 19.2304L141.56 21.1713L133.378 21.1713L133.378 10.3754L141.296 10.3754L141.296 12.287L135.583 12.287L135.583 14.5795L140.827 14.5795L140.827 16.4545L135.583 16.4545L135.583 19.2304L141.56 19.2304Z"/>
<path d="M150.477 11.9794C150.853 12.5165 151.109 13.0976 151.246 13.7226C151.382 14.3476 151.451 14.9433 151.451 15.5097C151.451 16.9452 151.163 18.161 150.586 19.1571C149.805 20.4999 148.599 21.1713 146.968 21.1713L142.317 21.1713L142.317 10.3754L146.968 10.3754C147.637 10.3852 148.194 10.4633 148.638 10.6098C149.395 10.8588 150.008 11.3153 150.477 11.9794ZM148.645 13.1293C148.299 12.5434 147.613 12.2504 146.587 12.2504L144.507 12.2504L144.507 19.2963L146.587 19.2963C147.652 19.2963 148.394 18.7714 148.814 17.7216C149.043 17.1454 149.158 16.4594 149.158 15.6635C149.158 14.5648 148.987 13.7201 148.645 13.1293Z"/>
<path d="M157.255 21.1713L154.999 21.1713L154.999 17.1137L151.264 10.3754L153.922 10.3754L156.164 15.0775L158.31 10.3754L160.866 10.3754L157.255 17.1137L157.255 21.1713Z"/>
<path d="M190.742 12.9363L190.637 12.7713C190.777 12.2413 190.965 11.6613 191.2 11.0313C191.435 10.4013 191.677 9.81629 191.927 9.27629L193.532 9.27629C193.392 9.86629 193.255 10.4938 193.12 11.1588C192.985 11.8238 192.877 12.4163 192.797 12.9363L190.742 12.9363ZM187.322 12.9363L187.217 12.7713C187.357 12.2413 187.545 11.6613 187.78 11.0313C188.015 10.4013 188.257 9.81629 188.507 9.27629L190.112 9.27629C189.972 9.86629 189.835 10.4938 189.7 11.1588C189.565 11.8238 189.457 12.4163 189.377 12.9363L187.322 12.9363Z"/>
<path d="M198.905 17.2895L196.612 17.2895L196.612 21.1713L194.371 21.1713L194.371 10.3754L199.073 10.3754C200.157 10.3754 201.021 10.6537 201.666 11.2104C202.31 11.767 202.633 12.6288 202.633 13.7958C202.633 15.0702 202.31 15.9711 201.666 16.4984C201.021 17.0258 200.101 17.2895 198.905 17.2895ZM200.399 13.8105C200.399 13.2489 200.251 12.8485 199.956 12.6093C199.66 12.37 199.247 12.2504 198.714 12.2504L196.612 12.2504L196.612 15.4291L198.714 15.4291C199.247 15.4291 199.66 15.2997 199.956 15.0409C200.251 14.7821 200.399 14.372 200.399 13.8105Z"/>
<path d="M203.149 10.3754L205.39 10.3754L205.39 21.1713L203.149 21.1713L203.149 10.3754Z"/>
<path d="M212.967 21.1713L208.558 13.5028L208.558 21.1713L206.455 21.1713L206.455 10.3754L208.821 10.3754L213.121 17.912L213.121 10.3754L215.223 10.3754L215.223 21.1713L212.967 21.1713Z"/>
<path d="M222.748 10.3754L225.663 10.3754L221.239 14.8212L225.89 21.1713L222.99 21.1713L219.657 16.4545L218.58 17.5605L218.58 21.1713L216.361 21.1713L216.361 10.3754L218.58 10.3754L218.58 14.8212L222.748 10.3754Z"/>
<path d="M231.262 21.1713L229.006 21.1713L229.006 17.1137L225.271 10.3754L227.93 10.3754L230.171 15.0775L232.317 10.3754L234.873 10.3754L231.262 17.1137L231.262 21.1713Z"/>
<path d="M240.874 9.27629L240.979 9.42629C240.849 9.96629 240.664 10.5488 240.424 11.1738C240.184 11.7988 239.939 12.3863 239.689 12.9363L238.084 12.9363C238.224 12.3463 238.364 11.7163 238.504 11.0463C238.644 10.3763 238.749 9.78629 238.819 9.27629L240.874 9.27629ZM237.454 9.27629L237.559 9.42629C237.429 9.96629 237.244 10.5488 237.004 11.1738C236.764 11.7988 236.519 12.3863 236.269 12.9363L234.664 12.9363C234.804 12.3463 234.944 11.7163 235.084 11.0463C235.224 10.3763 235.329 9.78629 235.399 9.27629L237.454 9.27629Z"/>
</g>
</g>
</svg>
