<?xml version="1.0" encoding="UTF-8" standalone="no"?>
<!DOCTYPE svg PUBLIC "-//W3C//DTD SVG 1.1//EN" "http://www.w3.org/Graphics/SVG/1.1/DTD/svg11.dtd">
<!-- Created with Vectornator (http://vectornator.io/) -->
<svg height="100%" stroke-miterlimit="10" style="fill-rule:nonzero;clip-rule:evenodd;stroke-linecap:round;stroke-linejoin:round;" version="1.1" viewBox="0 0 317.52 34.02" width="100%" xml:space="preserve" xmlns="http://www.w3.org/2000/svg" xmlns:vectornator="http://vectornator.io" xmlns:xlink="http://www.w3.org/1999/xlink">
<defs/>
<g id="layer1" vectornator:layerName="layer1">
<g opacity="1">
<path d="M73.05 7.71548C75.3191 7.71064 75.9132 7.82903 77.4341 8.50578C78.4026 8.9368 79.544 9.66774 79.9849 10.1417C80.4258 10.6157 81.1157 11.5759 81.5082 12.2816C81.9006 12.9872 82.4594 14.5037 82.7464 15.6514C83.0333 16.799 83.3445 19.3976 83.4348 21.4087L83.5857 25.0651L82.779 25.7688C82.2173 26.2712 81.6621 26.4897 80.9058 26.4876C80.1409 26.4855 79.498 26.2391 78.7552 25.6491C78.1756 25.1888 77.3683 24.8128 76.9466 24.8116C76.525 24.8105 75.6558 25.1819 75.0128 25.6389C74.3043 26.1423 73.4762 26.4672 72.918 26.4656C72.3352 26.4641 71.5951 26.1572 70.9284 25.6276C70.3392 25.1597 69.526 24.7912 69.0796 24.79C68.6332 24.7888 67.818 25.1527 67.2262 25.6175C66.5157 26.1755 65.8446 26.4462 65.1717 26.4444C64.6205 26.4429 63.8506 26.2512 63.4626 26.0053C63.0747 25.7594 62.6281 25.2703 62.4797 24.9167C62.3229 24.5427 62.3516 22.7876 62.5315 20.7178C62.7017 18.7606 63.0542 16.3469 63.3108 15.3627C63.5674 14.3785 64.0261 13.0415 64.3451 12.3973C64.6641 11.7531 65.4242 10.7327 66.0415 10.1215C66.6587 9.51025 67.9107 8.72633 68.8028 8.37347C70.0724 7.87134 70.9933 7.71972 73.05 7.71548ZM73.1487 8.40351C71.9376 8.39681 70.3715 8.57061 69.6668 8.79212C68.9621 9.01366 67.9017 9.53999 67.3095 9.94398C66.6911 10.3658 65.8448 11.4034 65.3109 12.3819C64.7997 13.3189 64.1561 15.0105 63.8921 16.1425C63.6283 17.2745 63.3783 19.6874 63.3341 21.5164L63.2646 24.8464L64.1081 25.4279C64.9196 25.9822 64.9979 25.9851 66.0393 25.5418C66.6364 25.2876 66.659 25.1536 67.1278 24.8389C67.5965 24.5243 67.4806 24.4563 67.914 24.28C68.3474 24.1037 68.9771 23.9572 69.3032 23.9581C69.6293 23.959 70.3442 24.327 70.9106 24.7769C71.477 25.2268 72.29 25.6793 72.7187 25.7773C73.326 25.9162 73.8037 25.7383 74.8336 24.9687C75.5605 24.4255 76.4726 23.9778 76.8684 23.9788C77.2643 23.9799 77.9767 24.2739 78.4562 24.6348C78.9357 24.9957 79.632 25.4397 80.0027 25.6164C80.3736 25.7931 80.816 25.9444 80.9877 25.9448C81.1595 25.9453 81.6896 25.6377 82.1566 25.2784L83.0034 24.6292L82.6521 20.6645C82.4605 18.4796 82.5442 18.3779 82.1604 16.5547C81.7766 14.7315 81.6189 14.6213 81.1229 13.3664C80.6269 12.1115 80.4065 11.9434 80.1621 11.5358C80.1029 11.437 79.9855 11.2973 79.8413 11.1367C79.6102 10.8794 79.3149 10.5743 79.0186 10.32C78.5377 9.9072 77.5128 9.30616 76.7486 8.99257C75.7756 8.5932 74.691 8.41268 73.1487 8.40351Z" fill="#000000" fill-rule="nonzero" opacity="1" stroke="#1f1d1d" stroke-linecap="butt" stroke-linejoin="round" stroke-width="0.3"/>
<path d="M67.0818 15.6935C67.0707 16.2866 67.1928 16.8471 67.4176 17.3397C67.9222 18.4458 68.9442 19.209 70.1363 19.2277C71.8593 19.2547 73.2853 17.7162 73.3213 15.7914C73.3574 13.8665 71.9899 12.2842 70.2669 12.2572C68.5439 12.2302 67.1179 13.7687 67.0818 15.6935Z" fill="#000000" fill-opacity="0.00675676" fill-rule="nonzero" opacity="1" stroke="#1f1d1d" stroke-linecap="butt" stroke-linejoin="round" stroke-width="0.8"/>
<path d="M70.2015 15.8467C70.1859 16.6799 70.8566 17.3661 71.6996 17.3794C72.5425 17.3926 73.2385 16.7278 73.2542 15.8945C73.2698 15.0613 72.5991 14.3751 71.7561 14.3618C70.9131 14.3486 70.2171 15.0134 70.2015 15.8467Z" fill="#000000" fill-rule="nonzero" opacity="1" stroke="#1f1d1d" stroke-linecap="butt" stroke-linejoin="round" stroke-width="0.8"/>
<path d="M75.6512 15.841C75.6401 16.4341 75.7622 16.9946 75.9869 17.4872C76.4916 18.5933 77.5135 19.3565 78.7056 19.3752C80.4286 19.4022 81.8546 17.8637 81.8907 15.9389C81.9267 14.014 80.5592 12.4317 78.8362 12.4047C77.1132 12.3777 75.6872 13.9162 75.6512 15.841Z" fill="#000000" fill-opacity="0.00675676" fill-rule="nonzero" opacity="1" stroke="#1f1d1d" stroke-linecap="butt" stroke-linejoin="round" stroke-width="0.8"/>
<path d="M78.8384 15.8704C78.8228 16.7037 79.4935 17.3899 80.3365 17.4031C81.1794 17.4163 81.8754 16.7515 81.8911 15.9183C81.9067 15.085 81.236 14.3988 80.393 14.3856C79.55 14.3723 78.854 15.0371 78.8384 15.8704Z" fill="#000000" fill-rule="nonzero" opacity="1" stroke="#1f1d1d" stroke-linecap="butt" stroke-linejoin="round" stroke-width="0.8"/>
</g>
<g fill="#1f1d1d" opacity="1" stroke="none">
<path d="M95.0452 17.8413L95.0452 16.0113L98.9752 16.0113L98.9752 17.8413L95.0452 17.8413Z"/>
<path d="M111.227 21.1713L106.334 21.1713L106.334 10.3754L111.579 10.3754C112.902 10.3949 113.839 10.7782 114.391 11.5253C114.723 11.9843 114.889 12.5336 114.889 13.1732C114.889 13.8324 114.723 14.3622 114.391 14.7626C114.206 14.9872 113.932 15.1923 113.571 15.3778C114.123 15.578 114.539 15.8954 114.82 16.33C115.1 16.7646 115.241 17.2919 115.241 17.912C115.241 18.5517 115.08 19.1254 114.757 19.6332C114.552 19.9701 114.296 20.2533 113.988 20.4828C113.642 20.7465 113.233 20.9272 112.761 21.0248C112.29 21.1225 111.779 21.1713 111.227 21.1713ZM112.245 19.1059C112.724 18.8715 112.963 18.4223 112.963 17.7582C112.963 17.1967 112.731 16.8109 112.267 16.601C112.008 16.4838 111.644 16.4228 111.176 16.4179L108.488 16.4179L108.488 19.2963L111.139 19.2963C111.613 19.2963 111.981 19.2328 112.245 19.1059ZM112.15 12.4189C111.813 12.3065 111.383 12.2504 110.861 12.2504L108.488 12.2504L108.488 14.6308L111.139 14.6308C111.613 14.6308 111.997 14.5417 112.293 14.3634C112.588 14.1852 112.736 13.869 112.736 13.4149C112.736 12.912 112.54 12.58 112.15 12.4189Z"/>
<path d="M121.77 10.3754L125.593 21.1713L123.147 21.1713L122.451 18.9521L118.474 18.9521L117.727 21.1713L115.369 21.1713L119.221 10.3754L121.77 10.3754ZM120.474 12.8437L119.082 17.0917L121.821 17.0917L120.474 12.8437Z"/>
<path d="M129.625 14.5795L131.485 15.0263C132.301 15.2216 132.916 15.4828 133.331 15.81C133.976 16.3178 134.298 17.0526 134.298 18.0146C134.298 19.0009 133.921 19.82 133.166 20.4718C132.412 21.1237 131.346 21.4496 129.969 21.4496C128.563 21.4496 127.457 21.1286 126.651 20.4865C125.846 19.8444 125.443 18.9618 125.443 17.8388L127.596 17.8388C127.665 18.3319 127.799 18.7006 127.999 18.9447C128.365 19.3891 128.993 19.6112 129.881 19.6112C130.414 19.6112 130.846 19.5526 131.178 19.4355C131.808 19.2108 132.123 18.7934 132.123 18.183C132.123 17.8266 131.966 17.5507 131.654 17.3554C131.341 17.1649 130.851 16.9965 130.182 16.85L129.039 16.5937C127.916 16.3397 127.14 16.0639 126.71 15.766C125.982 15.268 125.619 14.4892 125.619 13.4296C125.619 12.4628 125.97 11.6596 126.673 11.0199C127.376 10.3803 128.409 10.0605 129.771 10.0605C130.909 10.0605 131.88 10.362 132.683 10.965C133.486 11.568 133.907 12.4433 133.946 13.5907L131.778 13.5907C131.739 12.9413 131.456 12.4799 130.929 12.2064C130.577 12.0258 130.14 11.9355 129.618 11.9355C129.037 11.9355 128.573 12.0526 128.226 12.287C127.879 12.5214 127.706 12.8485 127.706 13.2685C127.706 13.6542 127.877 13.9423 128.219 14.1327C128.438 14.2597 128.907 14.4086 129.625 14.5795Z"/>
<path d="M137.187 16.352L137.187 21.1713L134.953 21.1713L134.953 10.3754L137.187 10.3754L137.187 14.4916L141.406 14.4916L141.406 10.3754L143.647 10.3754L143.647 21.1713L141.406 21.1713L141.406 16.352L137.187 16.352Z"/>
<path d="M147.041 12.287L147.041 14.7699L151.78 14.7699L151.78 16.6449L147.041 16.6449L147.041 21.1713L144.8 21.1713L144.8 10.39L152.454 10.39L152.454 12.287L147.041 12.287Z"/>
<path d="M161.107 19.6918C160.443 20.8637 159.176 21.4496 157.306 21.4496C155.436 21.4496 154.166 20.8637 153.498 19.6918C153.141 19.0522 152.963 18.1586 152.963 17.0111L152.963 10.3754L155.255 10.3754L155.255 17.0111C155.255 17.7533 155.343 18.2953 155.519 18.6371C155.792 19.2426 156.388 19.5453 157.306 19.5453C158.219 19.5453 158.812 19.2426 159.086 18.6371C159.262 18.2953 159.35 17.7533 159.35 17.0111L159.35 10.3754L161.642 10.3754L161.642 17.0111C161.642 18.1586 161.464 19.0522 161.107 19.6918Z"/>
<path d="M165.051 10.3754L165.051 19.2304L170.398 19.2304L170.398 21.1713L162.795 21.1713L162.795 10.3754L165.051 10.3754Z"/>
<path d="M190.585 12.9363L190.48 12.7713C190.62 12.2413 190.808 11.6613 191.043 11.0313C191.278 10.4013 191.52 9.81629 191.77 9.27629L193.375 9.27629C193.235 9.86629 193.098 10.4938 192.963 11.1588C192.828 11.8238 192.72 12.4163 192.64 12.9363L190.585 12.9363ZM187.165 12.9363L187.06 12.7713C187.2 12.2413 187.388 11.6613 187.623 11.0313C187.858 10.4013 188.1 9.81629 188.35 9.27629L189.955 9.27629C189.815 9.86629 189.678 10.4938 189.543 11.1588C189.408 11.8238 189.3 12.4163 189.22 12.9363L187.165 12.9363Z"/>
<path d="M193.987 10.3754L196.228 10.3754L196.228 21.1713L193.987 21.1713L193.987 10.3754Z"/>
<path d="M203.805 21.1713L199.396 13.5028L199.396 21.1713L197.294 21.1713L197.294 10.3754L199.66 10.3754L203.959 17.912L203.959 10.3754L206.061 10.3754L206.061 21.1713L203.805 21.1713Z"/>
<path d="M213.586 10.3754L216.501 10.3754L212.078 14.8212L216.728 21.1713L213.828 21.1713L210.495 16.4545L209.419 17.5605L209.419 21.1713L207.2 21.1713L207.2 10.3754L209.419 10.3754L209.419 14.8212L213.586 10.3754Z"/>
<path d="M222.1 21.1713L219.845 21.1713L219.845 17.1137L216.109 10.3754L218.768 10.3754L221.009 15.0775L223.155 10.3754L225.711 10.3754L222.1 17.1137L222.1 21.1713Z"/>
<path d="M231.713 9.27629L231.818 9.42629C231.688 9.96629 231.503 10.5488 231.263 11.1738C231.023 11.7988 230.778 12.3863 230.528 12.9363L228.923 12.9363C229.063 12.3463 229.203 11.7163 229.343 11.0463C229.483 10.3763 229.588 9.78629 229.658 9.27629L231.713 9.27629ZM228.293 9.27629L228.398 9.42629C228.268 9.96629 228.083 10.5488 227.843 11.1738C227.603 11.7988 227.358 12.3863 227.108 12.9363L225.503 12.9363C225.643 12.3463 225.783 11.7163 225.923 11.0463C226.063 10.3763 226.168 9.78629 226.238 9.27629L228.293 9.27629Z"/>
</g>
</g>
</svg>
