<?xml version="1.0" encoding="UTF-8" standalone="no"?>
<!DOCTYPE svg PUBLIC "-//W3C//DTD SVG 1.1//EN" "http://www.w3.org/Graphics/SVG/1.1/DTD/svg11.dtd">
<!-- Created with Vectornator (http://vectornator.io/) -->
<svg height="100%" stroke-miterlimit="10" style="fill-rule:nonzero;clip-rule:evenodd;stroke-linecap:round;stroke-linejoin:round;" version="1.1" viewBox="0 0 317.52 34.02" width="100%" xml:space="preserve" xmlns="http://www.w3.org/2000/svg" xmlns:vectornator="http://vectornator.io" xmlns:xlink="http://www.w3.org/1999/xlink">
<defs/>
<g id="layer1" vectornator:layerName="layer1">
<g opacity="1">
<path d="M73.05 7.71548C75.3191 7.71064 75.9132 7.82903 77.4341 8.50578C78.4026 8.9368 79.544 9.66774 79.9849 10.1417C80.4258 10.6157 81.1157 11.5759 81.5082 12.2816C81.9006 12.9872 82.4594 14.5037 82.7464 15.6514C83.0333 16.799 83.3445 19.3976 83.4348 21.4087L83.5857 25.0651L82.779 25.7688C82.2173 26.2712 81.6621 26.4897 80.9058 26.4876C80.1409 26.4855 79.498 26.2391 78.7552 25.6491C78.1756 25.1888 77.3683 24.8128 76.9466 24.8116C76.525 24.8105 75.6558 25.1819 75.0128 25.6389C74.3043 26.1423 73.4762 26.4672 72.918 26.4656C72.3352 26.4641 71.5951 26.1572 70.9284 25.6276C70.3392 25.1597 69.526 24.7912 69.0796 24.79C68.6332 24.7888 67.818 25.1527 67.2262 25.6175C66.5157 26.1755 65.8446 26.4462 65.1717 26.4444C64.6205 26.4429 63.8506 26.2512 63.4626 26.0053C63.0747 25.7594 62.6281 25.2703 62.4797 24.9167C62.3229 24.5427 62.3516 22.7876 62.5315 20.7178C62.7017 18.7606 63.0542 16.3469 63.3108 15.3627C63.5674 14.3785 64.0261 13.0415 64.3451 12.3973C64.6641 11.7531 65.4242 10.7327 66.0415 10.1215C66.6587 9.51025 67.9107 8.72633 68.8028 8.37347C70.0724 7.87134 70.9933 7.71972 73.05 7.71548ZM73.1487 8.40351C71.9376 8.39681 70.3715 8.57061 69.6668 8.79212C68.9621 9.01366 67.9017 9.53999 67.3095 9.94398C66.6911 10.3658 65.8448 11.4034 65.3109 12.3819C64.7997 13.3189 64.1561 15.0105 63.8921 16.1425C63.6283 17.2745 63.3783 19.6874 63.3341 21.5164L63.2646 24.8464L64.1081 25.4279C64.9196 25.9822 64.9979 25.9851 66.0393 25.5418C66.6364 25.2876 66.659 25.1536 67.1278 24.8389C67.5965 24.5243 67.4806 24.4563 67.914 24.28C68.3474 24.1037 68.9771 23.9572 69.3032 23.9581C69.6293 23.959 70.3442 24.327 70.9106 24.7769C71.477 25.2268 72.29 25.6793 72.7187 25.7773C73.326 25.9162 73.8037 25.7383 74.8336 24.9687C75.5605 24.4255 76.4726 23.9778 76.8684 23.9788C77.2643 23.9799 77.9767 24.2739 78.4562 24.6348C78.9357 24.9957 79.632 25.4397 80.0027 25.6164C80.3736 25.7931 80.816 25.9444 80.9877 25.9448C81.1595 25.9453 81.6896 25.6377 82.1566 25.2784L83.0034 24.6292L82.6521 20.6645C82.4605 18.4796 82.5442 18.3779 82.1604 16.5547C81.7766 14.7315 81.6189 14.6213 81.1229 13.3664C80.6269 12.1115 80.4065 11.9434 80.1621 11.5358C80.1029 11.437 79.9855 11.2973 79.8413 11.1367C79.6102 10.8794 79.3149 10.5743 79.0186 10.32C78.5377 9.9072 77.5128 9.30616 76.7486 8.99257C75.7756 8.5932 74.691 8.41268 73.1487 8.40351Z" fill="#000000" fill-rule="nonzero" opacity="1" stroke="#1f1d1d" stroke-linecap="butt" stroke-linejoin="round" stroke-width="0.3"/>
<path d="M67.0818 15.6935C67.0707 16.2866 67.1928 16.8471 67.4176 17.3397C67.9222 18.4458 68.9442 19.209 70.1363 19.2277C71.8593 19.2547 73.2853 17.7162 73.3213 15.7914C73.3574 13.8665 71.9899 12.2842 70.2669 12.2572C68.5439 12.2302 67.1179 13.7687 67.0818 15.6935Z" fill="#000000" fill-opacity="0.00675676" fill-rule="nonzero" opacity="1" stroke="#1f1d1d" stroke-linecap="butt" stroke-linejoin="round" stroke-width="0.8"/>
<path d="M70.2015 15.8467C70.1859 16.6799 70.8566 17.3661 71.6996 17.3794C72.5425 17.3926 73.2385 16.7278 73.2542 15.8945C73.2698 15.0613 72.5991 14.3751 71.7561 14.3618C70.9131 14.3486 70.2171 15.0134 70.2015 15.8467Z" fill="#000000" fill-rule="nonzero" opacity="1" stroke="#1f1d1d" stroke-linecap="butt" stroke-linejoin="round" stroke-width="0.8"/>
<path d="M75.6512 15.841C75.6401 16.4341 75.7622 16.9946 75.9869 17.4872C76.4916 18.5933 77.5135 19.3565 78.7056 19.3752C80.4286 19.4022 81.8546 17.8637 81.8907 15.9389C81.9267 14.014 80.5592 12.4317 78.8362 12.4047C77.1132 12.3777 75.6872 13.9162 75.6512 15.841Z" fill="#000000" fill-opacity="0.00675676" fill-rule="nonzero" opacity="1" stroke="#1f1d1d" stroke-linecap="butt" stroke-linejoin="round" stroke-width="0.8"/>
<path d="M78.8384 15.8704C78.8228 16.7037 79.4935 17.3899 80.3365 17.4031C81.1794 17.4163 81.8754 16.7515 81.8911 15.9183C81.9067 15.085 81.236 14.3988 80.393 14.3856C79.55 14.3723 78.854 15.0371 78.8384 15.8704Z" fill="#000000" fill-rule="nonzero" opacity="1" stroke="#1f1d1d" stroke-linecap="butt" stroke-linejoin="round" stroke-width="0.8"/>
</g>
<g fill="#1f1d1d" opacity="1" stroke="none">
<path d="M95.0452 17.8413L95.0452 16.0113L98.9752 16.0113L98.9752 17.8413L95.0452 17.8413Z"/>
<path d="M109.96 14.5795L111.82 15.0263C112.636 15.2216 113.251 15.4828 113.666 15.81C114.311 16.3178 114.633 17.0526 114.633 18.0146C114.633 19.0009 114.256 19.82 113.501 20.4718C112.747 21.1237 111.681 21.4496 110.304 21.4496C108.898 21.4496 107.792 21.1286 106.986 20.4865C106.181 19.8444 105.778 18.9618 105.778 17.8388L107.931 17.8388C107.999 18.3319 108.134 18.7006 108.334 18.9447C108.7 19.3891 109.328 19.6112 110.216 19.6112C110.748 19.6112 111.181 19.5526 111.513 19.4355C112.143 19.2108 112.457 18.7934 112.457 18.183C112.457 17.8266 112.301 17.5507 111.989 17.3554C111.676 17.1649 111.186 16.9965 110.517 16.85L109.374 16.5937C108.251 16.3397 107.475 16.0639 107.045 15.766C106.317 15.268 105.954 14.4892 105.954 13.4296C105.954 12.4628 106.305 11.6596 107.008 11.0199C107.711 10.3803 108.744 10.0605 110.106 10.0605C111.244 10.0605 112.215 10.362 113.018 10.965C113.821 11.568 114.242 12.4433 114.281 13.5907L112.113 13.5907C112.074 12.9413 111.791 12.4799 111.264 12.2064C110.912 12.0258 110.475 11.9355 109.953 11.9355C109.372 11.9355 108.908 12.0526 108.561 12.287C108.214 12.5214 108.041 12.8485 108.041 13.2685C108.041 13.6542 108.212 13.9423 108.554 14.1327C108.773 14.2597 109.242 14.4086 109.96 14.5795Z"/>
<path d="M117.522 16.352L117.522 21.1713L115.288 21.1713L115.288 10.3754L117.522 10.3754L117.522 14.4916L121.741 14.4916L121.741 10.3754L123.982 10.3754L123.982 21.1713L121.741 21.1713L121.741 16.352L117.522 16.352Z"/>
<path d="M130.775 10.3754L134.598 21.1713L132.152 21.1713L131.456 18.9521L127.479 18.9521L126.732 21.1713L124.373 21.1713L128.226 10.3754L130.775 10.3754ZM129.478 12.8437L128.087 17.0917L130.826 17.0917L129.478 12.8437Z"/>
<path d="M143.127 11.9794C143.503 12.5165 143.759 13.0976 143.896 13.7226C144.033 14.3476 144.101 14.9433 144.101 15.5097C144.101 16.9452 143.813 18.161 143.237 19.1571C142.456 20.4999 141.249 21.1713 139.619 21.1713L134.968 21.1713L134.968 10.3754L139.619 10.3754C140.288 10.3852 140.844 10.4633 141.289 10.6098C142.045 10.8588 142.658 11.3153 143.127 11.9794ZM141.296 13.1293C140.949 12.5434 140.263 12.2504 139.238 12.2504L137.158 12.2504L137.158 19.2963L139.238 19.2963C140.302 19.2963 141.044 18.7714 141.464 17.7216C141.694 17.1454 141.809 16.4594 141.809 15.6635C141.809 14.5648 141.638 13.7201 141.296 13.1293Z"/>
<path d="M153.113 11.3056C154.202 12.2968 154.747 13.7812 154.747 15.7587C154.747 17.6972 154.202 19.1815 153.113 20.2118C152.298 21.0517 151.119 21.4716 149.576 21.4716C148.033 21.4716 146.853 21.0517 146.038 20.2118C144.944 19.1815 144.397 17.6972 144.397 15.7587C144.397 13.7812 144.944 12.2968 146.038 11.3056C146.853 10.4657 148.033 10.0458 149.576 10.0458C151.119 10.0458 152.298 10.4657 153.113 11.3056ZM149.576 11.9574C148.682 11.9574 147.969 12.287 147.437 12.9462C146.905 13.6054 146.639 14.5429 146.639 15.7587C146.639 16.9745 146.905 17.912 147.437 18.5712C147.969 19.2304 148.682 19.56 149.576 19.56C150.469 19.56 151.178 19.2304 151.703 18.5712C152.228 17.912 152.491 16.9745 152.491 15.7587C152.491 14.5478 152.228 13.6115 151.703 12.9499C151.178 12.2882 150.469 11.9574 149.576 11.9574Z"/>
<path d="M161.767 14.8578L161.386 12.7704L161.005 14.8578L159.701 21.1713L157.606 21.1713L154.545 10.3754L156.94 10.3754L158.368 16.557L158.676 18.2782L158.991 16.5937L160.207 10.3754L162.587 10.3754L163.869 16.557L164.198 18.2782L164.528 16.623L165.971 10.3754L168.263 10.3754L165.224 21.1713L163.07 21.1713L161.767 14.8578Z"/>
<path d="M191.573 12.9363L191.468 12.7713C191.608 12.2413 191.795 11.6613 192.03 11.0313C192.265 10.4013 192.508 9.81629 192.758 9.27629L194.363 9.27629C194.223 9.86629 194.085 10.4938 193.95 11.1588C193.815 11.8238 193.708 12.4163 193.628 12.9363L191.573 12.9363ZM188.153 12.9363L188.048 12.7713C188.188 12.2413 188.375 11.6613 188.61 11.0313C188.845 10.4013 189.088 9.81629 189.338 9.27629L190.943 9.27629C190.803 9.86629 190.665 10.4938 190.53 11.1588C190.395 11.8238 190.288 12.4163 190.208 12.9363L188.153 12.9363Z"/>
<path d="M200.08 21.1713L195.187 21.1713L195.187 10.3754L200.431 10.3754C201.754 10.3949 202.692 10.7782 203.244 11.5253C203.576 11.9843 203.742 12.5336 203.742 13.1732C203.742 13.8324 203.576 14.3622 203.244 14.7626C203.058 14.9872 202.785 15.1923 202.423 15.3778C202.975 15.578 203.391 15.8954 203.672 16.33C203.953 16.7646 204.093 17.2919 204.093 17.912C204.093 18.5517 203.932 19.1254 203.61 19.6332C203.405 19.9701 203.148 20.2533 202.841 20.4828C202.494 20.7465 202.085 20.9272 201.614 21.0248C201.143 21.1225 200.631 21.1713 200.08 21.1713ZM201.098 19.1059C201.576 18.8715 201.815 18.4223 201.815 17.7582C201.815 17.1967 201.584 16.8109 201.12 16.601C200.861 16.4838 200.497 16.4228 200.028 16.4179L197.34 16.4179L197.34 19.2963L199.992 19.2963C200.465 19.2963 200.834 19.2328 201.098 19.1059ZM201.003 12.4189C200.666 12.3065 200.236 12.2504 199.713 12.2504L197.34 12.2504L197.34 14.6308L199.992 14.6308C200.465 14.6308 200.85 14.5417 201.145 14.3634C201.441 14.1852 201.588 13.869 201.588 13.4149C201.588 12.912 201.393 12.58 201.003 12.4189Z"/>
<path d="M207.239 10.3754L207.239 19.2304L212.586 19.2304L212.586 21.1713L204.983 21.1713L204.983 10.3754L207.239 10.3754Z"/>
<path d="M212.97 10.3754L215.211 10.3754L215.211 21.1713L212.97 21.1713L212.97 10.3754Z"/>
<path d="M222.788 21.1713L218.378 13.5028L218.378 21.1713L216.276 21.1713L216.276 10.3754L218.642 10.3754L222.941 17.912L222.941 10.3754L225.044 10.3754L225.044 21.1713L222.788 21.1713Z"/>
<path d="M232.569 10.3754L235.484 10.3754L231.06 14.8212L235.711 21.1713L232.811 21.1713L229.478 16.4545L228.401 17.5605L228.401 21.1713L226.182 21.1713L226.182 10.3754L228.401 10.3754L228.401 14.8212L232.569 10.3754Z"/>
<path d="M241.083 21.1713L238.827 21.1713L238.827 17.1137L235.092 10.3754L237.751 10.3754L239.992 15.0775L242.138 10.3754L244.694 10.3754L241.083 17.1137L241.083 21.1713Z"/>
<path d="M250.695 9.27629L250.8 9.42629C250.67 9.96629 250.485 10.5488 250.245 11.1738C250.005 11.7988 249.76 12.3863 249.51 12.9363L247.905 12.9363C248.045 12.3463 248.185 11.7163 248.325 11.0463C248.465 10.3763 248.57 9.78629 248.64 9.27629L250.695 9.27629ZM247.275 9.27629L247.38 9.42629C247.25 9.96629 247.065 10.5488 246.825 11.1738C246.585 11.7988 246.34 12.3863 246.09 12.9363L244.485 12.9363C244.625 12.3463 244.765 11.7163 244.905 11.0463C245.045 10.3763 245.15 9.78629 245.22 9.27629L247.275 9.27629Z"/>
</g>
</g>
</svg>
