<?xml version="1.0" encoding="UTF-8" standalone="no"?>
<svg
   version="1.1"
   width="500"
   height="500"
   viewBox="0 0 500 500"
   xml:space="preserve"
   id="svg24"
   xmlns="http://www.w3.org/2000/svg"
   xmlns:svg="http://www.w3.org/2000/svg">
<desc
   id="desc2">Created with Fabric.js 4.6.0</desc>
<defs
   id="defs4">


</defs>





<g
   id="g2948"><g
     id="g1818"
     transform="translate(-509.21813,-142.40902)"
     style="stroke-width:0.2;stroke-miterlimit:4;stroke-dasharray:none"><path
       id="path6-4"
       style="fill:none;fill-rule:nonzero;stroke:#000000;stroke-width:0.2;stroke-linecap:butt;stroke-linejoin:miter;stroke-miterlimit:4;stroke-dasharray:none;stroke-dashoffset:0"
       d="m 598.80185,360.35776 c -7.97715,-8.17619 -14.70408,-16.86864 -20.1839,-26.04936 9.92972,-4.29393 21.45125,-7.95351 34.4449,-9.99646 v 48.92193 c -4.55773,-3.62997 -9.4189,-7.91396 -14.261,-12.8761 z" /><path
       id="path1638"
       style="fill:none;fill-rule:nonzero;stroke:#000000;stroke-width:0.2;stroke-linecap:butt;stroke-linejoin:miter;stroke-miterlimit:4;stroke-dasharray:none;stroke-dashoffset:0"
       d="m 699.74623,337.69831 c 3.5765,1.77892 6.82334,3.58272 9.72808,5.32121 1.52466,0.91421 2.98696,1.82945 4.38592,2.73823 h -19.21491 c 1.79924,-2.64147 3.50018,-5.32893 5.10091,-8.05944 z" /><path
       id="path1636"
       style="fill:none;fill-rule:nonzero;stroke:#000000;stroke-width:0.2;stroke-linecap:butt;stroke-linejoin:miter;stroke-miterlimit:4;stroke-dasharray:none;stroke-dashoffset:0"
       d="m 571.2628,337.73251 c 5.95876,10.15726 13.30147,19.72051 21.93483,28.53114 6.90734,7.05068 13.78543,12.76633 19.86522,17.24461 v 7.07481 c -24.23444,-4.40931 -46.02265,-15.83582 -63.18213,-32.1001 v -7.65422 c 5.61081,-4.14808 12.77036,-8.79037 21.38208,-13.09623 z" /><path
       id="path1634"
       style="fill:none;fill-rule:nonzero;stroke:#000000;stroke-width:0.2;stroke-linecap:butt;stroke-linejoin:miter;stroke-miterlimit:4;stroke-dasharray:none;stroke-dashoffset:0"
       d="m 557.04388,336.21172 c -2.5588,1.54104 -4.94715,3.08037 -7.16316,4.58871 v -68.60184 h 2.82471 c 0.52248,19.20736 4.76452,37.45062 12.63282,54.28505 0.63755,1.3684 1.30931,2.72436 1.99662,4.0741 -3.78176,1.89088 -7.21831,3.80664 -10.29099,5.65398 z" /><path
       id="path1632"
       style="fill:none;fill-rule:nonzero;stroke:#000000;stroke-width:0.2;stroke-linecap:butt;stroke-linejoin:miter;stroke-miterlimit:4;stroke-dasharray:none;stroke-dashoffset:0"
       d="m 574.64959,327.13674 c -8.62403,-16.8251 -13.24549,-35.18965 -13.80218,-54.93815 h 52.21544 v 43.89101 c -14.81026,2.2054 -27.70621,6.37648 -38.41326,11.04714 z" /><path
       id="path1630"
       style="fill:none;fill-rule:nonzero;stroke:#000000;stroke-width:0.2;stroke-linecap:butt;stroke-linejoin:miter;stroke-miterlimit:4;stroke-dasharray:none;stroke-dashoffset:0"
       d="m 557.04388,200.04659 c 3.07268,1.85045 6.50923,3.7631 10.29099,5.65709 -0.68731,1.34974 -1.35596,2.7057 -1.99662,4.0741 -7.86519,16.83132 -12.10723,35.07769 -12.63282,54.28505 h -2.82471 v -68.60495 c 2.21601,1.50834 4.60437,3.04767 7.16316,4.58871 z" /><path
       id="path1626"
       style="fill:none;fill-rule:nonzero;stroke:#000000;stroke-width:0.2;stroke-linecap:butt;stroke-linejoin:miter;stroke-miterlimit:4;stroke-dasharray:none;stroke-dashoffset:0"
       d="m 639.56152,213.63418 v -29.37311 h 40.19295 c 4.12321,4.9167 7.83019,10.00231 11.12154,15.25143 v 3.07634 c -14.11098,5.91479 -31.32503,10.49274 -51.31449,11.04534 z" /><path
       id="path1624"
       style="fill:none;fill-rule:nonzero;stroke:#000000;stroke-width:0.2;stroke-linecap:butt;stroke-linejoin:miter;stroke-miterlimit:4;stroke-dasharray:none;stroke-dashoffset:0"
       d="m 613.06285,247.40894 v 16.657 h -52.21544 c 0.55669,-19.75161 5.17815,-38.11616 13.80218,-54.94126 14.92178,6.50923 34.09182,12.04814 56.77616,12.64837 v 25.63589 z" /><path
       id="path1622"
       style="fill:none;fill-rule:nonzero;stroke:#000000;stroke-width:0.2;stroke-linecap:butt;stroke-linejoin:miter;stroke-miterlimit:4;stroke-dasharray:none;stroke-dashoffset:0"
       d="m 690.87601,247.40894 h -51.3145 v -25.63589 c 20.00611,-0.52936 37.27877,-4.90008 51.3145,-10.38994 z" /><path
       id="path1620"
       style="fill:none;fill-rule:nonzero;stroke:#000000;stroke-width:0.2;stroke-linecap:butt;stroke-linejoin:miter;stroke-miterlimit:4;stroke-dasharray:none;stroke-dashoffset:0"
       d="m 690.87601,184.26107 v 0.9684 c -0.24225,-0.32356 -0.48604,-0.64636 -0.73134,-0.9684 z" /><path
       id="path1618"
       style="fill:none;fill-rule:nonzero;stroke:#000000;stroke-width:0.2;stroke-linecap:butt;stroke-linejoin:miter;stroke-miterlimit:4;stroke-dasharray:none;stroke-dashoffset:0"
       d="m 613.06285,184.17807 v 0.083 h 18.3629 v 29.37 c -21.03293,-0.58779 -38.86567,-5.6602 -52.82024,-11.65939 3.66971,-6.15437 7.90151,-12.08838 12.69445,-17.79361 z" /><path
       id="path1616"
       style="fill:none;fill-rule:nonzero;stroke:#000000;stroke-width:0.2;stroke-linecap:butt;stroke-linejoin:miter;stroke-miterlimit:4;stroke-dasharray:none;stroke-dashoffset:0"
       d="m 549.88072,184.17807 h 31.02501 c -3.54222,4.64236 -6.76759,9.4432 -9.66469,14.38505 -3.5765,-1.77892 -6.82334,-3.58272 -9.72808,-5.32121 -4.40646,-2.64219 -8.29203,-5.293 -11.63223,-7.77138 z" /><path
       id="path1614"
       style="fill:none;fill-rule:nonzero;stroke:#000000;stroke-width:0.2;stroke-linecap:butt;stroke-linejoin:miter;stroke-miterlimit:4;stroke-dasharray:none;stroke-dashoffset:0"
       d="m 649.89092,285.23587 h 59.26661 c -1.84107,14.84644 -6.12405,28.83766 -12.81986,41.90087 -12.60032,-5.49656 -28.22989,-10.30122 -46.44675,-12.02457 z" /><path
       id="path1612"
       style="fill:none;fill-rule:nonzero;stroke:#000000;stroke-width:0.2;stroke-linecap:butt;stroke-linejoin:miter;stroke-miterlimit:4;stroke-dasharray:none;stroke-dashoffset:0"
       d="m 649.89092,345.75774 v -22.46799 c 16.58759,1.6594 30.88133,6.00897 42.49083,10.99999 -2.3329,3.91245 -4.89296,7.73583 -7.67994,11.468 z" /><path
       id="path1610"
       style="fill:none;fill-rule:nonzero;stroke:#000000;stroke-width:0.2;stroke-linecap:butt;stroke-linejoin:miter;stroke-miterlimit:4;stroke-dasharray:none;stroke-dashoffset:0"
       d="m 731.45108,345.75774 h -3.49265 c -3.88582,-2.9844 -8.56362,-6.25978 -14.01505,-9.54291 -3.07268,-1.85045 -6.50923,-3.7631 -10.29099,-5.65709 0.68731,-1.34974 1.35907,-2.7057 1.99662,-4.0741 6.06667,-12.97741 9.9776,-26.79604 11.69001,-41.24777 h 41.45444 c -3.22057,23.43544 -12.96462,44.78944 -27.34238,62.17404 z" /></g><path
     style="fill:none;fill-rule:nonzero;stroke:#000000;stroke-width:1;stroke-linecap:butt;stroke-linejoin:miter;stroke-miterlimit:4;stroke-dasharray:none;stroke-dashoffset:0"
     vector-effect="non-scaling-stroke"
     d="M 459.14475,251.02307 V 41.92549 h -63.18213 v 0.083 h -77.81316 v 63.14787 h 77.81316 V 251.02207 H 277.96538 v -47.6009 h 81.38316 V 142.90029 H 250.37232 V 0.77357049 h 250.0005 V 251.02307 Z m -418.614845,-0.5 v 209.54258 0 2.21 H 181.49219 v -63.14787 h -77.78016 v -148.6037 h 118.38824 v 147.09871 h 28.27306 V 500.77358 H 0.37282512 V 250.52408 Z M 250.37333,397.62178 V 250.69592 l 27.59306,0.32715 V 397.62178 Z M 103.71204,250.52307 H 40.529905 V 41.84249 h 63.182135 v 0.083 h 77.81316 v 63.14787 h -77.81316 z m 292.25158,0.5 h 63.18213 v 209.12558 0 2.21 H 318.18347 v -63.14787 h 77.78016 z M 140.54011,142.90029 h 109.83322 v 107.83216 l -28.27306,-0.20938 v -47.10091 h -81.56016 z"
     stroke-linecap="round"
     id="path9" /><g
     transform="translate(116.15,373.84948)"
     id="c0b00tO_8cE5w4B_pmPeT">
<path
   style="opacity:1;fill:none;fill-rule:nonzero;stroke:#000000;stroke-width:1;stroke-linecap:butt;stroke-linejoin:miter;stroke-miterlimit:4;stroke-dasharray:none;stroke-dashoffset:0"
   vector-effect="non-scaling-stroke"
   transform="translate(-105.93,-116.11)"
   d="m 30.29344,204.56724 h 42.39404 v 24.1377 c 0,1.94193 -1.57329,3.51522 -3.51522,3.51522 H 25.77335 c -1.94193,0 -3.51522,-1.57329 -3.51522,-3.51522 V 114.56328 c 0,-1.94193 -1.57329,-3.51522 -3.51522,-3.51522 H 3.52093 c -3.19011,0 -4.72857,-3.90419 -2.39767,-6.08125 L 30.29344,77.72595 Z m 140.96228,0 v -63.14787 h -14.29805 c -1.17622,-8.40826 -8.39746,-14.87936 -17.12975,-14.87936 H 93.47556 V 18.72271 L 112.51021,0.94702 c 1.34978,-1.26269 3.44556,-1.26269 4.79533,0 l -10e-6,1e-5 94.55827,88.30417 v 21.79687 h -0.79097 c -1.94193,0 -3.51522,1.57329 -3.51522,3.51522 v 114.14456 c 0,1.94193 -1.57329,3.51522 -3.51522,3.51522 h -43.40181 c -1.94193,0 -3.51522,-1.57329 -3.51522,-3.51522 v -24.14061 z"
   stroke-linecap="round"
   id="path12" />
</g><g
     transform="translate(372.63839,125.74075)"
     id="mC6AR_WomJgsUPsoQxUgQ">
<path
   style="opacity:1;fill:none;fill-rule:nonzero;stroke:#000000;stroke-width:1;stroke-linecap:butt;stroke-linejoin:miter;stroke-miterlimit:4;stroke-dasharray:none;stroke-dashoffset:0"
   vector-effect="non-scaling-stroke"
   transform="translate(-115.7,-115.62)"
   d="M 202.22732,31.78912 H 180.8646 l 1.09787,-3.17806 37.89867,-26.03725 8.67908,8.67908 -26.03725,37.89867 -0.27565,0.10209 z m -140.99529,0.083 v 59.83259 c -8.0222,-5.70238 -12.6523,-8.11934 -12.6523,-8.11934 0,0 -29.50889,5.78606 -41.081,-15.62235 C -2.91617,48.86903 0.55546,24.8569 0.55546,24.8569 L 26.30341,58.70533 52.62997,52.62997 58.70533,26.30341 24.8569,0.55546 c 0,0 24.01213,-3.47163 43.10612,6.94327 10.49995,5.67565 14.45827,15.66599 15.76599,24.37339 z m 77.81316,63.14787 v 7.21558 l -5.92826,5.86165 c 1.91203,1.78692 3.88766,3.59618 5.92826,5.42512 v 57.27073 c -10.98689,-14.62483 -21.5601,-27.05731 -31.3605,-37.54939 l -5.25358,5.19455 v -5.67431 H 88.96815 l 9.24171,-9.32026 C 85.35026,110.60495 74.21476,101.35613 65.76873,95.01999 h 54.04809 c 1.06211,1.10047 2.15073,2.21374 3.26627,3.33904 l 3.3109,-3.33904 z M 21.04795,193.2848 h 52.65488 l -30.895,30.895 c -5.78606,5.78606 -14.75444,6.07536 -19.9619,0.57861 l -1.79798,-1.79798 z m 28.41384,-61.1033 c 2.60373,-2.60373 6.94327,-2.60373 9.25769,-0.2893 l 0.87172,0.87172 H 48.93673 c 0.16293,-0.20089 0.33803,-0.39539 0.52506,-0.58242 z m 174.43544,31.25142 c 10.4149,19.09399 6.94327,43.10612 6.94327,43.10612 l -25.74795,-33.84843 -2.86523,0.66121 v -23.17497 c 7.74347,0.29466 15.76226,2.32691 21.66991,13.25607 z m -17.35817,67.40756 c 0,0 -1.60369,0.23186 -4.31174,0.39598 v -3.67585 z"
   stroke-linecap="round"
   id="path15" />
</g><g
     transform="translate(356.38283,358.94948)"
     id="4V1RMnUdGpRiipX-pj-y9">
<path
   style="opacity:1;fill:none;fill-rule:nonzero;stroke:#000000;stroke-width:1;stroke-linecap:butt;stroke-linejoin:miter;stroke-miterlimit:4;stroke-dasharray:none;stroke-dashoffset:0"
   vector-effect="non-scaling-stroke"
   transform="translate(-102.85,-103.44)"
   d="m 205.69446,206.88176 h -30.27654 l -12.13938,-12.13938 c -1.7748,-1.7748 -4.62366,-2.28888 -6.87888,-1.22706 -2.24604,1.0557 -4.56858,2.01654 -6.90642,2.85804 -2.3868,0.85986 -3.99024,3.16404 -3.99024,5.73138 v 4.77702 H 99.30006 v -4.77702 c 0,-2.56734 -1.6065,-4.87152 -3.9933,-5.73138 -2.33478,-0.83844 -4.66038,-1.80234 -6.90336,-2.85804 -2.25828,-1.06182 -5.10408,-0.54774 -6.87888,1.22706 l -12.13938,12.13938 h -4.65297 v -63.14787 h 27.586 c 6.85645,9.13676 17.77855,15.04737 30.08182,15.04737 20.75904,0 37.58598,-16.82694 37.58598,-37.58598 0,-13.36099 -6.97056,-25.0931 -17.47365,-31.75831 l -10e-6,-89.43698 c 1.8031,1.23965 2.98761,3.3174 2.98761,5.66805 v 34.61472 c 0,2.56734 1.6065,4.87152 3.9933,5.73138 2.33478,0.83844 4.66038,1.80234 6.90336,2.85804 2.25828,1.06182 5.10408,0.54774 6.87888,-1.22706 l 24.48,-24.48 c 1.29744,-1.29744 3.02328,-2.01348 4.85928,-2.01348 1.836,0 3.56184,0.71604 4.85928,2.01348 l 8.22042,8.22042 v 39.18385 l -9.74736,9.74736 c -1.81458,1.81458 -2.30724,4.58082 -1.22706,6.87888 1.0557,2.23992 2.01654,4.56246 2.8611,6.90336 0.8568,2.38986 3.16098,3.9933 5.72832,3.9933 h 2.385 v 46.20294 h -2.38194 c -2.56734,0 -4.87152,1.6065 -5.73138,3.9933 -0.8415,2.3409 -1.8054,4.66344 -2.85804,6.90336 -1.08018,2.29806 -0.58752,5.0643 1.22706,6.87888 l 9.7443,9.7443 z M 24.5151,142.14489 H 1.88218 C 0.71592,140.91328 0,139.25151 0,137.42552 v -32.46048 c 0,-3.78828 3.08142,-6.8697 6.87276,-6.8697 H 24.5151 Z M 24.36984,55.83981 c -1.3005,-1.29744 -2.01348,-3.02328 -2.01348,-4.85928 0,-1.836 0.71604,-3.56184 2.01348,-4.85928 l 0.14526,-0.14526 v 10.00907 z"
   stroke-linecap="round"
   id="path18" />
</g><g
     transform="translate(250.27607,250.79983)"
     id="CyOWEHHngiVaaiCYIc7hO">
<path
   style="opacity:1;fill:none;fill-rule:nonzero;stroke:#000000;stroke-width:1;stroke-linecap:butt;stroke-linejoin:miter;stroke-miterlimit:4;stroke-dasharray:none;stroke-dashoffset:0"
   vector-effect="non-scaling-stroke"
   transform="translate(-250,-250)"
   d="M 0,0 H 500 V 500 H 0 Z"
   stroke-linecap="round"
   id="path21" />
</g></g>
</svg>
